<svg xmlns="http://www.w3.org/2000/svg" version="1.0" width="438.000000" height="320.000000" preserveAspectRatio="xMidYMid meet" style=""><rect id="backgroundrect" width="100%" height="100%" x="0" y="0" fill="none" stroke="none"/>
<metadata>
Created by potrace 1.15, written by Peter Selinger 2001-2017
</metadata>

<g class="currentLayer" style=""><title>Layer 1</title><g transform="translate(0,320) scale(0.10000000149011612,-0.10000000149011612) " fill="#3377ff" stroke="none" id="svg_1" class="" fill-opacity="1">
<path d="M1277 2192 c-339 -666 -510 -1001 -658 -1289 -76 -149 -139 -274 -139 -277 0 -3 107 -6 238 -6 l237 0 90 181 c50 99 93 183 96 185 4 2 36 -10 71 -26 169 -79 387 -79 556 0 35 16 65 30 66 30 0 0 44 -83 96 -185 l95 -185 238 0 c130 0 237 1 237 3 0 1 -126 250 -281 552 -154 303 -350 687 -436 855 -164 323 -293 570 -296 570 -1 0 -95 -183 -210 -408z m312 -710 c52 -105 91 -194 87 -201 -4 -6 -26 -21 -49 -33 -83 -42 -249 -32 -314 19 l-22 18 97 192 c53 106 99 193 102 193 3 0 48 -85 99 -188z" id="svg_2" fill="#3377ff"/>
<path d="M2237 2518 c-25 -46 -77 -147 -116 -225 l-71 -143 382 -765 383 -765 237 0 c131 0 238 3 238 6 0 5 -998 1964 -1005 1972 -2 2 -23 -34 -48 -80z" id="svg_3" fill="#3377ff"/>
<path d="M2958 2378 l-115 -223 384 -767 383 -768 240 0 241 0 -54 103 c-30 56 -247 480 -482 942 -236 462 -441 862 -456 888 l-27 49 -114 -224z" id="svg_4" fill="#3377ff"/>
</g></g></svg>