<svg id="Layer_1" enable-background="new 0 0 64 64" height="512" viewBox="0 0 64 64" width="512" xmlns="http://www.w3.org/2000/svg"><path d="m48.3 34.6-10.3-3.6h-12l-10.3 3.6c-4 1.4-6.7 5.2-6.7 9.4v17h46v-16.9c0-4.3-2.7-8-6.7-9.5z" fill="#3a3a51"/><path d="m43 32.8-5-1.8h-12l-5 1.8v.2l2 28h18l2-28z" fill="#d6d7d8"/><path d="m21 32.8-4 1.4-2 8.8 3 2-1 3 5 13h1l-2-28z" fill="#5b627c"/><path d="m46 45 3-2-2-8.8-4-1.4v.2l-2 28h1l5-13z" fill="#5b627c"/><path d="m31 46h2v15h-2z" fill="#b4b4b5"/><path d="m32 40.5-2.1-2.2c-.2-.2-.4-.3-.7-.3h-2.2c-.6 0-1 .4-1 1v3c0 .6.4 1 1 1h2.2c.3 0 .5-.1.7-.3z" fill="#e23333"/><path d="m32 40.5 2.1-2.2c.2-.2.4-.3.7-.3h2.2c.6 0 1 .4 1 1v3c0 .6-.4 1-1 1h-2.2c-.3 0-.5-.1-.7-.3z" fill="#e23333"/><path d="m21.6 17.5c-.9-.3-2 .1-2.4 1-.1.3-.2.6-.2.9v2.3c0 .8.4 1.5 1.1 1.8l2.9 1.5v-7z" fill="#d8ac9e"/><path d="m44.8 18.6c-.5-.9-1.5-1.3-2.4-1l-1.4.4v7l2.9-1.4c.7-.3 1.1-1 1.1-1.8v-2.3c0-.3-.1-.6-.2-.9z" fill="#d8ac9e"/><path d="m23 13v11.4c0 3.8 2.2 7.3 5.6 9 2.1 1 4.6 1 6.7 0 3.4-1.7 5.6-5.2 5.6-9v-11.4z" fill="#f7d2c4"/><path d="m23 16 6.3-1.6c3.7-.9 7.6-.5 11 1.2l.7.4v-14c0 2.2-1.8 4-4 4h-10c-2.2 0-4 1.8-4 4z" fill="#ddad6f"/><path d="m37 47v12c0 1.1.9 2 2 2h16c1.1 0 2-.9 2-2v-12z" fill="#2b2b2b"/><path d="m37 47 20-6-.6-2.8c-.2-1.1-1.3-1.8-2.4-1.6-.1 0-.1 0-.2 0l-16.2 4.8c-1 .3-1.6 1.3-1.4 2.3z" fill="#b4b4b5"/><path d="m37 47h20v4h-20z" fill="#b4b4b5"/><path d="m43 51 2-4h-8v4z" fill="#3f3f3f"/><path d="m50 51 2-4h5v4z" fill="#3f3f3f"/><path d="m40 55h6v2h-6z" fill="#b4b4b5"/><path d="m48 55h3v2h-3z" fill="#b4b4b5"/><g fill="#3f3f3f"><path d="m53 42.2 4-1.2-.6-2.8c-.2-1.1-1.3-1.8-2.4-1.6-.1 0-.1 0-.2 0l-5.5 1.7z"/><path d="m41.4 40.4-3.7 1.1c-1 .3-1.6 1.3-1.4 2.3l.7 3.2 9.1-2.7z"/></g></svg>