<?xml version="1.0" standalone="no"?>
<!DOCTYPE svg PUBLIC "-//W3C//DTD SVG 20010904//EN"
 "http://www.w3.org/TR/2001/REC-SVG-20010904/DTD/svg10.dtd">
<svg version="1.0" xmlns="http://www.w3.org/2000/svg"
 width="108.000000pt" height="40.000000pt" viewBox="0 0 108.000000 40.000000"
 preserveAspectRatio="xMidYMid meet">
<metadata>
Created by potrace 1.16, written by Peter Selinger 2001-2019
</metadata>
<g transform="translate(0.000000,40.000000) scale(0.100000,-0.100000)"
fill="#000000" stroke="none">
<path d="M79 331 c-22 -23 -29 -39 -29 -70 l0 -41 35 18 c19 9 35 22 35 29 0
7 9 17 19 23 16 8 23 5 38 -13 17 -21 66 -57 78 -57 11 0 4 62 -10 90 -19 37
-43 50 -95 50 -33 0 -48 -6 -71 -29z"/>
</g>
</svg>
