<?xml version="1.0" standalone="no"?>
<!DOCTYPE svg PUBLIC "-//W3C//DTD SVG 20010904//EN"
 "http://www.w3.org/TR/2001/REC-SVG-20010904/DTD/svg10.dtd">
<svg version="1.0" xmlns="http://www.w3.org/2000/svg"
 width="2836.000000pt" height="1050.000000pt" viewBox="0 0 2836.000000 1050.000000"
 preserveAspectRatio="xMidYMid meet">
<metadata>
Created by potrace 1.16, written by Peter Selinger 2001-2019
</metadata>
<g transform="translate(0.000000,1050.000000) scale(0.100000,-0.100000)"
fill="#000000" stroke="none">
<path d="M3865 9583 c-478 -39 -904 -170 -1265 -386 -278 -167 -589 -462 -803
-760 -229 -319 -407 -715 -488 -1087 -59 -274 -62 -310 -66 -952 -4 -558 -3
-598 12 -598 37 0 231 72 326 121 61 31 184 114 321 216 123 91 262 189 309
218 267 165 491 239 769 252 l125 6 -3 116 c-5 190 22 295 115 434 123 187
433 433 740 589 l83 43 97 -50 c117 -60 329 -198 438 -285 168 -134 303 -296
366 -440 22 -50 24 -71 27 -232 3 -141 6 -178 17 -178 433 0 702 -107 1183
-469 196 -147 280 -202 376 -246 83 -38 251 -95 279 -95 18 0 19 14 14 593 -4
541 -6 604 -26 732 -101 663 -407 1261 -877 1715 -335 324 -721 538 -1179 655
-293 75 -638 109 -890 88z"/>
<path d="M23047 7884 c-376 -68 -606 -366 -548 -711 45 -265 257 -419 711
-518 155 -34 313 -85 393 -127 84 -44 159 -120 176 -178 59 -198 -23 -386
-209 -480 -181 -91 -460 -85 -675 14 -91 42 -205 120 -265 181 -24 25 -49 45
-55 45 -6 0 -53 -43 -105 -96 l-95 -96 55 -50 c158 -145 348 -253 535 -304 92
-26 115 -28 295 -28 175 -1 203 1 275 22 147 42 239 95 341 197 141 141 196
272 196 469 0 304 -140 483 -479 612 -37 14 -172 52 -300 84 -253 64 -352 101
-428 158 -69 51 -95 106 -95 198 0 128 73 234 204 295 85 40 163 52 276 45
178 -11 324 -69 485 -191 l30 -24 50 62 c28 34 67 83 88 108 l37 47 -77 57
c-242 177 -553 257 -816 209z"/>
<path d="M9677 7828 c-20 -46 -793 -1855 -884 -2068 -41 -96 -77 -181 -80
-187 -4 -10 29 -13 144 -13 l150 0 295 683 c163 375 347 800 409 945 63 144
116 262 119 262 3 0 189 -425 414 -945 l409 -945 150 0 c115 0 148 3 144 13
-6 15 -560 1312 -802 1877 l-174 405 -140 3 -141 3 -13 -33z"/>
<path d="M11772 6713 l3 -1148 763 -3 762 -2 0 140 0 140 -625 0 -625 0 0 365
0 365 465 0 465 0 0 140 0 140 -465 0 -465 0 0 365 0 365 625 0 625 0 0 140 0
140 -765 0 -765 0 2 -1147z"/>
<path d="M14320 6710 l0 -1150 135 0 135 0 0 925 c0 509 3 925 8 924 4 0 266
-385 582 -855 316 -470 597 -886 623 -924 l48 -70 155 0 154 0 0 1150 0 1150
-135 0 -135 0 0 -920 c0 -506 -3 -920 -8 -920 -4 0 -286 414 -627 920 l-620
919 -157 1 -158 0 0 -1150z"/>
<path d="M17352 6713 l3 -1148 760 0 760 0 3 138 3 137 -626 0 -625 0 0 365 0
365 463 2 462 3 3 138 3 137 -466 0 -465 0 0 365 0 365 623 2 622 3 3 138 3
137 -766 0 -765 0 2 -1147z"/>
<path d="M20522 7843 c-6 -10 -75 -171 -155 -358 -80 -187 -296 -694 -481
-1127 -185 -433 -336 -789 -336 -792 0 -4 65 -6 145 -6 l144 0 15 28 c12 24
149 337 739 1700 38 90 74 159 78 155 4 -4 190 -429 413 -943 l405 -935 145
-3 c113 -2 146 0 146 10 0 7 -18 53 -39 103 -22 49 -218 509 -436 1020 -219
512 -420 983 -447 1048 l-51 117 -138 0 c-122 0 -139 -2 -147 -17z"/>
<path d="M18935 4290 c-235 -25 -447 -146 -567 -323 -196 -289 -224 -753 -64
-1082 83 -173 188 -280 351 -360 116 -57 191 -75 345 -82 153 -7 259 11 367
63 77 37 171 116 219 185 l29 42 6 -39 c4 -21 10 -83 14 -136 l7 -98 109 0
109 0 0 480 0 480 -345 0 -345 0 0 -110 0 -110 211 0 210 0 -6 -47 c-24 -188
-86 -302 -205 -382 -157 -104 -408 -119 -590 -34 -78 37 -198 159 -238 243
-59 125 -76 216 -76 395 1 180 18 265 76 385 41 86 160 206 241 244 115 54
266 70 400 41 157 -33 283 -130 353 -272 22 -43 40 -80 41 -82 2 -3 214 83
236 96 13 8 -75 161 -131 229 -129 157 -307 249 -527 274 -99 11 -126 11 -230
0z"/>
<path d="M16838 4280 c-171 -31 -292 -94 -413 -215 -101 -101 -143 -166 -191
-293 -52 -140 -67 -227 -67 -402 0 -119 5 -177 20 -251 71 -330 270 -560 558
-644 70 -21 120 -28 225 -32 290 -12 477 54 650 227 153 153 225 319 252 581
21 208 -12 418 -95 593 -98 206 -270 353 -489 417 -59 17 -105 22 -238 25 -91
1 -186 -1 -212 -6z m337 -245 c152 -39 265 -132 333 -275 65 -138 77 -198 76
-400 0 -161 -3 -182 -28 -265 -37 -120 -79 -196 -147 -264 -111 -111 -240
-157 -419 -148 -168 8 -264 50 -368 161 -68 73 -112 156 -144 273 -31 114 -31
382 0 498 62 227 190 368 382 419 74 20 240 20 315 1z"/>
<path d="M13220 3365 l0 -907 403 5 c446 4 455 6 591 74 287 145 353 531 131
771 -30 32 -79 72 -109 88 l-55 30 47 34 c131 98 188 272 148 453 -29 131
-114 235 -237 291 -123 57 -145 59 -546 64 l-373 4 0 -907z m755 635 c136 -52
193 -172 150 -317 -11 -36 -28 -62 -59 -91 -68 -63 -113 -72 -358 -72 l-208 0
0 256 0 256 208 -4 c184 -5 214 -8 267 -28z m59 -740 c63 -24 123 -78 151
-135 43 -90 25 -240 -37 -311 -69 -78 -140 -94 -428 -94 l-220 0 0 280 0 280
240 0 c216 0 244 -2 294 -20z"/>
<path d="M14920 3365 l0 -905 530 0 530 0 0 130 0 130 -392 2 -393 3 -3 773
-2 772 -135 0 -135 0 0 -905z"/>
</g>
</svg>
