<?xml version="1.0" encoding="utf-8"?>
<!-- Generator: Adobe Illustrator 24.0.3, SVG Export Plug-In . SVG Version: 6.00 Build 0)  -->
<svg version="1.1" id="Layer_1" xmlns="http://www.w3.org/2000/svg" xmlns:xlink="http://www.w3.org/1999/xlink" x="0px" y="0px"
	 viewBox="0 0 850.4 850.4" style="enable-background:new 0 0 850.4 850.4;" xml:space="preserve">
<g id="Layer_31">
	<g>
		<path d="M608.1,242.3c-48.8-48.8-113.8-75.7-182.9-75.7s-134,26.9-182.9,75.7s-75.7,113.8-75.7,182.9s26.9,134,75.7,182.9
			s113.8,75.7,182.9,75.7s134-26.9,182.9-75.7s75.7-113.8,75.7-182.9S656.9,291.2,608.1,242.3z M547.1,461.3c0,8-4,12.3-11.3,12.4
			c-9.4,0.1-23.9-5.3-33.2-18.5c-10.6-15.1-9.7-30-22.7-38.8c-2.1-1.4-5-2.8-10.4-3.2c-1.2-0.1-6.1-0.2-6.1-0.2h-13.6v140.8
			c0,4.6-3.8,8.4-8.4,8.4H409c-4.6,0-8.4-3.8-8.4-8.4V413H387c0,0-4.9,0.1-6.1,0.2c-5.4,0.4-8.3,1.8-10.4,3.2
			c-13,8.8-12,23.7-22.7,38.8c-9.3,13.2-23.8,18.6-33.2,18.5c-7.2-0.1-11.3-4.3-11.3-12.4v-42.8c0-13.9,11.3-25.2,25.2-25.2h28.7
			h43.4v-96.6c0-4.6,3.8-8.4,8.4-8.4h32.4c4.6,0,8.4,3.8,8.4,8.4v96.6h43.4h28.7c13.9,0,25.2,11.3,25.2,25.2V461.3z"/>
	</g>
</g>
</svg>
