<?xml version="1.0" encoding="UTF-8" standalone="no"?><!-- Generator: Gravit.io --><svg xmlns="http://www.w3.org/2000/svg" xmlns:xlink="http://www.w3.org/1999/xlink" style="isolation:isolate" viewBox="0 0 150 40" width="150pt" height="40pt"><defs><clipPath id="_clipPath_RXAJ1EyaKoilPzfndnR1MYCMhb9kjed3"><rect width="150" height="40"/></clipPath></defs><g clip-path="url(#_clipPath_RXAJ1EyaKoilPzfndnR1MYCMhb9kjed3)"><g><linearGradient id="_lgradient_0" x1="0" y1="0.5" x2="0.9063077870366499" y2="0.9226182617406995" gradientTransform="matrix(150,0,0,118,0,-36)" gradientUnits="userSpaceOnUse"><stop offset="0%" stop-opacity="1" style="stop-color:rgb(81,164,251)"/><stop offset="80.40997738352704%" stop-opacity="1" style="stop-color:rgb(81,164,251)"/></linearGradient><rect x="0" y="-36" width="150" height="118" transform="matrix(1,0,0,1,0,0)" fill="url(#_lgradient_0)"/><g><path d=" M 65.034 15.183 L 63.405 22.866 L 67.159 22.866 C 69.214 22.866 70.485 21.923 70.485 20.476 C 70.485 19.666 69.909 19.17 68.896 19.013 L 68.906 18.958 C 70.257 18.69 70.922 18.014 70.922 16.952 C 70.922 15.883 70.009 15.183 68.33 15.183 L 65.034 15.183 Z  M 66.712 21.718 L 65.659 21.718 L 66.116 19.532 L 67.258 19.532 C 68.092 19.532 68.44 19.736 68.44 20.248 C 68.44 20.334 68.4 20.499 68.37 20.633 L 68.311 20.892 C 68.191 21.49 67.635 21.718 66.712 21.718 Z  M 67.149 18.439 L 66.354 18.439 L 66.801 16.323 L 67.685 16.323 C 68.42 16.323 68.837 16.504 68.837 17 C 68.837 17.094 68.817 17.275 68.797 17.338 L 68.747 17.605 C 68.608 18.266 68.122 18.439 67.149 18.439 Z  M 76.294 21.514 L 76.016 22.866 L 78.042 22.866 L 79.244 17.188 L 77.208 17.188 L 76.582 20.145 C 76.483 20.609 76.136 21.026 75.927 21.246 C 75.609 21.577 75.282 21.765 74.805 21.765 C 74.179 21.765 73.971 21.388 73.971 21.097 C 73.971 20.822 74.03 20.601 74.07 20.397 L 74.745 17.188 L 72.72 17.188 L 72.084 20.216 C 71.965 20.743 71.925 21.042 71.925 21.356 C 71.925 22.237 72.481 23 73.891 23 C 75.023 23 75.679 22.434 76.225 21.514 L 76.294 21.514 Z  M 84.318 16.433 C 85.152 16.433 85.52 16.174 85.619 15.71 C 85.679 15.442 85.689 15.348 85.689 15.269 C 85.689 14.884 85.381 14.601 84.547 14.601 C 83.712 14.601 83.345 14.861 83.246 15.325 C 83.186 15.592 83.176 15.686 83.176 15.765 C 83.176 16.15 83.484 16.433 84.318 16.433 Z  M 83.742 23 C 84.705 23 85.48 22.567 86.413 21.734 L 87.257 20.963 L 86.145 20.177 L 84.199 21.757 L 83.971 21.702 L 85.033 17.188 L 80.813 17.188 L 80.545 18.439 L 82.719 18.439 L 82.163 20.798 C 82.044 21.246 82.024 21.435 82.024 21.679 C 82.024 22.481 82.6 23 83.742 23 Z  M 91.696 23 C 92.66 23 93.434 22.567 94.368 21.734 L 95.212 20.963 L 94.099 20.177 L 92.153 21.757 L 91.945 21.702 L 93.573 14.719 L 89.412 14.719 L 89.154 15.977 L 91.269 15.977 L 90.137 20.798 C 90.028 21.246 89.998 21.435 89.998 21.679 C 89.998 22.481 90.554 23 91.696 23 Z  M 101.388 21.514 L 101.11 22.866 L 103.136 22.866 L 104.844 14.719 L 102.818 14.719 L 102.083 18.242 L 101.984 18.242 C 101.776 17.495 101.229 17.055 100.107 17.055 C 98.121 17.055 96.81 18.541 96.81 20.798 C 96.81 22.127 97.396 23 98.916 23 C 100.137 23 100.773 22.379 101.319 21.514 L 101.388 21.514 Z  M 99.819 21.757 C 99.124 21.757 98.886 21.333 98.866 20.798 C 98.866 20.609 98.896 20.436 98.926 20.303 L 99.065 19.642 C 99.243 18.785 99.76 18.297 100.763 18.297 C 101.636 18.297 101.994 18.635 101.875 19.233 L 101.676 20.145 C 101.577 20.617 101.249 21.002 101.021 21.215 C 100.693 21.545 100.316 21.757 99.819 21.757 Z  M 106.562 20.279 L 110.961 20.279 L 111.289 18.738 L 106.88 18.738 L 106.562 20.279 Z  M 113.414 22.866 L 119.67 22.866 L 119.918 21.655 L 117.823 21.655 L 118.935 16.394 L 121.03 16.394 L 121.279 15.183 L 115.022 15.183 L 114.774 16.394 L 116.869 16.394 L 115.757 21.655 L 113.662 21.655 L 113.414 22.866 Z  M 125.171 23 C 126.164 23 126.83 22.615 128.011 21.813 L 128.845 21.238 L 127.842 20.334 L 125.678 21.687 L 125.4 21.608 L 126.065 18.439 L 128.875 18.439 L 129.133 17.188 L 126.323 17.188 L 126.74 15.183 L 124.853 15.183 L 124.575 16.528 C 124.476 17.023 124.198 17.188 123.602 17.188 L 122.45 17.188 L 122.182 18.439 L 124.019 18.439 L 123.503 20.861 C 123.433 21.191 123.404 21.388 123.404 21.592 C 123.404 22.434 123.95 23 125.171 23 Z " fill="rgb(255,255,255)"/></g><g><path d=" M 32.025 24.179 L 32.025 29.459 C 33.174 29.459 33.863 29.459 35.283 29.451 C 35.601 27.61 37.581 26.234 39.928 26.224 C 42.295 26.224 44.248 27.632 44.569 29.441 L 54.821 29.43 L 54.821 30.63 L 56.039 30.63 L 56.039 29.43 L 56.948 29.43 L 56.948 28.465 L 52.693 28.465 L 52.693 24.179 L 32.025 24.179 Z  M 24.733 12.625 C 22.045 12.625 19.867 14.35 19.867 16.478 L 19.867 23.218 L 24.122 23.218 L 24.122 16.486 C 24.122 15.947 24.668 15.514 25.339 15.514 L 30.807 15.514 C 31.483 15.514 32.025 15.951 32.025 16.486 L 32.025 23.218 L 52.693 23.218 L 52.693 12.628 L 24.733 12.625 Z  M 36.28 15.514 L 48.438 15.514 C 49.114 15.514 49.656 15.943 49.656 16.478 L 49.656 19.364 C 49.657 19.62 49.529 19.866 49.301 20.047 C 49.072 20.228 48.762 20.329 48.438 20.328 L 36.28 20.328 C 35.957 20.328 35.648 20.227 35.421 20.046 C 35.193 19.865 35.066 19.62 35.067 19.364 L 35.067 16.478 C 35.067 15.943 35.609 15.514 36.28 15.514 Z  M 19.867 24.179 L 19.867 27.548 C 19.867 28.611 20.956 29.477 22.302 29.477 L 24.122 29.47 L 24.122 24.179 L 19.867 24.179 Z " fill-rule="evenodd" fill="rgb(255,255,255)"/><path d=" M 39.928 27.068 C 37.913 27.068 36.28 28.361 36.28 29.957 C 36.283 31.552 37.915 32.843 39.928 32.843 C 41.942 32.843 43.574 31.552 43.577 29.957 C 43.577 29.191 43.193 28.456 42.508 27.914 C 41.824 27.372 40.896 27.068 39.928 27.068 Z  M 39.928 28.633 C 40.852 28.633 41.601 29.226 41.601 29.957 C 41.601 30.689 40.852 31.282 39.928 31.282 C 39.005 31.282 38.256 30.689 38.256 29.957 C 38.256 29.226 39.005 28.633 39.928 28.633 Z " fill="rgb(255,255,255)"/><path d=" M 28.988 23.214 L 28.988 24.179 L 30.201 24.179 L 30.201 23.214 L 28.988 23.214 Z  M 41.753 16.235 L 41.753 19.604 L 42.97 19.604 L 42.97 16.235 L 41.753 16.235 Z " fill-rule="evenodd" fill="rgb(255,255,255)"/></g><g><path d=" M 63.405 30.68 C 63.405 30.747 63.41 30.774 63.499 30.774 C 63.579 30.774 64.19 30.751 64.384 30.751 C 64.811 30.751 65.249 30.774 65.671 30.774 C 66.973 30.774 68.161 30.133 68.161 28.889 C 68.161 27.701 67.003 26.984 65.492 26.984 C 65.214 26.984 64.588 27.047 64.071 27.047 C 63.837 27.047 63.604 27.044 63.579 27.044 C 63.49 27.044 63.48 27.083 63.48 27.15 C 63.48 27.225 63.514 27.232 63.579 27.232 L 64.056 27.221 C 64.071 27.221 64.071 27.429 64.071 27.634 C 64.071 28.102 64.031 30.581 63.986 30.581 L 63.544 30.581 C 63.455 30.581 63.405 30.585 63.405 30.68 Z  M 64.682 30.263 C 64.682 29.499 64.682 28.736 64.692 27.98 C 64.692 27.756 64.712 27.197 64.732 27.193 C 64.881 27.166 65.169 27.158 65.343 27.158 C 66.62 27.158 67.42 28.039 67.42 28.818 C 67.42 29.298 67.395 30.597 65.075 30.597 C 64.941 30.597 64.742 30.597 64.692 30.581 C 64.682 30.574 64.682 30.416 64.682 30.263 Z  M 72.225 28.984 C 72.225 30.172 73.388 30.814 74.506 30.814 C 75.893 30.814 76.872 30.062 76.872 28.948 C 76.872 27.874 76.002 27 74.611 27 C 73.319 27 72.225 27.783 72.225 28.984 Z  M 72.921 28.834 C 72.921 27.996 73.562 27.185 74.541 27.185 C 75.654 27.185 76.191 28.063 76.191 28.901 C 76.191 29.743 75.639 30.625 74.516 30.625 C 73.527 30.625 72.921 29.822 72.921 28.834 Z  M 85.702 30.652 C 85.702 30.747 85.722 30.766 85.821 30.766 C 85.98 30.766 86.353 30.751 86.711 30.751 C 87.039 30.751 87.431 30.766 87.546 30.766 C 87.63 30.766 87.64 30.739 87.64 30.656 C 87.64 30.593 87.63 30.57 87.546 30.57 L 87.064 30.57 C 87.014 30.57 87.004 29.535 87.004 28.83 L 87.004 28.086 C 87.004 27.799 87.014 27.232 87.064 27.232 L 87.516 27.232 C 87.63 27.232 87.64 27.225 87.64 27.15 C 87.64 27.055 87.63 27.032 87.546 27.032 C 87.387 27.032 87.049 27.047 86.726 27.047 C 86.318 27.047 85.965 27.032 85.856 27.032 C 85.762 27.032 85.727 27.04 85.727 27.13 C 85.727 27.225 85.772 27.232 85.856 27.232 L 86.313 27.232 C 86.333 27.232 86.368 27.661 86.368 28.023 L 86.368 28.563 C 86.368 29.287 86.363 30.57 86.308 30.57 L 85.846 30.57 C 85.737 30.57 85.702 30.574 85.702 30.652 Z  M 91.432 27.748 C 91.432 27.811 91.526 27.811 91.586 27.811 C 91.665 27.811 91.685 27.803 91.69 27.732 L 91.745 27.307 C 91.755 27.276 92.023 27.252 92.401 27.252 L 93.389 27.252 C 93.414 27.252 93.429 27.488 93.429 27.732 C 93.429 28.307 93.404 30.57 93.34 30.57 L 92.907 30.57 C 92.798 30.57 92.778 30.574 92.778 30.652 C 92.778 30.747 92.783 30.766 92.883 30.766 C 93.042 30.766 93.529 30.751 93.737 30.751 C 93.946 30.751 94.413 30.766 94.572 30.766 C 94.657 30.766 94.667 30.739 94.667 30.656 C 94.667 30.593 94.657 30.57 94.572 30.57 L 94.075 30.57 C 94.065 30.57 94.065 30.404 94.065 30.227 C 94.065 29.539 94.105 28.122 94.105 28.106 C 94.11 27.815 94.11 27.252 94.16 27.252 L 94.96 27.252 C 95.318 27.252 95.725 27.264 95.725 27.291 C 95.725 27.347 95.705 27.705 95.705 27.732 C 95.705 27.791 95.74 27.811 95.829 27.811 C 95.929 27.811 95.964 27.811 95.964 27.756 C 95.964 27.323 95.988 27.114 95.988 27.012 C 95.988 26.933 95.949 26.933 95.849 26.933 C 95.775 26.933 95.745 26.949 95.74 27.02 C 95.74 27.047 95.422 27.067 95.005 27.067 L 92.52 27.067 C 92.192 27.067 91.789 27.067 91.789 27.04 L 91.789 26.984 C 91.789 26.933 91.725 26.933 91.675 26.933 C 91.566 26.933 91.551 26.957 91.546 27.032 C 91.516 27.307 91.432 27.732 91.432 27.748 Z  M 104.714 30.652 C 104.714 30.747 104.719 30.766 104.819 30.766 C 104.908 30.766 105.097 30.751 105.405 30.751 C 105.718 30.751 105.996 30.766 106.156 30.766 C 106.24 30.766 106.24 30.739 106.24 30.656 C 106.24 30.593 106.24 30.57 106.156 30.57 L 105.554 30.57 C 105.534 30.57 105.529 30.318 105.529 30.023 C 105.529 29.499 105.534 28.72 105.534 28.134 C 105.534 27.842 105.534 27.681 105.544 27.461 C 105.544 27.358 105.579 27.406 105.639 27.461 L 109.063 30.759 C 109.102 30.794 109.147 30.849 109.202 30.849 C 109.256 30.849 109.291 30.802 109.291 30.711 C 109.291 30.652 109.376 28.393 109.381 27.539 C 109.381 27.374 109.395 27.232 109.41 27.232 L 109.723 27.232 C 109.833 27.232 109.863 27.225 109.863 27.15 C 109.863 27.055 109.863 27.032 109.763 27.032 C 109.669 27.032 109.45 27.047 109.172 27.047 C 108.869 27.047 108.471 27.032 108.421 27.032 C 108.337 27.032 108.337 27.059 108.337 27.142 C 108.337 27.209 108.337 27.232 108.421 27.232 L 109.067 27.232 C 109.077 27.232 109.077 27.48 109.077 27.524 C 109.077 28.079 109.092 29.055 109.092 29.594 L 109.092 29.826 C 109.092 29.936 109.082 29.968 108.973 29.857 L 106.146 27.11 C 106.091 27.055 106.076 27.032 105.996 27.032 C 105.952 27.032 105.763 27.047 105.614 27.047 C 105.465 27.047 104.928 27.032 104.834 27.032 C 104.749 27.032 104.734 27.059 104.734 27.142 C 104.734 27.209 104.749 27.232 104.834 27.232 L 105.286 27.232 C 105.286 27.417 105.266 29.133 105.231 30.023 C 105.216 30.377 105.221 30.57 105.167 30.57 L 104.849 30.57 C 104.734 30.57 104.714 30.574 104.714 30.652 Z  M 113.893 28.984 C 113.893 30.172 115.05 30.814 116.174 30.814 C 117.555 30.814 118.539 30.062 118.539 28.948 C 118.539 27.874 117.669 27 116.278 27 C 114.981 27 113.893 27.783 113.893 28.984 Z  M 114.588 28.834 C 114.588 27.996 115.224 27.185 116.208 27.185 C 117.321 27.185 117.858 28.063 117.858 28.901 C 117.858 29.743 117.307 30.625 116.178 30.625 C 115.19 30.625 114.588 29.822 114.588 28.834 Z  M 122.216 27.158 C 122.216 27.252 122.276 27.26 122.355 27.26 L 122.609 27.26 C 122.648 27.26 123.712 30.101 123.727 30.133 C 123.901 30.554 123.955 30.888 124.109 30.888 C 124.224 30.888 124.268 30.762 124.408 30.601 C 124.487 30.518 124.537 30.503 124.606 30.365 L 125.59 28.315 C 125.625 28.252 125.64 28.216 125.655 28.216 C 125.67 28.216 125.685 28.252 125.705 28.315 C 126.003 29.125 126.336 30.117 126.346 30.133 C 126.52 30.554 126.574 30.888 126.728 30.888 C 126.838 30.888 126.887 30.762 127.026 30.601 C 127.101 30.518 127.151 30.503 127.22 30.365 L 128.756 27.374 C 128.805 27.276 128.805 27.26 128.989 27.26 C 129.104 27.26 129.133 27.236 129.133 27.166 C 129.133 27.083 129.113 27.059 129.014 27.059 C 128.944 27.059 128.79 27.075 128.542 27.075 C 128.174 27.075 127.921 27.059 127.826 27.059 C 127.737 27.059 127.687 27.067 127.687 27.158 C 127.687 27.252 127.742 27.26 127.826 27.26 L 128.279 27.26 C 128.313 27.26 128.318 27.276 128.318 27.331 C 128.318 27.598 127.528 29.208 127.17 29.96 C 127.101 30.101 127.066 30.172 127.046 30.172 C 127.016 30.172 126.992 30.101 126.927 29.948 C 126.887 29.83 126.425 28.602 126.162 27.831 C 126.142 27.764 126.037 27.417 126.037 27.291 C 126.037 27.276 126.037 27.268 126.042 27.26 L 126.485 27.26 C 126.574 27.26 126.624 27.252 126.624 27.177 C 126.624 27.083 126.599 27.059 126.505 27.059 C 126.346 27.059 125.878 27.075 125.67 27.075 C 125.461 27.075 125.009 27.059 124.895 27.059 C 124.805 27.059 124.755 27.067 124.755 27.158 C 124.755 27.252 124.815 27.26 124.895 27.26 L 125.292 27.26 C 125.312 27.26 125.406 27.457 125.481 27.677 C 125.511 27.764 125.531 27.803 125.531 27.842 C 125.531 27.866 125.531 27.894 125.511 27.937 L 124.512 29.948 C 124.467 30.034 124.452 30.086 124.432 30.086 C 124.408 30.086 124.398 30.042 124.353 29.948 C 124.313 29.838 123.811 28.637 123.513 27.831 C 123.493 27.776 123.329 27.335 123.324 27.291 C 123.329 27.26 123.354 27.26 123.374 27.26 L 123.722 27.26 C 123.831 27.26 123.866 27.252 123.866 27.177 C 123.866 27.083 123.846 27.059 123.747 27.059 C 123.588 27.059 123.235 27.075 123.026 27.075 C 122.817 27.075 122.47 27.059 122.355 27.059 C 122.266 27.059 122.216 27.067 122.216 27.158 Z " fill="rgb(255,255,255)"/></g></g></g></svg>