<?xml version="1.0" encoding="UTF-8"?>
<svg width="212px" height="40px" viewBox="0 0 212 40" version="1.1" xmlns="http://www.w3.org/2000/svg" xmlns:xlink="http://www.w3.org/1999/xlink">
    <!-- Generator: Sketch 52.4 (67378) - http://www.bohemiancoding.com/sketch -->
    <title>Big V</title>
    <desc>Created with Sketch.</desc>
    <g id="Page-1" stroke="none" stroke-width="1" fill="none" fill-rule="evenodd">
        <g id="Artboard-2" transform="translate(-115.000000, -187.000000)">
            <g id="Big-V" transform="translate(115.000000, 187.000000)">
                <path d="M71.8483294,25.6658824 L71.8483294,13.6635294 C71.8483294,13.5374118 71.7848,13.4734118 71.6591529,13.4734118 L59.6836235,13.4734118 C59.5565647,13.4734118 59.4935059,13.5374118 59.4935059,13.6635294 L59.4935059,25.6658824 C59.4935059,25.7929412 59.5565647,25.8555294 59.6836235,25.8555294 L71.6591529,25.8555294 C71.7848,25.8555294 71.8483294,25.7929412 71.8483294,25.6658824 Z M55.9085647,9.88941176 L71.6591529,9.88941176 C72.7076235,9.88941176 73.6040941,10.256 74.3462118,10.9887059 C75.0892706,11.7218824 75.4600941,12.6141176 75.4600941,13.6635294 L75.4600941,25.6658824 C75.4600941,26.7157647 75.0892706,27.6075294 74.3462118,28.3407059 C73.6040941,29.0734118 72.7076235,29.4404706 71.6591529,29.4404706 L55.9085647,29.4404706 L55.9085647,9.88941176 Z" id="Fill-30" fill="#000000"></path>
                <path d="M90.8299765,25.8828235 L90.8299765,23.3576471 L81.9504471,23.3576471 L81.9504471,25.6931765 C81.9504471,25.8197647 82.0135059,25.8828235 82.1405647,25.8828235 L90.8299765,25.8828235 Z M90.6398588,13.6908235 C91.6709176,13.6908235 92.5542118,14.0574118 93.2873882,14.7901176 C94.0205647,15.5237647 94.3871529,16.4065882 94.3871529,17.4381176 L94.3871529,29.4404706 L82.1405647,29.4404706 C81.1080941,29.4404706 80.2262118,29.0734118 79.4925647,28.3407059 C78.7598588,27.6075294 78.3928,26.7247059 78.3928,25.6931765 L78.3928,19.7736471 L90.8299765,19.7736471 L90.8299765,17.4381176 C90.8299765,17.312 90.7655059,17.248 90.6398588,17.248 L78.3928,17.248 L78.3928,13.6908235 L90.6398588,13.6908235 Z" id="Fill-32" fill="#000000"></path>
                <path d="M109.728424,25.6930353 L109.728424,17.4379765 C109.728424,17.3118588 109.664424,17.2483294 109.538306,17.2483294 L101.038071,17.2483294 C100.912424,17.2483294 100.848894,17.3118588 100.848894,17.4379765 L100.848894,25.6930353 C100.848894,25.8200941 100.912424,25.8826824 101.038071,25.8826824 L109.538306,25.8826824 C109.664424,25.8826824 109.728424,25.8200941 109.728424,25.6930353 Z M109.538306,13.6911529 C110.569835,13.6911529 111.452659,14.0572706 112.186306,14.7904471 C112.919012,15.5236235 113.286071,16.4064471 113.286071,17.4379765 L113.286071,25.6930353 C113.286071,26.7245647 112.919012,27.6073882 112.186306,28.3405647 C111.452659,29.0737412 110.569835,29.4403294 109.538306,29.4403294 L100.848894,29.4403294 L100.848894,35.6859765 L97.2917176,35.6859765 L97.2917176,13.6911529 L109.538306,13.6911529 Z" id="Fill-34" fill="#000000"></path>
                <path d="M127.7592,25.6930353 L127.7592,17.4379765 C127.7592,17.3118588 127.694729,17.2483294 127.569082,17.2483294 L119.068847,17.2483294 C118.942729,17.2483294 118.879671,17.3118588 118.879671,17.4379765 L118.879671,25.6930353 C118.879671,25.8200941 118.942729,25.8826824 119.068847,25.8826824 L127.569082,25.8826824 C127.694729,25.8826824 127.7592,25.8200941 127.7592,25.6930353 Z M127.569082,13.6911529 C128.600141,13.6911529 129.482965,14.0572706 130.216612,14.7904471 C130.949788,15.5236235 131.316376,16.4064471 131.316376,17.4379765 L131.316376,25.6930353 C131.316376,26.7245647 130.949788,27.6073882 130.216612,28.3405647 C129.482965,29.0737412 128.600141,29.4403294 127.569082,29.4403294 L118.879671,29.4403294 L118.879671,35.6859765 L115.322024,35.6859765 L115.322024,13.6911529 L127.569082,13.6911529 Z" id="Fill-36" fill="#000000"></path>
                <polygon id="Fill-38" fill="#000000" points="145.761035 25.0955765 154.504565 9.88945882 158.659388 9.88945882 147.362918 29.4400471 144.131859 29.4400471 132.835388 9.88945882 136.990212 9.88945882"></polygon>
                <path d="M160.533176,29.44 L164.090824,29.44 L164.090824,13.6908235 L160.533176,13.6908235 L160.533176,29.44 Z M160.533176,12.1157647 L164.090824,12.1157647 L164.090824,8.53129412 L160.533176,8.53129412 L160.533176,12.1157647 Z" id="Fill-40" fill="#000000"></path>
                <path d="M170.389694,19.7734588 L179.269224,19.7734588 L179.269224,17.4379294 C179.269224,17.3118118 179.206165,17.2482824 179.080047,17.2482824 L170.579812,17.2482824 C170.454165,17.2482824 170.389694,17.3118118 170.389694,17.4379294 L170.389694,19.7734588 Z M179.080047,13.6911059 C180.111576,13.6911059 180.9944,14.0576941 181.727106,14.7904 C182.459812,15.5235765 182.826871,16.4064 182.826871,17.4379294 L182.826871,23.3574588 L170.389694,23.3574588 L170.389694,25.6929882 C170.389694,25.8200471 170.454165,25.8826353 170.579812,25.8826353 L182.826871,25.8826353 L182.826871,29.4402824 L170.579812,29.4402824 C169.548753,29.4402824 168.665929,29.0736941 167.932282,28.3405176 C167.200047,27.6073412 166.833459,26.7245176 166.833459,25.6929882 L166.833459,17.4379294 C166.833459,16.4064 167.200047,15.5235765 167.932282,14.7904 C168.665929,14.0576941 169.548753,13.6911059 170.579812,13.6911059 L179.080047,13.6911059 Z" id="Fill-42" fill="#000000"></path>
                <polygon id="Fill-43" fill="#000000" points="207.401176 13.6909647 211.176235 13.6909647 205.256706 29.4401412 202.486353 29.4401412 197.734824 18.9046118 193.172941 29.4401412 190.430353 29.4401412 184.238824 13.6909647 188.013412 13.6909647 191.815294 22.9775529 195.861412 13.6909647 199.554118 13.6909647 203.844471 23.0316706"></polygon>
                <g id="Logo">
                    <polygon id="Fill-44" fill="#00B59E" points="0.117647059 20 11.5035294 39.7214118 11.5035294 0.278588235"></polygon>
                    <polygon id="Fill-45" fill="#9BC648" points="11.5036706 39.7215059 34.2763765 39.7215059 45.6622588 20.0000941"></polygon>
                    <polygon id="Fill-46" fill="#00B5E5" points="37.2918118 15.1672941 45.6621647 20.0002353 34.2762824 0.278823529 11.5035765 0.278823529 20.3694588 5.39741176 20.3694588 24.9371765"></polygon>
                </g>
            </g>
        </g>
    </g>
</svg>