<svg xmlns="http://www.w3.org/2000/svg" width="373" height="109" viewBox="0 0 373 109">
  <g fill="none">
    <g fill="#E31337">
      <path d="M90.4422108,61.5356296 C90.85992,61.5356296 91.1207865,61.9874183 90.9115288,62.3484305 L64.0269732,108.729763 C63.930027,108.897015 63.7511741,109 63.5576553,109 L47.1234647,109 C46.7057556,109 46.4448891,108.548211 46.6541468,108.187199 L73.5387023,61.8058664 C73.6356485,61.6386145 73.8145015,61.5356296 74.0080203,61.5356296 L90.4422108,61.5356296 Z M74.4582937,48.2411837 C74.2647749,48.2411837 74.0859219,48.1381988 73.9889757,47.9709469 L46.6541468,0.812800858 C46.4448891,0.451788656 46.7057556,0 47.1234647,0 L63.5576553,0 C63.7511741,0 63.930027,0.102984848 64.0269732,0.270236757 L91.3618022,47.4283828 C91.5710599,47.789395 91.3101934,48.2411837 90.8924842,48.2411837 L74.4582937,48.2411837 Z"/>
      <path d="M77.7078135.812538775C77.4981696.45152632 77.7598718 0 78.1787565 0L94.6363581 0C94.8305929 0 95.0100903.10309919 95.1073011.27049884L126.44159 54.22898C126.538963 54.3966589 126.538963 54.6033411 126.44159 54.77102L95.1073011 108.729501C95.0100903 108.896901 94.8305929 109 94.6363581 109L78.1787565 109C77.7598718 109 77.4981696 108.548474 77.7078135 108.187461L108.884718 54.5 77.7078135.812538775zM64.3328086 54.2269735C64.431852 54.3948735 64.4323504 54.6024365 64.3341146 54.7708006L32.850801 108.729282C32.6407695 109.089249 32.1162201 109.090483 31.9044622 108.731508L.0746342025 54.7730265C-.0244091387 54.6051265-.024907567 54.3975635.0733282916 54.2291994L31.5566419.270718284C31.7666733-.0892494466 32.2912227-.0904832685 32.5029806.268492348L64.3328086 54.2269735z"/>
    </g>
    <path fill="#212529" d="M186.740404,0 L199.453228,0 L199.453228,46.87 L186.740404,46.87 L186.740404,28.5907 L168.674812,28.5907 L168.674812,46.87 L155.961988,46.87 L155.961988,0 L168.674812,0 L168.674812,16.9401571 L186.740404,16.9401571 L186.740404,0 Z M226.217067,0 L238.762617,0 L238.762617,46.87 L226.217067,46.87 L226.217067,0 Z M279.750831,46.87 L261.344607,0.602614286 L261.344607,0 L275.132542,0 L286.644799,31.8046429 L298.157056,0 L311.944991,0 L311.944991,0.602614286 L293.538767,46.87 L279.750831,46.87 Z M346.849018,35.3533714 L373,35.3533714 L373,46.87 L334.108796,46.87 L334.108796,0 L372.530623,0 L372.530623,11.5166286 L346.849018,11.5166286 L346.849018,18.0114714 L363.143091,18.0114714 L363.143091,28.7246143 L346.849018,28.7246143 L346.849018,35.3533714 Z"/>
    <path fill="#E31337" d="M175.27868,81.8564453 C178.243977,82.9634821 180.478506,84.538857 181.982335,86.5826172 C183.486164,88.6263774 184.238067,91.0533063 184.238067,93.8634766 C184.238067,97.7806836 182.829573,101.027233 180.012541,103.603223 C177.195509,106.179212 173.520715,107.467187 168.988047,107.467187 L155.961988,107.467187 L155.961988,60.7164062 L165.429709,60.7164062 C170.343629,60.7164062 174.081965,61.7276266 176.644828,63.7500977 C179.207692,65.7725687 180.489104,68.6572078 180.489104,72.4041016 C180.489104,76.491622 178.752314,79.6423717 175.27868,81.8564453 Z M161.311517,79.8765625 L163.507299,79.8765625 C167.382228,79.8765625 170.277618,79.2804747 172.193556,78.0882812 C174.109493,76.8960878 175.067447,75.0013802 175.067447,72.4041016 C175.067447,68.1888461 172.11824,66.08125 166.219736,66.08125 L161.311517,66.08125 L161.311517,79.8765625 Z M161.311517,102.102344 L166.630025,102.102344 C169.959515,102.102344 172.380925,101.780573 173.89433,101.137023 C175.407734,100.493472 176.618439,99.5067099 177.526482,98.1767056 C178.434524,96.8467014 178.888539,95.4952657 178.888539,94.1223581 C178.888539,92.7494504 178.618292,91.5374486 178.077791,90.4863162 C177.537289,89.4351838 176.737359,88.5020496 175.677976,87.6868857 C174.618593,86.8717218 173.321409,86.2603581 171.786384,85.8527761 C170.25136,85.4451942 167.473224,85.2414062 163.451892,85.2414062 L161.311517,85.2414062 L161.311517,102.102344 Z M231.619605,107.467187 L207.928836,107.467187 L207.928836,60.7164062 L213.606789,60.7164062 L213.606789,102.166211 L231.619605,102.166211 L231.619605,107.467187 Z M276.423021,59.95 C280.948221,59.95 285.113879,61.0250869 288.920122,63.175293 C292.726365,65.325499 295.71845,68.2952936 297.896466,72.0847656 C300.074483,75.8742377 301.163475,79.9936301 301.163475,84.4430664 C301.163475,88.8925027 300.085056,93.0118951 297.928185,96.8013672 C295.771314,100.590839 292.810947,103.571278 289.046996,105.742773 C285.283045,107.914269 281.191396,109 276.771925,109 C272.352454,109 268.239659,107.924913 264.433416,105.774707 C260.627174,103.624501 257.645662,100.665351 255.488791,96.897168 C253.33192,93.1289851 252.253501,89.0202371 252.253501,84.5708008 C252.253501,80.1213645 253.33192,75.9913276 255.488791,72.1805664 C257.645662,68.3698052 260.595455,65.3787218 264.338261,63.2072266 C268.081066,61.0357313 272.109279,59.95 276.423021,59.95 Z M276.611833,103.635156 C281.981578,103.635156 286.524315,101.825604 290.240179,98.2064453 C293.956042,94.5872866 295.813947,90.0527616 295.813947,84.6027344 C295.813947,79.1527071 293.934564,74.5756045 290.175742,70.8712891 C286.41692,67.1669737 281.895662,65.3148437 276.611833,65.3148437 C271.199129,65.3148437 266.677872,67.1776181 263.047924,70.9032227 C259.417976,74.6288272 257.603029,79.1633522 257.603029,84.5069336 C257.603029,89.850515 259.471672,94.3743955 263.209015,98.0787109 C266.946358,101.783026 271.413919,103.635156 276.611833,103.635156 Z M373,84.9859375 C372.87263,92.5648816 370.675524,98.461893 366.408617,102.677148 C362.14171,106.892404 356.526884,109 349.563971,109 C341.582095,109 335.213672,106.541138 330.458512,101.62334 C325.703352,96.7055418 323.325807,90.946908 323.325807,84.3472656 C323.325807,77.7476233 325.703352,72.0315671 330.458512,67.1989258 C335.213672,62.3662844 341.348586,59.95 348.863437,59.95 C352.939289,59.95 356.7285,60.7057542 360.231185,62.2172852 C363.73387,63.7288162 367.162204,66.0386563 370.51629,69.146875 L366.313089,73.1705078 C363.723225,70.6583859 360.921119,68.731745 357.906688,67.3905273 C354.892256,66.0493097 351.792957,65.3787109 348.608698,65.3787109 C345.424439,65.3787109 342.261455,66.2302649 339.119653,67.9333984 C335.977851,69.636532 333.515394,71.9357277 331.732209,74.8310547 C329.949024,77.7263817 329.057445,80.8558426 329.057445,84.2195313 C329.057445,89.4566668 331.021042,94.0231251 334.948295,97.919043 C338.875547,101.814961 343.789847,103.762891 349.69134,103.762891 C354.064389,103.762891 357.842987,102.560071 361.027246,100.154395 C364.211505,97.7487184 366.164488,94.4595912 366.886253,90.2869141 L352.366105,90.2869141 L352.366105,84.9859375 L373,84.9859375 Z"/>
  </g>
</svg>
