<?xml version="1.0" encoding="UTF-8" standalone="no"?>
<!-- Created with Inkscape (http://www.inkscape.org/) -->

<svg
   xmlns:dc="http://purl.org/dc/elements/1.1/"
   xmlns:cc="http://creativecommons.org/ns#"
   xmlns:rdf="http://www.w3.org/1999/02/22-rdf-syntax-ns#"
   xmlns:svg="http://www.w3.org/2000/svg"
   xmlns="http://www.w3.org/2000/svg"
   xmlns:sodipodi="http://sodipodi.sourceforge.net/DTD/sodipodi-0.dtd"
   xmlns:inkscape="http://www.inkscape.org/namespaces/inkscape"
   width="250mm"
   height="50mm"
   viewBox="0 0 250 50"
   version="1.1"
   id="svg8"
   inkscape:version="0.92.3 (2405546, 2018-03-11)"
   sodipodi:docname="hivesigner.svg">
  <defs
     id="defs2" />
  <sodipodi:namedview
     id="base"
     pagecolor="#ffffff"
     bordercolor="#666666"
     borderopacity="1.0"
     inkscape:pageopacity="0.0"
     inkscape:pageshadow="2"
     inkscape:zoom="0.35"
     inkscape:cx="-117.14286"
     inkscape:cy="560"
     inkscape:document-units="mm"
     inkscape:current-layer="g995"
     showgrid="false"
     inkscape:window-width="1920"
     inkscape:window-height="1023"
     inkscape:window-x="0"
     inkscape:window-y="0"
     inkscape:window-maximized="1" />
  <metadata
     id="metadata5">
    <rdf:RDF>
      <cc:Work
         rdf:about="">
        <dc:format>image/svg+xml</dc:format>
        <dc:type
           rdf:resource="http://purl.org/dc/dcmitype/StillImage" />
        <dc:title></dc:title>
      </cc:Work>
    </rdf:RDF>
  </metadata>
  <g
     inkscape:label="Layer 1"
     inkscape:groupmode="layer"
     id="layer1"
     transform="translate(0,-247)">
    <g
       id="g995"
       transform="translate(2.381251)">
      <g
         id="g1043"
         transform="translate(1.8520845,-1.8649999e-6)">
        <g
           id="g637"
           style="fill:none;fill-rule:evenodd;stroke:none;stroke-width:1"
           transform="matrix(0.32014583,0,0,0.32014583,16.879399,251.03045)">
          <g
             id="g635"
             style="fill:#e31337;fill-opacity:1">
            <path
               d="M 98.541667,69.923306 V 45.887017 H 0 V 0 H 110 V 22.943509 H 98.541667 V 11.471754 H 11.458333 V 34.415263 H 110 v 37.340478 c -0.18517,18.239539 -10.382232,33.200889 -27.247234,45.104989 -5.956567,4.20442 -12.346375,7.7265 -18.75154,10.59653 -2.257779,1.01167 -4.362872,1.87137 -6.261489,2.58208 -1.170273,0.43806 -2.105573,0.76041 -2.522569,0.89083 L 54.99392,131 54.770964,130.9292 c -0.467103,-0.14823 -1.351404,-0.45331 -2.518442,-0.89038 -1.898774,-0.71112 -4.002941,-1.57072 -6.259897,-2.58226 C 39.58819,124.58617 33.199766,121.06429 27.244225,116.8601 10.54075,105.06867 0.37991151,90.277944 0.0104348,72.272052 H 0 v -14.91328 h 11.458333 v 12.564534 c 0,13.829856 7.221147,25.398143 19.608216,34.855994 4.574183,3.49252 9.611145,6.50237 14.833332,9.04511 3.4621,1.68573 6.579291,2.96581 9.101659,3.85697 2.519577,-0.88982 5.638459,-2.17053 9.10069,-3.85634 5.221824,-2.5426 10.258741,-5.55255 14.832882,-9.04517 12.38688,-9.458104 19.606555,-21.026716 19.606555,-34.856564 z"
               id="path633"
               style="fill:#e31337;fill-opacity:1"
               inkscape:connector-curvature="0" />
          </g>
        </g>
        <g
           aria-label="hivesigner"
           style="font-style:normal;font-variant:normal;font-weight:normal;font-stretch:normal;font-size:11.28888893px;line-height:1.25;font-family:'Circular Pro Bold';-inkscape-font-specification:'Circular Pro Bold, ';letter-spacing:0px;word-spacing:0px;fill:#000000;fill-opacity:1;stroke:none;stroke-width:0.26458332"
           id="text876"
           transform="translate(0,-1.5e-5)">
          <path
             d="m 71.710308,280.6131 v -23.50175 h 4.326351 v 8.85871 q 0.74483,-0.8716 1.901693,-1.29949 1.17271,-0.44372 2.408811,-0.44372 1.965082,0 3.327962,0.87161 1.36288,0.85576 1.98093,2.25033 0.633897,1.39458 0.633897,3.20118 v 10.06313 h -4.310503 v -9.3183 q 0,-1.42627 -0.74483,-2.29787 -0.728982,-0.87161 -2.218641,-0.87161 -1.331185,0 -2.123557,0.87161 -0.776525,0.8716 -0.855762,2.23448 v 9.38169 z"
             style="font-size:32.45555496px;fill:#1a1a1a;stroke-width:0.26458332"
             id="path960"
             inkscape:connector-curvature="0" />
          <path
             d="m 90.156727,259.42507 q 0,-1.10932 0.776525,-1.90169 0.792372,-0.79237 1.885845,-0.79237 1.109321,0 1.885845,0.79237 0.776525,0.77652 0.776525,1.90169 0,1.07763 -0.776525,1.85415 -0.776524,0.77653 -1.885845,0.77653 -1.093473,0 -1.885845,-0.77653 -0.776525,-0.77652 -0.776525,-1.85415 z m 0.507118,21.18803 v -15.97422 h 4.326351 v 15.97422 z"
             style="font-size:32.45555496px;fill:#1a1a1a;stroke-width:0.26458332"
             id="path962"
             inkscape:connector-curvature="0" />
          <path
             d="m 97.620871,264.63888 h 4.738389 l 3.96186,10.71287 3.80338,-10.71287 h 4.54822 l -6.19635,15.97422 h -4.32635 z"
             style="font-size:32.45555496px;fill:#1a1a1a;stroke-width:0.26458332"
             id="path964"
             inkscape:connector-curvature="0" />
          <path
             d="m 115.59186,272.5626 q 0,-1.85415 0.64975,-3.45474 0.64974,-1.60059 1.72737,-2.66237 1.09347,-1.07763 2.5039,-1.67983 1.42627,-0.6022 2.96347,-0.6022 3.69245,0 5.78431,2.21864 2.10771,2.20279 2.10771,6.05372 0,0.26941 -0.0159,0.58635 -0.0158,0.31695 -0.0317,0.52297 -0.0159,0.20602 -0.0159,0.22186 h -11.426 q 0.0634,1.5689 1.2361,2.59898 1.17271,1.03009 2.78915,1.03009 2.7416,0 3.62906,-2.42466 l 3.61322,1.06178 q -0.64975,2.20279 -2.55144,3.64491 -1.90169,1.42627 -4.72254,1.42627 -1.64813,0 -3.13779,-0.58636 -1.48966,-0.58635 -2.63067,-1.64813 -1.12517,-1.07763 -1.80661,-2.70991 -0.6656,-1.63229 -0.6656,-3.59737 z m 4.3422,-1.74322 h 7.1472 q -0.0475,-1.31534 -0.95085,-2.23449 -0.9033,-0.91915 -2.63067,-0.91915 -1.5689,0 -2.53559,0.96669 -0.95085,0.9667 -1.03009,2.18695 z"
             style="font-size:32.45555496px;fill:#1a1a1a;stroke-width:0.26458332"
             id="path966"
             inkscape:connector-curvature="0" />
          <path
             d="m 133.35684,276.15997 3.7083,-0.80822 q 0.0792,1.03008 0.82407,1.74322 0.76068,0.69728 2.09186,0.69728 1.01424,0 1.55305,-0.45957 0.55466,-0.45958 0.55466,-1.14102 0,-1.2044 -1.71152,-1.55305 l -2.10771,-0.49127 q -2.23449,-0.49127 -3.35966,-1.75906 -1.12517,-1.2678 -1.12517,-3.01102 0,-2.1711 1.71153,-3.69245 1.71152,-1.52135 4.26296,-1.52135 1.29949,0 2.36127,0.31695 1.07762,0.31694 1.75906,0.80821 0.68144,0.47543 1.15687,1.10933 0.47542,0.63389 0.69728,1.22025 0.22187,0.57051 0.28526,1.14101 l -3.59737,0.82407 q -0.11093,-0.85576 -0.76068,-1.48966 -0.6339,-0.64974 -1.87,-0.64974 -0.85576,0 -1.45796,0.45957 -0.58636,0.44373 -0.58636,1.12517 0,0.57051 0.39619,0.935 0.39619,0.36449 1.06178,0.49127 l 2.26618,0.49127 q 2.29788,0.47542 3.51813,1.79076 1.22026,1.29949 1.22026,3.1061 0,0.99839 -0.39619,1.93339 -0.38034,0.91915 -1.12517,1.67983 -0.74483,0.74482 -1.96508,1.18855 -1.20441,0.45958 -2.70991,0.45958 -1.37873,0 -2.51975,-0.34864 -1.12516,-0.3328 -1.85415,-0.85577 -0.71313,-0.53881 -1.2361,-1.22025 -0.50711,-0.68144 -0.74483,-1.29949 -0.23771,-0.6339 -0.3011,-1.22025 z"
             style="font-size:32.45555496px;fill:#1a1a1a;stroke-width:0.26458332"
             id="path968"
             inkscape:connector-curvature="0" />
          <path
             d="m 149.17259,259.42507 q 0,-1.10932 0.77652,-1.90169 0.79238,-0.79237 1.88585,-0.79237 1.10932,0 1.88584,0.79237 0.77653,0.77652 0.77653,1.90169 0,1.07763 -0.77653,1.85415 -0.77652,0.77653 -1.88584,0.77653 -1.09347,0 -1.88585,-0.77653 -0.77652,-0.77652 -0.77652,-1.85415 z m 0.50712,21.18803 v -15.97422 h 4.32635 v 15.97422 z"
             style="font-size:32.45555496px;fill:#1a1a1a;stroke-width:0.26458332"
             id="path970"
             inkscape:connector-curvature="0" />
          <path
             d="m 157.4925,281.48471 3.88262,-1.03009 q 0.22186,1.34704 1.22025,2.1711 1.01424,0.83992 2.51974,0.83992 4.24712,0 4.24712,-4.43729 v -1.17271 q -0.53881,0.87161 -1.67983,1.45797 -1.14102,0.58635 -2.75745,0.58635 -3.20119,0 -5.32474,-2.20279 -2.10771,-2.20279 -2.10771,-5.56245 0,-2.10771 0.935,-3.88262 0.93499,-1.77492 2.64652,-2.8367 1.71152,-1.06177 3.85093,-1.06177 1.75906,0 2.90008,0.63389 1.15686,0.61805 1.63228,1.5372 v -1.88584 h 4.16788 v 14.24685 q 0,1.34703 -0.3011,2.55143 -0.28526,1.20441 -0.935,2.28204 -0.6339,1.07762 -1.60059,1.85415 -0.95085,0.79237 -2.37712,1.2361 -1.42627,0.45957 -3.16949,0.45957 -3.15364,0 -5.27719,-1.69567 -2.10771,-1.67983 -2.4722,-4.08864 z m 4.34219,-9.34999 q 0,1.85415 1.06178,2.96347 1.07763,1.09347 2.77331,1.09347 1.66398,0 2.70991,-1.10932 1.04593,-1.10932 1.04593,-2.94762 0,-1.80661 -1.07763,-2.90008 -1.07762,-1.10932 -2.67821,-1.10932 -1.64814,0 -2.74161,1.10932 -1.09348,1.09347 -1.09348,2.90008 z"
             style="font-size:32.45555496px;fill:#1a1a1a;stroke-width:0.26458332"
             id="path972"
             inkscape:connector-curvature="0" />
          <path
             d="m 178.01493,280.6131 v -15.97422 h 4.19957 v 1.98093 q 0.69729,-1.17271 1.94923,-1.77491 1.2678,-0.61805 2.64653,-0.61805 2.83669,0 4.3105,1.77491 1.47381,1.75907 1.47381,4.54821 v 10.06313 h -4.3105 v -9.3183 q 0,-1.42627 -0.74483,-2.29787 -0.72898,-0.87161 -2.21864,-0.87161 -1.37873,0 -2.18695,0.935 -0.79237,0.93499 -0.79237,2.36126 v 9.19152 z"
             style="font-size:32.45555496px;fill:#1a1a1a;stroke-width:0.26458332"
             id="path974"
             inkscape:connector-curvature="0" />
          <path
             d="m 195.77991,272.5626 q 0,-1.85415 0.64974,-3.45474 0.64975,-1.60059 1.72737,-2.66237 1.09348,-1.07763 2.5039,-1.67983 1.42627,-0.6022 2.96347,-0.6022 3.69245,0 5.78431,2.21864 2.10771,2.20279 2.10771,6.05372 0,0.26941 -0.0158,0.58635 -0.0159,0.31695 -0.0317,0.52297 -0.0159,0.20602 -0.0159,0.22186 h -11.426 q 0.0634,1.5689 1.2361,2.59898 1.17271,1.03009 2.78915,1.03009 2.74161,0 3.62906,-2.42466 l 3.61322,1.06178 q -0.64975,2.20279 -2.55144,3.64491 -1.90169,1.42627 -4.72254,1.42627 -1.64813,0 -3.13779,-0.58636 -1.48966,-0.58635 -2.63067,-1.64813 -1.12517,-1.07763 -1.80661,-2.70991 -0.66559,-1.63229 -0.66559,-3.59737 z m 4.34219,-1.74322 h 7.1472 q -0.0475,-1.31534 -0.95085,-2.23449 -0.9033,-0.91915 -2.63067,-0.91915 -1.5689,0 -2.53559,0.96669 -0.95085,0.9667 -1.03009,2.18695 z"
             style="font-size:32.45555496px;fill:#1a1a1a;stroke-width:0.26458332"
             id="path976"
             inkscape:connector-curvature="0" />
          <path
             d="m 214.90776,280.6131 v -15.97422 h 4.19957 v 2.37712 q 0.34864,-0.74483 0.9033,-1.2678 0.57051,-0.53881 1.22026,-0.77652 0.66559,-0.25356 1.2361,-0.34865 0.58635,-0.11093 1.17271,-0.11093 0.38033,0 1.01423,0.0634 v 4.35805 q -0.64974,-0.12678 -1.29949,-0.12678 -0.87161,0 -1.58474,0.23771 -0.69729,0.22186 -1.29949,0.72898 -0.58636,0.49127 -0.91915,1.39457 -0.31695,0.88746 -0.31695,2.13941 v 7.30567 z"
             style="font-size:32.45555496px;fill:#1a1a1a;stroke-width:0.26458332"
             id="path978"
             inkscape:connector-curvature="0" />
        </g>
      </g>
    </g>
    <flowRoot
       xml:space="preserve"
       id="flowRoot935"
       style="font-style:normal;font-variant:normal;font-weight:normal;font-stretch:normal;font-size:42.66666794px;line-height:1.25;font-family:'Circular Pro Bold';-inkscape-font-specification:'Circular Pro Bold, ';letter-spacing:0px;word-spacing:0px;fill:#000000;fill-opacity:1;stroke:none"
       transform="matrix(0.26458333,0,0,0.26458333,0,247)"><flowRegion
         id="flowRegion937"><rect
           id="rect939"
           width="1205.7142"
           height="660"
           x="-97.14286"
           y="-308.16647" /></flowRegion><flowPara
         id="flowPara941"></flowPara></flowRoot>  </g>
</svg>
