<?xml version="1.0" encoding="utf-8"?>
<!-- Generator: Adobe Illustrator 23.0.1, SVG Export Plug-In . SVG Version: 6.00 Build 0)  -->
<svg version="1.1" id="LASSECASH" xmlns="http://www.w3.org/2000/svg" xmlns:xlink="http://www.w3.org/1999/xlink"
	 x="0px" y="0px" viewBox="0 0 1002 252" style="enable-background:new 0 0 1002 252;" xml:space="preserve">
<style type="text/css">
	.st0{enable-background:new    ;}
	.st1{fill:#FCED30;}
	.st2{clip-path:url(#SVGID_2_);}
	.st3{opacity:2.000000e-02;}
	.st4{fill:#1D1E1A;}
	.st5{clip-path:url(#SVGID_4_);}
	.st6{fill:#FEF8D4;}
	.st7{fill:none;stroke:#FEF8D4;stroke-width:6.34;stroke-miterlimit:10;}
</style>
<title>logo_lassecash</title>
<g>
	<polygon points="319.1,191.2 314.9,181.7 302.7,181.7 298.5,191.2 276.6,191.2 301.6,129 316,129 340.7,191.2 	"/>
</g>
<g>
	<path d="M356.1,191.2v-24.4c0-0.2,0-0.3-0.1-0.4s-0.1-0.1-0.4-0.1c-0.1,0-0.2,0-0.3,0.1c-0.1,0-0.1,0.1-0.1,0.2v24.6h-19.8v-44h15
		c1.7-0.4,3.4-0.7,5.2-0.6c6.2,0,11.2,1.8,14.8,5.3s5.5,8.5,5.5,14.8v24.6L356.1,191.2z"/>
</g>
<g>
	<path d="M395.1,191.7c-12.5-0.3-22.4-10.6-22.1-23.1c0.3-12.1,10-21.9,22.1-22.1c1.5,0,3.1,0.1,4.6,0.4v-0.2h18.1v44.4h-17.2
		C398.8,191.6,397,191.8,395.1,191.7z M395.1,166.1c-0.8,0-1.5,0.3-2,0.8c-0.6,0.6-0.9,1.4-0.8,2.2c-0.1,0.8,0.2,1.6,0.8,2.2
		c1.2,1.1,3,1.1,4.2,0c1.1-1.3,1.1-3.1,0-4.4C396.7,166.3,395.9,166.1,395.1,166.1L395.1,166.1z"/>
</g>
<g>
	<path d="M415.5,191.2v-44.1h15.3c1.6-0.4,3.2-0.6,4.9-0.6h0.6c2,0.1,4,0.2,6,0.5l3.5,0.5v18.8H436c-0.2,0-0.4,0-0.6,0.1v24.8
		L415.5,191.2L415.5,191.2z"/>
</g>
<g>
	<path d="M460.2,191.7c-12.5,0.3-22.8-9.6-23.1-22.1s9.6-22.8,22.1-23.1c0.3,0,0.6,0,1,0c3.7,0,7.4,1,10.6,2.9
		c3.1,1.7,5.8,4.1,7.9,7l2.4,3.4l-13.3,8.6l14.3,7.3l-1.9,3.6c-1.9,3.7-4.7,6.8-8.2,9C468.6,190.6,464.4,191.8,460.2,191.7z
		 M460.3,166.3c-1.5,0-2.8,1.2-2.8,2.8l0,0c0,0.8,0.3,1.6,0.8,2.1s1.2,0.8,1.9,0.8c0.4,0,1.4,0,3-2.1l1-1.3l-0.8-0.7
		C462.6,166.9,461.5,166.4,460.3,166.3z"/>
</g>
<g>
	<path d="M498,191.2v-24.3c0-0.2,0-0.3-0.1-0.3s-0.1-0.1-0.3-0.1s-0.3,0-0.4,0.1s-0.1,0.1-0.1,0.3v24.3h-19.7v-58.7h19.8v14.1h0.4
		c6.2,0,11.2,1.8,14.8,5.3s5.5,8.5,5.5,14.8v24.5L498,191.2L498,191.2z"/>
</g>
<g>
	<path d="M514,204.7l1.8-5.2c3.9-11.2,5.3-15.5,5.9-17.1l-12.4-35.3h21.4l1.3,4.6l1.3-4.5h21.2l-19.8,58L514,204.7z"/>
</g>
<g>
	<path d="M550.7,191.5c-2.5,0.1-4.9-0.9-6.7-2.6c-1.8-1.7-2.7-4.1-2.7-6.5s1-4.7,2.6-6.5c1.7-1.9,4.2-3,6.8-2.9c2.5,0,4.9,1.1,6.5,3
		c1.6,1.8,2.5,4,2.5,6.4s-0.9,4.7-2.6,6.4C555.4,190.5,553.1,191.5,550.7,191.5z"/>
</g>
<g>
	<path d="M608.2,191.7c-8.4,0.1-16.5-3.2-22.3-9.3c-12.3-12.4-12.3-32.3,0-44.7c5.8-6,13.9-9.4,22.3-9.3c7.1-0.1,14.1,2.3,19.6,6.8
		l3.1,2.5l-12.7,16.4l-3.2-2.6c-1.9-1.6-4.3-2.5-6.8-2.5c-3-0.1-5.8,1.1-7.9,3.2c-2.1,2.1-3.2,4.9-3.1,7.8
		c-0.3,5.8,4.1,10.8,10,11.1c0.4,0,0.7,0,1.1,0c2.5,0,4.9-0.9,6.9-2.5l3.1-2.4l12.6,15.8l-2.5,2.5c-0.7,0.7-1.4,1.3-2.2,1.8
		c-1.2,0.8-2.4,1.5-3.7,2.2c-2,1-4.2,1.8-6.4,2.3C613.5,191.5,610.8,191.8,608.2,191.7z"/>
</g>
<g>
	<path d="M624.8,191.2v-44.1h15.3c1.6-0.4,3.3-0.6,4.9-0.6h0.6c2,0.1,4,0.2,6,0.5l3.5,0.5v18.8h-9.8c-0.2,0-0.4,0-0.6,0.1v24.8
		L624.8,191.2L624.8,191.2z"/>
</g>
<g>
	<path d="M651.4,204.7l1.8-5.2c3.9-11.2,5.3-15.5,5.9-17.1l-12.5-35.3H668l1.3,4.6l1.3-4.5h21.2l-19.8,58L651.4,204.7z"/>
</g>
<g>
	<path d="M685.1,206v-58.9H703c1.6-0.3,3.2-0.5,4.9-0.5c12.4,0,22.5,10.1,22.5,22.5s-10.1,22.5-22.5,22.5c-1,0-2-0.1-3-0.2v14.4
		L685.1,206z M707.9,166.2c-1.6,0-2.9,1.3-2.9,2.9c0,1.6,1.3,2.9,2.9,2.9c0.8,0,1.5-0.3,2-0.8c0.6-0.6,0.8-1.3,0.8-2.1
		c0.1-0.8-0.2-1.6-0.8-2.1C709.4,166.5,708.6,166.2,707.9,166.2z"/>
</g>
<g>
	<polygon points="728.8,191.2 728.8,165.9 720.9,165.9 720.9,147.1 728.8,147.1 728.8,137.5 748.6,137.5 748.6,147.1 756.4,147.1 
		756.4,165.9 748.6,165.9 748.6,191.2 	"/>
</g>
<g>
	<path d="M770.3,191.7c-12.4,0-22.5-10.1-22.5-22.6c0-12.4,10.1-22.5,22.6-22.5c12.4,0,22.5,10.1,22.5,22.6c0,5.9-2.4,11.6-6.6,15.8
		C782.1,189.4,776.3,191.8,770.3,191.7z M770.3,166.3c-0.7,0-1.5,0.2-2,0.8c-0.5,0.5-0.8,1.2-0.8,2s0.3,1.5,0.8,2.1
		c0.5,0.5,1.2,0.8,2,0.8s1.5-0.3,2-0.8s0.8-1.2,0.8-2s-0.3-1.5-0.8-2C771.8,166.6,771.1,166.3,770.3,166.3z"/>
</g>
<g>
	<path d="M794.8,191.5c-2.5,0.1-4.9-0.9-6.7-2.6c-1.8-1.7-2.7-4.1-2.7-6.5s1-4.7,2.6-6.5c1.7-1.9,4.2-3,6.8-2.9c2.5,0,4.9,1.1,6.5,3
		c1.6,1.8,2.5,4,2.5,6.4s-0.9,4.7-2.6,6.4C799.6,190.5,797.3,191.5,794.8,191.5z"/>
</g>
<g>
	<polygon points="831.7,191.1 831.7,149.6 820.4,149.6 820.4,129.1 863.7,129.1 863.7,149.6 852.1,149.6 852.1,191.1 	"/>
</g>
<g>
	<path d="M851.6,191.2v-44.1h15.3c1.6-0.4,3.2-0.6,4.9-0.6h0.6c2,0.1,4,0.2,6,0.5l3.5,0.5v18.8h-9.8c-0.2,0-0.4,0-0.6,0.1v24.8
		L851.6,191.2L851.6,191.2z"/>
</g>
<g>
	<path d="M896.6,191.7c-6.2,0-11.2-1.8-14.8-5.3s-5.5-8.5-5.5-14.8v-24.5h19.8v24.4c0,0.2,0,0.3,0.1,0.3s0.1,0.1,0.3,0.1
		s0.3,0,0.5-0.2v-24.6h19.8v44.1h-15.2C900,191.6,898.3,191.8,896.6,191.7z"/>
</g>
<g>
	<polygon points="920.1,191.2 920.1,165.9 912.1,165.9 912.1,147.1 920.1,147.1 920.1,137.5 939.8,137.5 939.8,147.1 947.6,147.1 
		947.6,165.9 939.8,165.9 939.8,191.2 	"/>
</g>
<g>
	<path d="M963,191.2v-24.3c0-0.2,0-0.3-0.1-0.3s-0.1-0.1-0.3-0.1s-0.3,0-0.3,0.1s-0.1,0.1-0.1,0.3v24.3h-19.7v-58.7h19.8v14.1h0.4
		c6.2,0,11.2,1.8,14.8,5.3s5.5,8.5,5.5,14.8v24.5L963,191.2L963,191.2z"/>
</g>
<g>
	<path d="M987.6,191.5c-2.5,0.1-4.9-0.9-6.7-2.6c-1.8-1.7-2.7-4.1-2.7-6.5s1-4.7,2.6-6.5c1.7-1.9,4.2-3,6.8-2.9c2.5,0,4.9,1.1,6.6,3
		c1.6,1.8,2.5,4,2.5,6.4s-0.9,4.7-2.6,6.4C992.3,190.5,990,191.5,987.6,191.5z"/>
</g>
<g class="st0">
	<path class="st1" d="M335.8,187.2h-13.1l-4.2-9.5h-17.5l-4.2,9.5h-13.3l21.8-54.2h8.9L335.8,187.2z M309.8,155.7l-4.1,10.2h8.1
		L309.8,155.7z"/>
</g>
<g class="st0">
	<path class="st1" d="M340.4,187.2v-36h9.7v0.8c1.8-1,3.9-1.4,6.5-1.4c5.1,0,9.1,1.4,12,4.2c2.8,2.8,4.3,6.8,4.3,11.9v20.6h-11.8
		v-20.4c0-1.2-0.4-2.3-1.3-3.2c-0.9-0.9-1.9-1.3-3.2-1.3c-1.2,0-2.2,0.4-3,1.2c-0.9,0.8-1.3,1.8-1.4,2.9v20.8H340.4z"/>
</g>
<g class="st0">
	<path class="st1" d="M383.1,182.3c-3.7-3.7-5.5-8-5.5-13.1c0-5.1,1.8-9.5,5.5-13.1c3.7-3.7,8-5.5,13.1-5.5c3.1,0,5.9,0.7,8.6,2
		v-1.8h10.1v36.4h-10.1v-1.4c-2.4,1.3-5.3,1.9-8.6,1.9C391.1,187.8,386.7,185.9,383.1,182.3z M391.3,164.2c-1.3,1.3-2,3-2,5
		c0,2,0.7,3.7,2,5c1.3,1.3,2.9,2,4.9,2c2,0,3.7-0.7,5-2s1.9-3,1.9-5c0-2-0.6-3.7-1.9-5c-1.3-1.3-3-2-5-2
		C394.2,162.2,392.6,162.8,391.3,164.2z"/>
</g>
<g class="st0">
	<path class="st1" d="M420.5,187.2v-36.1h9.7v0.9c1.8-1,3.9-1.4,6.5-1.4h0.6c1.2,0,3,0.2,5.4,0.5v11.2h-5.8c-1.4,0-2.5,0.4-3.4,1.2
		c-0.8,0.8-1.3,1.8-1.3,2.9v20.8H420.5z"/>
</g>
<g class="st0">
	<path class="st1" d="M461.2,150.6c3,0,5.9,0.8,8.7,2.3c2.8,1.6,5,3.5,6.6,5.8l-9.4,6.1c-1.9-1.7-3.8-2.5-5.8-2.5
		c-1.9,0-3.5,0.7-4.8,2c-1.3,1.3-2,2.9-2,4.8c0,1.9,0.7,3.6,2,4.9c1.3,1.3,2.9,2,4.8,2c2.3,0,4.4-1.3,6.2-3.8l10.2,5.3
		c-1.6,3.1-3.9,5.6-6.8,7.5c-2.9,1.9-6.1,2.8-9.7,2.8c-5.2,0-9.6-1.8-13.2-5.4c-3.6-3.6-5.4-8-5.4-13.2c0-5.1,1.8-9.5,5.4-13.1
		C451.6,152.4,456,150.6,461.2,150.6z"/>
</g>
<g class="st0">
	<path class="st1" d="M494.1,136.5v14.7c1.1-0.4,2.5-0.6,4.4-0.6c5.1,0,9.1,1.4,12,4.2c2.8,2.8,4.3,6.8,4.3,11.9v20.5H503v-20.3
		c0-1.3-0.4-2.3-1.3-3.2c-0.9-0.9-1.9-1.3-3.2-1.3c-1.3,0-2.3,0.4-3.2,1.3s-1.3,1.9-1.3,3.2v20.3h-11.7v-50.7H494.1z"/>
</g>
<g class="st0">
	<path class="st1" d="M549.9,151.2l-17.1,50l-12.3-0.3c4.2-12,6.3-18.2,6.3-18.6l-11-31.2h12.8l4.3,15.1l4.3-15H549.9z"/>
</g>
<g class="st0">
	<path class="st1" d="M546.3,182.4c0-1.4,0.5-2.6,1.6-3.8c1-1.1,2.3-1.7,3.9-1.7c1.4,0,2.6,0.6,3.6,1.7c1,1.1,1.5,2.4,1.5,3.8
		s-0.5,2.6-1.5,3.6c-1,1-2.2,1.5-3.6,1.5c-1.6,0-2.9-0.5-3.9-1.5S546.3,183.8,546.3,182.4z"/>
</g>
<g class="st0">
	<path class="st1" d="M626.4,138.4l-7.8,10c-2.7-2.3-5.8-3.4-9.3-3.4c-4.3,0-7.9,1.5-10.8,4.4c-2.9,2.9-4.3,6.5-4.3,10.6
		c0,4.4,1.4,8.1,4.3,10.9c2.8,2.8,6.4,4.3,10.8,4.3c3.3,0,6.4-1.1,9.3-3.3l7.9,9.9c-0.4,0.4-1,0.8-1.7,1.4c-0.7,0.5-1.8,1.2-3.2,1.9
		c-1.4,0.8-3.2,1.4-5.4,1.9c-2.2,0.5-4.5,0.8-6.9,0.8c-7.6,0-14.1-2.7-19.4-8.1c-5.4-5.4-8-11.9-8-19.6c0-7.6,2.7-14.1,8-19.5
		c5.4-5.4,11.8-8.1,19.4-8.1C615.7,132.5,621.4,134.5,626.4,138.4z"/>
</g>
<g class="st0">
	<path class="st1" d="M629.8,187.2v-36.1h9.7v0.9c1.8-1,3.9-1.4,6.5-1.4h0.6c1.2,0,3,0.2,5.4,0.5v11.2h-5.8c-1.4,0-2.5,0.4-3.4,1.2
		c-0.8,0.8-1.3,1.8-1.3,2.9v20.8H629.8z"/>
</g>
<g class="st0">
	<path class="st1" d="M687.3,151.2l-17.1,50l-12.3-0.3c4.2-12,6.3-18.2,6.3-18.6l-11-31.2H666l4.3,15.1l4.3-15H687.3z"/>
</g>
<g class="st0">
	<path class="st1" d="M690.1,202v-50.8h10.1v1.4c2.8-1.3,5.7-1.9,8.7-1.9c5,0,9.4,1.8,13.1,5.4c3.7,3.6,5.5,8,5.5,13.1
		c0,5.1-1.8,9.5-5.5,13.1c-3.7,3.6-8,5.4-13.1,5.4c-2.6,0-4.9-0.4-7-1.3V202H690.1z M713.7,174.1c1.3-1.3,2-3,2-5c0-2-0.7-3.7-2-5
		s-2.9-1.9-4.9-1.9c-2,0-3.7,0.6-5,1.9c-1.3,1.3-1.9,3-1.9,5c0,2,0.6,3.7,1.9,5c1.3,1.3,3,1.9,5,1.9
		C710.8,176.1,712.4,175.4,713.7,174.1z"/>
</g>
<g class="st0">
	<path class="st1" d="M733.8,151.1v-9.7h11.8v9.7h7.8V162h-7.8v25.2h-11.8V162h-7.9v-10.8H733.8z"/>
	<path class="st1" d="M750.8,169.1c0-5.1,1.8-9.5,5.4-13.1s8-5.4,13.2-5.4c5.1,0,9.5,1.8,13.1,5.4s5.4,8,5.4,13.1
		c0,5.2-1.8,9.6-5.4,13.2s-8,5.4-13.1,5.4c-5.2,0-9.6-1.8-13.2-5.4S750.8,174.3,750.8,169.1z M762.6,169.1c0,1.9,0.6,3.5,1.9,4.9
		c1.3,1.3,2.9,2,4.8,2c1.9,0,3.5-0.7,4.8-2c1.3-1.3,2-2.9,2-4.9c0-1.9-0.7-3.5-2-4.8c-1.3-1.3-2.9-2-4.8-2c-1.9,0-3.5,0.7-4.8,2
		C763.2,165.6,762.6,167.2,762.6,169.1z"/>
</g>
<g class="st0">
	<path class="st1" d="M790.4,182.4c0-1.4,0.5-2.6,1.6-3.8c1-1.1,2.3-1.7,3.9-1.7c1.4,0,2.6,0.6,3.6,1.7c1,1.1,1.5,2.4,1.5,3.8
		s-0.5,2.6-1.5,3.6c-1,1-2.2,1.5-3.6,1.5c-1.6,0-2.9-0.5-3.9-1.5S790.4,183.8,790.4,182.4z"/>
</g>
<g class="st0">
	<path class="st1" d="M836.7,187.1v-41.5h-11.2v-12.5h35.3v12.5h-11.5v41.5H836.7z"/>
</g>
<g class="st0">
	<path class="st1" d="M856.6,187.2v-36.1h9.7v0.9c1.8-1,3.9-1.4,6.5-1.4h0.6c1.2,0,3,0.2,5.4,0.5v11.2h-5.8c-1.4,0-2.5,0.4-3.4,1.2
		c-0.8,0.8-1.3,1.8-1.3,2.9v20.8H856.6z"/>
</g>
<g class="st0">
	<path class="st1" d="M913.8,151.1v36.1H904v-0.8c-1.7,0.9-3.8,1.4-6.4,1.4c-5.1,0-9.1-1.4-12-4.2c-2.8-2.8-4.3-6.8-4.3-11.9v-20.6
		h11.8v20.4c0,1.3,0.4,2.3,1.3,3.2c0.9,0.9,1.9,1.3,3.2,1.3c1.2,0,2.2-0.4,3.1-1.2c0.9-0.8,1.3-1.7,1.3-2.8v-20.8H913.8z"/>
</g>
<g class="st0">
	<path class="st1" d="M925.1,151.1v-9.7h11.8v9.7h7.8V162h-7.8v25.2h-11.8V162h-7.9v-10.8H925.1z"/>
</g>
<g class="st0">
	<path class="st1" d="M959.1,136.5v14.7c1.1-0.4,2.5-0.6,4.4-0.6c5.1,0,9.1,1.4,12,4.2c2.8,2.8,4.3,6.8,4.3,11.9v20.5H968v-20.3
		c0-1.3-0.4-2.3-1.3-3.2s-1.9-1.3-3.2-1.3s-2.3,0.4-3.2,1.3s-1.3,1.9-1.3,3.2v20.3h-11.7v-50.7H959.1z"/>
	<path class="st1" d="M983.2,182.4c0-1.4,0.5-2.6,1.6-3.8c1-1.1,2.3-1.7,3.9-1.7c1.4,0,2.6,0.6,3.6,1.7c1,1.1,1.5,2.4,1.5,3.8
		s-0.5,2.6-1.5,3.6c-1,1-2.2,1.5-3.6,1.5c-1.6,0-2.9-0.5-3.9-1.5C983.7,185,983.2,183.8,983.2,182.4z"/>
</g>
<circle cx="125.7" cy="127.7" r="119.7"/>
<path class="st1" d="M239,127.7L239,127.7c0-40.5-21.6-77.9-56.7-98.1l0,0C147.2,9.3,104,9.3,69,29.6l0,0
	c-35.1,20.2-56.7,57.6-56.7,98.1l0,0c0,40.5,21.6,77.9,56.7,98.1l0,0c35.1,20.2,78.3,20.2,113.3,0l0,0
	C217.4,205.6,239,168.2,239,127.7z"/>
<path d="M219.9,127.7L219.9,127.7c0-33.7-18-64.7-47.1-81.6l0,0c-29.2-16.8-65.1-16.8-94.2,0l0,0C49.4,62.9,31.5,94,31.5,127.7l0,0
	c0,33.7,18,64.8,47.1,81.6l0,0c29.2,16.8,65.1,16.8,94.2,0l0,0C202,192.5,219.9,161.4,219.9,127.7z"/>
<g>
	<path d="M219.9,127.7L219.9,127.7c0-33.7-18-64.7-47.1-81.6l0,0c-29.2-16.8-65.1-16.8-94.2,0l0,0C49.4,62.9,31.5,94,31.5,127.7l0,0
		c0,33.7,18,64.8,47.1,81.6l0,0c29.2,16.8,65.1,16.8,94.2,0l0,0C202,192.5,219.9,161.4,219.9,127.7z"/>
</g>
<g>
	<g>
		<g>
			<defs>
				<path id="SVGID_1_" d="M222.9,127.7L222.9,127.7c0-34.7-18.5-66.8-48.6-84.2l0,0c-30.1-17.4-67.1-17.4-97.2,0l0,0
					C47,60.9,28.5,93,28.5,127.7l0,0c0,34.7,18.5,66.8,48.6,84.1l0,0c30.1,17.4,67.1,17.4,97.2,0l0,0
					C204.3,194.5,222.9,162.4,222.9,127.7z"/>
			</defs>
			<clipPath id="SVGID_2_">
				<use xlink:href="#SVGID_1_"  style="overflow:visible;"/>
			</clipPath>
			<g class="st2">
				<path class="st1" d="M86.8,22.6l35.2-0.1l0.4,63l-34.6,38.2L86.8,22.6z M87.8,127.8l34.6-38.2v4.2L87.8,132V127.8z M87.8,136.4
					l34.6-38.2v4.2l-34.6,38.2C87.8,140.6,87.8,136.4,87.8,136.4z M87.8,144.7l34.6-38.2l0.4,46.3l102.1-0.2l35.2,37.5l-171.9,1
					L87.8,144.7z"/>
			</g>
		</g>
	</g>
</g>
<g class="st3">
	<circle class="st4" cx="125.7" cy="127.7" r="94.2"/>
	<g>
		<g>
			<g>
				<defs>
					<circle id="SVGID_3_" cx="125.7" cy="127.7" r="94.2"/>
				</defs>
				<clipPath id="SVGID_4_">
					<use xlink:href="#SVGID_3_"  style="overflow:visible;"/>
				</clipPath>
				<g class="st5">
					
						<rect x="67.8" y="160.9" transform="matrix(0.7071 -0.7071 0.7071 0.7071 -83.4152 178.097)" class="st6" width="210.9" height="57.7"/>
					<polygon class="st6" points="34.9,188.8 20.3,174.2 162.9,30.4 177.4,45.1 					"/>
					<line class="st7" x1="153.3" y1="11" x2="4.6" y2="159.8"/>
				</g>
			</g>
		</g>
	</g>
</g>
<g>
	<path class="st1" d="M282.9,120.5c-2.7,0-4.9-2.2-4.9-4.9V32.2c0-2.7,2.2-4.9,4.9-4.9h23.4c2.7,0,4.9,2.2,4.9,4.9v59.3h26
		c2.7,0,4.9,2.2,4.9,4.9v19.3c0,2.7-2.2,4.9-4.9,4.9L282.9,120.5L282.9,120.5z"/>
</g>
<g>
	<path class="st1" d="M415.9,120.5c-1.8,0-3.5-1-4.3-2.6l-6.5-12.1h-26.9l-6.5,12.1c-0.8,1.6-2.5,2.6-4.3,2.6h-25
		c-2.7,0-4.9-2.2-4.9-4.9c0-0.7,0.2-1.5,0.5-2.1l40.9-83.6c0.8-1.7,2.5-2.7,4.4-2.8H400c1.9,0,3.6,1.1,4.4,2.8l40.5,83.6
		c1.2,2.4,0.1,5.4-2.3,6.5c-0.7,0.3-1.4,0.5-2.1,0.5H415.9z"/>
</g>
<g>
	<path class="st1" d="M474.4,121.4c-11.2,0-20.3-3.4-27.1-10c-3-2.9-5.4-6.2-7.1-10c-1.1-2.5-0.1-5.4,2.4-6.5
		c0.1-0.1,0.2-0.1,0.4-0.1l18.7-6.9c0.5-0.2,1.1-0.3,1.7-0.3c1.4,0,2.8,0.6,3.8,1.8c1.8,2.1,2.9,3,6.5,3c1.2,0,2.4-0.4,2.4-0.9
		c0-1.6-2.9-2.8-8.7-4.7C449,80.8,439,70.2,439,57.1c0-18.2,14.3-30.5,35.5-30.5c11.7,0,26,6,30.8,17.6c1,2.5-0.2,5.4-2.7,6.4
		c0,0-0.1,0-0.1,0.1l-21.3,8c-0.6,0.2-1.1,0.3-1.7,0.3c-1.7,0-3.4-0.9-4.2-2.4c-0.5-0.8-1.9-0.8-1.9-0.8c-0.4,0-0.8,0.2-1.1,0.5
		c0.8,0.8,3.1,1.8,6.8,3.1l2,0.7c17.1,6.2,27.7,13.7,27.7,31.3C508.8,108.2,493.6,121.4,474.4,121.4z"/>
</g>
<g>
	<path class="st1" d="M539.9,121.4c-11.2,0-20.3-3.4-27.1-10c-3-2.9-5.4-6.2-7.1-10c-1.1-2.5-0.1-5.4,2.4-6.5
		c0.1-0.1,0.2-0.1,0.4-0.1l18.7-6.9c0.5-0.2,1.1-0.3,1.7-0.3c1.4,0,2.8,0.6,3.8,1.8c1.8,2.1,2.9,3,6.5,3c1.2,0,2.4-0.4,2.4-0.9
		c0-1.6-2.9-2.8-8.7-4.7c-18.2-6-28.3-16.6-28.3-29.7c0-18.2,14.3-30.5,35.5-30.5c11.7,0,26,6,30.8,17.6c1,2.5-0.2,5.4-2.7,6.4
		c0,0-0.1,0-0.1,0.1l-21.3,8c-2.3,0.9-4.8,0-6-2.1c-0.5-0.8-1.8-0.8-1.9-0.8c-0.4,0-0.8,0.2-1.1,0.5c0.8,0.8,3.1,1.8,6.8,3.1l2,0.7
		c17.1,6.2,27.7,13.7,27.7,31.3C574.3,108.2,559.2,121.4,539.9,121.4z"/>
</g>
<g>
	<path class="st1" d="M580.7,120.5c-2.7,0-4.9-2.2-4.9-4.9l0,0V32.2c0-2.7,2.2-4.9,4.9-4.9l0,0H639c2.7,0,4.9,2.2,4.9,4.9l0,0v19.3
		c0,2.7-2.2,4.9-4.9,4.9h-29.9v2.7H639c2.7,0,4.9,2.2,4.9,4.9v19.3c0,2.7-2.2,4.9-4.9,4.9h-29.9v3.3H639c2.7,0,4.9,2.2,4.9,4.9l0,0
		v19.3c0,2.7-2.2,4.9-4.9,4.9l0,0h-58.3V120.5z"/>
</g>
<g>
	<path d="M306.3,96.4h30.9v19.3h-54.3V32.2h23.4V96.4z"/>
</g>
<g>
	<path d="M415.9,115.6l-7.9-14.7h-32.8l-7.9,14.7h-25l40.9-83.5H400l40.5,83.6L415.9,115.6z M383.9,82.7h15.3L391.6,67L383.9,82.7z"
		/>
</g>
<g>
	<path d="M463.3,92.5c2.4,2.9,4.9,4.8,10.3,4.8c3.8,0,7.3-2,7.3-5.8c0-5.2-5.3-7.1-12-9.3c-13.8-4.6-24.9-12.6-24.9-25
		c0-15.5,11.9-25.6,30.6-25.6c10,0,22.3,5.1,26.3,14.6l-21.3,8c-1.3-2.1-3.6-3.3-6.1-3.2c-3.4,0-6.1,2.8-6.1,5.6c0,4,6,6.1,10.3,7.6
		l1.8,0.7c17.1,6.2,24.5,12.7,24.5,26.7s-13,25.1-29.5,25.1c-11.9,0-19.2-4.2-23.7-8.6c-2.6-2.4-4.6-5.4-6.1-8.6L463.3,92.5z"/>
</g>
<g>
	<path d="M528.8,92.5c2.4,2.9,4.9,4.8,10.3,4.8c3.8,0,7.3-2,7.3-5.8c0-5.2-5.3-7.1-12-9.3c-13.8-4.6-24.9-12.6-24.9-25
		c0-15.5,11.9-25.6,30.6-25.6c10,0,22.3,5.1,26.3,14.6L545,54.1c-1.3-2.1-3.6-3.3-6.1-3.2c-3.4,0-6.1,2.8-6.1,5.6
		c0,4,6,6.1,10.3,7.6l1.8,0.7c17.1,6.2,24.5,12.7,24.5,26.7s-13,25.2-29.5,25.2c-11.9,0-19.2-4.2-23.7-8.6c-2.6-2.4-4.6-5.4-6.1-8.6
		L528.8,92.5z"/>
</g>
<g>
	<path d="M604.2,83.3v13.1H639v19.3h-58.3V32.2H639v19.3h-34.8v12.6H639v19.3L604.2,83.3L604.2,83.3z"/>
</g>
<g>
	<path class="st1" d="M705.7,121.5c-31.2,0-56.5-21.4-56.5-47.6s25.3-47.4,56.5-47.4c13.4,0,25,3.3,34.5,9.7l0.3,0.2
		c2.3,1.5,2.9,4.5,1.5,6.8c-0.2,0.3-0.4,0.5-0.6,0.7l-14.6,15.4c-1.7,1.7-4.3,2-6.3,0.7c-4.4-2.9-9.5-4.4-14.7-4.4
		c-13.3,0.1-23.4,8-23.4,18.4c0,10.9,9.6,18.5,23.4,18.5c5.2-0.1,10.4-1.6,14.8-4.4c2-1.2,4.5-0.9,6.1,0.7l14.8,15.3
		c1.9,1.9,1.8,5-0.1,6.9c-0.1,0.1-0.2,0.2-0.3,0.3C739.8,112.2,727.9,121.5,705.7,121.5z"/>
</g>
<g>
	<path class="st1" d="M813.7,120.6c-1.8,0-3.5-1-4.3-2.6l-6.5-12.1H776l-6.5,12.1c-0.8,1.6-2.5,2.6-4.3,2.6h-25
		c-2.7,0-4.9-2.2-4.9-4.9c0-0.7,0.2-1.5,0.5-2.1l40.9-83.5c0.8-1.7,2.5-2.7,4.4-2.7h16.8c1.9,0,3.6,1.1,4.4,2.8l40.5,83.6
		c1.2,2.4,0.2,5.3-2.3,6.5c-0.7,0.3-1.4,0.5-2.1,0.5L813.7,120.6z"/>
</g>
<g>
	<path class="st1" d="M872.2,121.5c-11.2,0-20.3-3.3-27.1-9.9c-3-2.9-5.4-6.2-7.1-10c-1.1-2.5,0-5.4,2.4-6.5
		c0.1-0.1,0.2-0.1,0.3-0.1l18.7-6.9c0.5-0.2,1.1-0.3,1.7-0.3c1.4,0,2.8,0.6,3.7,1.7c1.8,2.1,2.9,3,6.5,3c1.2,0,2.4-0.4,2.4-0.9
		c0-1.6-2.9-2.8-8.7-4.7c-18.2-6-28.3-16.6-28.3-29.7c0-18.2,14.3-30.5,35.5-30.5c11.7,0,26,6,30.8,17.6c1,2.5-0.2,5.4-2.7,6.4
		c0,0-0.1,0-0.1,0.1l-21.3,8c-2.2,0.9-4.8,0-6-2.1c-0.5-0.8-1.8-0.8-1.9-0.8c-0.4,0-0.8,0.2-1.1,0.5c0.8,0.8,3.1,1.8,6.8,3.1
		l0.2,0.1l1.8,0.7c17.1,6.2,27.7,13.7,27.7,31.3C906.6,108.3,891.5,121.5,872.2,121.5z"/>
</g>
<g>
	<path class="st1" d="M962.5,120.6c-2.7,0-4.9-2.2-4.9-4.9l0,0V88.4h-17.8v27.3c0,2.7-2.2,4.9-4.9,4.9l0,0h-23.4
		c-2.7,0-4.9-2.2-4.9-4.9l0,0V32.3c0-2.7,2.2-4.9,4.9-4.9l0,0h23.4c2.7,0,4.9,2.2,4.9,4.9l0,0v27.1h17.8V32.3c0-2.7,2.2-4.9,4.9-4.9
		l0,0h23.4c2.7,0,4.9,2.2,4.9,4.9l0,0v83.5c0,2.7-2.2,4.9-4.9,4.9l0,0L962.5,120.6z"/>
</g>
<g>
	<path d="M723.3,55.9c-5.2-3.4-11.3-5.3-17.5-5.2c-16.5,0.1-28.3,10.5-28.3,23.3c0,13.8,12,23.4,28.3,23.4
		c6.2-0.1,12.2-1.9,17.5-5.1l14.7,15.3c-1.8,1.4-12.6,9.2-32.4,9.2c-28.6,0-51.6-19.3-51.6-42.7s23-42.5,51.6-42.5
		c19.9,0,30.3,7.9,32.2,9.1L723.3,55.9z"/>
</g>
<g>
	<path d="M813.7,115.7l-7.9-14.6H773l-7.8,14.7h-25.1L781,32.2h16.8l40.5,83.6L813.7,115.7z M781.7,82.8H797l-7.5-15.7L781.7,82.8z"
		/>
</g>
<g>
	<path d="M861.1,92.6c2.4,2.9,4.9,4.8,10.3,4.8c3.8,0,7.3-2,7.3-5.8c0-5.2-5.3-7.1-12-9.3c-13.8-4.6-24.9-12.6-24.9-25
		c0-15.5,11.9-25.6,30.6-25.6c10,0,22.3,5.1,26.3,14.6l-21.3,8c-1.3-2.1-3.6-3.3-6.1-3.2c-3.4,0-6.1,2.8-6.1,5.6c0,4,6,6.1,10.3,7.6
		l1.8,0.7c17.1,6.2,24.5,12.7,24.5,26.7s-13,25.2-29.5,25.2c-11.9,0-19.2-4.2-23.7-8.6c-2.6-2.4-4.6-5.4-6.1-8.6L861.1,92.6z"/>
</g>
<g>
	<path d="M934.9,64.3h27.6v-32h23.4v83.5h-23.4V83.6h-27.6v32.2h-23.4V32.3h23.4V64.3z"/>
</g>
</svg>
