<?xml version="1.0" encoding="iso-8859-1"?>
<!-- Generator: Adobe Illustrator 19.1.1, SVG Export Plug-In . SVG Version: 6.00 Build 0)  -->
<svg version="1.1" id="Layer_1" xmlns="http://www.w3.org/2000/svg" xmlns:xlink="http://www.w3.org/1999/xlink" x="0px" y="0px"
	 viewBox="0 0 40 40" style="enable-background:new 0 0 40 40;" xml:space="preserve">
<g>
	<polygon style="fill:#A16A4A;" points="1.5,20.857 1.5,20.103 4.573,12.931 1.642,9.022 2.586,7.929 37.414,7.929 38.358,9.022 
		35.427,12.931 38.5,20.103 38.5,20.857 	"/>
	<g>
		<path style="fill:#704E34;" d="M37.185,8.429l0.532,0.616L35.2,12.4l-0.347,0.463l0.228,0.531L38,20.205v0.152H2v-0.152
			l2.919-6.811l0.228-0.531L4.8,12.4L2.283,9.044l0.532-0.616H37.185 M37.643,7.429H2.357L1,9l3,4l-3,7v1.357h38V20l-3-7l3-4
			L37.643,7.429L37.643,7.429z"/>
	</g>
</g>
<path style="fill:#F5C276;" d="M32,17.5c0-1.381-1.119-2.5-2.5-2.5c-0.566,0-1.082,0.195-1.501,0.512
	c0-0.004,0.001-0.008,0.001-0.012c0-1.381-1.119-2.5-2.5-2.5c-0.746,0-1.408,0.333-1.866,0.852C23.272,13.338,22.676,13,22,13
	c-0.472,0-0.9,0.17-1.242,0.443C20.359,12.593,19.502,12,18.5,12c-0.891,0-1.667,0.469-2.11,1.171C16.113,13.065,15.815,13,15.5,13
	c-1.276,0-2.316,0.959-2.469,2.193C12.708,15.075,12.364,15,12,15c-1.657,0-3,1.343-3,3s1.343,3,3,3c0.885,0,1.672-0.39,2.221-1H30
	v-0.05C31.141,19.718,32,18.709,32,17.5z"/>
<path style="fill:#FFEEA3;" d="M34.945,20C34.978,19.838,35,19.672,35,19.5c0-1.381-1.119-2.5-2.5-2.5
	c-0.746,0-1.408,0.333-1.866,0.852C30.272,17.338,29.676,17,29,17c-1.105,0-2,0.895-2,2c0,0.101,0.015,0.197,0.03,0.293
	C26.728,19.111,26.378,19,26,19c-0.375,0-0.721,0.11-1.021,0.289C24.87,18.009,23.808,17,22.5,17c-0.64,0-1.218,0.248-1.66,0.644
	C20.489,16.687,19.578,16,18.5,16c-0.891,0-1.667,0.469-2.11,1.171C16.113,17.065,15.815,17,15.5,17
	c-0.746,0-1.408,0.333-1.866,0.852C13.272,17.338,12.676,17,12,17s-1.272,0.338-1.634,0.852C9.908,17.333,9.246,17,8.5,17
	C7.119,17,6,18.119,6,19.5c0,0.173,0.027,0.338,0.06,0.5H34.945z"/>
<g>
	<rect x="1.5" y="20.5" style="fill:#E0AC89;" width="37" height="17"/>
	<g>
		<path style="fill:#A16A4A;" d="M38,21v16H2V21H38 M39,20H1v18h38V20L39,20z"/>
	</g>
</g>
<rect x="2" y="26" style="fill:#A16A4A;" width="36" height="1"/>
<rect x="2" y="32" style="fill:#A16A4A;" width="36" height="1"/>
<g>
	<path style="fill:#FFEEA3;" d="M20,27.5c-1.93,0-3.5-1.57-3.5-3.5v-3.5h7V24C23.5,25.93,21.93,27.5,20,27.5z"/>
	<path style="fill:#A16A4A;" d="M23,21v3c0,1.654-1.346,3-3,3s-3-1.346-3-3v-3H23 M24,20h-8v4c0,2.2,1.8,4,4,4s4-1.8,4-4V20L24,20z"
		/>
</g>
<path style="fill:#FFEEA3;" d="M8,38c0-4.033-2.855-7-7-7v7H8z"/>
<polygon style="fill:#F5C276;" points="2,31 2,37 8,37 9,38 1,38 1,30 "/>
<rect x="17" y="20" style="fill:#F5C276;" width="6" height="1"/>
<g>
	<path style="fill:#E0AC89;" d="M1.526,8.5C1.657,6.965,2.43,2.5,7,2.5h26c4.532,0,5.33,4.461,5.471,6H1.526z"/>
	<g>
		<path style="fill:#A16A4A;" d="M33,3c3.666,0,4.644,3.284,4.905,5H2.088C2.339,6.286,3.302,3,7,3H33 M33,2C27.656,2,12.344,2,7,2
			C1.024,2,1,9,1,9h38C39,9,38.931,2,33,2L33,2z"/>
	</g>
</g>
<g>
	<path style="fill:#FFEEA3;" d="M16.5,8.5V8c0-1.93,1.57-3.5,3.5-3.5s3.5,1.57,3.5,3.5v0.5H16.5z"/>
	<path style="fill:#A16A4A;" d="M20,5c1.654,0,3,1.346,3,3h-6C17,6.346,18.346,5,20,5 M20,4c-2.2,0-4,1.761-4,4v1h8V8
		C24,5.761,22.2,4,20,4L20,4z"/>
</g>
<rect x="17" y="8" style="fill:#F5C276;" width="6" height="1"/>
<rect x="14.514" y="14.514" transform="matrix(0.7071 -0.7071 0.7071 0.7071 -6.5978 15.9286)" style="fill:#F75252;" width="2.828" height="2.828"/>
<rect x="23.586" y="15.586" transform="matrix(0.7071 -0.7071 0.7071 0.7071 -4.6985 22.6569)" style="fill:#F75252;" width="2.828" height="2.828"/>
<path style="fill:#A16A4A;" d="M1,30v1c4.145,0,7,2.967,7,7h1C9,33.365,5.635,30,1,30z"/>
<path style="fill:#FFEEA3;" d="M32,38c0-4.033,2.855-7,7-7v7H32z"/>
<polygon style="fill:#F5C276;" points="38,31 38,37 32,37 31,38 39,38 39,30 "/>
<path style="fill:#A16A4A;" d="M39,30v1c-4.145,0-7,2.967-7,7h-1C31,33.365,34.365,30,39,30z"/>
</svg>
