<?xml version="1.0" encoding="utf-8"?>
<!-- Generator: Adobe Illustrator 17.0.0, SVG Export Plug-In . SVG Version: 6.00 Build 0)  -->
<!DOCTYPE svg PUBLIC "-//W3C//DTD SVG 1.1//EN" "http://www.w3.org/Graphics/SVG/1.1/DTD/svg11.dtd">
<svg version="1.1" id="Capa_1" xmlns="http://www.w3.org/2000/svg" xmlns:xlink="http://www.w3.org/1999/xlink" x="0px" y="0px"
	 width="155px" height="40px" viewBox="0 0 155 40" enable-background="new 0 0 155 40" xml:space="preserve">
<g>
	<g>
		<path fill="#0019DB" d="M44.916,35.548c0,2.449-2.004,4.452-4.452,4.452H9.368c-2.449,0-4.452-2.004-4.452-4.452V4.452
			C4.916,2.004,6.92,0,9.368,0h31.095c2.449,0,4.452,2.004,4.452,4.452V35.548z"/>
		<circle fill="#FFFFFF" cx="24.91" cy="19.998" r="10.787"/>
		<path fill="#00198B" d="M33.825,13.037c-1.016-1.016-2.183-1.791-3.426-2.329c0.763,0.452,1.483,1.005,2.139,1.662
			c4.213,4.213,4.213,11.043,0,15.256c-4.213,4.213-11.043,4.213-15.256,0c-0.044-0.044-0.084-0.089-0.127-0.133
			c0.311,0.413,0.652,0.811,1.028,1.187c4.319,4.319,11.323,4.319,15.642,0C38.145,24.359,38.145,17.356,33.825,13.037z"/>
		<path fill="#FFFFFF" d="M40.281,8.754c0,0.284-0.232,0.516-0.516,0.516h-3.603c-0.284,0-0.516-0.232-0.516-0.516V5.151
			c0-0.284,0.232-0.516,0.516-0.516h3.603c0.284,0,0.516,0.232,0.516,0.516V8.754z"/>
		<path d="M28.85,16.058c-1.437-1.437-3.463-1.924-5.301-1.463c0.705,1.093,0.58,2.566-0.377,3.522
			c-0.983,0.983-2.509,1.087-3.61,0.316c-0.551,1.89-0.082,4.014,1.408,5.504c2.176,2.176,5.704,2.176,7.879,0
			C31.026,21.761,31.026,18.234,28.85,16.058z"/>
	</g>
	<g>
		<g>
			<path fill="#0019DB" d="M65.827,2.468c-0.653-0.541-1.452-0.958-2.375-1.24c-0.918-0.281-1.951-0.423-3.069-0.423h-7.546
				c-0.097,0-0.175,0.078-0.175,0.175v17.606c0,0.097,0.078,0.175,0.175,0.175h4.879c0.097,0,0.175-0.078,0.175-0.175v-4.855h2.239
				c1.102,0,2.138-0.138,3.079-0.409c0.949-0.273,1.777-0.69,2.463-1.239c0.688-0.551,1.234-1.24,1.62-2.048
				c0.387-0.808,0.583-1.756,0.583-2.817v-0.05c0-0.992-0.179-1.896-0.531-2.687C66.993,3.688,66.481,3.011,65.827,2.468z
				 M57.892,5.23h2.114c0.843,0,1.505,0.187,1.965,0.556c0.455,0.365,0.676,0.887,0.676,1.596v0.051
				c0,0.659-0.222,1.166-0.679,1.547c-0.46,0.384-1.112,0.579-1.938,0.579h-2.139V5.23z"/>
			<path fill="#0019DB" d="M78.316,4.503c-0.991,0-1.835,0.23-2.508,0.684c-0.51,0.345-0.96,0.735-1.341,1.165V0.226
				c0-0.097-0.078-0.175-0.175-0.175h-4.804c-0.097,0-0.175,0.078-0.175,0.175v18.361c0,0.097,0.078,0.175,0.175,0.175h4.804
				c0.097,0,0.175-0.078,0.175-0.175v-7.369c0-0.704,0.171-1.239,0.509-1.589c0.341-0.353,0.767-0.525,1.302-0.525
				c0.515,0,0.92,0.17,1.235,0.52c0.316,0.351,0.477,0.887,0.477,1.593v7.369c0,0.097,0.078,0.175,0.175,0.175h4.804
				c0.097,0,0.175-0.078,0.175-0.175V9.683c0-1.597-0.428-2.872-1.273-3.791C81.022,4.97,79.826,4.503,78.316,4.503z"/>
			<path fill="#0019DB" d="M97.928,6.639c-0.684-0.649-1.501-1.173-2.43-1.557c-0.931-0.384-1.965-0.579-3.073-0.579
				c-1.108,0-2.146,0.195-3.085,0.579c-0.938,0.384-1.761,0.912-2.445,1.57c-0.684,0.658-1.226,1.439-1.611,2.32
				c-0.385,0.882-0.581,1.833-0.581,2.824v0.05c0,0.992,0.191,1.938,0.568,2.811c0.376,0.873,0.914,1.649,1.599,2.308
				c0.684,0.658,1.503,1.183,2.433,1.558c0.931,0.376,1.964,0.566,3.071,0.566c1.108,0,2.146-0.195,3.085-0.579
				c0.938-0.384,1.761-0.912,2.444-1.57c0.684-0.659,1.226-1.439,1.611-2.32c0.385-0.882,0.581-1.832,0.581-2.824v-0.05
				c0-0.991-0.191-1.937-0.568-2.811C99.152,8.062,98.613,7.29,97.928,6.639z M94.369,13.837c-0.226,0.255-0.506,0.458-0.834,0.605
				c-0.327,0.147-0.701,0.222-1.11,0.222c-0.392,0-0.756-0.078-1.082-0.233c-0.331-0.156-0.622-0.366-0.866-0.623
				c-0.243-0.257-0.434-0.56-0.568-0.903c-0.134-0.343-0.202-0.717-0.202-1.109v-0.05c0-0.377,0.064-0.743,0.191-1.087
				c0.126-0.344,0.305-0.648,0.533-0.904c0.225-0.255,0.506-0.458,0.833-0.605c0.327-0.147,0.701-0.222,1.11-0.222
				c0.391,0,0.755,0.078,1.082,0.233c0.331,0.156,0.622,0.366,0.866,0.623c0.243,0.256,0.434,0.561,0.568,0.904
				c0.134,0.344,0.202,0.717,0.202,1.109v0.05c0,0.376-0.064,0.742-0.19,1.087C94.776,13.276,94.596,13.581,94.369,13.837z"/>
			<path fill="#0019DB" d="M110.735,4.804h-2.994V1.534c0-0.097-0.078-0.175-0.175-0.175h-4.804c-0.097,0-0.175,0.078-0.175,0.175
				v3.271h-1.435c-0.097,0-0.175,0.078-0.175,0.175v3.848c0,0.097,0.078,0.175,0.175,0.175h1.435v5.358
				c0,1.673,0.429,2.885,1.275,3.604c0.837,0.712,2.015,1.073,3.501,1.073c0.682,0,1.315-0.074,1.881-0.219
				c0.564-0.145,1.076-0.341,1.523-0.581c0.057-0.031,0.092-0.09,0.092-0.154v-3.748c0-0.06-0.031-0.116-0.081-0.148
				c-0.051-0.032-0.114-0.036-0.169-0.01c-0.274,0.129-0.561,0.236-0.853,0.317c-0.284,0.079-0.581,0.119-0.884,0.119
				c-0.388,0-0.677-0.089-0.86-0.265c-0.181-0.174-0.273-0.483-0.273-0.918V9.003h2.994c0.097,0,0.175-0.078,0.175-0.175V4.98
				C110.911,4.883,110.832,4.804,110.735,4.804z"/>
			<path fill="#0019DB" d="M125.268,6.639c-0.684-0.649-1.501-1.173-2.43-1.557c-0.931-0.384-1.965-0.579-3.073-0.579
				c-1.108,0-2.146,0.195-3.085,0.579c-0.938,0.384-1.761,0.912-2.445,1.57c-0.684,0.658-1.226,1.439-1.611,2.32
				c-0.385,0.882-0.581,1.833-0.581,2.824v0.05c0,0.992,0.191,1.938,0.568,2.811c0.376,0.873,0.914,1.649,1.599,2.308
				c0.684,0.658,1.503,1.183,2.433,1.558c0.931,0.376,1.964,0.566,3.071,0.566c1.108,0,2.146-0.195,3.085-0.579
				c0.938-0.384,1.761-0.912,2.444-1.57c0.684-0.659,1.227-1.439,1.611-2.32c0.385-0.882,0.581-1.832,0.581-2.824v-0.05
				c0-0.991-0.191-1.937-0.568-2.811C126.491,8.062,125.953,7.29,125.268,6.639z M121.709,13.837
				c-0.226,0.255-0.506,0.458-0.834,0.605c-0.327,0.147-0.701,0.222-1.11,0.222c-0.392,0-0.756-0.078-1.082-0.233
				c-0.331-0.156-0.622-0.366-0.866-0.623c-0.243-0.257-0.434-0.56-0.568-0.903c-0.134-0.343-0.202-0.717-0.202-1.109v-0.05
				c0-0.377,0.064-0.743,0.191-1.087c0.126-0.344,0.305-0.648,0.533-0.904c0.225-0.255,0.506-0.458,0.833-0.605
				c0.327-0.147,0.701-0.222,1.11-0.222c0.391,0,0.755,0.078,1.082,0.233c0.331,0.156,0.622,0.366,0.866,0.623
				c0.243,0.256,0.434,0.561,0.568,0.904c0.134,0.344,0.202,0.717,0.202,1.109v0.05c0,0.376-0.064,0.742-0.19,1.087
				C122.115,13.276,121.936,13.581,121.709,13.837z"/>
		</g>
		<g>
			<path fill="#0019DB" d="M64.922,30.193c-0.581-0.426-1.294-0.793-2.119-1.091c-0.817-0.294-1.742-0.554-2.75-0.772
				c-0.595-0.132-1.094-0.261-1.481-0.385c-0.382-0.121-0.684-0.243-0.899-0.363c-0.199-0.111-0.338-0.229-0.414-0.353
				c-0.076-0.123-0.112-0.266-0.112-0.435v-0.05c0-0.262,0.121-0.478,0.369-0.663c0.261-0.194,0.67-0.292,1.216-0.292
				c0.764,0,1.57,0.145,2.395,0.43c0.827,0.287,1.646,0.715,2.434,1.273c0.038,0.027,0.085,0.037,0.131,0.03
				c0.046-0.008,0.087-0.034,0.113-0.072l2.44-3.456c0.053-0.075,0.039-0.179-0.033-0.237c-0.968-0.786-2.065-1.387-3.262-1.789
				c-1.195-0.401-2.572-0.604-4.093-0.604c-1.07,0-2.044,0.142-2.897,0.423c-0.856,0.282-1.6,0.686-2.209,1.2
				c-0.613,0.517-1.085,1.137-1.405,1.844c-0.319,0.705-0.481,1.49-0.481,2.332v0.05c0,0.931,0.181,1.724,0.538,2.358
				c0.355,0.632,0.847,1.167,1.462,1.59c0.606,0.418,1.328,0.763,2.146,1.027c0.807,0.26,1.692,0.502,2.632,0.72
				c0.596,0.132,1.086,0.262,1.454,0.385c0.364,0.121,0.657,0.247,0.872,0.374c0.199,0.118,0.335,0.237,0.404,0.353
				c0.067,0.114,0.102,0.249,0.102,0.401v0.05c0,0.322-0.141,0.565-0.431,0.742c-0.315,0.191-0.787,0.288-1.406,0.288
				c-1.996,0-3.88-0.698-5.6-2.074c-0.074-0.059-0.183-0.049-0.244,0.025l-2.716,3.252c-0.06,0.072-0.053,0.18,0.017,0.243
				c1.102,0.99,2.388,1.743,3.82,2.237c1.429,0.493,2.959,0.743,4.547,0.743c1.085,0,2.083-0.133,2.968-0.396
				c0.89-0.265,1.663-0.655,2.298-1.161c0.638-0.508,1.141-1.132,1.495-1.855c0.354-0.724,0.533-1.561,0.533-2.487v-0.05
				c0-0.844-0.159-1.584-0.472-2.201C65.969,31.158,65.512,30.626,64.922,30.193z"/>
			<path fill="#0019DB" d="M77.469,25.665h-2.994v-3.271c0-0.097-0.078-0.175-0.175-0.175h-4.804c-0.097,0-0.175,0.078-0.175,0.175
				v3.271h-1.435c-0.097,0-0.175,0.078-0.175,0.175v3.848c0,0.097,0.078,0.175,0.175,0.175h1.435v5.358
				c0,1.673,0.429,2.885,1.275,3.604c0.837,0.712,2.015,1.073,3.501,1.073c0.682,0,1.315-0.074,1.881-0.219
				c0.564-0.145,1.076-0.341,1.523-0.581c0.057-0.031,0.092-0.09,0.092-0.154v-3.748c0-0.06-0.031-0.116-0.081-0.148
				c-0.051-0.032-0.114-0.036-0.169-0.01c-0.274,0.129-0.561,0.236-0.853,0.317c-0.284,0.079-0.581,0.119-0.884,0.119
				c-0.388,0-0.677-0.089-0.86-0.265c-0.181-0.174-0.273-0.483-0.273-0.918v-4.428h2.994c0.097,0,0.175-0.078,0.175-0.175V25.84
				C77.644,25.743,77.566,25.665,77.469,25.665z"/>
			<path fill="#0019DB" d="M88.619,25.439c-1.181-0.052-2.134,0.215-2.836,0.794c-0.512,0.422-0.946,0.953-1.298,1.585V25.84
				c0-0.097-0.078-0.175-0.175-0.175h-4.804c-0.097,0-0.175,0.078-0.175,0.175v13.607c0,0.097,0.078,0.175,0.175,0.175h4.804
				c0.097,0,0.175-0.078,0.175-0.175v-4.225c0-1.524,0.323-2.652,0.961-3.353c0.633-0.696,1.562-1.049,2.763-1.049h0.402
				c0.097,0,0.175-0.078,0.175-0.175v-5.03C88.786,25.52,88.713,25.443,88.619,25.439z"/>
			<path fill="#0019DB" d="M101.913,27.652c-0.576-0.696-1.316-1.258-2.199-1.669c-0.883-0.411-1.936-0.62-3.13-0.62
				c-1.026,0-1.98,0.191-2.837,0.568c-0.856,0.377-1.607,0.902-2.232,1.561c-0.625,0.659-1.115,1.44-1.457,2.321
				c-0.342,0.88-0.515,1.836-0.515,2.843v0.05c0,1.075,0.186,2.071,0.554,2.959c0.368,0.891,0.89,1.66,1.55,2.286
				c0.659,0.625,1.453,1.12,2.359,1.47c0.905,0.35,1.917,0.527,3.006,0.527c1.38,0,2.579-0.261,3.565-0.774
				c0.982-0.513,1.818-1.206,2.484-2.06c0.058-0.075,0.047-0.182-0.026-0.243l-2.641-2.188c-0.07-0.057-0.172-0.053-0.236,0.011
				c-0.47,0.469-0.939,0.813-1.395,1.021c-0.452,0.206-0.957,0.311-1.499,0.311c-0.714,0-1.318-0.175-1.797-0.52
				c-0.425-0.306-0.732-0.765-0.917-1.368h8.875c0.09,0,0.166-0.068,0.174-0.158c0.017-0.175,0.026-0.35,0.026-0.52v-0.478
				c0-1.019-0.142-1.997-0.423-2.906C102.921,29.162,102.487,28.346,101.913,27.652z M94.458,31.349
				c0.138-0.623,0.38-1.129,0.721-1.505c0.371-0.41,0.839-0.609,1.43-0.609c0.609,0,1.094,0.2,1.482,0.611
				c0.354,0.376,0.583,0.881,0.682,1.503H94.458z"/>
			<path fill="#0019DB" d="M117.13,27.652c-0.576-0.696-1.316-1.258-2.199-1.669c-0.883-0.411-1.936-0.62-3.13-0.62
				c-1.026,0-1.98,0.191-2.837,0.568c-0.856,0.377-1.607,0.902-2.232,1.561c-0.625,0.659-1.115,1.44-1.457,2.321
				c-0.342,0.88-0.515,1.836-0.515,2.843v0.05c0,1.075,0.186,2.071,0.554,2.959c0.368,0.891,0.89,1.66,1.55,2.286
				c0.659,0.625,1.453,1.12,2.359,1.47c0.905,0.35,1.917,0.527,3.006,0.527c1.38,0,2.579-0.261,3.565-0.774
				c0.982-0.513,1.818-1.206,2.484-2.06c0.058-0.075,0.047-0.182-0.026-0.243l-2.641-2.188c-0.07-0.057-0.172-0.053-0.236,0.011
				c-0.47,0.469-0.939,0.813-1.395,1.021c-0.452,0.206-0.957,0.311-1.499,0.311c-0.714,0-1.318-0.175-1.797-0.52
				c-0.425-0.306-0.732-0.765-0.917-1.368h8.875c0.09,0,0.166-0.068,0.174-0.158c0.017-0.175,0.026-0.35,0.026-0.52v-0.478
				c0-1.019-0.142-1.997-0.423-2.906C118.137,29.162,117.703,28.346,117.13,27.652z M109.675,31.349
				c0.138-0.623,0.38-1.129,0.721-1.505c0.371-0.41,0.839-0.609,1.43-0.609c0.609,0,1.094,0.2,1.482,0.611
				c0.354,0.376,0.583,0.881,0.682,1.503H109.675z"/>
			<path fill="#0019DB" d="M141.581,26.713c-0.853-0.896-2.047-1.35-3.549-1.35c-1.031,0-1.931,0.206-2.675,0.612
				c-0.669,0.366-1.29,0.861-1.847,1.475c-0.373-0.626-0.878-1.125-1.503-1.485c-0.695-0.399-1.519-0.602-2.451-0.602
				c-0.986,0-1.831,0.23-2.511,0.683c-0.519,0.346-0.975,0.738-1.362,1.169V25.84c0-0.097-0.078-0.175-0.175-0.175h-4.804
				c-0.097,0-0.175,0.078-0.175,0.175v13.607c0,0.097,0.078,0.175,0.175,0.175h4.804c0.097,0,0.175-0.078,0.175-0.175v-7.395
				c0-0.705,0.164-1.235,0.489-1.577c0.326-0.344,0.738-0.511,1.259-0.511c0.518,0,0.917,0.166,1.218,0.507
				c0.303,0.342,0.456,0.875,0.456,1.582v7.395c0,0.097,0.078,0.175,0.175,0.175h4.804c0.097,0,0.175-0.078,0.175-0.175v-7.395
				c0-0.704,0.168-1.234,0.5-1.576c0.335-0.345,0.752-0.513,1.274-0.513c0.518,0,0.917,0.166,1.218,0.507
				c0.303,0.342,0.456,0.875,0.456,1.582v7.395c0,0.097,0.078,0.175,0.175,0.175h4.804c0.097,0,0.175-0.078,0.175-0.175v-8.929
				C142.862,28.887,142.431,27.606,141.581,26.713z"/>
		</g>
	</g>
</g>
</svg>
