<?xml version="1.0" encoding="utf-8"?>
<!-- Generator: Adobe Illustrator 17.0.0, SVG Export Plug-In . SVG Version: 6.00 Build 0)  -->
<!DOCTYPE svg PUBLIC "-//W3C//DTD SVG 1.1//EN" "http://www.w3.org/Graphics/SVG/1.1/DTD/svg11.dtd">
<svg version="1.1" id="Capa_1" xmlns="http://www.w3.org/2000/svg" xmlns:xlink="http://www.w3.org/1999/xlink" x="0px" y="0px"
	 width="40px" height="40px" viewBox="0 0 40 40" enable-background="new 0 0 40 40" xml:space="preserve">
<g>
	<g>
		<path fill="#0019DB" d="M40,35.548C40,37.996,37.996,40,35.548,40H4.452C2.004,40,0,37.996,0,35.548V4.452
			C0,2.004,2.004,0,4.452,0h31.095C37.996,0,40,2.004,40,4.452V35.548z"/>
		<circle fill="#FFFFFF" cx="19.994" cy="19.998" r="10.787"/>
		<path fill="#00198B" d="M28.909,13.037c-1.016-1.016-2.183-1.791-3.426-2.329c0.763,0.452,1.483,1.005,2.139,1.662
			c4.213,4.213,4.213,11.043,0,15.256c-4.213,4.213-11.043,4.213-15.256,0c-0.044-0.044-0.084-0.089-0.127-0.133
			c0.311,0.413,0.652,0.811,1.028,1.187c4.319,4.319,11.323,4.319,15.642,0C33.229,24.359,33.229,17.356,28.909,13.037z"/>
		<path fill="#FFFFFF" d="M35.365,8.754c0,0.284-0.232,0.516-0.516,0.516h-3.603c-0.284,0-0.516-0.232-0.516-0.516V5.151
			c0-0.284,0.232-0.516,0.516-0.516h3.603c0.284,0,0.516,0.232,0.516,0.516V8.754z"/>
		<path d="M23.934,16.058c-1.437-1.437-3.463-1.924-5.301-1.463c0.705,1.093,0.58,2.566-0.377,3.522
			c-0.983,0.983-2.509,1.087-3.61,0.316c-0.551,1.89-0.082,4.014,1.408,5.504c2.176,2.176,5.704,2.176,7.879,0
			C26.11,21.761,26.11,18.234,23.934,16.058z"/>
	</g>
</g>
</svg>
