<svg xmlns="http://www.w3.org/2000/svg" viewBox="0 0 2118.18 499.62"><defs><style>.cls-1{fill:#00b4b5;}.cls-2{fill:#fa9b00;}.cls-3{fill:#fff;}</style></defs><title>splintertalk_logo_multi-color</title><g id="Layer_2" data-name="Layer 2"><g id="Layer_1-2" data-name="Layer 1"><path class="cls-1" d="M693.12,172.41l-2.75-1.15c-7.33-3-17.4-8-15.34-17.4,1.37-7.1,8.47-13.51,15.11-13.51,3.66,0,8.47,2.06,11.22,10.3l36.18-15.8c-2.29-20.84-20.38-31.6-37.55-31.6-31.15,0-55.42,20.61-62.06,52-5.5,25,9.39,43.06,31.14,50.38,11.22,4.36,19.7,6.87,16.72,21.07-1.6,7.56-8.7,14.2-16.72,14.2-10.3,0-14.65-7.1-17.4-15.11l-32.52,12.82a49.66,49.66,0,0,0,6,19.69c5.5,10.08,15.35,19.47,35.5,19.47h1.83c27.71,0,54.28-22.67,60.23-51.07C728.61,198.52,718.54,184.55,693.12,172.41Z"/><path class="cls-1" d="M825.94,104.62H772.35l-36.18,171.3H773l13.74-65.27h16.71c30,0,55.88-24,62.29-53.58C872,127.29,855.93,104.62,825.94,104.62Zm3,52.45c-1.37,6.18-6.64,16.48-17.4,16.48H794.79l6.64-32.06h16.72C828.91,141.49,830.06,151.34,828.91,157.07Z"/><polygon class="cls-1" points="936.54 104.39 899.67 104.39 863.26 275.92 955.78 275.92 963.56 239.05 907.92 239.05 936.54 104.39"/><polygon class="cls-1" points="1013.49 104.62 977.3 275.92 1014.17 275.92 1050.36 104.62 1013.49 104.62"/><polygon class="cls-1" points="1154.78 203.55 1106.92 104.62 1073.02 104.62 1036.84 275.92 1071.88 275.92 1092.95 176.76 1140.81 275.92 1174.47 275.92 1210.65 104.85 1175.62 104.85 1154.78 203.55"/><polygon class="cls-1" points="1345.76 104.62 1234.7 104.62 1226.91 141.49 1263.78 141.49 1235.38 275.92 1272.25 275.92 1300.65 141.26 1337.98 141.26 1345.76 104.62"/><polygon class="cls-1" points="1398.2 141.49 1457.74 141.49 1465.53 104.62 1369.12 104.62 1332.93 275.92 1429.35 275.92 1437.13 239.05 1377.59 239.05 1384 208.36 1443.54 208.36 1451.33 171.49 1391.79 171.49 1398.2 141.49"/><path class="cls-1" d="M1587.58,158.21c6.19-29.77-11-53.59-41.68-53.59h-56.1l-36.18,171.3h37.09l14.2-66.87h4.58l24.28,66.87h42.13l-25.87-71C1571.1,195.08,1583,179.51,1587.58,158.21Zm-37.1,0c-1.83,8.24-8.47,16.95-19.46,16.95h-19l7.1-33.67h19C1549.11,141.49,1552.09,150.42,1550.48,158.21Z"/><polygon class="cls-2" points="1714.45 141.26 1722.23 104.62 1611.17 104.62 1603.38 141.49 1640.25 141.49 1611.86 275.92 1648.72 275.92 1677.12 141.26 1714.45 141.26"/><path class="cls-2" d="M1770.78,104.62l-104.42,171.3H1706L1725.21,245h59.08l7.1,30.92h39.39l-32.29-171.3Zm-24.5,105.57,24.73-40.3,7.1,40.3Z"/><polygon class="cls-2" points="1920.09 104.39 1883.22 104.39 1846.81 275.92 1939.33 275.92 1947.11 239.05 1891.46 239.05 1920.09 104.39"/><path class="cls-2" d="M2118.18,104.62H2076l-56.57,67.79c2.29-7.33,6.42-26.57,15.12-67.79h-36.87l-36.18,171.3h36.87L2014,202.41l25.65,73.51h43.28l-35.27-85.42Z"/><rect class="cls-3" x="67" y="29" width="361" height="322"/><path class="cls-2" d="M500,324.18V57.82A57.82,57.82,0,0,0,442.18,0H57.82A57.82,57.82,0,0,0,0,57.82V324.18A57.82,57.82,0,0,0,57.82,382h191.4a3.31,3.31,0,0,0,1.07.82L495.17,499.29a3.18,3.18,0,0,0,4.07-4.56L429,382h13.18A57.82,57.82,0,0,0,500,324.18ZM359.56,94.57l-21,64.71-1.41,4.33-1.1-3.4L308.61,75.79l-.67-2h14A44.31,44.31,0,0,1,359.56,94.57ZM177.17,73.75h14l-.66,2L163.1,160.21l-1.11,3.4-1.41-4.33-21-64.71A44.34,44.34,0,0,1,177.17,73.75Zm0,233.52a44.35,44.35,0,0,1-37.61-20.81l21-64.72,1.41-4.33,1.11,3.4,27.42,84.42.66,2ZM249.56,73.75h58.38l-1.45,2.77L278.92,129l-.17.33L249.56,73.75l-29.19,55.54-.17-.33L192.64,76.52l-1.46-2.77Zm0,233.52H191.18l1.46-2.77,27.56-52.44.17-.32,29.19,55.53,29.19-55.53.17.32,27.57,52.45,1.45,2.76Zm72.4,0h-14l.67-2L336,220.81l1.1-3.4,1.41,4.33,21,64.72A44.32,44.32,0,0,1,322,307.27Z"/></g></g></svg>