<svg xmlns="http://www.w3.org/2000/svg" viewBox="0 0 500 499.62"><defs><style>.cls-1{fill:#fa9b00;}</style></defs><title>splintertalk_icon_gold</title><g id="Layer_2" data-name="Layer 2"><g id="Layer_1-2" data-name="Layer 1"><path class="cls-1" d="M500,324.18V57.82A57.82,57.82,0,0,0,442.18,0H57.82A57.82,57.82,0,0,0,0,57.82V324.18A57.82,57.82,0,0,0,57.82,382h191.4a3.31,3.31,0,0,0,1.07.82L495.17,499.29a3.18,3.18,0,0,0,4.07-4.56L429,382h13.18A57.82,57.82,0,0,0,500,324.18ZM359.56,94.57l-21,64.71-1.41,4.33-1.1-3.4L308.61,75.79l-.67-2h14A44.31,44.31,0,0,1,359.56,94.57ZM177.17,73.75h14l-.66,2L163.1,160.21l-1.11,3.4-1.41-4.33-21-64.71A44.34,44.34,0,0,1,177.17,73.75Zm0,233.52a44.35,44.35,0,0,1-37.61-20.81l21-64.72,1.41-4.33,1.11,3.4,27.42,84.42.66,2ZM249.56,73.75h58.38l-1.45,2.77L278.92,129l-.17.33L249.56,73.75l-29.19,55.54-.17-.33L192.64,76.52l-1.46-2.77Zm0,233.52H191.18l1.46-2.77,27.56-52.44.17-.32,29.19,55.53,29.19-55.53.17.32,27.57,52.45,1.45,2.76Zm72.4,0h-14l.67-2L336,220.81l1.1-3.4,1.41,4.33,21,64.72A44.32,44.32,0,0,1,322,307.27Z"/></g></g></svg>