<?xml version="1.0" encoding="utf-8"?>
<!-- Generator: Adobe Illustrator 22.0.0, SVG Export Plug-In . SVG Version: 6.00 Build 0)  -->
<svg version="1.1" id="Capa_1" xmlns="http://www.w3.org/2000/svg" xmlns:xlink="http://www.w3.org/1999/xlink" x="0px" y="0px"
	 viewBox="0 0 1103 288" style="enable-background:new 0 0 1103 288;" xml:space="preserve">
<style type="text/css">
	.st0{fill:url(#SVGID_1_);}
	.st1{fill:url(#SVGID_2_);}
	.st2{fill:url(#SVGID_3_);}
	.st3{fill:url(#SVGID_4_);}
	.st4{fill:url(#SVGID_5_);}
	.st5{fill:url(#SVGID_6_);}
	.st6{fill:url(#SVGID_7_);}
	.st7{fill:url(#SVGID_8_);}
	.st8{fill:url(#SVGID_9_);}
	.st9{fill:url(#SVGID_10_);}
	.st10{fill:url(#SVGID_11_);}
	.st11{fill:url(#SVGID_12_);}
	.st12{fill:url(#SVGID_13_);}
	.st13{fill:url(#SVGID_14_);}
	.st14{fill:url(#SVGID_15_);}
	.st15{fill:url(#SVGID_16_);}
	.st16{fill:url(#SVGID_17_);}
	.st17{fill:url(#SVGID_18_);}
	.st18{fill:url(#SVGID_19_);}
	.st19{fill:url(#SVGID_20_);}
</style>
<g>
	<linearGradient id="SVGID_1_" gradientUnits="userSpaceOnUse" x1="75.2496" y1="258.5988" x2="254.2496" y2="69.5988">
		<stop  offset="0" style="stop-color:#FFF206"/>
		<stop  offset="0.5123" style="stop-color:#FF952F"/>
		<stop  offset="1" style="stop-color:#FF3C37"/>
	</linearGradient>
	<path class="st0" d="M195.4,42.3c2.4-4.3,4.7-8.3,6.8-12.2c0.9-1.7,2.2-1.4,3.5-1c5.3,1.7,10.7,3.2,16,5.2
		c10.7,4.1,21.4,8.6,32.1,12.7c3.1,1.2,4.3,3.2,4.1,6.2c-0.5,7.6-0.6,15.2-1.6,22.7c-1.6,11.7-3.5,23.4-6.1,34.9
		c-2.9,12.6-6.6,25.1-11.2,37.3c-5.7,14.9-11.8,29.6-20,43.4c-10.8,18.3-23.4,35.4-38.5,50.5c-13.1,13-27.6,24.2-43.5,33.6
		c-0.8,0.5-2.3,0.7-3.1,0.2c-7.5-4.7-15-9.5-22.2-14.5c-6.1-4.3-12-8.9-17.9-13.5c-3-2.3-5.8-4.9-8.7-7.4c-0.7-0.6-1.3-1.5-1.8-2.2
		c8.4,0.6,16.5,1.2,24.7,1.9c1.4,0.1,2.8,1,3.9,1.9c5.3,4,10.6,8,15.9,12.1c0.7,0.5,1.4,1,2,1.5c4.4,3,6.6,3.1,10.9-0.1
		c5.5-4.1,11.1-8.2,16.2-12.6c15.9-13.9,29.7-29.7,41.4-47.3c10.7-16.1,18.6-33.6,25.4-51.6c8.5-22.6,13.8-46.1,16.8-70
		c0.5-3.8,0.6-7.6,1-11.3c0.2-2.2-0.7-3.6-2.7-4.5c-4.3-1.8-8.5-3.9-12.8-5.4c-9.2-3.2-18.5-6.1-27.7-9.1
		C197.3,43.1,196.4,42.7,195.4,42.3z"/>
	<linearGradient id="SVGID_2_" gradientUnits="userSpaceOnUse" x1="58.6626" y1="242.8895" x2="237.6626" y2="53.8895">
		<stop  offset="0" style="stop-color:#FFF206"/>
		<stop  offset="0.5123" style="stop-color:#FF952F"/>
		<stop  offset="1" style="stop-color:#FF3C37"/>
	</linearGradient>
	<path class="st1" d="M139.7,100.9c0.9,0.7,2,1.4,2.8,2.3c1.7,1.7,3.5,2,5.7,0.8c4.6-2.3,9.3-4.4,14.1-6.4c1.7-0.7,3.7-0.7,5.6-0.8
		c0.8-0.1,1.6,0.5,2.4,0.7c0,0.3,0,0.6,0,0.9c-1.3,0.4-2.6,0.8-4.4,1.4c4.4,1,8.5,2,13.3,3.2c-3.9,4.5-7.8,7.2-12.4,8.9
		c-1.1-1.7-2-3.2-3-4.7c-1.4,1-3,1.8-4.2,2.9c-2.3,2.2-3.8,0.1-5.9-1.3c-0.4,1.4-0.8,2.6-0.9,3.7c-0.4,8.1-0.1,16.2,1.4,24.3
		c1.3,6.9-0.3,10.2-6.8,13.1c-5.7,2.5-10.4,6.1-13.3,11.7c-0.6,1.1-1.1,2.3-1.5,3.5c-0.7,2.1-0.2,4.1,1.6,5.4
		c4,2.9,8.6,4.4,13.5,4.8c0.4,0,0.8-0.1,1.2-0.2c0.3-0.1,0.6-0.3,1.3-0.7c-2.1-1.6-3.8-2.8-5.5-4.1c0.1-0.2,0.2-0.5,0.2-0.7
		c1.2,0.3,2.5,0.4,3.6,0.8c3.2,1.1,6.4,1.6,9.6,0.3c3.4-1.3,3.9-2.8,2.4-6.1c-0.4-0.9-0.3-1.9-0.6-3.3c5.7,0.7,7.2,6.2,11.7,7.9
		c-0.4-1.1-0.5-2.3-1.1-3.3c-1.7-2.5-3.4-5.1-5.5-7.3c-1.6-1.7-1.8-3.1-0.6-5c1.4-2.2,2.6-4.6,4.2-6.9c1.4,5.2,5.4,8.5,8.4,12.5
		c7.8,10.2,10,21.9,8.6,34.2c-1.2,9.9-7.1,17.7-14.6,24.2c-1.3,1.1-2.7,2-4.1,3c-0.3,0.2-0.8,0.2-1.9,0.6c0.6-1.9,1-3.3,1.6-4.6
		c3-6.7,4.8-13.7,4.6-21.2c-0.1-2.2-0.5-4.4-1.4-6.8c-0.3,0.6-0.7,1.2-1,1.9c-1.1,3.1-2.1,6.2-3.4,9.2c-0.8,1.7-2.1,3.3-3.4,5.2
		c-2.1-2.9-0.6-6.7-3.7-8.4c-2,4.4-3.7,8.7-5.9,12.8c-2.3,4.2-5.3,7.8-10.2,10.4c1.6-8.4,3.1-16.4,4.7-24.9c0.8,1.3,1.3,2.4,2,3.4
		c0.6,0.9,1.3,1.8,2.2,3c3.5-5.8,1.4-12.2,3.6-18.6c2.2,2.3,3.9,4,6,6.2c0.9-3.4,0.2-6.3-0.6-9.2c-0.1-0.5-1.7-1.1-2.4-0.9
		c-8.7,2.8-16.7-0.4-24.8-2.5c-2.3-0.6-4.5-0.7-6.8-0.1c-4.3,1.1-8.6,2-13,3c-3.9,1-7.7,0.8-11.5-0.7c-1-0.4-2.2-0.6-3.6-1.1
		c0.1,3.8-0.8,7.2,1.1,11c1.5-1.2,2.6-2.1,4.2-3.4c1,4.8-0.3,9.9,2.3,14.6c1.7-2.4,3.1-4.4,4.6-6.6c0.5,0.6,0.9,0.9,0.9,1.1
		c-1,7.5,1.4,14.6,2.8,21.8c0.3,1.8,0.5,3.5,0.6,5.3c0,0.8-0.3,1.5-0.4,2.3c-0.5,0-0.8,0-0.9-0.1c-4.4-8.8-11.6-15.1-18.9-21.4
		c-2.7-2.3-5.1-5.1-7.2-7.9c-1.9-2.4-2.8-5.4-2-8.9c2,1.7,3.8,3.3,5.6,4.8c0.2-0.1,0.5-0.3,0.7-0.4c0-1.4,0.2-2.8,0-4.2
		c-0.7-3.8-1.8-7.6-2.3-11.5c-0.4-3.2-0.4-6.5-0.1-9.8c0.6-5.3-1.8-9.1-5.4-12.7c-3.1,2.6-5.6,5.3-7.3,8.8c-1.6,3.3-3,6.6-4.7,10.3
		c-1.8-2-1.6-3.8-1.4-5.5c0.6-5.7,2.2-11,5.7-15.6c2.6-3.4,3.4-6.6,2.3-10.8c-0.8-2.8-0.1-6,0.2-9.1c0.1-0.9,0.8-1.8,1.4-3.1
		c1.5,4.7,2.5,9.1,4.4,13.1c1.9,4,4.8,7.6,9.2,10.7c0-4.9,0-9,0-13.2c0.2-0.1,0.4-0.1,0.7-0.2c0.4,0.5,0.7,1,1.1,1.6
		c1.5,2.5,3,5.1,4.6,7.6c1.2,1.8,1.2,3.2-0.5,4.7c-3.2,2.9-4.5,6.9-4.7,11.1c-0.3,6.1,5,10.4,11.4,9.4c1.4-0.2,2.8-0.8,4.3-1.2
		c1-0.2,2-0.3,2.9-0.5c0.1,0.2,0.2,0.5,0.3,0.7c-1.8,1.3-3.7,2.6-5.8,4.1c5.1,2.1,16.6-1.7,18.4-6.2c0.6-1.4,0.1-3.6-0.6-5.1
		c-2.1-4.5-5.4-8.1-9.8-10.4c-1.5-0.8-3-1.6-4.3-2.7c-1.1-0.9-2.1-2.1-2.8-3.4c-1.2-2.2-0.5-3.3,1.9-3.1c2.2,0.2,4.4,0.6,6.5,1.2
		c2.2,0.7,4.3,1.6,6.5,2.6c3.9,1.7,7.8,1.8,11.6-0.2c3.2-1.7,6.5-2.9,10.2-3.1c3.3-0.2,4.9-2.4,4.6-6.3c-0.3-4-0.9-8-1.5-11.9
		c-0.2-1.7-0.7-3.3-1-5c-0.8-5.1-2.9-9.7-5.8-13.9c-1.1-1.6-2-3.4-2.9-5.1C139.1,101.4,139.4,101.1,139.7,100.9z"/>
	<linearGradient id="SVGID_3_" gradientUnits="userSpaceOnUse" x1="-11.2172" y1="176.707" x2="167.7828" y2="-12.293">
		<stop  offset="0" style="stop-color:#FFF206"/>
		<stop  offset="0.5123" style="stop-color:#FF952F"/>
		<stop  offset="1" style="stop-color:#FF3C37"/>
	</linearGradient>
	<path class="st2" d="M10.4,128c0.7-0.8,1.2-1.6,2-2.3c6.7-6,10.7-13.8,14.8-21.5c2.8-5.2,5.6-10.4,8.4-15.6
		c2.1-3.8,5.1-6.7,8.8-8.9c7.6-4.4,15.8-6.3,24.5-5.9c0.1,0.2,0.2,0.4,0.3,0.7c-0.9,0.5-1.8,1.1-2.7,1.5C60,79,53.7,82.5,48.9,88.1
		c-3.1,3.6-5.1,7.6-6.8,12.7c10.4-4.5,20.1-8.8,29.8-13c9.6-4.2,19.7-7.4,29.1-14.3c-0.3,1.8-0.2,3.1-0.8,3.9
		c-1.9,2.4-3.6,5.1-6.1,6.7c-5,3.3-10.3,6.2-15.6,9.1c-8.8,4.7-17.6,9.2-25.3,15.6c-8.7,7.3-13.1,16.9-15.1,27.8
		c-0.3,1.7,0,3.5,0,5.7c11-7.9,21.6-15.6,32.2-23.2c0.2,0.1,0.3,0.1,0.5,0.2c-0.4,1.2-0.6,2.5-1.1,3.7c-2.9,6-7.5,10.6-12.5,15
		c-4.7,4.1-9.3,8.3-13.7,12.7c-4,4-6.7,8.9-7.6,14.7c-0.2,1.2-0.8,2.3-1.6,3.4c-3.4-7.3-4.4-15.1-5.1-22.8
		c-0.7-7.8-0.1-15.6,2.1-23.9c-1.7,0.6-2.7,0.9-3.7,1.3c-4.4,1.6-8.9,3.3-13.4,4.9c-1.1,0.4-2.4,0.4-3.5,0.6
		C10.6,128.4,10.5,128.2,10.4,128z"/>
	<linearGradient id="SVGID_4_" gradientUnits="userSpaceOnUse" x1="43.1121" y1="228.1618" x2="222.1122" y2="39.1618">
		<stop  offset="0" style="stop-color:#FFF206"/>
		<stop  offset="0.5123" style="stop-color:#FF952F"/>
		<stop  offset="1" style="stop-color:#FF3C37"/>
	</linearGradient>
	<path class="st3" d="M50.9,195.6c-2.8,4.5-4.6,9.2-9.3,12.4c-0.2-1.2-0.4-1.9-0.4-2.7c0-3.4-0.2-6.8,0-10.1
		c0.5-8.2,0.9-16.4,1.9-24.6c1.3-10.5,6.3-19.4,14-26.7c2.1-2,4.6-3.6,8.3-4.3c-0.5,1.2-0.6,2-1,2.5c-8.4,11.4-10.9,24.1-7.7,37.8
		c1.2,4.9,3,9.7,4.5,14.5c0.2,0.7,0.6,1.3,1.3,2.5c1-3.3,1.9-6,2.9-9.3c1.8,6.2,3,11.7,5,17c2,5.3,5.3,9.9,9.8,13.7
		c-2.4-7.3-4.4-14.5-4.1-22.2c0.2-7.6,0.2-15.1,2.9-22.2c0.3,0,0.6,0,1-0.1c0.2,1,0.4,2,0.5,3c0.4,5.4,0.5,10.8,1.1,16.1
		c1.3,11,5.9,20.6,12.3,29.5c2.4,3.4,5.1,6.8,7.6,10.2c0.4,0.5,0.6,1,1.3,2.2c-3.7-0.3-6.8-0.4-9.8-0.9c-4.1-0.8-8.2-1.9-12.3-3
		c-2.8-0.7-2.8-0.7-3.9,2c-1.5,3.6-3,7.2-4.7,10.7c-0.5,1.1-1.5,1.9-2.8,3.4c-0.4-1.4-0.8-2.1-0.8-2.8c0.5-10.2-3.3-19.2-7.6-28.1
		c-2.9-5.9-5.6-11.8-8.4-17.7C52,197.4,51.5,196.7,50.9,195.6z"/>
	<linearGradient id="SVGID_5_" gradientUnits="userSpaceOnUse" x1="4.5585" y1="191.648" x2="183.5585" y2="2.648">
		<stop  offset="0" style="stop-color:#FFF206"/>
		<stop  offset="0.5123" style="stop-color:#FF952F"/>
		<stop  offset="1" style="stop-color:#FF3C37"/>
	</linearGradient>
	<path class="st4" d="M198.6,17.5c-0.1,2.5,0,5.1-0.5,7.6c-2.2,10.9-11.4,19.1-23.3,20C164,46,153,46,142,46.6
		c-4.5,0.2-9.1,0.5-13.5,1.2c-12.9,2.2-19.1,14-13.7,26.1c0.7,1.7,1.4,3.3,2.1,5c-0.3,0.2-0.6,0.4-0.8,0.7c-1-0.6-2.1-1-3-1.7
		c-6.3-5.3-8.4-12.2-7.5-20.1c0.1-1.3,0.3-2.5,0.4-3.8c0-0.5,0-1-0.1-2.1c-5.2,3.4-7,8.5-8.8,14.3c-2.3-2.6-2.8-5-2.3-7.5
		c1.3-6.9,5.2-12.1,11.1-15.9c7.5-4.9,15.9-7.4,24.7-8c10.2-0.7,20.4-1.1,30.6-2c6.8-0.6,13.7-1.2,20.3-2.9
		c6.6-1.6,12-5.7,15.7-11.6c0.2-0.3,0.6-0.5,0.8-0.8C198.1,17.4,198.4,17.5,198.6,17.5z"/>
	<linearGradient id="SVGID_6_" gradientUnits="userSpaceOnUse" x1="-25.1876" y1="163.4758" x2="153.8124" y2="-25.5242">
		<stop  offset="0" style="stop-color:#FFF206"/>
		<stop  offset="0.5123" style="stop-color:#FF952F"/>
		<stop  offset="1" style="stop-color:#FF3C37"/>
	</linearGradient>
	<path class="st5" d="M63.6,65.5c-3.1-0.4-4.5-2.4-5.7-4.7c-4.3-8.1-2.5-17.2,4.3-23.3c5-4.5,10.8-7.4,17.3-8.8
		c9.7-2,19.5-3.7,29.2-5.7c7.9-1.6,15.7-3.2,23.5-5.1c2.9-0.7,5.7-2.1,9.2-3.4c-0.4,1.7-0.4,2.9-0.9,4c-1.4,3.4-4.2,5.6-7.4,7
		c-5.8,2.5-11.7,4.8-17.7,6.9c-7.2,2.5-14.5,4.6-21.7,7c-1.7,0.6-3.4,1.3-4.8,2.3c-7.3,5.1-8.9,11.7-4.9,19.6
		c1.6,3.3,3.8,6.1,6.8,8.2c0.9,0.6,1.6,1.5,2.6,2.3c-1.6,1.9-3.5,2-5.4,1.7C78,72.4,70.7,64.4,70.3,54.2c0-1.3,0-2.5-0.1-3.8
		c-0.3-1.9-1.3-2.4-2.8-1.2c-3,2.2-4.4,5.4-4.5,9C62.8,60.6,63.3,62.9,63.6,65.5z"/>
	<linearGradient id="SVGID_7_" gradientUnits="userSpaceOnUse" x1="24.8324" y1="210.8492" x2="203.8324" y2="21.8492">
		<stop  offset="0" style="stop-color:#FFF206"/>
		<stop  offset="0.5123" style="stop-color:#FF952F"/>
		<stop  offset="1" style="stop-color:#FF3C37"/>
	</linearGradient>
	<path class="st6" d="M143.1,60.3c-7.7-2.8-13.4,2.9-20.6,4.5c1.3-4.8,3.7-8.2,7.8-10.2c4.8-2.4,10-3.1,15.1-2.5
		c11.3,1.3,22.5,3.2,33.8,4.8c8.1,1.2,16.3,2.4,24.6,1.1c2-0.3,3.9-0.9,5.9-1.3c1.3-0.3,2.6-0.4,4.5-0.7c-0.5,1.2-0.6,1.9-1,2.4
		c-4.4,5.2-9.8,8.4-16.7,9.4c-9.3,1.3-18.5-0.2-27.8-0.3c-6.1-0.1-12.2-0.8-18.3-0.4c-8,0.4-14.3,4.5-19.3,10.7
		c-1,1.2-2,2.3-3.3,3.3c-0.9-5,0.7-9.2,3.6-13.1C134.3,64,138.4,61.8,143.1,60.3z"/>
	<linearGradient id="SVGID_8_" gradientUnits="userSpaceOnUse" x1="45.0446" y1="229.992" x2="224.0446" y2="40.992">
		<stop  offset="0" style="stop-color:#FFF206"/>
		<stop  offset="0.5123" style="stop-color:#FF952F"/>
		<stop  offset="1" style="stop-color:#FF3C37"/>
	</linearGradient>
	<path class="st7" d="M143.9,73.6c7.6-2.9,15.3-4.6,23.2-0.8c5.8,2.8,11.4,6,17,9.2c6.7,3.8,13.6,7.5,21.4,8.1
		c5.4,0.4,10.8,0.2,16.1,0.2c1.3,0,2.7,0,4,0c0.1,0.3,0.2,0.6,0.3,0.8c-0.7,0.5-1.4,1-2.1,1.3c-15.2,5.8-30.2,6.4-44.8-2
		c-4.4-2.5-8.7-5.1-13.1-7.7c-6.1-3.6-12.6-6.3-19.6-7.7c-0.8-0.2-1.6-0.5-2.3-0.8C143.8,74.1,143.9,73.8,143.9,73.6z"/>
	<linearGradient id="SVGID_9_" gradientUnits="userSpaceOnUse" x1="83.6024" y1="266.5097" x2="262.6024" y2="77.5097">
		<stop  offset="0" style="stop-color:#FFF206"/>
		<stop  offset="0.5123" style="stop-color:#FF952F"/>
		<stop  offset="1" style="stop-color:#FF3C37"/>
	</linearGradient>
	<path class="st8" d="M132.5,197.1c1.2,2.9,2.2,5.3,3.2,7.7c0.3,0,0.7,0,1,0c2.8-5.2,2.1-11.2,3.6-16.8c2.4,5.8,4.6,11.8,2.2,18.1
		c-1.5,3.9-3.4,7.7-5.2,11.5c-2.8,5.7-5.9,11.3-5.5,17.9c0.1,1.1-0.5,2.2-0.8,3.3c-7.8-3.7-15.4-19.6-14-30c1.2,1.7,2.1,3.1,3.1,4.3
		c1.3,1.8,2.6,3.6,4.1,5.2c0.5,0.5,1.6,1,2.1,0.8c0.6-0.2,0.9-1.3,1.1-2c1.4-6.2,2.7-12.4,4-18.5
		C131.4,198.4,131.7,198.2,132.5,197.1z"/>
	<linearGradient id="SVGID_10_" gradientUnits="userSpaceOnUse" x1="15.8938" y1="202.3836" x2="194.8938" y2="13.3836">
		<stop  offset="0" style="stop-color:#FFF206"/>
		<stop  offset="0.5123" style="stop-color:#FF952F"/>
		<stop  offset="1" style="stop-color:#FF3C37"/>
	</linearGradient>
	<path class="st9" d="M124.3,102.6c-2.4,3.7-5.2,7.3-7.1,11.3c-1.9,3.9-2.9,8.2-4.6,13c-2.7-5.9-2.1-11.6-1.7-17.3
		c-0.9,0-1.4-0.1-1.7,0.1c-2.8,1.6-5,1.2-7.2-1.3c-1.5-1.7-2.9-1.1-3.6,1.2c-0.8,3-1.1,3.3-3.7,1.8c-3.6-2-7.4-3.9-10.5-7.5
		c4.4-3.5,9.7-2.5,14.7-4.2c-2.8-0.4-5.1-0.7-7.3-1c0-0.3-0.1-0.7-0.1-1c1-0.3,2-0.8,3-0.9c4.5-0.5,8.5,1.2,12.4,3.1
		c2.4,1.2,4.7,2.4,7,3.7c2.5,1.4,4.8,1.4,7.1-0.3c0.8-0.6,1.7-0.9,2.6-1.3C123.8,102.1,124,102.3,124.3,102.6z"/>
	<linearGradient id="SVGID_11_" gradientUnits="userSpaceOnUse" x1="-37.3879" y1="151.921" x2="141.6121" y2="-37.079">
		<stop  offset="0" style="stop-color:#FFF206"/>
		<stop  offset="0.5123" style="stop-color:#FF952F"/>
		<stop  offset="1" style="stop-color:#FF3C37"/>
	</linearGradient>
	<path class="st10" d="M56.8,67.9c-1.8,0.6-3.1,1.3-4.5,1.5C44.2,71,37,74.7,30.6,79.8c-4.7,3.7-7.9,8.7-10.2,14.3
		c-0.3,0.8-0.6,1.6-0.9,2.3c-0.1,0.1-0.3,0.2-0.5,0.3c-3.5-6-0.7-21,8-27.8C34.4,63.2,51,62.3,56.8,67.9z"/>
	<linearGradient id="SVGID_12_" gradientUnits="userSpaceOnUse" x1="64.1882" y1="248.1227" x2="243.1882" y2="59.1227">
		<stop  offset="0" style="stop-color:#FFF206"/>
		<stop  offset="0.5123" style="stop-color:#FF952F"/>
		<stop  offset="1" style="stop-color:#FF3C37"/>
	</linearGradient>
	<path class="st11" d="M164.8,137c2.2,3.1-0.3,11.8-4.1,14.3c-2.7-1.8-2.9-2.1-1.5-4.7c1.7-3.2,3.5-6.4,5.3-9.5
		C164.5,137,164.7,137,164.8,137z"/>
</g>
<g>
	<g>
		
			<linearGradient id="SVGID_13_" gradientUnits="userSpaceOnUse" x1="1509.463" y1="261.9966" x2="195.6907" y2="134.9018" gradientTransform="matrix(1 0 0 -1 0 290)">
			<stop  offset="0" style="stop-color:#FFF206"/>
			<stop  offset="0.5123" style="stop-color:#FF952F"/>
			<stop  offset="1" style="stop-color:#FF3C37"/>
		</linearGradient>
		<path class="st12" d="M329.3,171.6c0-4.2-1.4-7.4-4.1-9.7c-2.7-2.2-7.6-4.6-14.7-7.2c-14.4-4.7-25.1-9.8-32.1-15.2
			s-10.5-13.1-10.5-23.2c0-9.9,4.1-17.8,12.2-23.9s18.4-9.1,31-9.1c13.2,0,23.9,3.1,31.9,9.4c8.1,6.3,12,15.1,11.7,26.6l-0.2,0.5
			h-26.1c0-5.5-1.5-9.6-4.5-12.1s-7.5-3.8-13.5-3.8c-4.9,0-8.7,1.2-11.5,3.6s-4.2,5.4-4.2,9c0,3.5,1.4,6.2,4.3,8.3
			c2.9,2.1,8.3,4.7,16.2,7.8c13.4,4,23.6,9,30.5,14.8s10.4,13.8,10.4,23.9c0,10.3-4,18.4-11.9,24.3c-8,5.8-18.5,8.8-31.7,8.8
			c-13.1,0-24.2-3.1-33.3-9.4c-9.1-6.3-13.5-16.2-13.3-29.6l0.2-0.5h26.2c0,6.8,1.7,11.7,5,14.6c3.3,2.9,8.4,4.3,15.3,4.3
			c5.6,0,9.8-1.1,12.6-3.4C327.9,178.3,329.3,175.3,329.3,171.6z"/>
		
			<linearGradient id="SVGID_14_" gradientUnits="userSpaceOnUse" x1="1509.6183" y1="254.0301" x2="196.5504" y2="127.0034" gradientTransform="matrix(1 0 0 -1 0 290)">
			<stop  offset="0" style="stop-color:#FFF206"/>
			<stop  offset="0.5123" style="stop-color:#FF952F"/>
			<stop  offset="1" style="stop-color:#FF3C37"/>
		</linearGradient>
		<path class="st13" d="M451.6,106.2h-30.7v96.7H394v-96.7h-30.1v-21h87.7L451.6,106.2L451.6,106.2z"/>
		
			<linearGradient id="SVGID_15_" gradientUnits="userSpaceOnUse" x1="1512.1288" y1="243.8798" x2="196.965" y2="116.6504" gradientTransform="matrix(1 0 0 -1 0 290)">
			<stop  offset="0" style="stop-color:#FFF206"/>
			<stop  offset="0.5123" style="stop-color:#FF952F"/>
			<stop  offset="1" style="stop-color:#FF3C37"/>
		</linearGradient>
		<path class="st14" d="M530.2,152.5h-40.9v29.3h49v21h-75.9V85.2h76v21h-49.1v25.3h40.9V152.5z"/>
		
			<linearGradient id="SVGID_16_" gradientUnits="userSpaceOnUse" x1="1512.7992" y1="235.1317" x2="197.6354" y2="107.9022" gradientTransform="matrix(1 0 0 -1 0 290)">
			<stop  offset="0" style="stop-color:#FFF206"/>
			<stop  offset="0.5123" style="stop-color:#FF952F"/>
			<stop  offset="1" style="stop-color:#FF3C37"/>
		</linearGradient>
		<path class="st15" d="M621.3,152.5h-40.9v29.3h49v21h-75.9V85.2h76v21h-49.1v25.3h40.9V152.5z"/>
		
			<linearGradient id="SVGID_17_" gradientUnits="userSpaceOnUse" x1="1513.0945" y1="224.0544" x2="198.8256" y2="96.9116" gradientTransform="matrix(1 0 0 -1 0 290)">
			<stop  offset="0" style="stop-color:#FFF206"/>
			<stop  offset="0.5123" style="stop-color:#FF952F"/>
			<stop  offset="1" style="stop-color:#FF3C37"/>
		</linearGradient>
		<path class="st16" d="M705.8,167.5h0.5l26.2-82.4H768v117.7h-26.9V127l-0.5-0.1L715,202.8h-18L671.9,128l-0.5,0.1v74.7h-26.9V85.2
			h35.3L705.8,167.5z"/>
		
			<linearGradient id="SVGID_18_" gradientUnits="userSpaceOnUse" x1="1543.3829" y1="212.6087" x2="230.2535" y2="85.5765" gradientTransform="matrix(1 0 0 -1 0 290)">
			<stop  offset="0" style="stop-color:#FFF206"/>
			<stop  offset="0.5123" style="stop-color:#FF952F"/>
			<stop  offset="1" style="stop-color:#FF3C37"/>
		</linearGradient>
		<path class="st17" d="M843.4,181.8h49.8v21h-76.7V85.2h26.9V181.8z"/>
		
			<linearGradient id="SVGID_19_" gradientUnits="userSpaceOnUse" x1="1545.1838" y1="204.0088" x2="230.02" y2="76.7794" gradientTransform="matrix(1 0 0 -1 0 290)">
			<stop  offset="0" style="stop-color:#FFF206"/>
			<stop  offset="0.5123" style="stop-color:#FF952F"/>
			<stop  offset="1" style="stop-color:#FF3C37"/>
		</linearGradient>
		<path class="st18" d="M975.4,152.5h-40.9v29.3h49v21h-75.9V85.2h76v21h-49.1v25.3h40.9V152.5z"/>
		
			<linearGradient id="SVGID_20_" gradientUnits="userSpaceOnUse" x1="1545.1979" y1="194.262" x2="231.9496" y2="67.2183" gradientTransform="matrix(1 0 0 -1 0 290)">
			<stop  offset="0" style="stop-color:#FFF206"/>
			<stop  offset="0.5123" style="stop-color:#FF952F"/>
			<stop  offset="1" style="stop-color:#FF3C37"/>
		</linearGradient>
		<path class="st19" d="M1095,154.6c0,14.5-4.5,26.4-13.6,35.9c-9.1,9.4-20.9,14.1-35.5,14.1c-14.7,0-26.6-4.7-35.8-14.1
			c-9.1-9.4-13.7-21.4-13.7-35.9v-21.2c0-14.4,4.6-26.4,13.7-35.8c9.1-9.4,21-14.1,35.6-14.1c14.5,0,26.4,4.7,35.5,14.1
			s13.7,21.4,13.7,35.8L1095,154.6L1095,154.6z M1068.2,133.2c0-8.4-2-15.3-5.9-20.7c-3.9-5.4-9.4-8.1-16.5-8.1
			c-7.3,0-12.8,2.7-16.7,8c-3.8,5.4-5.8,12.3-5.8,20.7v21.3c0,8.5,2,15.5,5.9,20.9c3.9,5.4,9.5,8.1,16.8,8.1
			c7.1,0,12.5-2.7,16.4-8.1c3.9-5.4,5.8-12.3,5.8-20.9L1068.2,133.2L1068.2,133.2z"/>
	</g>
</g>
</svg>
