<svg width="46" height="46" viewBox="0 0 46 46" xmlns="http://www.w3.org/2000/svg"><g transform="translate(0 1)" fill="none" fill-rule="evenodd"><path d="M29.163 28.688l-.184.185a13.4 13.4 0 0 1-1.205 1.074l-.482.379a.175.175 0 0 1-.204.01.175.175 0 0 1-.078-.188l.192-.855a5.323 5.323 0 0 0-.135-2.814l-.102-.316c-.12-.366-.26-.73-.415-1.082l-2.237-5.272-.24-.718a3.343 3.343 0 0 1-.15-.684l-.041-.36a3.33 3.33 0 0 1 .953-2.735l.184-.185c.378-.38.784-.741 1.205-1.073l.481-.38a.175.175 0 0 1 .204-.01c.065.04.095.114.079.189l-.192.855a5.321 5.321 0 0 0 .134 2.814l.103.315c.12.366.259.73.415 1.082l2.237 5.273.24.718c.073.222.124.452.15.684l.04.36a3.33 3.33 0 0 1-.952 2.734zm-6.445 1.73l-.235.237a16.91 16.91 0 0 1-1.517 1.351l-.63.496a.193.193 0 0 1-.308-.194l.248-1.108a6.725 6.725 0 0 0-.17-3.555l-.13-.4a14.66 14.66 0 0 0-.523-1.367l-2.822-6.65-.302-.905a4.193 4.193 0 0 1-.19-.857l-.05-.46a4.17 4.17 0 0 1 1.193-3.424l.235-.237c.477-.479.987-.933 1.518-1.351l.629-.496a.191.191 0 0 1 .222-.011c.07.044.104.125.086.206l-.248 1.107a6.72 6.72 0 0 0 .17 3.555l.13.4c.15.462.327.922.523 1.367l2.822 6.65.302.905c.093.278.156.567.189.857l.052.46a4.17 4.17 0 0 1-1.194 3.424zm-7.553-1.73l-.184.185c-.378.38-.784.742-1.205 1.074l-.482.379a.175.175 0 0 1-.204.01.175.175 0 0 1-.078-.188l.192-.855a5.32 5.32 0 0 0-.134-2.814l-.103-.316a11.66 11.66 0 0 0-.415-1.082l-2.237-5.272-.24-.718a3.341 3.341 0 0 1-.15-.684l-.04-.36a3.33 3.33 0 0 1 .952-2.735l.184-.185c.379-.38.784-.741 1.205-1.073l.482-.38a.175.175 0 0 1 .204-.01c.064.04.095.114.078.189l-.191.855a5.321 5.321 0 0 0 .133 2.814l.103.315c.12.366.259.73.415 1.082l2.237 5.273.24.718c.074.222.125.452.15.684l.041.36a3.33 3.33 0 0 1-.953 2.734zM20 2C8.954 2 0 10.954 0 22s8.954 20 20 20 20-8.954 20-20S31.046 2 20 2z" fill="#3A29D2"/><ellipse fill="#FFF" cx="37.861" cy="9.478" rx="7.328" ry="7.109"/><path d="M40.121 8.212l-3.34 6.998c-.108.225-.453.115-.407-.13l.798-4.302a.355.355 0 0 0-.353-.417h-1.27a.23.23 0 0 1-.212-.328l3.34-6.999c.108-.224.453-.115.408.13l-.798 4.303c-.04.217.129.416.353.416h1.27a.23.23 0 0 1 .211.329zm4.816-4.303L38.48.238a1.827 1.827 0 0 0-1.806 0l-6.458 3.67a1.773 1.773 0 0 0-.903 1.54v7.342c0 .635.344 1.222.903 1.54L36.673 18a1.825 1.825 0 0 0 1.806 0l6.458-3.67c.559-.318.903-.905.903-1.54V5.45c0-.635-.344-1.223-.903-1.54z" fill="#F76900"/></g></svg>