<svg width="46" height="46" viewBox="0 0 46 46" xmlns="http://www.w3.org/2000/svg" xmlns:xlink="http://www.w3.org/1999/xlink"><defs><path id="a" d="M0 0h40v40H0z"/></defs><g transform="translate(0 3)" fill="none" fill-rule="evenodd"><circle fill="#FFF" cx="19.396" cy="19.666" r="18.182"/><mask id="b" fill="#fff"><use xlink:href="#a"/></mask><path d="M20.41 18.97a.84.84 0 0 0 .294-.67c0-.303-.1-.52-.3-.647-.2-.127-.507-.191-.922-.191h-.838v1.76h.826c.431 0 .745-.084.94-.252zm.317 1.779c-.239-.148-.602-.222-1.09-.222h-.993v2.012h.994c.965 0 1.449-.352 1.449-1.054 0-.343-.12-.588-.36-.736zm7.227-3.108c.271.08.503.213.695.4.191.189.341.44.45.755.107.316.16.705.16 1.168 0 .471-.053.866-.16 1.185-.109.32-.259.578-.45.773a1.676 1.676 0 0 1-.695.425 2.943 2.943 0 0 1-.91.132h-.335V17.52h.335c.335 0 .639.04.91.12zm2.838 4.072a3.238 3.238 0 0 1-.778 1.227 3.194 3.194 0 0 1-1.204.724 4.8 4.8 0 0 1-1.562.24h-2.3v-7.808h2.204c.599 0 1.137.076 1.616.228.48.151.89.385 1.234.7.343.316.607.717.79 1.204.184.487.276 1.066.276 1.736 0 .67-.092 1.254-.276 1.749zm-8.215.922a2.01 2.01 0 0 1-.647.712 2.985 2.985 0 0 1-.964.42 4.88 4.88 0 0 1-1.186.137h-2.898v-7.808h2.67c.408 0 .785.03 1.133.09.347.06.65.166.91.317.259.152.463.352.61.599.148.248.222.56.222.934a2.048 2.048 0 0 1-.276 1.018 1.854 1.854 0 0 1-.317.407c-.124.12-.265.208-.425.264v.048c.2.047.383.122.551.221a1.695 1.695 0 0 1 .742.91c.072.203.108.437.108.701 0 .399-.078.742-.233 1.03zm-8.01-.077a2.227 2.227 0 0 1-.575.766c-.25.22-.56.395-.928.527a3.674 3.674 0 0 1-1.245.198c-.511 0-1.02-.094-1.527-.282a3.983 3.983 0 0 1-1.36-.844l1.007-1.21c.28.24.588.436.928.587.34.152.672.228 1 .228.367 0 .64-.068.82-.204.18-.135.27-.319.27-.55a.6.6 0 0 0-.078-.312.748.748 0 0 0-.228-.233 2.13 2.13 0 0 0-.36-.192l-.46-.197-1.018-.432c-.2-.08-.393-.183-.581-.31a2.553 2.553 0 0 1-.503-.45 2.028 2.028 0 0 1-.485-1.371c0-.32.068-.621.204-.904a2.25 2.25 0 0 1 .574-.743c.248-.211.541-.377.88-.497.34-.12.713-.18 1.12-.18.455 0 .905.089 1.348.264a3.41 3.41 0 0 1 1.167.767l-.898 1.113a3.409 3.409 0 0 0-.766-.46 2.168 2.168 0 0 0-.85-.163c-.304 0-.546.062-.725.186a.596.596 0 0 0-.27.521c0 .12.03.221.09.305.06.084.144.16.252.228.107.068.233.132.377.192s.3.125.467.197l1.006.407c.479.192.856.455 1.132.79.275.336.413.779.413 1.33 0 .327-.066.636-.198.928zM20 0C8.954 0 0 8.954 0 20s8.954 20 20 20 20-8.954 20-20S31.046 0 20 0z" fill="#3A29D2" mask="url(#b)"/></g></svg>