<svg width="46" height="46" viewBox="0 0 46 46" xmlns="http://www.w3.org/2000/svg"><g transform="translate(0 3)" fill="none" fill-rule="evenodd"><circle fill="#FFF" cx="19.396" cy="19.668" r="18.182"/><path d="M20 0C8.954 0 0 8.954 0 20s8.954 20 20 20 20-8.954 20-20S31.046 0 20 0z" fill="#3A29D2"/><path d="M29.163 26.689l-.184.185a13.4 13.4 0 0 1-1.205 1.073l-.482.38a.175.175 0 0 1-.204.01.175.175 0 0 1-.078-.189l.192-.855a5.323 5.323 0 0 0-.135-2.814l-.102-.316c-.12-.365-.26-.729-.415-1.081v-.001l-2.237-5.272-.24-.718a3.346 3.346 0 0 1-.15-.684l-.041-.36a3.33 3.33 0 0 1 .953-2.734l.184-.185c.378-.38.784-.742 1.205-1.074l.481-.379a.175.175 0 0 1 .204-.01c.065.04.095.114.079.188l-.192.855a5.321 5.321 0 0 0 .134 2.814l.103.316c.12.365.259.729.415 1.081l2.237 5.273.24.718c.073.222.124.452.15.684l.04.36a3.33 3.33 0 0 1-.952 2.735zM22.718 28.418l-.236.237c-.476.48-.986.934-1.517 1.352l-.629.495a.193.193 0 0 1-.223.012.192.192 0 0 1-.085-.206l.248-1.107a6.725 6.725 0 0 0-.17-3.556l-.13-.4a14.687 14.687 0 0 0-.523-1.366l-.001-.001-2.821-6.65-.303-.904a4.187 4.187 0 0 1-.188-.858l-.052-.46a4.17 4.17 0 0 1 1.193-3.423l.236-.237a16.88 16.88 0 0 1 1.518-1.352l.628-.495a.191.191 0 0 1 .223-.012c.07.044.104.125.086.206l-.248 1.108a6.72 6.72 0 0 0 .169 3.555l.13.4c.152.462.328.921.524 1.366l2.822 6.651.302.905c.093.278.156.566.189.857l.052.46a4.17 4.17 0 0 1-1.194 3.423zM15.165 26.689l-.184.185c-.379.38-.784.74-1.206 1.073l-.481.38a.175.175 0 0 1-.204.01.175.175 0 0 1-.078-.189l.19-.855a5.32 5.32 0 0 0-.133-2.814l-.103-.316c-.12-.365-.259-.729-.414-1.081v-.001l-2.238-5.272-.24-.718a3.344 3.344 0 0 1-.15-.684l-.04-.36a3.33 3.33 0 0 1 .952-2.734l.184-.185c.38-.38.784-.742 1.205-1.074l.482-.379a.175.175 0 0 1 .204-.01c.064.04.095.114.079.188l-.192.855a5.32 5.32 0 0 0 .134 2.814l.103.316c.12.365.258.729.414 1.081l2.237 5.273.24.718c.074.222.125.452.151.684l.04.36a3.33 3.33 0 0 1-.953 2.735z" fill="#FFF"/></g></svg>