<?xml version="1.0" encoding="utf-8"?>
<!-- Generator: Adobe Illustrator 21.1.0, SVG Export Plug-In . SVG Version: 6.00 Build 0)  -->
<svg version="1.1" xmlns="http://www.w3.org/2000/svg" xmlns:xlink="http://www.w3.org/1999/xlink" x="0px" y="0px"
	 viewBox="0 0 1259.2 222.5" style="enable-background:new 0 0 1259.2 222.5;" xml:space="preserve">
<style type="text/css">
	.st0{display:none;}
	.st1{display:inline;fill:#FFFFFF;}
	.st2{fill:url(#SVGID_1_);}
	.st3{fill:url(#SVGID_2_);}
	.st4{fill:url(#SVGID_3_);}
	.st5{fill:url(#SVGID_4_);}
	.st6{fill:url(#SVGID_5_);}
	.st7{fill:url(#SVGID_6_);}
	.st8{fill:url(#SVGID_7_);}
	.st9{fill:url(#SVGID_8_);}
	.st10{fill:url(#SVGID_9_);}
	.st11{fill:url(#SVGID_10_);}
	.st12{fill:url(#SVGID_11_);}
	.st13{fill:url(#SVGID_12_);}
	.st14{fill:url(#SVGID_13_);}
	.st15{fill:url(#SVGID_14_);}
</style>
<g id="White_Symbol" class="st0">
	<circle class="st1" cx="96.1" cy="102.1" r="73.5"/>
</g>
<g id="Logomark">
	<linearGradient id="SVGID_1_" gradientUnits="userSpaceOnUse" x1="96.1307" y1="5.9765" x2="96.1307" y2="198.2378">
		<stop  offset="0" style="stop-color:#3BB54A"/>
		<stop  offset="1" style="stop-color:#009347"/>
	</linearGradient>
	<path class="st2" d="M96.1,6C43,6,0,49,0,102.1s43,96.1,96.1,96.1s96.1-43,96.1-96.1S149.2,6,96.1,6z M96.7,46.5
		c9.5,0,17.2,7.8,17.2,17.3c0,9.5-7.8,17.2-17.3,17.2c-9.5,0-17.2-7.8-17.2-17.3C79.5,54.2,87.2,46.5,96.7,46.5z M96.7,85.3
		c9.5,0,17.3,7.7,17.3,17.2c0,9.5-7.8,17.2-17.3,17.2c-9.5,0-17.2-7.8-17.2-17.3C79.5,93,87.2,85.3,96.7,85.3z M75.1,144.4
		c1.8,6.7-1.9,9.8-7.2,9.9c-6.2,0.2-12.4,0.3-18.6,0.2c-5.3-0.1-8.2-3.2-8.2-8.5c0-2.5,0-5,0.2-7.5c0.6-7.1,2.1-14,5.4-20.2
		c2.1-4,5-7.6,7.7-11.2c3.3-4.4,3.4-5-0.1-9.2c-5.6-6.8-10.3-14.3-11.6-23.1c-0.9-6.3-0.8-12.8-0.9-19.2c0-2.5,2.2-4.1,5.4-4.7
		c6.2-1.1,12.3-0.8,18.5-0.1c1.4,0.2,2.8,0.4,4.2,0.5c3.7,0.3,6.5,4,5.4,7.6c-2.8,9.3,1.6,19.8,10.2,24.5c0.1,0.1,0.2,0.1,0.3,0.2
		c-14.9,8.2-15,28.9-0.6,37.4c-3.3,1.9-6,4.5-7.8,7.7C74.6,133.7,73.6,138.9,75.1,144.4z M96.6,157.7c-9.5,0-17.2-7.8-17.2-17.3
		c0-9.4,7.8-17.1,17.3-17.1c9.5,0,17.2,7.8,17.2,17.3C113.9,150,106.1,157.8,96.6,157.7z M151.9,146.7c0,4.4-2.4,7.3-6.8,7.6
		c-6.1,0.4-12.2,0.2-18.3,0.2c-1.7,0-3.5-0.4-5.2-0.8c-2.6-0.7-4.9-3.9-3.8-7.5c3.1-9.9-0.4-19.1-9.1-24.8c-0.2-0.1-0.3-0.2-0.5-0.3
		c14.4-8.5,14.2-29.2-0.7-37.4c3.6-2,6.5-4.6,8.5-8.2c3-5.4,3.7-11.1,1.9-17.1c-0.9-3,1.3-6.5,4.5-6.9c5.2-0.5,10.3-1,15.5-1.2
		c3.1-0.1,6.2,0.4,9.2,1.1c3,0.6,4.1,2.3,4.2,5.4c0.2,8,0.2,15.9-2.3,23.6c-2.4,7-6.4,13-11,18.6c-2.6,3.1-2.5,4.1-0.1,7.3
		c1.2,1.6,2.4,3.2,3.6,4.7c6.3,7.7,8.9,16.9,10,26.6C151.9,140.5,151.9,143.6,151.9,146.7z"/>
</g>
<g id="Logotype">
	<g>
		<linearGradient id="SVGID_2_" gradientUnits="userSpaceOnUse" x1="262.2145" y1="39.2725" x2="262.2145" y2="163.438">
			<stop  offset="0" style="stop-color:#3BB54A"/>
			<stop  offset="1" style="stop-color:#009347"/>
		</linearGradient>
		<path class="st3" d="M241.5,67.3v-28h27.1v28h24.9v21.9h-24.9v37.6c0,9.9,5.8,13.3,12,13.3c5.8,0,11.8-1.9,15.9-3.9v23
			c-4.1,2.1-12.7,4.3-23.7,4.3c-14.8,0-29.2-6.9-31.2-26.6c-0.2-3-0.6-6.2-0.6-9.5V89.2H228V67.3H241.5z"/>
		<linearGradient id="SVGID_3_" gradientUnits="userSpaceOnUse" x1="330.4669" y1="64.7041" x2="330.4669" y2="160.8198">
			<stop  offset="0" style="stop-color:#3BB54A"/>
			<stop  offset="1" style="stop-color:#009347"/>
		</linearGradient>
		<path class="st4" d="M300.5,67.3H326l0.6,9.2c0,2.8,0,5,0.2,6.2c5.8-10.1,15.5-18,27.7-18c3,0,5.6,0.4,6,0.6v27.3
			c-0.4-0.2-2.6-1.1-6.2-1.1c-14.2,0-25.8,12.5-25.8,29.5v39.8h-27.9V67.3z"/>
		<linearGradient id="SVGID_4_" gradientUnits="userSpaceOnUse" x1="399.8439" y1="64.7041" x2="399.8439" y2="163.438">
			<stop  offset="0" style="stop-color:#3BB54A"/>
			<stop  offset="1" style="stop-color:#009347"/>
		</linearGradient>
		<path class="st5" d="M364.7,71.1c5.2-2.4,17.8-6.4,34.2-6.4c28.8,0,43.2,13.8,43.2,37.2v58.9h-25.2l-0.6-8.6
			c-0.2-3.9,0.4-6.5,0.4-6.5h-0.4c-2.4,5.6-11.8,17.8-29,17.8c-16.1,0-29.7-9.3-29.7-28.4c0-22.8,23.2-34,56.8-29.4v-2.2
			c0-11.2-7.7-15.3-20-15.3c-11.8,0-23.6,4.1-29.7,8V71.1z M413.7,120.2c-20.9-3.4-29.7,3.2-29.7,12c0,6,4.1,9.9,10.7,9.9
			C405.5,142.1,413.7,132.2,413.7,120.2z"/>
		<linearGradient id="SVGID_5_" gradientUnits="userSpaceOnUse" x1="504.8417" y1="23.5649" x2="504.8417" y2="160.8198">
			<stop  offset="0" style="stop-color:#3BB54A"/>
			<stop  offset="1" style="stop-color:#009347"/>
		</linearGradient>
		<path class="st6" d="M555.4,47.1c4.5,0,8,0.7,9.5,1.3V24.7c-1.7-0.4-6.5-1.1-12.3-1.1c-25.1,0-38.7,14-38.7,35.3v8.4h-8.2h-5
			h-16.8v-5.2c0-9.7,6.2-15,15.7-15c4.5,0,8,0.7,9.5,1.3V24.7c-1.7-0.4-6.5-1.1-12.3-1.1c-25.1,0-38.7,14-38.7,35.3v8.4h-13.3v21.9
			h12.3v71.6h27.9V89.2h15.7h5h7.3v71.6h27.9V89.2h20.8V67.3h-21.9v-5.2C539.7,52.4,545.9,47.1,555.4,47.1z"/>
		<linearGradient id="SVGID_6_" gradientUnits="userSpaceOnUse" x1="583.6603" y1="25.4351" x2="583.6603" y2="160.8198">
			<stop  offset="0" style="stop-color:#3BB54A"/>
			<stop  offset="1" style="stop-color:#009347"/>
		</linearGradient>
		<path class="st7" d="M583.7,25.4c9.4,0,15.5,5.8,15.5,15.1c0,9-6.2,15-15.5,15c-9.5,0-15.5-6-15.5-15
			C568.1,31.2,574.1,25.4,583.7,25.4z M597.7,67.3v93.5h-28V67.3H597.7z"/>
		<linearGradient id="SVGID_7_" gradientUnits="userSpaceOnUse" x1="645.6476" y1="64.7041" x2="645.6476" y2="163.438">
			<stop  offset="0" style="stop-color:#3BB54A"/>
			<stop  offset="1" style="stop-color:#009347"/>
		</linearGradient>
		<path class="st8" d="M660,138.9c11.2,0,21.3-5.2,24.9-7.7v25.2c-3.7,1.9-13.5,6.9-28.6,6.9c-29.9,0-49.7-20.9-49.7-49.4
			s19.8-49.4,49.7-49.4c15,0,24.3,4.9,28,6.7v25.4c-5.2-3.7-14.6-7.7-24.3-7.7c-14.8,0-25.2,9.7-25.2,24.9
			C634.7,129.2,644.8,138.9,660,138.9z"/>
		<linearGradient id="SVGID_8_" gradientUnits="userSpaceOnUse" x1="739.1544" y1="56.9668" x2="739.1544" y2="160.8198">
			<stop  offset="0" style="stop-color:#3BB54A"/>
			<stop  offset="1" style="stop-color:#009347"/>
		</linearGradient>
		<path class="st9" d="M728,160.8V57h22.2v103.9H728z"/>
		<linearGradient id="SVGID_9_" gradientUnits="userSpaceOnUse" x1="813.0065" y1="55.3799" x2="813.0065" y2="162.4067">
			<stop  offset="0" style="stop-color:#3BB54A"/>
			<stop  offset="1" style="stop-color:#009347"/>
		</linearGradient>
		<path class="st10" d="M855.4,162.4l-57-54.7l-6.8-5.9v59h-21.8V55.4h0.9l56.8,54.7l6.6,5.9V57h21.9v105.4H855.4z"/>
		<linearGradient id="SVGID_10_" gradientUnits="userSpaceOnUse" x1="905.0353" y1="54.9473" x2="905.0353" y2="162.8394">
			<stop  offset="0" style="stop-color:#3BB54A"/>
			<stop  offset="1" style="stop-color:#009347"/>
		</linearGradient>
		<path class="st11" d="M871,156.9v-21.3c7.2,3.8,16.7,6.9,26.1,7.5c3.3,0.1,6.5,0,9.2-0.6c7.9-1.2,12.5-4.2,12.5-9.2
			c0-6.9-6.2-10.5-20.5-15.7c-18.2-6.6-28.8-14.3-28.8-32.3c0-18.5,15.3-30.3,37.6-30.3c10.4,0,20.6,2.3,27.1,5.2v20.5
			c-6.1-3.6-15.9-6.3-25.4-6.3c-10.7,0-17.6,4.2-17.6,10.8c0,6.1,5.6,10.2,19.8,15.6c18.2,7.1,29.4,14.7,29.4,32.2
			c0,18.8-14.1,30-38.7,30C890,162.8,878.5,160.2,871,156.9z"/>
		<linearGradient id="SVGID_11_" gradientUnits="userSpaceOnUse" x1="963.8859" y1="56.9668" x2="963.8859" y2="160.8198">
			<stop  offset="0" style="stop-color:#3BB54A"/>
			<stop  offset="1" style="stop-color:#009347"/>
		</linearGradient>
		<path class="st12" d="M952.8,160.8V57H975v103.9H952.8z"/>
		<linearGradient id="SVGID_12_" gradientUnits="userSpaceOnUse" x1="1040.046" y1="56.9668" x2="1040.046" y2="160.8198">
			<stop  offset="0" style="stop-color:#3BB54A"/>
			<stop  offset="1" style="stop-color:#009347"/>
		</linearGradient>
		<path class="st13" d="M994.6,160.8V57h33.2c35.3,0,57.7,21.5,57.7,51.9c0,30.4-22.2,51.9-57.4,51.9H994.6z M1016.8,75.6v66.6h11
			c22.2,0,35.3-14.4,35.3-33.3c0-18.8-13.1-33.3-35.6-33.3H1016.8z"/>
		<linearGradient id="SVGID_13_" gradientUnits="userSpaceOnUse" x1="1133.0841" y1="56.9668" x2="1133.0841" y2="160.8198">
			<stop  offset="0" style="stop-color:#3BB54A"/>
			<stop  offset="1" style="stop-color:#009347"/>
		</linearGradient>
		<path class="st14" d="M1098.6,160.8V57h66.8v18.6h-44.6v23.7h37.8v17.9h-37.8v25.1h46.7v18.6H1098.6z"/>
		<linearGradient id="SVGID_14_" gradientUnits="userSpaceOnUse" x1="1219.8478" y1="56.9668" x2="1219.8478" y2="160.8198">
			<stop  offset="0" style="stop-color:#3BB54A"/>
			<stop  offset="1" style="stop-color:#009347"/>
		</linearGradient>
		<path class="st15" d="M1217,57c24.1,0,40.1,12,40.1,34.2c0,15.1-8.5,25.1-19.8,29.6l21.8,40.1h-23.5l-18.3-36.3h-15v36.3h-21.8V57
			H1217z M1202.3,75.6v31h15.9c9.8,0,16.6-4.9,16.6-15.4c0-10.4-7.1-15.6-17.2-15.6H1202.3z"/>
	</g>
</g>
</svg>
