<?xml version="1.0" encoding="UTF-8"?>
<svg xmlns="http://www.w3.org/2000/svg" xmlns:xlink="http://www.w3.org/1999/xlink" width="32pt" height="32pt" viewBox="0 0 32 32" version="1.1">
<g id="surface1">
<path style=" stroke:none;fill-rule:nonzero;fill:rgb(0%,0%,0%);fill-opacity:1;" d="M 32 0.597656 C 32 0.4375 31.941406 0.285156 31.828125 0.171875 C 31.714844 0.0585938 31.558594 -0.00390625 31.402344 0 C 31.089844 0.00390625 23.738281 0.175781 19.007812 4.90625 L 13.007812 10.90625 C 11.613281 10.417969 6.863281 9.496094 0.171875 16.183594 C -0.03125 16.386719 -0.0585938 16.707031 0.109375 16.941406 C 0.128906 16.96875 0.148438 16.992188 0.171875 17.015625 C 0.347656 17.191406 0.621094 17.242188 0.847656 17.128906 C 0.894531 17.105469 5.160156 15.046875 7.425781 16.492188 L 5.9375 17.976562 C 5.902344 18.011719 5.871094 18.054688 5.847656 18.097656 C 5.785156 18.207031 4.347656 20.789062 7.78125 24.21875 C 11.210938 27.652344 13.792969 26.214844 13.902344 26.152344 C 13.945312 26.125 13.984375 26.09375 14.023438 26.058594 L 15.507812 24.574219 C 16.953125 26.839844 14.894531 31.105469 14.871094 31.148438 C 14.757812 31.378906 14.808594 31.648438 14.980469 31.824219 C 14.984375 31.828125 14.988281 31.832031 14.992188 31.835938 C 15.222656 32.058594 15.589844 32.054688 15.816406 31.828125 C 15.828125 31.816406 15.839844 31.804688 15.847656 31.792969 C 22.5 25.121094 21.582031 20.382812 21.089844 18.992188 L 27.089844 12.992188 C 31.824219 8.257812 31.992188 0.910156 32 0.597656 Z M 24.378906 12.296875 C 23.089844 13.589844 20.996094 13.589844 19.703125 12.296875 C 18.410156 11.003906 18.410156 8.910156 19.703125 7.621094 C 20.996094 6.328125 23.089844 6.328125 24.378906 7.621094 C 25.671875 8.910156 25.671875 11.003906 24.378906 12.296875 Z M 24.378906 12.296875 "/>
<path style=" stroke:none;fill-rule:nonzero;fill:rgb(0%,0%,0%);fill-opacity:1;" d="M 7.730469 27.75 C 6.570312 27.953125 5.371094 28.035156 4.195312 28.015625 C 4.09375 28.011719 3.992188 27.890625 3.992188 27.808594 C 3.992188 27.632812 3.996094 27.371094 4 27.195312 C 4.007812 26.933594 4.019531 26.671875 4.03125 26.414062 C 4.0625 25.820312 4.113281 25.230469 4.199219 24.644531 C 4.351562 23.621094 4.582031 22.617188 4.964844 21.652344 C 5.015625 21.523438 5.074219 21.394531 5.121094 21.257812 C 4.050781 21.71875 3.214844 22.628906 2.625 23.613281 C 2.054688 24.570312 1.683594 25.640625 1.476562 26.734375 C 1.355469 27.378906 1.292969 28.035156 1.28125 28.691406 C 1.277344 29.054688 1.253906 29.492188 1.378906 29.839844 C 1.558594 30.335938 2.019531 30.664062 2.539062 30.699219 C 3.007812 30.730469 3.476562 30.726562 3.945312 30.695312 C 6.070312 30.554688 8.339844 29.8125 9.835938 28.230469 C 10.199219 27.820312 10.519531 27.386719 10.742188 26.882812 C 10.210938 27.078125 9.699219 27.292969 9.148438 27.441406 C 8.679688 27.566406 8.210938 27.667969 7.730469 27.75 Z M 7.730469 27.75 "/>
</g>
</svg>
