<?xml version="1.0" standalone="no"?><!DOCTYPE svg PUBLIC "-//W3C//DTD SVG 1.1//EN" "http://www.w3.org/Graphics/SVG/1.1/DTD/svg11.dtd"><svg t="1573035255857" class="icon" viewBox="0 0 1024 1024" version="1.1" xmlns="http://www.w3.org/2000/svg" p-id="11425" xmlns:xlink="http://www.w3.org/1999/xlink" width="64" height="64"><defs><style type="text/css"></style></defs><path d="M928 128l-832 0c-52.8 0-96 43.2-96 96l0 576c0 52.8 43.2 96 96 96l832 0c52.8 0 96-43.2 96-96l0-576c0-52.8-43.2-96-96-96zM96 192l832 0c17.344 0 32 14.656 32 32l0 96-896 0 0-96c0-17.344 14.656-32 32-32zM928 832l-832 0c-17.344 0-32-14.656-32-32l0-288 896 0 0 288c0 17.344-14.656 32-32 32zM128 640l64 0 0 128-64 0zM256 640l64 0 0 128-64 0zM384 640l64 0 0 128-64 0z" p-id="11426" fill="#dbdbdb"></path></svg>