<?xml version="1.0" standalone="no"?><!DOCTYPE svg PUBLIC "-//W3C//DTD SVG 1.1//EN" "http://www.w3.org/Graphics/SVG/1.1/DTD/svg11.dtd"><svg t="1573034433621" class="icon" viewBox="0 0 1024 1024" version="1.1" xmlns="http://www.w3.org/2000/svg" p-id="6360" xmlns:xlink="http://www.w3.org/1999/xlink" width="64" height="64"><defs><style type="text/css"></style></defs><path d="M921.6 443.72992L853.32992 409.6v-68.27008c0-37.5296-30.73024-68.25984-68.25984-68.25984h-614.4c-37.53984 0-68.27008 30.73024-68.27008 68.25984v341.34016c0 37.5296 30.73024 68.25984 68.27008 68.25984h614.4c37.5296 0 68.25984-30.73024 68.25984-68.25984V614.4L921.6 580.27008V443.72992zM785.07008 682.67008h-614.4V341.32992h614.4v341.34016z" p-id="6361" fill="#dbdbdb"></path><path d="M238.92992 409.6H307.2v204.8h-68.27008zM375.47008 409.6h68.25984v204.8h-68.25984zM512 409.6h68.27008v204.8H512zM648.52992 409.6H716.8v204.8h-68.27008z" p-id="6362" fill="#dbdbdb"></path></svg>