<?xml version="1.0" encoding="UTF-8" standalone="no"?>
<svg
   xmlns:dc="http://purl.org/dc/elements/1.1/"
   xmlns:cc="http://creativecommons.org/ns#"
   xmlns:rdf="http://www.w3.org/1999/02/22-rdf-syntax-ns#"
   xmlns:svg="http://www.w3.org/2000/svg"
   xmlns="http://www.w3.org/2000/svg"
   xmlns:sodipodi="http://sodipodi.sourceforge.net/DTD/sodipodi-0.dtd"
   xmlns:inkscape="http://www.inkscape.org/namespaces/inkscape"
   data-v-d3f97b9e=""
   viewBox="0 0 87.14903143099976 60"
   version="1.1"
   id="svg3773"
   sodipodi:docname="buildcaravan.svg"
   inkscape:version="0.92.4 (f8dce91, 2019-08-02)">
  <metadata
     id="metadata3779">
    <rdf:RDF>
      <cc:Work
         rdf:about="">
        <dc:format>image/svg+xml</dc:format>
        <dc:type
           rdf:resource="http://purl.org/dc/dcmitype/StillImage" />
        <dc:title></dc:title>
      </cc:Work>
    </rdf:RDF>
  </metadata>
  <defs
     id="defs3777" />
  <sodipodi:namedview
     pagecolor="#ffffff"
     bordercolor="#666666"
     borderopacity="1"
     objecttolerance="10"
     gridtolerance="10"
     guidetolerance="10"
     inkscape:pageopacity="0"
     inkscape:pageshadow="2"
     inkscape:window-width="1299"
     inkscape:window-height="713"
     id="namedview3775"
     showgrid="false"
     inkscape:zoom="8.8666667"
     inkscape:cx="48.085794"
     inkscape:cy="30"
     inkscape:window-x="67"
     inkscape:window-y="27"
     inkscape:window-maximized="1"
     inkscape:current-layer="6459ec84-23a3-4dfd-b2fe-e52015b8e520" />
  <!---->
  <!---->
  <!---->
  <!---->
  <g
     data-v-d3f97b9e=""
     id="6459ec84-23a3-4dfd-b2fe-e52015b8e520"
     transform="matrix(10.799135616824799,0,0,10.799135616824799,-2.1382292074107454,-15.712742428300835)"
     stroke="none"
     fill="black">
    <path
       d="M2.844 4.63v1.451c.25 0 .4 0 .709-.002a1.026 1.026 0 0 1 1.011-.887c.515 0 .94.387 1.01.884l2.231-.003v.33h.265v-.33h.198v-.265h-.926V4.63zM1.257 1.455c-.585 0-1.059.474-1.059 1.059v1.852h.926v-1.85c0-.148.119-.267.265-.267h1.19c.147 0 .265.12.265.267v1.85h4.498v-2.91zm2.513.794h2.646c.147 0 .265.118.265.265v.793a.264.264 0 0 1-.265.265H3.77a.264.264 0 0 1-.264-.265v-.793c0-.147.118-.265.264-.265zM.198 4.63v.926c0 .292.237.53.53.53l.396-.002V4.63z"
       fill-rule="evenodd"
       id="path3766"
       style="fill:#51a4fb;fill-opacity:1" />
    <path
       d="M4.564 5.424a.794.794 0 0 0-.794.794.794.794 0 0 0 .794.793.794.794 0 0 0 .794-.793.794.794 0 0 0-.794-.794zm0 .43a.364.364 0 0 1 .364.364.364.364 0 0 1-.364.364.364.364 0 0 1-.364-.364.364.364 0 0 1 .364-.364z"
       id="path3768"
       style="fill:#51a4fb;fill-opacity:1" />
    <path
       style="line-height:normal;text-indent:0;text-align:start;text-decoration-line:none;text-decoration-style:solid;text-decoration-color:#000;text-transform:none;isolation:auto;mix-blend-mode:normal;fill:#51a4fb;fill-opacity:1"
       d="M2.183 4.365v.265h.264v-.265zM4.961 2.447v.926h.265v-.926z"
       color="#000"
       font-weight="400"
       font-family="sans-serif"
       white-space="normal"
       overflow="visible"
       fill-rule="evenodd"
       id="path3770" />
  </g>
  <!---->
</svg>
