<?xml version="1.0" ?><svg id="Layer_1" style="enable-background:new 0 0 24 24;" version="1.1" viewBox="0 0 24 24" xml:space="preserve" xmlns="http://www.w3.org/2000/svg" xmlns:xlink="http://www.w3.org/1999/xlink"><style type="text/css">
	.st0{fill:#1E232D;}
</style><g><path class="st0" d="M12,3c-4.6,0-8.4,3.4-8.9,7.9l2,0.2C5.5,7.7,8.5,5,12,5c3.5,0,6.5,2.7,6.9,6.2l2-0.2C20.4,6.4,16.6,3,12,3z"/><path class="st0" d="M12,14C12,14,12,14,12,14L9.9,8.6L8.1,9.4l2,5.4C9.4,15.3,9,16.1,9,17c0,1.7,1.3,3,3,3c1.7,0,3-1.3,3-3   C15,15.3,13.7,14,12,14z M13,18h-2v-2h2V18z"/><path class="st0" d="M12,0C5.4,0,0,5.4,0,12s5.4,12,12,12s12-5.4,12-12S18.6,0,12,0z M12,22C6.5,22,2,17.5,2,12C2,6.5,6.5,2,12,2   c5.5,0,10,4.5,10,10C22,17.5,17.5,22,12,22z"/></g></svg>