<?xml version="1.0" standalone="no"?><!DOCTYPE svg PUBLIC "-//W3C//DTD SVG 1.1//EN" "http://www.w3.org/Graphics/SVG/1.1/DTD/svg11.dtd"><svg t="1573034266200" class="icon" viewBox="0 0 1024 1024" version="1.1" xmlns="http://www.w3.org/2000/svg" p-id="1434" xmlns:xlink="http://www.w3.org/1999/xlink" width="64" height="64"><defs><style type="text/css"></style></defs><path d="M512 0C229.257143 0 0 229.257143 0 512s229.257143 512 512 512 512-229.257143 512-512S794.742857 0 512 0z m0 937.142857c-234.742857 0-425.142857-190.4-425.142857-425.142857s190.4-425.142857 425.142857-425.142857 425.142857 190.4 425.142857 425.142857-190.4 425.142857-425.142857 425.142857z m54.514286-451.657143l-29.028572-6.742857V325.257143c43.428571 5.942857 70.285714 33.142857 74.857143 66.514286 0.571429 4.571429 4.457143 7.885714 9.028572 7.885714h51.314285c5.371429 0 9.6-4.685714 9.142857-10.057143-6.971429-71.2-65.6-116.914286-143.885714-124.8V227.428571c0-5.028571-4.114286-9.142857-9.142857-9.142857h-32.114286c-5.028571 0-9.142857 4.114286-9.142857 9.142857v37.714286c-80.914286 7.885714-144.228571 52.571429-144.228571 136 0 77.257143 56.914286 114.514286 116.685714 128.8l28.228571 7.2v163.085714c-50.514286-6.742857-78.857143-33.714286-84.685714-70.057142-0.685714-4.342857-4.571429-7.542857-9.028571-7.542858H341.714286c-5.371429 0-9.6 4.571429-9.142857 9.942858 5.142857 62.857143 52.8 120.685714 154.514285 128.114285V796.571429c0 5.028571 4.114286 9.142857 9.142857 9.142857h32.457143c5.028571 0 9.142857-4.114286 9.142857-9.257143l-0.228571-36.228572c89.485714-7.885714 153.485714-55.771429 153.485714-141.714285-0.114286-79.314286-50.514286-114.742857-124.571428-133.028572z m-78.4-18.514285c-6.4-1.828571-11.771429-3.542857-17.142857-5.714286-38.628571-13.942857-56.571429-36.457143-56.571429-65.485714 0-41.485714 31.428571-65.142857 73.714286-70.514286v141.714286zM537.485714 700.571429V547.771429c3.542857 1.028571 6.742857 1.828571 10.057143 2.514285 54.057143 16.457143 72.228571 39.314286 72.228572 74.4 0 44.685714-33.6 71.542857-82.285715 75.885715z" p-id="1435" fill="#dbdbdb"></path></svg>