<?xml version="1.0" standalone="no"?><!DOCTYPE svg PUBLIC "-//W3C//DTD SVG 1.1//EN" "http://www.w3.org/Graphics/SVG/1.1/DTD/svg11.dtd"><svg t="1573034344184" class="icon" viewBox="0 0 1024 1024" version="1.1" xmlns="http://www.w3.org/2000/svg" p-id="2790" xmlns:xlink="http://www.w3.org/1999/xlink" width="64" height="64"><defs><style type="text/css"></style></defs><path d="M474.026667 981.333333a42.666667 42.666667 0 0 1-14.506667-2.56 42.666667 42.666667 0 0 1-27.733333-44.8l32.853333-302.506666H213.333333a42.666667 42.666667 0 0 1-35.413333-66.56l336.64-503.466667a42.666667 42.666667 0 0 1 49.92-16.213333 42.666667 42.666667 0 0 1 27.733333 42.666666l-32.853333 304.64H810.666667a42.666667 42.666667 0 0 1 35.413333 66.56l-336.64 503.466667a42.666667 42.666667 0 0 1-35.413333 18.773333z" p-id="2791" fill="#dbdbdb"></path></svg>