<svg height="483pt" viewBox="0 -29 483.1994 483" width="483pt" xmlns="http://www.w3.org/2000/svg"><path d="m482.121094 302.898438c-3.351563-12.214844-13.59375-21.304688-26.121094-23.183594v-183.613282h16c4.417969 0 8-3.582031 8-8v-80c0-4.421874-3.582031-8-8-8h-352c-4.417969 0-8 3.578126-8 8v80c0 4.417969 3.582031 8 8 8h16v160h-8c-19.855469-.046874-39.304688 5.644532-56 16.390626v-40.390626c0-4.421874-3.582031-8-8-8h-56c-4.417969 0-8 3.578126-8 8v184c0 4.417969 3.582031 8 8 8h56c4.417969 0 8-3.582031 8-8v-40.386718c16.699219 10.738281 36.144531 16.429687 56 16.386718h131.359375c9.101563-.015624 18.160156-1.210937 26.953125-3.554687l173.207031-46.398437c17.042969-4.644532 27.140625-22.175782 22.601563-39.25zm-354.121094-286.796876h336v64h-336zm24 80h288v184.988282l-92.847656 24.898437c-3.824219-9.117187-11.625-15.964843-21.160156-18.578125l-107.792969-28.910156c-6.070313-1.597656-12.320313-2.40625-18.597657-2.398438h-47.601562zm-96 312h-40v-168h40zm399.367188-81.410156-173.175782 46.398438c-7.449218 1.988281-15.121094 3-22.832031 3.011718h-131.359375c-19.046875.042969-37.589844-6.136718-52.800781-17.601562l-3.199219-2.398438v-64l3.199219-2.402343c15.210937-11.464844 33.753906-17.648438 52.800781-17.597657h71.601562c4.886719-.003906 9.757813.628907 14.488282 1.878907l107.757812 28.886719c6.367188 1.753906 11.027344 7.210937 11.753906 13.777343.085938.328125.191407.652344.320313.96875-.09375.34375-.164063.691407-.210937 1.046875.007812 1.300782-.167969 2.597656-.527344 3.847656-1.882813 6.972657-8.199219 11.820313-15.421875 11.832032-1.410157.011718-2.808594-.167969-4.167969-.527344l-68-18.234375c-2.789062-.828125-5.808594-.078125-7.886719 1.960937-2.074219 2.039063-2.882812 5.042969-2.105469 7.847657.777344 2.800781 3.015626 4.964843 5.847657 5.640625l68 18.242187c2.714843.714844 5.515625 1.074219 8.328125 1.070313 14.382812-.007813 26.988281-9.628906 30.789062-23.503906.445313-1.605469.746094-3.246094.90625-4.902344l97.527344-26.152344c.695312-.175781 1.449219-.355469 2.160156-.472656 7.964844-1.027344 15.453125 4.007812 17.511719 11.765625.359375 1.351562.539063 2.746093.527344 4.144531.011719 7.242188-4.839844 13.585938-11.832031 15.472656zm0 0"/><path d="m256 128.101562h80c4.417969 0 8-3.582031 8-8 0-4.421874-3.582031-8-8-8h-80c-4.417969 0-8 3.578126-8 8 0 4.417969 3.582031 8 8 8zm0 0"/></svg>