<svg id="svg" version="1.1" xmlns="http://www.w3.org/2000/svg" xmlns:xlink="http://www.w3.org/1999/xlink" width="400" height="400" viewBox="0, 0, 400,400"><g id="svgg"><path id="path0" d="M44.934 92.227 C 44.844 92.462,44.822 94.488,44.885 96.730 L 45.000 100.806 199.000 100.803 L 353.000 100.801 353.000 96.399 L 353.000 91.998 199.049 91.899 C 90.199 91.829,45.050 91.925,44.934 92.227 M77.672 119.276 C 77.159 121.296,77.306 121.600,78.793 121.600 C 80.074 121.600,82.563 122.081,87.600 123.301 C 99.701 126.233,100.884 130.169,96.224 152.015 C 95.639 154.757,94.623 159.520,93.966 162.600 C 93.308 165.680,92.604 168.920,92.400 169.800 C 92.196 170.680,91.208 175.270,90.205 180.000 C 89.202 184.730,88.212 189.320,88.005 190.200 C 87.798 191.080,86.808 195.670,85.805 200.400 C 84.802 205.130,83.810 209.720,83.601 210.600 C 83.391 211.480,82.580 215.260,81.797 219.000 C 80.461 225.382,80.199 226.586,79.210 230.900 C 78.996 231.835,78.180 235.660,77.397 239.400 C 76.614 243.140,75.807 246.920,75.603 247.800 C 75.399 248.680,74.846 251.200,74.374 253.400 C 69.334 276.873,66.018 280.754,48.586 283.586 L 45.772 284.043 45.351 285.859 C 44.798 288.239,40.419 288.020,86.187 287.903 L 126.575 287.800 126.918 286.064 C 127.345 283.904,127.854 284.197,121.993 283.222 C 108.958 281.051,105.809 278.583,105.897 270.600 C 105.939 266.847,107.304 258.564,109.194 250.600 C 109.403 249.720,110.217 245.940,111.004 242.200 C 111.790 238.460,112.778 233.780,113.200 231.800 C 113.622 229.820,114.610 225.140,115.396 221.400 C 116.183 217.660,116.993 213.880,117.197 213.000 C 117.401 212.120,117.926 209.690,118.364 207.600 C 120.982 195.113,122.062 190.019,122.394 188.600 C 122.807 186.831,123.825 182.010,125.393 174.400 C 125.960 171.650,126.591 168.680,126.796 167.800 C 127.000 166.920,127.526 164.490,127.964 162.400 C 135.341 127.217,136.797 125.136,156.354 121.838 C 159.647 121.283,160.382 120.864,160.394 119.533 C 160.397 119.166,160.509 118.581,160.643 118.233 C 160.863 117.658,157.073 117.600,119.491 117.600 L 78.097 117.600 77.672 119.276 M166.372 118.674 C 165.697 120.450,166.037 121.386,167.400 121.502 C 179.928 122.567,184.366 127.282,187.634 143.000 C 188.481 147.075,188.569 147.553,189.961 155.600 C 190.398 158.130,191.119 162.270,191.563 164.800 C 196.548 193.237,204.173 239.158,207.436 260.400 C 208.224 265.528,208.722 268.713,209.203 271.700 C 209.605 274.200,212.000 291.082,212.000 291.421 C 212.000 291.519,213.236 291.600,214.748 291.600 L 217.495 291.600 226.580 277.700 C 231.576 270.055,237.845 260.470,240.510 256.400 C 258.590 228.790,313.599 146.459,316.812 142.200 C 327.428 128.132,334.115 123.573,346.444 122.004 C 352.520 121.230,351.938 121.544,352.570 118.700 L 352.815 117.600 320.815 117.600 L 288.815 117.600 288.570 118.700 C 288.436 119.305,288.245 120.100,288.146 120.468 C 287.926 121.287,288.329 121.411,293.200 122.027 C 308.647 123.979,311.253 127.781,305.251 139.610 C 301.850 146.315,270.090 197.905,256.007 219.600 C 252.327 225.270,242.473 239.884,239.630 243.887 C 238.677 245.230,238.127 244.982,237.889 243.100 C 237.771 242.165,236.935 236.540,236.032 230.600 C 234.489 220.450,234.201 218.589,233.203 212.300 C 232.985 210.925,232.173 205.480,231.398 200.200 C 230.623 194.920,229.812 189.475,229.595 188.100 C 229.378 186.725,229.020 184.430,228.800 183.000 C 228.580 181.570,228.220 179.230,228.000 177.800 C 227.780 176.370,227.422 174.075,227.204 172.700 C 226.986 171.325,226.442 167.680,225.995 164.600 C 225.199 159.118,224.762 156.310,223.195 146.600 C 220.934 132.582,221.152 129.468,224.627 126.121 C 226.840 123.990,234.704 121.628,239.700 121.594 C 241.080 121.584,241.477 121.147,241.786 119.300 L 242.070 117.600 204.425 117.600 L 166.780 117.600 166.372 118.674 M44.934 308.627 C 44.844 308.862,44.822 310.888,44.885 313.129 L 45.000 317.204 199.000 317.203 L 353.000 317.202 353.000 312.801 L 353.000 308.399 199.049 308.299 C 90.199 308.229,45.050 308.325,44.934 308.627 " stroke="none" fill="#d2ab63" fill-rule="evenodd"></path><path id="path1" d="M175.078 5.741 C 174.928 6.133,173.507 6.362,169.935 6.568 C 167.221 6.726,164.940 7.022,164.867 7.227 C 164.793 7.432,163.938 7.600,162.967 7.600 C 161.995 7.600,161.200 7.780,161.200 8.000 C 161.200 8.220,160.401 8.400,159.424 8.400 C 158.447 8.400,157.536 8.580,157.400 8.800 C 157.264 9.020,156.533 9.200,155.776 9.200 C 155.019 9.200,154.400 9.380,154.400 9.600 C 154.400 9.820,153.781 10.000,153.024 10.000 C 152.267 10.000,151.549 10.159,151.429 10.353 C 151.309 10.547,150.041 10.831,148.610 10.984 C 147.179 11.137,145.906 11.429,145.781 11.631 C 145.655 11.834,145.124 12.000,144.600 12.000 C 144.076 12.000,143.536 12.180,143.400 12.400 C 143.264 12.620,142.533 12.800,141.776 12.800 C 141.019 12.800,140.400 12.980,140.400 13.200 C 140.400 13.420,139.961 13.600,139.424 13.600 C 138.887 13.600,138.336 13.780,138.200 14.000 C 138.064 14.220,137.513 14.400,136.976 14.400 C 136.439 14.400,136.000 14.580,136.000 14.800 C 136.000 15.020,135.460 15.200,134.800 15.200 C 134.140 15.200,133.600 15.378,133.600 15.595 C 133.600 15.813,132.876 16.106,131.991 16.248 C 131.106 16.389,130.286 16.661,130.168 16.853 C 130.049 17.044,129.513 17.200,128.976 17.200 C 128.439 17.200,128.000 17.380,128.000 17.600 C 128.000 17.820,127.640 18.000,127.200 18.000 C 126.760 18.000,126.400 18.180,126.400 18.400 C 126.400 18.620,126.071 18.800,125.668 18.800 C 125.265 18.800,124.050 19.249,122.968 19.798 C 121.886 20.347,120.730 20.798,120.400 20.800 C 120.070 20.802,119.211 21.162,118.490 21.601 C 117.770 22.041,116.915 22.400,116.590 22.400 C 116.266 22.400,115.999 22.535,115.999 22.700 C 115.998 22.865,115.008 23.450,113.800 24.000 C 112.592 24.550,111.602 25.115,111.601 25.255 C 111.601 25.396,110.970 25.629,110.200 25.774 C 109.430 25.918,108.799 26.163,108.797 26.318 C 108.793 26.663,106.837 27.600,106.120 27.600 C 105.834 27.600,105.600 27.780,105.600 28.000 C 105.600 28.220,105.358 28.400,105.062 28.400 C 104.766 28.400,104.198 28.760,103.800 29.200 C 103.402 29.640,102.906 30.000,102.698 30.000 C 101.981 30.000,99.398 31.362,98.753 32.080 C 98.397 32.476,97.812 32.800,97.453 32.800 C 97.094 32.800,96.800 32.980,96.800 33.200 C 96.800 33.420,96.589 33.600,96.331 33.600 C 96.074 33.600,95.533 33.899,95.129 34.264 C 94.356 34.964,93.148 35.713,91.784 36.341 C 91.335 36.548,90.727 37.005,90.435 37.358 C 90.142 37.711,89.694 38.000,89.439 38.000 C 89.185 38.000,88.717 38.360,88.400 38.800 C 88.083 39.240,87.516 39.600,87.141 39.600 C 86.765 39.600,86.104 40.050,85.671 40.600 C 85.239 41.150,84.636 41.600,84.331 41.600 C 84.026 41.600,83.517 41.960,83.200 42.400 C 82.883 42.840,82.402 43.200,82.131 43.200 C 81.860 43.200,81.027 43.830,80.279 44.600 C 79.531 45.370,78.692 46.000,78.414 46.000 C 78.136 46.000,77.278 46.720,76.506 47.600 C 75.735 48.480,74.894 49.200,74.638 49.200 C 74.382 49.200,73.195 50.190,72.000 51.400 C 70.805 52.610,69.641 53.603,69.414 53.606 C 69.186 53.609,65.591 57.029,61.424 61.206 C 57.257 65.383,53.702 68.800,53.524 68.800 C 53.346 68.800,53.200 69.134,53.200 69.542 C 53.200 69.950,52.210 71.220,51.000 72.365 C 49.790 73.509,48.800 74.643,48.800 74.885 C 48.800 75.127,48.080 76.031,47.200 76.893 C 46.320 77.756,45.600 78.624,45.600 78.824 C 45.600 79.023,44.970 79.834,44.200 80.627 C 43.430 81.420,42.800 82.301,42.800 82.585 C 42.800 83.237,41.814 84.081,41.463 83.730 C 41.318 83.585,41.200 83.848,41.200 84.315 C 41.200 84.782,40.750 85.614,40.200 86.164 C 39.650 86.714,39.200 87.350,39.200 87.578 C 39.200 87.807,38.840 88.218,38.400 88.493 C 37.960 88.768,37.600 89.281,37.600 89.634 C 37.600 89.987,37.244 90.598,36.809 90.991 C 36.375 91.385,36.112 91.857,36.225 92.040 C 36.338 92.224,36.064 92.603,35.616 92.883 C 35.167 93.163,34.800 93.669,34.800 94.008 C 34.800 94.346,34.440 94.883,34.000 95.200 C 33.560 95.517,33.200 96.097,33.200 96.488 C 33.200 96.880,33.040 97.200,32.843 97.200 C 32.647 97.200,32.374 97.650,32.236 98.200 C 32.098 98.750,31.718 99.200,31.392 99.200 C 31.067 99.200,30.800 99.549,30.800 99.976 C 30.800 100.403,30.628 100.859,30.417 100.989 C 30.207 101.119,30.136 101.490,30.260 101.813 C 30.384 102.136,30.286 102.400,30.043 102.400 C 29.799 102.400,29.600 102.668,29.600 102.997 C 29.600 103.325,29.240 103.818,28.800 104.093 C 28.360 104.368,28.000 104.909,28.000 105.296 C 28.000 105.683,27.854 106.000,27.675 106.000 C 27.496 106.000,27.102 106.630,26.800 107.400 C 26.498 108.170,26.092 108.800,25.898 108.800 C 25.705 108.800,25.660 109.160,25.800 109.600 C 25.946 110.059,25.872 110.400,25.627 110.400 C 25.392 110.400,25.200 110.760,25.200 111.200 C 25.200 111.640,25.054 112.000,24.875 112.000 C 24.696 112.000,24.302 112.630,24.000 113.400 C 23.698 114.170,23.304 114.800,23.125 114.800 C 22.946 114.800,22.800 115.160,22.800 115.600 C 22.800 116.040,22.620 116.400,22.400 116.400 C 22.180 116.400,22.000 116.670,22.000 117.000 C 22.000 117.330,21.799 117.600,21.553 117.600 C 21.308 117.600,21.198 117.948,21.309 118.374 C 21.431 118.839,21.273 119.240,20.913 119.378 C 20.500 119.537,20.392 119.915,20.565 120.604 C 20.709 121.177,20.642 121.600,20.408 121.600 C 20.183 121.600,20.000 121.870,20.000 122.200 C 20.000 122.530,19.820 122.800,19.600 122.800 C 19.380 122.800,19.200 123.160,19.200 123.600 C 19.200 124.040,19.020 124.400,18.800 124.400 C 18.580 124.400,18.400 124.724,18.400 125.120 C 18.400 126.014,17.506 127.993,17.100 127.997 C 16.935 127.999,16.800 128.540,16.800 129.200 C 16.800 129.860,16.599 130.400,16.353 130.400 C 16.093 130.400,15.986 130.816,16.098 131.400 C 16.203 131.950,16.134 132.400,15.945 132.400 C 15.755 132.400,15.600 132.760,15.600 133.200 C 15.600 133.640,15.420 134.000,15.200 134.000 C 14.980 134.000,14.800 134.439,14.800 134.976 C 14.800 135.513,14.620 136.064,14.400 136.200 C 14.180 136.336,14.000 136.887,14.000 137.424 C 14.000 137.961,13.820 138.400,13.600 138.400 C 13.380 138.400,13.200 138.940,13.200 139.600 C 13.200 140.260,13.020 140.800,12.800 140.800 C 12.580 140.800,12.400 141.430,12.400 142.200 C 12.400 142.970,12.199 143.600,11.953 143.600 C 11.695 143.600,11.586 144.013,11.694 144.580 C 11.815 145.210,11.670 145.641,11.290 145.787 C 10.858 145.953,10.759 146.392,10.924 147.407 C 11.048 148.173,10.981 148.800,10.775 148.800 C 10.569 148.800,10.400 149.430,10.400 150.200 C 10.400 150.970,10.220 151.600,10.000 151.600 C 9.780 151.600,9.600 152.320,9.600 153.200 C 9.600 154.080,9.420 154.800,9.200 154.800 C 8.980 154.800,8.800 155.430,8.800 156.200 C 8.800 156.970,8.620 157.600,8.400 157.600 C 8.180 157.600,8.000 158.410,8.000 159.400 C 8.000 160.390,7.820 161.200,7.600 161.200 C 7.380 161.200,7.200 162.100,7.200 163.200 C 7.200 164.359,7.019 165.200,6.770 165.200 C 6.513 165.200,6.373 165.963,6.420 167.100 C 6.464 168.145,6.392 169.270,6.260 169.600 C 6.127 169.930,5.970 171.370,5.910 172.800 C 5.833 174.622,5.650 175.370,5.300 175.300 C 4.904 175.221,4.800 180.333,4.800 199.800 C 4.800 219.267,4.904 224.379,5.300 224.300 C 5.650 224.230,5.833 224.978,5.910 226.800 C 5.970 228.230,6.127 229.670,6.260 230.000 C 6.392 230.330,6.464 231.455,6.420 232.500 C 6.373 233.637,6.513 234.400,6.770 234.400 C 7.019 234.400,7.200 235.241,7.200 236.400 C 7.200 237.500,7.380 238.400,7.600 238.400 C 7.820 238.400,8.000 239.210,8.000 240.200 C 8.000 241.190,8.180 242.000,8.400 242.000 C 8.620 242.000,8.800 242.630,8.800 243.400 C 8.800 244.170,8.980 244.800,9.200 244.800 C 9.420 244.800,9.600 245.520,9.600 246.400 C 9.600 247.280,9.780 248.000,10.000 248.000 C 10.220 248.000,10.400 248.630,10.400 249.400 C 10.400 250.170,10.569 250.800,10.775 250.800 C 10.981 250.800,11.048 251.427,10.924 252.193 C 10.759 253.208,10.858 253.647,11.290 253.813 C 11.670 253.959,11.815 254.390,11.694 255.020 C 11.586 255.587,11.695 256.000,11.953 256.000 C 12.199 256.000,12.400 256.630,12.400 257.400 C 12.400 258.170,12.580 258.800,12.800 258.800 C 13.020 258.800,13.200 259.340,13.200 260.000 C 13.200 260.660,13.380 261.200,13.600 261.200 C 13.820 261.200,14.000 261.639,14.000 262.176 C 14.000 262.713,14.180 263.264,14.400 263.400 C 14.620 263.536,14.800 264.087,14.800 264.624 C 14.800 265.161,14.980 265.600,15.200 265.600 C 15.420 265.600,15.600 265.960,15.600 266.400 C 15.600 266.840,15.755 267.200,15.945 267.200 C 16.134 267.200,16.203 267.650,16.098 268.200 C 15.986 268.784,16.093 269.200,16.353 269.200 C 16.599 269.200,16.800 269.740,16.800 270.400 C 16.800 271.060,16.935 271.601,17.100 271.603 C 17.506 271.607,18.400 273.586,18.400 274.480 C 18.400 274.876,18.580 275.200,18.800 275.200 C 19.020 275.200,19.200 275.560,19.200 276.000 C 19.200 276.440,19.380 276.800,19.600 276.800 C 19.820 276.800,20.000 277.070,20.000 277.400 C 20.000 277.730,20.183 278.000,20.408 278.000 C 20.642 278.000,20.709 278.423,20.565 278.996 C 20.392 279.685,20.500 280.063,20.913 280.222 C 21.273 280.360,21.431 280.761,21.309 281.226 C 21.198 281.652,21.308 282.000,21.553 282.000 C 21.799 282.000,22.000 282.270,22.000 282.600 C 22.000 282.930,22.180 283.200,22.400 283.200 C 22.620 283.200,22.800 283.560,22.800 284.000 C 22.800 284.440,22.946 284.800,23.125 284.800 C 23.304 284.800,23.698 285.430,24.000 286.200 C 24.302 286.970,24.696 287.600,24.875 287.600 C 25.054 287.600,25.200 287.960,25.200 288.400 C 25.200 288.840,25.392 289.200,25.627 289.200 C 25.872 289.200,25.946 289.541,25.800 290.000 C 25.660 290.440,25.705 290.800,25.898 290.800 C 26.092 290.800,26.498 291.430,26.800 292.200 C 27.102 292.970,27.496 293.600,27.675 293.600 C 27.854 293.600,28.000 293.917,28.000 294.304 C 28.000 294.691,28.360 295.232,28.800 295.507 C 29.240 295.782,29.600 296.275,29.600 296.603 C 29.600 296.932,29.799 297.200,30.043 297.200 C 30.286 297.200,30.384 297.464,30.260 297.787 C 30.136 298.110,30.207 298.481,30.417 298.611 C 30.628 298.741,30.800 299.197,30.800 299.624 C 30.800 300.051,31.067 300.400,31.392 300.400 C 31.718 300.400,32.098 300.850,32.236 301.400 C 32.374 301.950,32.647 302.400,32.843 302.400 C 33.040 302.400,33.200 302.720,33.200 303.112 C 33.200 303.503,33.560 304.083,34.000 304.400 C 34.440 304.717,34.800 305.254,34.800 305.592 C 34.800 305.931,35.167 306.437,35.616 306.717 C 36.064 306.997,36.338 307.376,36.225 307.560 C 36.112 307.743,36.375 308.215,36.809 308.609 C 37.244 309.002,37.600 309.613,37.600 309.966 C 37.600 310.319,37.960 310.832,38.400 311.107 C 38.840 311.382,39.200 311.793,39.200 312.022 C 39.200 312.250,39.650 312.886,40.200 313.436 C 40.750 313.986,41.200 314.818,41.200 315.285 C 41.200 315.752,41.318 316.015,41.463 315.870 C 41.814 315.519,42.800 316.363,42.800 317.015 C 42.800 317.299,43.430 318.180,44.200 318.973 C 44.970 319.766,45.600 320.577,45.600 320.776 C 45.600 320.976,46.320 321.844,47.200 322.707 C 48.080 323.569,48.800 324.473,48.800 324.715 C 48.800 324.957,49.790 326.091,51.000 327.235 C 52.210 328.380,53.200 329.650,53.200 330.058 C 53.200 330.466,53.346 330.800,53.524 330.800 C 53.702 330.800,57.257 334.217,61.424 338.394 C 65.591 342.571,69.186 345.991,69.414 345.994 C 69.641 345.997,70.805 346.990,72.000 348.200 C 73.195 349.410,74.382 350.400,74.638 350.400 C 74.894 350.400,75.735 351.120,76.506 352.000 C 77.278 352.880,78.136 353.600,78.414 353.600 C 78.692 353.600,79.531 354.230,80.279 355.000 C 81.027 355.770,81.860 356.400,82.131 356.400 C 82.402 356.400,82.883 356.760,83.200 357.200 C 83.517 357.640,84.026 358.000,84.331 358.000 C 84.636 358.000,85.239 358.450,85.671 359.000 C 86.104 359.550,86.765 360.000,87.141 360.000 C 87.516 360.000,88.083 360.360,88.400 360.800 C 88.717 361.240,89.185 361.600,89.439 361.600 C 89.694 361.600,90.142 361.889,90.435 362.242 C 90.727 362.595,91.335 363.052,91.784 363.259 C 93.148 363.887,94.356 364.636,95.129 365.336 C 95.533 365.701,96.074 366.000,96.331 366.000 C 96.589 366.000,96.800 366.180,96.800 366.400 C 96.800 366.620,97.094 366.800,97.453 366.800 C 97.812 366.800,98.397 367.124,98.753 367.520 C 99.398 368.238,101.981 369.600,102.698 369.600 C 102.906 369.600,103.402 369.960,103.800 370.400 C 104.198 370.840,104.766 371.200,105.062 371.200 C 105.358 371.200,105.600 371.380,105.600 371.600 C 105.600 371.820,105.834 372.000,106.120 372.000 C 106.837 372.000,108.793 372.937,108.797 373.282 C 108.799 373.437,109.430 373.682,110.200 373.826 C 110.970 373.971,111.601 374.204,111.601 374.345 C 111.602 374.485,112.592 375.050,113.800 375.600 C 115.008 376.150,115.998 376.735,115.999 376.900 C 115.999 377.065,116.266 377.200,116.590 377.200 C 116.915 377.200,117.770 377.559,118.490 377.999 C 119.211 378.438,120.070 378.798,120.400 378.800 C 120.730 378.802,121.886 379.253,122.968 379.802 C 124.050 380.351,125.265 380.800,125.668 380.800 C 126.071 380.800,126.400 380.980,126.400 381.200 C 126.400 381.420,126.760 381.600,127.200 381.600 C 127.640 381.600,128.000 381.780,128.000 382.000 C 128.000 382.220,128.439 382.400,128.976 382.400 C 129.513 382.400,130.049 382.556,130.168 382.747 C 130.286 382.939,131.106 383.211,131.991 383.352 C 132.876 383.494,133.600 383.787,133.600 384.005 C 133.600 384.222,134.140 384.400,134.800 384.400 C 135.460 384.400,136.000 384.580,136.000 384.800 C 136.000 385.020,136.439 385.200,136.976 385.200 C 137.513 385.200,138.064 385.380,138.200 385.600 C 138.336 385.820,138.887 386.000,139.424 386.000 C 139.961 386.000,140.400 386.180,140.400 386.400 C 140.400 386.620,141.019 386.800,141.776 386.800 C 142.533 386.800,143.264 386.980,143.400 387.200 C 143.536 387.420,144.076 387.600,144.600 387.600 C 145.124 387.600,145.655 387.766,145.781 387.969 C 145.906 388.171,147.179 388.463,148.610 388.616 C 150.041 388.769,151.309 389.053,151.429 389.247 C 151.549 389.441,152.267 389.600,153.024 389.600 C 153.781 389.600,154.400 389.780,154.400 390.000 C 154.400 390.220,155.019 390.400,155.776 390.400 C 156.533 390.400,157.264 390.580,157.400 390.800 C 157.536 391.020,158.447 391.200,159.424 391.200 C 160.401 391.200,161.200 391.380,161.200 391.600 C 161.200 391.820,161.995 392.000,162.967 392.000 C 163.938 392.000,164.793 392.168,164.867 392.373 C 164.940 392.578,167.221 392.874,169.935 393.032 C 173.507 393.238,174.928 393.467,175.078 393.859 C 175.387 394.664,223.413 394.664,223.722 393.859 C 223.872 393.467,225.293 393.238,228.865 393.032 C 231.579 392.874,233.860 392.578,233.933 392.373 C 234.007 392.168,234.862 392.000,235.833 392.000 C 236.805 392.000,237.600 391.820,237.600 391.600 C 237.600 391.380,238.399 391.200,239.376 391.200 C 240.353 391.200,241.264 391.020,241.400 390.800 C 241.536 390.580,242.267 390.400,243.024 390.400 C 243.781 390.400,244.400 390.220,244.400 390.000 C 244.400 389.780,245.019 389.600,245.776 389.600 C 246.533 389.600,247.251 389.441,247.371 389.247 C 247.491 389.053,248.759 388.769,250.190 388.616 C 251.621 388.463,252.894 388.171,253.019 387.969 C 253.145 387.766,253.676 387.600,254.200 387.600 C 254.724 387.600,255.264 387.420,255.400 387.200 C 255.536 386.980,256.267 386.800,257.024 386.800 C 257.781 386.800,258.400 386.620,258.400 386.400 C 258.400 386.180,258.839 386.000,259.376 386.000 C 259.913 386.000,260.464 385.820,260.600 385.600 C 260.736 385.380,261.287 385.200,261.824 385.200 C 262.361 385.200,262.800 385.020,262.800 384.800 C 262.800 384.580,263.340 384.400,264.000 384.400 C 264.660 384.400,265.200 384.222,265.200 384.005 C 265.200 383.787,265.924 383.494,266.809 383.352 C 267.694 383.211,268.514 382.939,268.632 382.747 C 268.751 382.556,269.287 382.400,269.824 382.400 C 270.361 382.400,270.800 382.220,270.800 382.000 C 270.800 381.780,271.160 381.600,271.600 381.600 C 272.040 381.600,272.400 381.420,272.400 381.200 C 272.400 380.980,272.729 380.800,273.132 380.800 C 273.535 380.800,274.750 380.351,275.832 379.802 C 276.914 379.253,278.070 378.802,278.400 378.800 C 278.730 378.798,279.589 378.438,280.310 377.999 C 281.030 377.559,281.885 377.200,282.210 377.200 C 282.534 377.200,282.801 377.065,282.801 376.900 C 282.802 376.735,283.792 376.150,285.000 375.600 C 286.208 375.050,287.198 374.485,287.199 374.345 C 287.199 374.204,287.830 373.971,288.600 373.826 C 289.370 373.682,290.001 373.437,290.003 373.282 C 290.007 372.937,291.963 372.000,292.680 372.000 C 292.966 372.000,293.200 371.820,293.200 371.600 C 293.200 371.380,293.442 371.200,293.738 371.200 C 294.034 371.200,294.602 370.840,295.000 370.400 C 295.398 369.960,295.894 369.600,296.102 369.600 C 296.819 369.600,299.402 368.238,300.047 367.520 C 300.403 367.124,300.988 366.800,301.347 366.800 C 301.706 366.800,302.000 366.620,302.000 366.400 C 302.000 366.180,302.248 366.000,302.551 366.000 C 302.854 366.000,303.342 365.711,303.635 365.358 C 303.927 365.005,304.535 364.548,304.984 364.341 C 306.348 363.713,307.556 362.964,308.329 362.264 C 308.733 361.899,309.234 361.600,309.443 361.600 C 309.652 361.600,310.083 361.240,310.400 360.800 C 310.717 360.360,311.284 360.000,311.659 360.000 C 312.035 360.000,312.696 359.550,313.129 359.000 C 313.561 358.450,314.164 358.000,314.469 358.000 C 314.774 358.000,315.283 357.640,315.600 357.200 C 315.917 356.760,316.398 356.400,316.669 356.400 C 316.940 356.400,317.773 355.770,318.521 355.000 C 319.269 354.230,320.108 353.600,320.386 353.600 C 320.664 353.600,321.522 352.880,322.294 352.000 C 323.065 351.120,323.906 350.400,324.162 350.400 C 324.418 350.400,325.605 349.410,326.800 348.200 C 327.995 346.990,329.159 345.997,329.386 345.994 C 329.614 345.991,333.209 342.571,337.376 338.394 C 341.543 334.217,345.098 330.800,345.276 330.800 C 345.454 330.800,345.600 330.466,345.600 330.058 C 345.600 329.650,346.590 328.380,347.800 327.235 C 349.010 326.091,350.000 324.957,350.000 324.715 C 350.000 324.473,350.720 323.569,351.600 322.707 C 352.480 321.844,353.200 320.976,353.200 320.776 C 353.200 320.577,353.830 319.766,354.600 318.973 C 355.370 318.180,356.000 317.299,356.000 317.015 C 356.000 316.363,356.986 315.519,357.337 315.870 C 357.482 316.015,357.600 315.752,357.600 315.285 C 357.600 314.818,358.050 313.986,358.600 313.436 C 359.150 312.886,359.600 312.250,359.600 312.022 C 359.600 311.793,359.960 311.382,360.400 311.107 C 360.840 310.832,361.200 310.319,361.200 309.966 C 361.200 309.613,361.556 309.002,361.991 308.609 C 362.425 308.215,362.688 307.743,362.575 307.560 C 362.462 307.376,362.736 306.997,363.184 306.717 C 363.633 306.437,364.000 305.931,364.000 305.592 C 364.000 305.254,364.360 304.717,364.800 304.400 C 365.240 304.083,365.600 303.503,365.600 303.112 C 365.600 302.720,365.760 302.400,365.957 302.400 C 366.153 302.400,366.426 301.950,366.564 301.400 C 366.702 300.850,367.082 300.400,367.408 300.400 C 367.733 300.400,368.000 300.051,368.000 299.624 C 368.000 299.197,368.172 298.741,368.383 298.611 C 368.593 298.481,368.664 298.110,368.540 297.787 C 368.416 297.464,368.514 297.200,368.757 297.200 C 369.001 297.200,369.200 296.932,369.200 296.603 C 369.200 296.275,369.560 295.782,370.000 295.507 C 370.440 295.232,370.800 294.691,370.800 294.304 C 370.800 293.917,370.946 293.600,371.125 293.600 C 371.304 293.600,371.698 292.970,372.000 292.200 C 372.302 291.430,372.708 290.800,372.902 290.800 C 373.095 290.800,373.140 290.440,373.000 290.000 C 372.854 289.541,372.928 289.200,373.173 289.200 C 373.408 289.200,373.600 288.840,373.600 288.400 C 373.600 287.960,373.746 287.600,373.925 287.600 C 374.104 287.600,374.498 286.970,374.800 286.200 C 375.102 285.430,375.496 284.800,375.675 284.800 C 375.854 284.800,376.000 284.440,376.000 284.000 C 376.000 283.560,376.180 283.200,376.400 283.200 C 376.620 283.200,376.800 282.930,376.800 282.600 C 376.800 282.270,377.001 282.000,377.247 282.000 C 377.492 282.000,377.602 281.652,377.491 281.226 C 377.369 280.761,377.527 280.360,377.887 280.222 C 378.300 280.063,378.408 279.685,378.235 278.996 C 378.091 278.423,378.158 278.000,378.392 278.000 C 378.617 278.000,378.800 277.730,378.800 277.400 C 378.800 277.070,378.980 276.800,379.200 276.800 C 379.420 276.800,379.600 276.440,379.600 276.000 C 379.600 275.560,379.780 275.200,380.000 275.200 C 380.220 275.200,380.400 274.876,380.400 274.480 C 380.400 273.586,381.294 271.607,381.700 271.603 C 381.865 271.601,382.000 271.060,382.000 270.400 C 382.000 269.740,382.201 269.200,382.447 269.200 C 382.707 269.200,382.814 268.784,382.702 268.200 C 382.597 267.650,382.666 267.200,382.855 267.200 C 383.045 267.200,383.200 266.840,383.200 266.400 C 383.200 265.960,383.380 265.600,383.600 265.600 C 383.820 265.600,384.000 265.161,384.000 264.624 C 384.000 264.087,384.180 263.536,384.400 263.400 C 384.620 263.264,384.800 262.713,384.800 262.176 C 384.800 261.639,384.980 261.200,385.200 261.200 C 385.420 261.200,385.600 260.660,385.600 260.000 C 385.600 259.340,385.780 258.800,386.000 258.800 C 386.220 258.800,386.400 258.170,386.400 257.400 C 386.400 256.630,386.601 256.000,386.847 256.000 C 387.105 256.000,387.214 255.587,387.106 255.020 C 386.985 254.390,387.130 253.959,387.510 253.813 C 387.942 253.647,388.041 253.208,387.876 252.193 C 387.752 251.427,387.819 250.800,388.025 250.800 C 388.231 250.800,388.400 250.170,388.400 249.400 C 388.400 248.630,388.580 248.000,388.800 248.000 C 389.020 248.000,389.200 247.280,389.200 246.400 C 389.200 245.520,389.380 244.800,389.600 244.800 C 389.820 244.800,390.000 244.170,390.000 243.400 C 390.000 242.630,390.180 242.000,390.400 242.000 C 390.620 242.000,390.800 241.190,390.800 240.200 C 390.800 239.210,390.980 238.400,391.200 238.400 C 391.420 238.400,391.600 237.500,391.600 236.400 C 391.600 235.241,391.781 234.400,392.030 234.400 C 392.287 234.400,392.427 233.637,392.380 232.500 C 392.336 231.455,392.408 230.330,392.540 230.000 C 392.673 229.670,392.830 228.230,392.890 226.800 C 392.967 224.978,393.150 224.230,393.500 224.300 C 393.896 224.379,394.000 219.267,394.000 199.800 C 394.000 180.333,393.896 175.221,393.500 175.300 C 393.150 175.370,392.967 174.622,392.890 172.800 C 392.830 171.370,392.673 169.930,392.540 169.600 C 392.408 169.270,392.336 168.145,392.380 167.100 C 392.427 165.963,392.287 165.200,392.030 165.200 C 391.781 165.200,391.600 164.359,391.600 163.200 C 391.600 162.100,391.420 161.200,391.200 161.200 C 390.980 161.200,390.800 160.390,390.800 159.400 C 390.800 158.410,390.620 157.600,390.400 157.600 C 390.180 157.600,390.000 156.970,390.000 156.200 C 390.000 155.430,389.820 154.800,389.600 154.800 C 389.380 154.800,389.200 154.080,389.200 153.200 C 389.200 152.320,389.020 151.600,388.800 151.600 C 388.580 151.600,388.400 150.970,388.400 150.200 C 388.400 149.430,388.231 148.800,388.025 148.800 C 387.819 148.800,387.752 148.173,387.876 147.407 C 388.041 146.392,387.942 145.953,387.510 145.787 C 387.130 145.641,386.985 145.210,387.106 144.580 C 387.214 144.013,387.105 143.600,386.847 143.600 C 386.601 143.600,386.400 142.970,386.400 142.200 C 386.400 141.430,386.220 140.800,386.000 140.800 C 385.780 140.800,385.600 140.260,385.600 139.600 C 385.600 138.940,385.420 138.400,385.200 138.400 C 384.980 138.400,384.800 137.961,384.800 137.424 C 384.800 136.887,384.620 136.336,384.400 136.200 C 384.180 136.064,384.000 135.513,384.000 134.976 C 384.000 134.439,383.820 134.000,383.600 134.000 C 383.380 134.000,383.200 133.640,383.200 133.200 C 383.200 132.760,383.045 132.400,382.855 132.400 C 382.666 132.400,382.597 131.950,382.702 131.400 C 382.814 130.816,382.707 130.400,382.447 130.400 C 382.201 130.400,382.000 129.860,382.000 129.200 C 382.000 128.540,381.865 127.999,381.700 127.997 C 381.294 127.993,380.400 126.014,380.400 125.120 C 380.400 124.724,380.220 124.400,380.000 124.400 C 379.780 124.400,379.600 124.040,379.600 123.600 C 379.600 123.160,379.420 122.800,379.200 122.800 C 378.980 122.800,378.800 122.530,378.800 122.200 C 378.800 121.870,378.617 121.600,378.392 121.600 C 378.158 121.600,378.091 121.177,378.235 120.604 C 378.408 119.915,378.300 119.537,377.887 119.378 C 377.527 119.240,377.369 118.839,377.491 118.374 C 377.602 117.948,377.492 117.600,377.247 117.600 C 377.001 117.600,376.800 117.330,376.800 117.000 C 376.800 116.670,376.620 116.400,376.400 116.400 C 376.180 116.400,376.000 116.040,376.000 115.600 C 376.000 115.160,375.854 114.800,375.675 114.800 C 375.496 114.800,375.102 114.170,374.800 113.400 C 374.498 112.630,374.104 112.000,373.925 112.000 C 373.746 112.000,373.600 111.640,373.600 111.200 C 373.600 110.760,373.408 110.400,373.173 110.400 C 372.928 110.400,372.854 110.059,373.000 109.600 C 373.140 109.160,373.095 108.800,372.902 108.800 C 372.708 108.800,372.302 108.170,372.000 107.400 C 371.698 106.630,371.304 106.000,371.125 106.000 C 370.946 106.000,370.800 105.683,370.800 105.296 C 370.800 104.909,370.440 104.368,370.000 104.093 C 369.560 103.818,369.200 103.325,369.200 102.997 C 369.200 102.668,369.001 102.400,368.757 102.400 C 368.514 102.400,368.416 102.136,368.540 101.813 C 368.664 101.490,368.593 101.119,368.383 100.989 C 368.172 100.859,368.000 100.403,368.000 99.976 C 368.000 99.549,367.733 99.200,367.408 99.200 C 367.082 99.200,366.702 98.750,366.564 98.200 C 366.426 97.650,366.153 97.200,365.957 97.200 C 365.760 97.200,365.600 96.880,365.600 96.488 C 365.600 96.097,365.240 95.517,364.800 95.200 C 364.360 94.883,364.000 94.346,364.000 94.008 C 364.000 93.669,363.633 93.163,363.184 92.883 C 362.736 92.603,362.462 92.224,362.575 92.040 C 362.688 91.857,362.425 91.385,361.991 90.991 C 361.556 90.598,361.200 89.987,361.200 89.634 C 361.200 89.281,360.840 88.768,360.400 88.493 C 359.960 88.218,359.600 87.807,359.600 87.578 C 359.600 87.350,359.150 86.714,358.600 86.164 C 358.050 85.614,357.600 84.782,357.600 84.315 C 357.600 83.848,357.482 83.585,357.337 83.730 C 356.986 84.081,356.000 83.237,356.000 82.585 C 356.000 82.301,355.370 81.420,354.600 80.627 C 353.830 79.834,353.200 79.023,353.200 78.824 C 353.200 78.624,352.480 77.756,351.600 76.893 C 350.720 76.031,350.000 75.127,350.000 74.885 C 350.000 74.643,349.010 73.509,347.800 72.365 C 346.590 71.220,345.600 69.950,345.600 69.542 C 345.600 69.134,345.454 68.800,345.276 68.800 C 345.098 68.800,341.543 65.383,337.376 61.206 C 333.209 57.029,329.614 53.609,329.386 53.606 C 329.159 53.603,327.995 52.610,326.800 51.400 C 325.605 50.190,324.418 49.200,324.162 49.200 C 323.906 49.200,323.065 48.480,322.294 47.600 C 321.522 46.720,320.664 46.000,320.386 46.000 C 320.108 46.000,319.269 45.370,318.521 44.600 C 317.773 43.830,316.940 43.200,316.669 43.200 C 316.398 43.200,315.917 42.840,315.600 42.400 C 315.283 41.960,314.774 41.600,314.469 41.600 C 314.164 41.600,313.561 41.150,313.129 40.600 C 312.696 40.050,312.035 39.600,311.659 39.600 C 311.284 39.600,310.717 39.240,310.400 38.800 C 310.083 38.360,309.615 38.000,309.361 38.000 C 309.106 38.000,308.658 37.711,308.365 37.358 C 308.073 37.005,307.465 36.548,307.016 36.341 C 305.652 35.713,304.444 34.964,303.671 34.264 C 303.267 33.899,302.726 33.600,302.469 33.600 C 302.211 33.600,302.000 33.420,302.000 33.200 C 302.000 32.980,301.706 32.800,301.347 32.800 C 300.988 32.800,300.403 32.476,300.047 32.080 C 299.402 31.362,296.819 30.000,296.102 30.000 C 295.894 30.000,295.398 29.640,295.000 29.200 C 294.602 28.760,294.034 28.400,293.738 28.400 C 293.442 28.400,293.200 28.220,293.200 28.000 C 293.200 27.780,292.966 27.600,292.680 27.600 C 291.963 27.600,290.007 26.663,290.003 26.318 C 290.001 26.163,289.370 25.918,288.600 25.774 C 287.830 25.629,287.199 25.396,287.199 25.255 C 287.198 25.115,286.208 24.550,285.000 24.000 C 283.792 23.450,282.802 22.865,282.801 22.700 C 282.801 22.535,282.534 22.400,282.210 22.400 C 281.885 22.400,281.030 22.041,280.310 21.601 C 279.589 21.162,278.730 20.802,278.400 20.800 C 278.070 20.798,276.914 20.347,275.832 19.798 C 274.750 19.249,273.535 18.800,273.132 18.800 C 272.729 18.800,272.400 18.620,272.400 18.400 C 272.400 18.180,272.040 18.000,271.600 18.000 C 271.160 18.000,270.800 17.820,270.800 17.600 C 270.800 17.380,270.361 17.200,269.824 17.200 C 269.287 17.200,268.751 17.044,268.632 16.853 C 268.514 16.661,267.694 16.389,266.809 16.248 C 265.924 16.106,265.200 15.813,265.200 15.595 C 265.200 15.378,264.660 15.200,264.000 15.200 C 263.340 15.200,262.800 15.020,262.800 14.800 C 262.800 14.580,262.361 14.400,261.824 14.400 C 261.287 14.400,260.736 14.220,260.600 14.000 C 260.464 13.780,259.913 13.600,259.376 13.600 C 258.839 13.600,258.400 13.420,258.400 13.200 C 258.400 12.980,257.781 12.800,257.024 12.800 C 256.267 12.800,255.536 12.620,255.400 12.400 C 255.264 12.180,254.724 12.000,254.200 12.000 C 253.676 12.000,253.145 11.834,253.019 11.631 C 252.894 11.429,251.621 11.137,250.190 10.984 C 248.759 10.831,247.491 10.547,247.371 10.353 C 247.251 10.159,246.533 10.000,245.776 10.000 C 245.019 10.000,244.400 9.820,244.400 9.600 C 244.400 9.380,243.781 9.200,243.024 9.200 C 242.267 9.200,241.536 9.020,241.400 8.800 C 241.264 8.580,240.353 8.400,239.376 8.400 C 238.399 8.400,237.600 8.220,237.600 8.000 C 237.600 7.780,236.805 7.600,235.833 7.600 C 234.862 7.600,234.007 7.432,233.933 7.227 C 233.860 7.022,231.579 6.726,228.865 6.568 C 225.293 6.362,223.872 6.133,223.722 5.741 C 223.413 4.936,175.387 4.936,175.078 5.741 M353.600 96.400 L 353.600 101.600 199.000 101.600 L 44.400 101.600 44.400 96.400 L 44.400 91.200 199.000 91.200 L 353.600 91.200 353.600 96.400 M161.317 117.800 C 161.272 118.460,161.117 119.670,160.975 120.490 C 160.691 122.117,160.999 121.980,155.800 122.793 C 142.164 124.925,137.693 128.228,134.397 138.600 C 133.908 140.140,133.349 141.713,133.154 142.095 C 132.959 142.477,132.800 143.094,132.800 143.466 C 132.800 143.839,132.625 144.696,132.411 145.372 C 132.197 146.047,131.642 148.490,131.179 150.800 C 130.358 154.892,130.043 156.386,129.182 160.300 C 128.952 161.345,128.600 163.010,128.400 164.000 C 127.828 166.832,127.346 169.147,126.606 172.600 C 126.229 174.360,125.759 176.565,125.561 177.500 C 125.362 178.435,125.020 180.010,124.800 181.000 C 124.580 181.990,124.220 183.610,124.000 184.600 C 123.372 187.425,122.931 189.533,122.200 193.200 C 121.469 196.867,121.028 198.975,120.400 201.800 C 120.180 202.790,119.820 204.410,119.600 205.400 C 119.380 206.390,119.041 207.965,118.846 208.900 C 118.652 209.835,117.999 212.940,117.396 215.800 C 116.793 218.660,116.142 221.765,115.950 222.700 C 115.757 223.635,115.420 225.210,115.200 226.200 C 114.980 227.190,114.620 228.810,114.400 229.800 C 114.180 230.790,113.844 232.365,113.653 233.300 C 113.463 234.235,112.941 236.800,112.493 239.000 C 111.663 243.076,111.447 244.097,110.779 247.100 C 110.570 248.035,110.220 249.610,110.000 250.600 C 109.780 251.590,109.420 253.210,109.200 254.200 C 104.840 273.821,105.534 277.516,114.200 280.799 C 115.489 281.287,118.773 281.969,122.000 282.419 C 128.268 283.293,128.317 283.338,127.386 287.500 L 127.185 288.400 85.792 288.400 L 44.400 288.400 44.400 287.128 C 44.400 283.575,45.060 283.135,51.800 282.189 C 61.767 280.791,66.499 277.123,69.605 268.389 C 70.496 265.886,70.812 264.803,71.645 261.400 C 71.860 260.520,72.208 259.125,72.418 258.300 C 73.269 254.956,73.660 253.323,73.972 251.800 C 74.152 250.920,74.793 247.860,75.396 245.000 C 75.999 242.140,76.652 239.035,76.846 238.100 C 77.272 236.054,77.823 233.569,78.331 231.400 C 78.651 230.038,79.935 224.004,81.246 217.700 C 81.441 216.765,81.780 215.190,82.000 214.200 C 82.220 213.210,82.580 211.590,82.800 210.600 C 83.020 209.610,83.371 208.035,83.581 207.100 C 83.790 206.165,84.257 203.960,84.618 202.200 C 85.388 198.454,85.848 196.284,86.400 193.800 C 86.620 192.810,86.980 191.190,87.200 190.200 C 87.420 189.210,87.780 187.590,88.000 186.600 C 88.619 183.816,89.066 181.681,89.761 178.200 C 90.112 176.440,90.589 174.190,90.821 173.200 C 91.054 172.210,91.414 170.635,91.622 169.700 C 91.830 168.765,92.180 167.190,92.400 166.200 C 92.620 165.210,92.957 163.635,93.150 162.700 C 93.342 161.765,93.993 158.660,94.596 155.800 C 96.983 144.479,97.175 143.472,97.581 140.124 C 97.773 138.543,98.056 136.854,98.209 136.372 C 98.528 135.366,97.741 131.123,96.936 129.513 C 95.657 126.954,93.157 125.467,87.800 124.078 C 83.818 123.046,82.841 122.849,80.400 122.587 C 76.669 122.187,76.487 122.039,76.793 119.655 C 77.254 116.060,72.847 116.383,119.751 116.498 L 161.400 116.600 161.317 117.800 M242.736 117.559 C 242.810 118.086,242.656 119.286,242.393 120.226 C 241.877 122.068,241.711 122.161,238.200 122.582 C 224.614 124.211,221.402 127.425,222.787 138.000 C 223.546 143.799,224.043 147.320,224.397 149.400 C 225.507 155.940,225.813 157.871,226.751 164.273 C 226.982 165.854,227.269 167.564,227.388 168.073 C 227.507 168.583,227.797 170.530,228.033 172.400 C 228.269 174.270,228.616 176.790,228.804 178.000 C 229.451 182.160,230.027 185.804,230.383 188.000 C 230.580 189.210,230.924 191.460,231.149 193.000 C 231.373 194.540,231.845 197.690,232.196 200.000 C 232.547 202.310,233.021 205.550,233.249 207.200 C 233.476 208.850,233.822 211.190,234.018 212.400 C 236.030 224.836,237.975 238.025,238.281 241.300 C 238.537 244.034,238.652 244.070,240.173 241.885 C 243.876 236.567,255.775 218.633,260.268 211.600 C 268.791 198.257,274.000 189.988,274.000 189.802 C 274.000 189.706,275.021 188.047,276.268 186.114 C 277.516 184.181,279.023 181.790,279.619 180.800 C 280.214 179.810,281.863 177.110,283.284 174.800 C 285.673 170.914,291.859 160.800,297.105 152.200 C 309.902 131.224,310.434 127.141,300.772 124.056 C 299.986 123.805,298.927 123.600,298.418 123.600 C 297.909 123.600,296.842 123.426,296.046 123.213 C 295.251 123.001,293.220 122.717,291.534 122.582 C 287.122 122.231,286.007 120.136,288.511 116.900 C 289.030 116.229,353.005 116.162,353.419 116.831 C 353.566 117.069,353.451 118.322,353.164 119.617 C 352.575 122.268,352.727 122.183,347.800 122.607 C 337.858 123.462,330.468 127.232,323.654 134.925 C 317.278 142.125,315.946 144.045,283.928 192.200 C 248.460 245.544,237.387 262.331,222.790 284.894 L 218.200 291.988 214.753 291.994 L 211.305 292.000 211.036 290.300 C 210.736 288.404,210.352 285.684,209.385 278.600 C 208.606 272.889,208.228 270.352,207.600 266.600 C 207.342 265.060,206.982 262.810,206.800 261.600 C 206.618 260.390,206.282 258.230,206.053 256.800 C 205.824 255.370,205.346 252.310,204.991 250.000 C 203.659 241.345,202.992 237.152,202.445 234.000 C 202.236 232.790,201.869 230.630,201.631 229.200 C 201.393 227.770,201.015 225.520,200.792 224.200 C 200.569 222.880,200.110 220.000,199.774 217.800 C 199.177 213.903,198.728 211.189,197.971 206.900 C 197.767 205.745,197.437 203.855,197.237 202.700 C 197.037 201.545,196.684 199.520,196.452 198.200 C 195.967 195.443,194.941 189.310,194.378 185.800 C 194.166 184.480,193.815 182.410,193.598 181.200 C 193.381 179.990,193.016 177.920,192.787 176.600 C 192.271 173.621,191.808 170.965,191.218 167.600 C 190.968 166.170,190.486 163.290,190.147 161.200 C 189.808 159.110,189.382 156.590,189.200 155.600 C 189.018 154.610,188.672 152.720,188.432 151.400 C 188.193 150.080,187.834 148.190,187.635 147.200 C 187.437 146.210,187.088 144.410,186.861 143.200 C 186.282 140.125,184.890 134.794,184.353 133.600 C 180.955 126.045,177.464 123.452,169.583 122.628 C 164.977 122.146,164.691 122.043,164.961 120.960 C 165.092 120.432,165.314 119.505,165.452 118.900 C 166.074 116.186,162.823 116.385,204.764 116.498 L 242.600 116.600 242.736 117.559 M353.600 312.800 L 353.600 318.000 199.000 318.000 L 44.400 318.000 44.400 312.800 L 44.400 307.600 199.000 307.600 L 353.600 307.600 353.600 312.800 " stroke="none" fill="#2b2b2b" fill-rule="evenodd"></path><path id="path2" d="M44.551 96.400 C 44.551 98.930,44.616 99.965,44.696 98.700 C 44.775 97.435,44.775 95.365,44.696 94.100 C 44.616 92.835,44.551 93.870,44.551 96.400 M353.340 96.400 C 353.340 98.270,353.409 99.035,353.493 98.100 C 353.577 97.165,353.577 95.635,353.493 94.700 C 353.409 93.765,353.340 94.530,353.340 96.400 M98.931 117.100 C 110.332 117.159,128.872 117.159,140.131 117.100 C 151.389 117.041,142.060 116.993,119.400 116.993 C 96.740 116.993,87.529 117.041,98.931 117.100 M185.500 117.100 C 195.895 117.159,212.905 117.159,223.300 117.100 C 233.695 117.041,225.190 116.992,204.400 116.992 C 183.610 116.992,175.105 117.041,185.500 117.100 M304.900 117.100 C 313.645 117.160,327.955 117.160,336.700 117.100 C 345.445 117.040,338.290 116.991,320.800 116.991 C 303.310 116.991,296.155 117.040,304.900 117.100 M165.328 120.995 C 165.375 121.462,165.738 121.825,166.205 121.872 C 166.781 121.932,166.814 121.899,166.325 121.752 C 165.953 121.642,165.558 121.247,165.448 120.875 C 165.301 120.386,165.268 120.419,165.328 120.995 M323.578 134.300 L 322.200 135.800 323.700 134.422 C 325.096 133.138,325.384 132.800,325.078 132.800 C 325.012 132.800,324.337 133.475,323.578 134.300 M213.300 291.891 C 214.125 291.978,215.475 291.978,216.300 291.891 C 217.125 291.805,216.450 291.734,214.800 291.734 C 213.150 291.734,212.475 291.805,213.300 291.891 M44.551 312.800 C 44.551 315.330,44.616 316.365,44.696 315.100 C 44.775 313.835,44.775 311.765,44.696 310.500 C 44.616 309.235,44.551 310.270,44.551 312.800 M353.340 312.800 C 353.340 314.670,353.409 315.435,353.493 314.500 C 353.577 313.565,353.577 312.035,353.493 311.100 C 353.409 310.165,353.340 310.930,353.340 312.800 " stroke="none" fill="#6b5a3e" fill-rule="evenodd"></path><path id="path3" d="M122.533 91.500 C 164.735 91.556,233.675 91.556,275.733 91.500 C 317.790 91.444,283.260 91.398,199.000 91.398 C 114.740 91.398,80.330 91.444,122.533 91.500 M122.533 317.900 C 164.735 317.956,233.675 317.956,275.733 317.900 C 317.790 317.844,283.260 317.798,199.000 317.798 C 114.740 317.798,80.330 317.844,122.533 317.900 " stroke="none" fill="#4f4234" fill-rule="evenodd"></path><path id="path4" d="M121.867 101.500 C 164.145 101.556,233.445 101.556,275.867 101.500 C 318.290 101.444,283.700 101.398,199.000 101.398 C 114.300 101.398,79.590 101.444,121.867 101.500 M65.930 288.300 C 77.002 288.359,95.002 288.359,105.930 288.300 C 116.859 288.241,107.800 288.192,85.800 288.192 C 63.800 288.192,54.859 288.241,65.930 288.300 M121.867 307.900 C 164.145 307.956,233.445 307.956,275.867 307.900 C 318.290 307.844,283.700 307.798,199.000 307.798 C 114.300 307.798,79.590 307.844,121.867 307.900 " stroke="none" fill="#544c34" fill-rule="evenodd"></path><path id="path5" d="M122.067 91.900 C 164.235 91.956,233.355 91.956,275.667 91.900 C 317.980 91.844,283.480 91.798,199.000 91.798 C 114.520 91.798,79.900 91.844,122.067 91.900 M122.500 101.100 C 164.685 101.156,233.715 101.156,275.900 101.100 C 318.085 101.044,283.570 100.998,199.200 100.998 C 114.830 100.998,80.315 101.044,122.500 101.100 M77.738 117.817 C 77.608 118.157,77.613 118.547,77.751 118.684 C 77.888 118.821,78.000 118.634,78.000 118.269 C 78.000 117.654,81.121 117.596,119.500 117.500 L 161.000 117.396 119.487 117.298 C 82.382 117.210,77.950 117.266,77.738 117.817 M166.662 117.500 C 166.560 117.665,183.456 117.753,204.208 117.696 C 239.939 117.597,241.950 117.629,242.123 118.296 C 242.263 118.831,242.318 118.784,242.354 118.100 L 242.400 117.200 204.624 117.200 C 183.847 117.200,166.764 117.335,166.662 117.500 M288.667 117.467 C 288.520 117.613,288.403 117.928,288.406 118.167 C 288.410 118.425,288.540 118.400,288.728 118.102 C 288.975 117.714,296.051 117.582,321.022 117.500 L 353.000 117.395 320.967 117.298 C 303.348 117.244,288.813 117.320,288.667 117.467 M347.700 121.876 C 348.085 121.976,348.715 121.976,349.100 121.876 C 349.485 121.775,349.170 121.693,348.400 121.693 C 347.630 121.693,347.315 121.775,347.700 121.876 M224.324 126.300 C 223.159 127.549,222.239 129.173,222.531 129.464 C 222.639 129.572,222.849 129.275,222.999 128.804 C 223.148 128.333,223.813 127.329,224.477 126.574 C 225.912 124.939,225.792 124.725,224.324 126.300 M94.800 126.125 C 94.800 126.194,95.385 126.779,96.100 127.425 L 97.400 128.600 96.225 127.300 C 95.130 126.088,94.800 125.816,94.800 126.125 M308.093 130.400 C 308.093 131.170,308.175 131.485,308.276 131.100 C 308.376 130.715,308.376 130.085,308.276 129.700 C 308.175 129.315,308.093 129.630,308.093 130.400 M324.788 132.700 L 322.200 135.400 324.900 132.812 C 326.385 131.388,327.600 130.173,327.600 130.112 C 327.600 129.817,327.193 130.192,324.788 132.700 M98.258 132.000 C 98.575 133.725,98.802 134.051,98.794 132.767 C 98.791 132.235,98.611 131.530,98.394 131.200 C 98.118 130.778,98.077 131.015,98.258 132.000 M221.731 134.600 C 221.733 136.140,221.805 136.721,221.892 135.891 C 221.979 135.061,221.977 133.801,221.889 133.091 C 221.800 132.381,221.729 133.060,221.731 134.600 M98.501 138.200 C 98.505 139.080,98.587 139.393,98.683 138.895 C 98.779 138.398,98.775 137.678,98.675 137.295 C 98.575 136.913,98.496 137.320,98.501 138.200 M92.229 169.029 C 92.081 169.615,92.038 170.172,92.132 170.266 C 92.227 170.360,92.424 169.958,92.571 169.371 C 92.719 168.785,92.762 168.228,92.668 168.134 C 92.573 168.040,92.376 168.442,92.229 169.029 M260.953 225.300 C 259.576 227.636,259.486 227.835,260.187 227.000 C 261.000 226.032,261.700 224.800,261.438 224.800 C 261.333 224.800,261.115 225.025,260.953 225.300 M114.250 226.450 C 113.917 228.117,114.240 228.440,114.600 226.800 C 114.752 226.109,114.793 225.459,114.691 225.358 C 114.589 225.256,114.391 225.747,114.250 226.450 M235.693 228.400 C 235.693 229.170,235.775 229.485,235.876 229.100 C 235.976 228.715,235.976 228.085,235.876 227.700 C 235.775 227.315,235.693 227.630,235.693 228.400 M246.153 247.700 C 244.776 250.036,244.686 250.235,245.387 249.400 C 246.200 248.432,246.900 247.200,246.638 247.200 C 246.533 247.200,246.315 247.425,246.153 247.700 M109.029 251.029 C 108.881 251.615,108.838 252.172,108.932 252.266 C 109.027 252.360,109.224 251.958,109.371 251.371 C 109.519 250.785,109.562 250.228,109.468 250.134 C 109.373 250.040,109.176 250.442,109.029 251.029 M105.701 271.000 C 105.705 271.880,105.787 272.193,105.883 271.695 C 105.979 271.198,105.975 270.478,105.875 270.095 C 105.775 269.713,105.696 270.120,105.701 271.000 M107.200 277.325 C 107.200 277.394,107.785 277.979,108.500 278.625 L 109.800 279.800 108.625 278.500 C 107.530 277.288,107.200 277.016,107.200 277.325 M222.553 283.700 C 221.176 286.036,221.086 286.235,221.787 285.400 C 222.600 284.432,223.300 283.200,223.038 283.200 C 222.933 283.200,222.715 283.425,222.553 283.700 M126.200 283.872 C 126.640 283.993,127.149 284.297,127.330 284.546 C 127.549 284.846,127.606 284.796,127.499 284.400 C 127.410 284.070,126.901 283.767,126.369 283.726 C 125.605 283.668,125.569 283.699,126.200 283.872 M210.893 285.200 C 210.893 285.970,210.975 286.285,211.076 285.900 C 211.176 285.515,211.176 284.885,211.076 284.500 C 210.975 284.115,210.893 284.430,210.893 285.200 M45.029 285.829 C 44.881 286.415,44.838 286.972,44.932 287.066 C 45.027 287.160,45.224 286.758,45.371 286.171 C 45.519 285.585,45.562 285.028,45.468 284.934 C 45.373 284.840,45.176 285.242,45.029 285.829 M122.500 308.300 C 164.685 308.356,233.715 308.356,275.900 308.300 C 318.085 308.244,283.570 308.198,199.200 308.198 C 114.830 308.198,80.315 308.244,122.500 308.300 M122.067 317.500 C 164.235 317.556,233.355 317.556,275.667 317.500 C 317.980 317.444,283.480 317.398,199.000 317.398 C 114.520 317.398,79.900 317.444,122.067 317.500 " stroke="none" fill="#8c7449" fill-rule="evenodd"></path><path id="path6" d="M98.509 135.200 C 98.509 136.190,98.587 136.595,98.682 136.100 C 98.778 135.605,98.778 134.795,98.682 134.300 C 98.587 133.805,98.509 134.210,98.509 135.200 " stroke="none" fill="#847444" fill-rule="evenodd"></path><path id="path7" d="M92.800 116.695 C 132.232 116.969,161.506 116.972,161.338 116.700 C 161.236 116.535,142.398 116.443,119.476 116.495 C 96.554 116.547,84.550 116.637,92.800 116.695 M185.730 116.700 C 196.252 116.759,213.352 116.759,223.730 116.700 C 234.109 116.641,225.500 116.592,204.600 116.592 C 183.700 116.592,175.209 116.641,185.730 116.700 M300.200 116.693 C 330.481 116.969,353.506 116.972,353.338 116.700 C 353.236 116.535,338.628 116.442,320.876 116.494 C 303.124 116.545,293.820 116.635,300.200 116.693 M166.500 122.276 C 166.885 122.376,167.515 122.376,167.900 122.276 C 168.285 122.175,167.970 122.093,167.200 122.093 C 166.430 122.093,166.115 122.175,166.500 122.276 M349.505 122.283 C 350.002 122.379,350.722 122.375,351.105 122.275 C 351.487 122.175,351.080 122.096,350.200 122.101 C 349.320 122.105,349.007 122.187,349.505 122.283 M307.293 130.400 C 307.293 131.170,307.375 131.485,307.476 131.100 C 307.576 130.715,307.576 130.085,307.476 129.700 C 307.375 129.315,307.293 129.630,307.293 130.400 M205.293 252.000 C 205.293 252.770,205.375 253.085,205.476 252.700 C 205.576 252.315,205.576 251.685,205.476 251.300 C 205.375 250.915,205.293 251.230,205.293 252.000 " stroke="none" fill="#3c3c2c" fill-rule="evenodd"></path><path id="path8" d="" stroke="none" fill="#443c2c" fill-rule="evenodd"></path></g></svg>