<?xml version="1.0" standalone="no"?>
<!DOCTYPE svg PUBLIC "-//W3C//DTD SVG 20010904//EN"
 "http://www.w3.org/TR/2001/REC-SVG-20010904/DTD/svg10.dtd">
<svg version="1.0" xmlns="http://www.w3.org/2000/svg"
 width="1000.000000pt" height="1000.000000pt" viewBox="0 0 1000.000000 1000.000000"
 preserveAspectRatio="xMidYMid meet">

<g transform="translate(0.000000,1000.000000) scale(0.100000,-0.100000)"
fill="#000000" stroke="none">
<path d="M120 5005 l0 -4865 4865 0 4865 0 0 4865 0 4865 -4865 0 -4865 0 0
-4865z m8710 2585 l0 -120 -3855 0 -3855 0 0 120 0 120 3855 0 3855 0 0 -120z
m-4818 -565 c-2 -22 -8 -45 -13 -51 -5 -6 -44 -17 -87 -23 -222 -35 -358 -88
-433 -168 -102 -109 -142 -217 -223 -598 -20 -93 -41 -188 -46 -210 -5 -22
-18 -83 -29 -135 -35 -167 -91 -432 -111 -525 -11 -49 -35 -166 -55 -260 -19
-93 -40 -188 -45 -210 -5 -22 -26 -116 -45 -210 -47 -227 -74 -352 -85 -400
-5 -22 -30 -139 -55 -260 -25 -121 -50 -238 -55 -260 -80 -342 -99 -528 -61
-611 44 -98 127 -137 371 -178 129 -22 135 -24 138 -47 2 -14 -2 -37 -7 -52
l-11 -27 -1021 0 -1021 0 7 33 c16 73 14 71 136 91 314 52 414 129 502 386 33
96 64 223 121 490 26 118 51 233 56 255 9 39 33 152 120 560 22 105 45 208 50
230 5 22 30 137 55 255 25 118 50 233 55 255 5 22 30 137 55 255 25 118 50
233 55 255 48 204 119 564 131 663 20 161 -10 263 -95 320 -46 32 -151 66
-266 87 -183 34 -165 26 -163 69 5 72 -81 66 1052 64 l1026 -3 -3 -40z m2042
36 c3 -4 0 -28 -7 -52 l-13 -44 -84 -13 c-239 -38 -321 -71 -367 -150 -27 -45
-28 -53 -28 -177 0 -89 7 -172 23 -265 42 -248 61 -372 142 -910 44 -294 85
-563 90 -597 6 -35 14 -91 20 -125 5 -35 30 -200 55 -368 25 -168 50 -329 55
-359 6 -30 10 -67 10 -82 0 -15 4 -30 9 -34 25 -15 792 1160 1171 1795 15 25
64 106 110 180 46 74 95 155 110 180 15 25 70 116 123 203 175 286 215 370
223 477 4 54 2 70 -15 97 -36 57 -112 91 -252 113 -46 7 -115 18 -154 25 l-70
11 3 39 c2 22 8 45 14 52 8 11 172 13 802 11 l791 -3 -2 -39 c-2 -21 -7 -44
-13 -51 -5 -6 -54 -17 -107 -24 -200 -26 -326 -70 -442 -155 -71 -53 -238
-230 -325 -346 -43 -58 -435 -640 -871 -1295 -722 -1086 -941 -1418 -1446
-2188 l-169 -258 -72 3 -72 3 -28 200 c-47 333 -113 762 -197 1275 -76 459
-109 656 -201 1195 -16 94 -43 251 -60 350 -17 99 -39 230 -50 290 -11 61 -26
148 -34 195 -61 353 -114 515 -197 605 -66 72 -140 103 -304 129 l-80 12 3 33
c1 18 7 42 13 52 9 18 36 19 949 19 517 0 941 -4 944 -9z m2776 -4881 l0 -120
-3855 0 -3855 0 0 120 0 120 3855 0 3855 0 0 -120z"/>
</g>
</svg>
