<?xml version="1.0" encoding="utf-8"?>
<!-- Generator: Adobe Illustrator 22.0.0, SVG Export Plug-In . SVG Version: 6.00 Build 0)  -->
<svg version="1.1" id="Capa_1" xmlns="http://www.w3.org/2000/svg" xmlns:xlink="http://www.w3.org/1999/xlink" x="0px" y="0px"
	 viewBox="0 0 490.6 121.5" enable-background="new 0 0 490.6 121.5" xml:space="preserve">
<g>
	<g>
		<linearGradient id="SVGID_2_" gradientUnits="userSpaceOnUse" x1="118.592" y1="115.575" x2="-16.0291" y2="19.6296">
			<stop  offset="0" style="stop-color:#FFF206"/>
			<stop  offset="0.5123" style="stop-color:#FF952F"/>
			<stop  offset="1" style="stop-color:#FF3C37"/>
		</linearGradient>
		<path fill="url(#SVGID_2_)" d="M0,73.1c0-1,0-1.9,0-2.9c0.7-3.8,3.2-6.2,6.5-8c0.9-0.4,1.8-0.8,2.7-1.2c3.2-1.3,6.5-2,9.8-2.8
			c2.2-0.5,4.4-1.2,6.5-1.8c0.3-0.1,0.5-0.5,0.7-0.7c-0.3-0.2-0.6-0.5-0.8-0.5c-1.2,0-2.3,0.1-3.5,0.3c-1.3,0.2-2.5,0.7-3.8,1
			c-1.9,0.4-3.9,0.6-5.9-0.1c-2.1-0.7-3.6-3-3.2-5.1c0.6,0.6,1.1,1.1,1.7,1.6c0.7,0.7,1.2,0.8,2,0.9c-2.5-1.5-3.1-3.7-2.7-6.3
			c0.2-1.4,1.8-3.3,3.4-3.7c-0.6,1.3-0.7,2.7-0.6,4.1c0.3,3.9,4,5.3,7.1,4.3c-0.5-0.1-0.8-0.1-1.2-0.1c-0.9-0.2-1.8-0.3-2.6-0.6
			c-1.2-0.5-2-1.3-2.2-2.6c-0.1-0.9-0.1-1.8-0.2-2.7c0-0.2,0.1-0.4,0.2-0.6c0.1,0.1,0.2,0.1,0.2,0.1c0.2,0.3,0.3,0.6,0.5,0.8
			c0.8,1.6,2.1,2.6,3.9,3c0.8,0.2,1.6,0.2,2.4,0.2c1.8,0,3.6-0.1,5.3,0c1.8,0.1,3.4,0.7,4.8,1.9c1.7,1.5,1.6,3.4,0,4.9
			c-1,1-2.3,1.5-3.6,1.8c-2.1,0.5-4.2,0.9-6.2,1.4c-3.7,0.8-7.4,1.8-10.9,3.3c-1.6,0.7-3,1.7-4.2,3c-1.4,1.7-2.3,3.6-2.1,5.8
			c0.3,3.3,2.9,5.5,6.2,5.6c2,0,3.8-0.4,5.6-1.2c1.4-0.7,2.8-1.5,4.2-2.2c1.3-0.7,2.6-1.5,3.6-2.6c3-2.9,6.5-4.9,10.8-5.3
			c3.3-0.3,6.4-1.4,9.4-2.9c2.9-1.5,4.9-3.8,5.9-6.9c0.3-0.9,0.5-2,0.5-2.9c0-1.3-0.8-2.2-1.9-2.5c-0.2,1.2-0.4,2.4-1.6,3.1
			c-0.1-1.5-1-2.3-2.1-3c-0.2,0.2-0.3,0.3-0.5,0.6c-0.4-0.5-0.8-1-1.2-1.5c-1-1.5-1.6-3-1.5-4.8c0.1-1.2,0.6-2.2,1.5-3.1
			c0.2,0.6,0.3,1,0.5,1.4c0.1,0.3,0.4,0.6,0.6,0.6c0.3,0,0.6-0.2,0.8-0.5c0.2-0.2,0.3-0.6,0.5-0.8c0.3-0.4,0.7-0.7,1.1-1.1
			c0.3,0.6,0.4,1.1,0.6,1.5c0.1,0,0.2,0,0.2,0c0.2-0.3,0.4-0.6,0.5-1c0.5-2.2,0.4-4.3-0.7-6.3c-0.4-0.7-0.9-1.2-1.7-1.4
			c-0.5-0.2-1.1-0.3-1.5,0.2c-0.4,0.5-0.3,1.1,0.2,1.7c0.2,0.2,0.4,0.5,0.7,0.8c-2.1,0.3-3.5-0.8-4.9-2c-0.1,0.1-0.1,0.1-0.2,0.2
			c0.3,0.5,0.5,0.9,0.8,1.5c-0.3,0-0.6,0.1-0.9,0.1c-1.1-0.2-2-0.6-2.6-1.5c-0.5-0.7-1.1-1.3-1.6-1.9c-1.3-1.3-2.1-2.8-1.9-4.7
			c0-0.5,0.1-0.9,0-1.4c-0.1-0.8,0.2-1.3,0.9-1.7c0.8-0.4,1.5-0.9,2.2-1.4c0.8-0.6,1.3-1.3,1.2-2.4c0-0.6,0.2-1.2,0.3-1.8
			c0.1-0.5,0.2-1,0.1-1.5c-0.1-0.9-0.4-1.8-0.6-2.7c-0.5-2.4,0.6-4.5,2.8-5.6c1.1-0.5,2-1.3,3-1.9C44.1,8,45,7.4,46,6.9
			c0.9-0.4,1.8-0.7,2.7-1c2.2-0.6,4.5-1.2,6.8-1.7c0.3,0,0.5,0,0.8,0c-0.2,0.4-0.3,0.9-0.5,1.4c1.2-0.1,2.2-0.3,3.3-0.2
			c2.7,0.1,5.4,0.2,8,0.4C69.8,6,72.6,6,75.3,5.3c0.5-0.1,0.9-0.2,1.6-0.3c-0.8,1.9-2.6,2.5-4,3.7c0.8,0.3,1.4,0.4,2,0.7
			c2.6,0.9,5.1,2,7.1,3.9c1.6,1.5,2.8,3.4,4.1,5.1c1.5,2.1,3,4.2,4.8,6.1c2.4,2.7,5.3,4.5,8.9,5.1c0.4,0.1,0.9,0.1,1.3,0.2
			c-0.1,0.2-0.1,0.3-0.2,0.4c-0.1,0.1-0.3,0.3-0.4,0.4c-1.5,1.2-3.1,1.9-5,2.1c-0.4,0.1-0.9,0.1-1.4,0.2c1.7,3.5,3,7.1,3.6,10.8
			c0.6,3.8,0.6,7.5-0.7,11.2c-0.1-1-0.3-2-0.4-3c-0.2,1.5-0.3,2.9-0.4,4.4c-0.2,2.7-1.1,5.2-2.1,7.8c-0.2,0.6-0.4,1.3-0.4,1.9
			c0.2,1.9,0.3,3.7,0.7,5.6c0.5,2.4,1.2,4.7,1.9,7c0.6,2.2,1.1,4.5,1.8,6.6c1.2,3.7,2.8,7.3,4.8,10.7c1.6,2.7,2.8,5.6,4.2,8.4
			c0.2,0.3,0.3,0.6,0.6,1c1.4-1.6,2.8-1.4,4.2-0.3c0.2,0.2,0.7,0.2,1,0.1c1.2-0.4,2.3-0.2,3.2,0.5c0.7,0.5,1.4,1.1,1.8,1.9
			c0.6,1,0.9,2.2,1.3,3.3c0,0.8,0,1.6,0,2.3c-0.4,1-1.3,1.3-2.3,1.4c-0.1-1-0.2-2-0.3-3c-0.2-1-0.4-1.9-1.5-2.6
			c0.2,0.7,0.4,1.3,0.5,1.8c0.1,0.6,0.1,1.2,0.2,1.7c0.1,1.4-1.1,2.9-3.2,2.3c0-0.8,0-1.5,0-2.3c-0.1-2.1-1.3-3.4-2.6-3.5
			c1.7,1.2,1.8,2.9,1.6,4.7c-0.1,0.9-0.4,1.2-1.4,1.4c-1,0.1-1.9,0.1-2.9,0.2c-1,0.1-1.8-0.4-2.5-1.1c-0.5-0.5-0.9-1.1-1.4-1.6
			c-0.8-0.8-1.2-0.9-2.2-0.2c-0.4,0.3-0.7,0.3-0.9,0c-0.4-0.4-0.7-0.9-1-1.4c-0.3-0.5-0.4-1-0.7-1.5c-2.1-4.4-4.7-8.4-8.1-11.9
			c-2.8-2.9-4.7-6.2-5.7-10.1c-0.5-2.2-1.1-4.4-1.8-6.5c-0.3-1.1-0.9-3-1-2.7c0,0-0.2-1.9,0-2.1c0.1,0.1,0.1,0.1,0,0
			c0.9-0.5,1.7-1,2.6-1.6c0.9-0.5-1.6-0.2-3.6,0.9c-0.6,0.3-1.1,0.7-1.6,1.1c-0.2,0-0.7,1.3-0.6,1.4c0.1,0.3,0,0.8,0.1,1
			c0.4,0.6,0.3,1.2,0.2,1.9c-0.3,3.1-0.3,6.1,0.3,9.2c0.7,3.4,1.6,6.7,3.2,9.8c0.4,0.7,0.6,1.5,0.8,2.3c-0.1,0-0.2,0.1-0.2,0.1
			c-0.1-0.2-0.3-0.4-0.4-0.6c-1.2-1.9-2.3-3.9-3.5-5.8c-1.1-1.8-1.9-3.7-2.5-5.8c-0.6-2.3-1.2-4.6-1.8-6.9c-0.1-0.3-0.5-1.3-1.1-1.2
			c-0.7-0.3-1-0.8-0.8-1.8c0.2,0-0.3-2.2-0.4-1.8c0-0.1-0.1-0.1-0.1-0.2c-0.1-0.3-0.2-0.7-0.3-1c-0.7-2.3-1.9-4.4-3.6-6.2
			c-1.1-1.2-2.3-2.1-4-2.2c-1.2-0.1-1.4-0.4-1.2-1.6c0.3-1.6,0.5-3.3-0.1-5.1c-0.4,0.6-0.7,1-1.1,1.5c-1,1.4-2.1,2.8-3.5,3.9
			c-0.3,0.2-0.7,0.4-1,0.5c0-0.1-0.1-0.1-0.1-0.2c1.4-1.8,2.5-3.7,3.1-5.9c0.6-2.2,0.8-4.4,0.3-6.7c-0.4,1-0.8,1.9-1.2,2.7
			c-0.4,0.9-1,1.6-2,2.4c0.2-1.4,0.6-2.7,0.3-4c-0.8,1.6-1.6,3.1-2.4,4.5c-1.1,1.9-2.6,3.2-3.5,3.4c1-1.6,1.8-3.2,2-4.9
			c-1.1,0.6-2.3,1.1-3.5,1.8c-0.6,0.4-1.3,0.8-1.8,1.3c-1.9,1.9-4.2,3.2-6.6,4.4c-2.1,1-4.4,1.2-6.7,1.5c-4,0.6-7.6,2.2-10.6,5
			c-2.1,2-3.5,4.4-3.6,7.4c0,1,0,2-0.1,3c-0.3,3.5-0.7,4.3-4,5.2c-0.7,0.2-1.5,0.5-2.2,0.7c-1.1,0.4-1.4,0.9-1.4,2.1
			c0,0.6,0.1,1.2,0.3,1.7c0.6,1.6,0.2,3.1-0.7,4.5c-0.4,0.6-0.7,1.3-1,2c-0.3,0.7,0,1.2,0.8,1.1c0.4-0.1,0.9-0.3,1.2-0.5
			c2.2-1.5,4.6-2.6,7.2-3.1c1.1-0.2,2.2-0.5,3.3-0.8c3.2-1.1,6-2.8,8.9-4.4c0.5-0.3,0.9-0.6,1.3-1c4.2-3.5,7-7.8,8.4-13.1
			c0-0.2,0.2-0.3,0.2-0.5c0.1,0,0.2,0,0.3,0c0.1,0.8,0.3,1.6,0.4,2.4c0.1,0.8,0,1.7,0,2.7c0.5-0.2,0.7-0.3,1-0.4
			c1.6-0.6,3.3-1.3,4.9-1.7c2.2-0.5,3.6-1.7,4.7-3.6c0.6-1,1.2-2.1,1.8-3.1c0.2-0.4,0.5-0.7,0.8-1c0.2,0.3,0.2,0.5,0.2,0.7
			c0,0.8-0.1,1.7,0,2.5c0.6,3.5,2.5,6.4,4.9,9c0.3,0.3,0.6,0.8,0.7,1.2c0.4,1.8,0.7,3.7,0.9,5.5c0.3,2.1,1.5,3.4,3.2,4.3
			c0.7,0.4,1.4,0.8,2.1,1.3c2.3,1.6,3.8,3.9,5.1,6.3c1,1.9,1.9,4,2.8,6c0.5,1.2,1.2,1.6,2.5,1.7c0.7,0,1.2-0.3,1.6-0.9
			c1-1.2,2-2.5,3-3.7c0.9-1.1,2-1.5,3.4-1.1c0.3,0.1,0.7,0,1-0.2c1.2-0.6,2.4-0.5,3.4,0.4c0.4,0.4,0.9,0.6,1.5,0.5
			c0.7,0,1.4,0.1,1.9,0.7c1.9,2.1,2.6,4.9,1.4,7.8c-0.2,0.5-0.5,0.8-1.1,0.9c0-0.9,0-1.7,0-2.5c-0.1-0.8-0.3-1.5-1-2.2
			c0.1,0.9,0.2,1.6,0.3,2.4c0,0.8-0.1,1.6-0.8,2c-1,0.6-2.1,0.8-3.2,0.7c-0.2-2-0.3-4-1.8-5.5c0,0.3,0.1,0.6,0.2,0.9
			c0.2,0.8,0.3,1.6,0.4,2.5c0.1,1-0.3,1.6-1.2,2c-0.5,0.2-1.1,0.4-1.7,0.4c-1.2,0.1-2.5,0-3.7,0c-0.8,0-1.6,0.1-2.4,0.1
			c-0.6,0-1.2,0-1.8,0c-1.4-0.4-2.2-1.4-2.9-2.6c-0.2-0.3-0.3-0.7-0.5-1.1c-1.1-3.6-2.9-6.8-5.1-9.8c-1.5-2.1-3.2-4-5.6-5.2
			c-0.8-0.4-1.6-1.1-2-2c-0.9-2-1.7-4-2-6.2c-0.3-1.9-0.9-3.6-2-5.2c-0.5-0.6-1-1-1.8-0.8c-0.5,0.1-1.1,0.2-1.6,0.3
			c-1.8,0.3-3.6,0.7-5.4,1.1c-1.8,0.4-3.5,1-5.3,1.4c-1,0.2-1.6,0.7-2.2,1.6c-1.8,3-4.1,5.6-7.3,7.2c-0.8,0.4-1.6,1-2.4,1.4
			c-2.3,1.4-4.8,2.3-7.3,3.1c-0.5,0.1-1.1,0.1-1.6,0.3c-2.6,0.9-5.2,1.9-7.6,3.4c-1.2,0.8-2.3,1.7-3,3c-0.2,0.5-0.4,1-0.5,1.4
			c-0.1,0.5,0.1,0.9,0.6,0.8c0.6,0,1.2,0,1.8-0.2c2.2-0.6,4.2-0.1,6.1,1.1c0.6,0.4,1.1,1,1.2,1.8c0.1,1.1,0.3,2.2,0.3,3.4
			c0,0.4-0.2,0.9-0.2,1.3c-0.5,0-0.9,0-1.3,0c-0.3-1-0.4-2-1.4-2.7c0.2,0.9,0.3,1.8,0.5,2.7c-1,0-1.8,0-2.7,0
			c-0.3-1.6-0.9-2.8-2.3-3.6c0.7,1.2,1.4,2.3,1.3,3.8c-2.5,0-4.9,0-7.4,0c-0.1,0-0.2-0.1-0.3-0.1c-1.7-0.1-3.2-0.7-4.8-1.3
			c-0.7-0.3-1.2-0.7-1.7-1.3c-0.6-0.7-0.6-1.6-0.7-2.4c-0.1-0.7-0.1-1.5,0.1-2.1c0.9-2.3,2-4.6,3.4-6.6c1.1-1.5,11.1-7.8,3.3-4.6
			c-0.5,0.2,0.5-0.9,0.6-1.4c0.4-1.8,0.6-3.6,1-5.3c0.5-2.3,2.1-3.9,4.4-4.3c0.8-0.1,1.5-0.3,2.3-0.5c0.9-0.2,1.3-0.7,1.4-1.6
			c0.1-1,0.2-2.1,0.3-3.1c0.1-1,0.3-2,0.4-3.1c-1,0.3-1.8,0.6-2.6,0.9c-3.3,1.1-6.7,1.7-10.1,1.1c-2.9-0.5-5-2.2-6-5
			C0.4,74.8,0.2,73.9,0,73.1z M65.6,33.5c0.1-0.1,0.2-0.1,0.3-0.2c-0.5-0.9-1.1-1.8-1.6-2.8c0.6,0.3,1.2,0.7,1.7,1.1
			c2.6,2.5,4.7,5.4,6.5,8.6c0.1,0.2,0.2,0.4,0.4,0.7c0.6-1.8,0.3-3.6,0.1-5.4c0.2,0.2,0.3,0.2,0.4,0.3c0.1,0.1,0.2,0.3,0.4,0.5
			c1.2,1.7,1.9,3.5,2.4,5.5c1,3.8,1.2,7.6,1.3,11.5c0,0.5,0,1,0,1.5c1.6-2.8,2.3-5.7,2.2-8.8c1.2,1.6,1.1,3.5,1.2,5.3
			c1.9-2.9,1.1-6,0.6-9.1c0.5,0.4,0.9,0.8,1.2,1.3c1.1,1.8,1.8,3.7,2.4,5.7c0.1,0.3,0.2,0.6,0.3,0.9c0.1,0,0.2,0,0.3,0
			c0.1-1.2,0.1-2.3,0.2-3.6c0.4,0.5,0.8,0.9,1.1,1.3c0.1-0.1,0.1-0.1,0.1-0.1c0-0.1,0-0.3,0-0.4c-0.1-2-0.8-3.8-1.7-5.5
			c-1.4-2.5-3.1-4.8-5.1-6.8c-3.1-3.3-6.6-6.1-10.2-8.9c-0.3-0.2-0.5-0.4-0.8-0.6c0.1-0.1,0.1-0.2,0.2-0.2
			c8.8,3.7,15.3,10.2,20.8,17.8c0-0.1,0.1-0.1,0.1-0.2c-0.1-0.5-0.2-1-0.3-1.4c-1-4.3-3.2-8-6.4-11.1c-2.8-2.6-5.8-5-9.1-7
			c-2-1.2-4.1-1.8-6.4-1.8c-1.7,0-3.4,0-5.2,0c-1.4,0-2.6-0.6-3.5-1.7c-0.7-0.8-1.4-1.6-2.1-2.5C57,16.5,56.4,16,55.5,16
			c-0.2,0-0.4-0.1-0.6-0.2c1.2-1.6,3.7-2.7,5.5-2.2c1.2,0.3,2.1,1,2.6,2.2c0.3,0.8,0.1,1.4-0.7,1.7c0.2-1.3-0.2-2.3-1.5-2.7
			c-0.8-0.2-1.5-0.1-2.2,0.5c0.6,0.1,1.2,0.3,1.8,0.4c-0.3,0.4-0.4,0.6-0.6,0.9c0.3,0.1,0.5,0.2,0.7,0.3c0,0.2,0,0.4,0,0.5
			c0,0.9,0.6,1.7,1.5,1.9c0.7,0.2,1.3-0.2,1.7-1.1c1.1-2,0.3-4.4-1.9-5.5c-2.8-1.4-5.4-0.9-7.8,1c-0.2,0.2-0.4,0.3-0.6,0.5
			c0-0.1-0.1-0.1-0.1-0.2c0.3-0.4,0.6-0.8,1-1.1c1.1-0.9,2.3-1.6,3.7-1.9c2.8-0.5,5.5-1,8.3-1.6c1.9-0.4,3.8-1,5.7-1.6
			c0.3-0.1,0.5-0.3,0.8-0.5c-0.2-0.1-0.3-0.2-0.5-0.1c-2.4,0.4-4.7,0.9-7.1,1.3c-2.9,0.5-5.8,0.8-8.7,1.4c-3,0.5-5.5,1.9-7.3,4.4
			c-0.1,0.1-0.2,0.1-0.5,0.3c0.1-0.6,0.1-1.1,0.3-1.5c0.4-1.1,1.2-1.9,2.1-2.6C53,9,55.2,8.5,57.4,8.2c1.5-0.2,2.9-0.4,4.4-0.6
			c0-0.1,0-0.2,0-0.2c-1.7,0-3.4-0.1-5-0.1c-3,0.1-5.9,0.8-8.5,2.3c-2.5,1.5-4.4,3.4-5,6.4c-0.2,1-0.8,1.7-1.6,2.4
			c-0.9,0.8-1.8,1.8-2.7,2.7c-0.5,0.5-0.4,0.7,0.2,1.1c0.1,0.1,0.2,0.2,0.2,0.2c-1.2,1.1-2.5,2.2-3.7,3.3c0,0.1,0,0.1,0,0.2
			c0.4,0,0.8,0.1,1.1-0.1c1-0.5,2-0.5,3-0.5c1,0.1,1.2,0.3,0.9,1.3c-0.1,0.4-0.3,0.9-0.5,1.3c-0.2,0.5-0.6,0.9-1.1,1
			c-0.2-0.3-0.4-0.6-0.5-0.8c-0.3,0.2-0.6,0.4-0.9,0.6c0,0-0.1,0.1-0.1,0.2c-1,2.2,0.6,4.8,3,4.9c0.8,0,1.7-0.1,2.5-0.3
			c1.3-0.4,2.6-0.9,3.9-1.3c3.2-0.9,5.7,0.7,6.1,4c0.2,1.4-0.1,2.7-0.6,4c-0.8,2-2,3.8-4,4.8c-1.1,0.6-1.8,0.2-2.3-1
			c-0.1-0.3-0.2-0.6-0.3-0.8c-0.1,0-0.2,0-0.3,0c-0.1,0.4-0.2,0.9-0.4,1.3c-0.1,0.3-0.2,0.6-0.4,0.7c-0.7,0.4-1.9,0-2.3-0.7
			c-0.1-0.1-0.1-0.2-0.3-0.4c-0.3,1.7-0.2,3.1,0.5,4.3c0.2,0.3,0.4,0.5,0.6,0.7c0.3,0.3,0.7,0.4,1,0.7c0.8,0.6,1.6,1.3,2.3,2
			c0.1,0,0.2-0.1,0.2-0.1c0-0.8,0-1.6,0-2.3c1.5,0,2.6,0.5,3.8,1.5c0-1,0-1.8,0-2.6c1.3,0.2,1.8,1.2,2.4,2.2
			c1.3-1.2,1.1-2.6,0.6-4.1c0.5,0,0.8,0.1,1.1,0.1c0.7-0.9,0-2,0.2-3c0.6,0.5,1.1,0.9,1.8,1.4c0.4-2.8-0.3-5.2-1.3-7.7
			c0.1,0,0.2-0.1,0.2-0.1c0.5,0.5,1.1,1,1.6,1.4c0-0.5-0.1-1-0.3-1.4c-1.1-2.7-3.3-4.4-5.8-5.8c-0.5-0.2-1.1-0.3-1.6-0.4
			c-1.4-0.2-2.8,0.3-4.1,0.7c-0.3,0.1-0.6,0.2-0.9,0.2c0-0.1-0.1-0.1-0.1-0.2c0.4-0.5,0.9-0.9,1.4-1.5c-1.6,0.1-2.9,0.8-4.2,1.2
			c1.2-1.5,3-2.2,4.8-2.9c0-0.1,0-0.1-0.1-0.2c-0.6,0-1.3,0-1.9,0c1-0.8,2.2-0.9,3.4-0.9c2.1-0.1,4.1-0.2,6-1.3
			c1.6-0.9,3.4-1.2,5.3-1.1c2.3,0.1,4.2,1.1,5.9,2.7c0.2,0.2,0.5,0.5,0.7,0.7c-0.1,0.1-0.1,0.1-0.2,0.2c-1-0.4-1.9-0.9-2.9-1.3
			c-2.4-1.1-4.6-0.8-6.7,0.6c-0.4,0.3-0.8,0.7-1.3,1.1C59.1,29,62.7,30.5,65.6,33.5z M65.7,17.4c0.5,0.1,0.9,0.1,1.3,0.2
			c1.2,0.2,2.5,0.3,3.7,0.7c2.8,0.8,5.3,2.4,7.6,4c2.5,1.8,5,3.7,7.5,5.5c1.8,1.3,3.7,2.3,5.9,2.7c1.5,0.3,3,0.3,4.5-0.4
			c-0.5-0.2-0.9-0.3-1.4-0.4c-1.7-0.4-3.2-1.1-4.4-2.3c-1-1-2-2-3-3c-1.6-1.5-3.1-3.1-4.7-4.5c-2.8-2.3-6.3-3.5-9.8-4.3
			c-0.3-0.1-0.7-0.1-1-0.2c-0.3-0.1-0.7-0.2-1-0.3c1.8-0.4,3.6-0.5,5.4-0.2c1.8,0.3,3.5,0.6,5.3,0.9c-2.7-3.5-14.7-6.6-18.1-4.6
			C65.5,12.8,66,14.9,65.7,17.4z M69.2,40.1c0.1,1,0.2,1.7,0.3,2.5c0.2,2.5,0.4,5,1,7.4c0.5,1.6,0.4,3.2,0,4.8
			c-0.1,0.4-0.2,0.9-0.4,1.5C74.8,50.8,73,42.6,69.2,40.1z M60.2,39.7c0.1,1.7,0.8,3,1.8,4.1c1.3,1.4,2,3.1,2.4,4.9
			c0.1,0.4,0.1,0.8,0.2,1.5c0.7-1.8,0.6-3.4,0.6-5c0-1.4-0.5-2.7-1.3-3.9C63,40.1,61.8,39.6,60.2,39.7z M65.4,37.6
			c-2.2-4.3-6.5-6.8-9.9-5.8c0.1,0.1,0.1,0.3,0.2,0.4c1.4,1.2,2.8,2.2,4.7,2.7c0.9,0.2,1.8,0.5,2.5,0.9
			C63.9,36.3,64.6,36.9,65.4,37.6z M50.1,6.9c0-0.1-0.1-0.1-0.1-0.2c-1.4,0.5-2.8,0.9-4.1,1.4c-2.4,1-4,2.8-4.7,5.4
			c-0.2,1-0.2,1.9,0.2,2.9c0.5-2.3,1.3-4.3,3-5.8C46.1,9,48,7.9,50.1,6.9z M34.7,28.4c0,0.3,0.1,0.7,0,0.7c-0.8,0.4-0.3,1-0.1,1.5
			c0.3,0.6,0.7,1.3,1.1,1.8c0.3,0.4,0.7,0.9,1.3,1c0.1-0.2,0.1-0.3,0.1-0.4c-0.3-1.2-0.5-2.5-0.9-3.7C36.1,28.8,35.5,28.4,34.7,28.4
			z M39.2,13.3c-0.8,1.4-0.7,3.7,0.3,4.8c0.5-0.1,0.4-0.5,0.3-0.9C39.6,15.9,39.4,14.6,39.2,13.3z M42.5,36.3
			c0.1-0.1,0.2-0.1,0.2-0.2c-0.2-0.6,0-1.4-0.8-1.7c-0.3-0.1-0.8-0.1-1,0.5C41.4,35.4,41.9,35.8,42.5,36.3z M38.7,36.4
			c0.1-0.1,0.2-0.1,0.2-0.2c-0.2-0.4-0.5-0.9-0.8-1.3c-0.1-0.1-0.4-0.2-0.6-0.2c0,0.2-0.1,0.5,0,0.7C37.9,35.7,38.4,36,38.7,36.4z"
			/>
		<linearGradient id="SVGID_3_" gradientUnits="userSpaceOnUse" x1="101.2099" y1="139.9638" x2="-33.4111" y2="44.0184">
			<stop  offset="0" style="stop-color:#FFF206"/>
			<stop  offset="0.5123" style="stop-color:#FF952F"/>
			<stop  offset="1" style="stop-color:#FF3C37"/>
		</linearGradient>
		<path fill="url(#SVGID_3_)" d="M46.9,116.5c-0.8-0.3-1.7-0.5-2.5-0.8c-0.3-0.1-0.6-0.2-0.9-0.5c-1.7-1.5-3.9-2.2-6.1-2.7
			c-1.8-0.4-3.4-1-4.6-2.4c-0.1-0.1-0.2-0.2-0.3-0.4c-1.4-2.3-2.9-4.6-4.3-7c-0.7-1.1-0.1-2,1.2-2.2c0.2,0,0.5-0.1,0.7-0.1
			c0.8,0.1,1.3-0.3,1.8-1c0.4-0.6,1.1-1.1,1.7-1.5c3.1-1.7,6-3.7,8.2-6.4c0.9-1.1,1.6-2.2,2.4-3.3c0.2-0.3,0.5-0.7,0.8-0.8
			c2.2-0.6,4.4-1.2,6.6-1.7c0.1,0,0.2,0,0.5,0c-0.5,0.6-1.1,1-1.4,1.5c-1,1.5-1.9,3-2.7,4.6c-1.4,2.5-3.2,4.7-5.7,6.1
			c-0.8,0.5-1.6,1-2.4,1.6c-1.4,1-1.9,2.3-1.3,3.8c0.9,2.4,2.6,4,5,4.9c0.7,0.3,1.4,0.1,2-0.4c0.2-0.2,0.4-0.3,0.6-0.5
			c1.2-1.1,2.2-1.3,3.6-0.6c0.3,0.2,0.7,0.4,1,0.6c0.4,0.4,0.9,0.6,1.5,0.6c1.4,0,2,0.6,2.4,1.8c0.5,1.6,0.5,3.3,0.1,5
			c-0.1,0.6-0.4,1.2-1.2,1.4c-0.4-1-0.1-2.3-1.2-3.2c0,0.9,0,1.6,0,2.3c0,0.7-0.4,1-1.1,0.9c-0.2,0-0.5,0-0.7,0c-1,0-1,0-1.2-0.9
			c-0.2-0.8-0.5-1.5-1.3-2c0.1,0.7,0.2,1.4,0.2,2.2c0,0.3-0.3,0.6-0.4,0.9C47.5,116.5,47.2,116.5,46.9,116.5z"/>
		<linearGradient id="SVGID_5_" gradientUnits="userSpaceOnUse" x1="140.0851" y1="85.418" x2="5.464" y2="-10.5274">
			<stop  offset="0" style="stop-color:#FFF206"/>
			<stop  offset="0.5123" style="stop-color:#FF952F"/>
			<stop  offset="1" style="stop-color:#FF3C37"/>
		</linearGradient>
		<path fill="url(#SVGID_5_)" d="M49.3,23.3c0.6,0,1.2-0.1,1.8-0.1C50.4,24,49,24.4,47.8,24c-0.9-0.3-1.5-0.5-1.9,0.7
			c-0.1-0.9-0.6-1-1.3-1.1c-0.8-0.1-1.5-0.4-1.6-1.5c1.5,0.9,2.6,0.2,3.7-0.7c1.1-0.9,2.3-1.3,3.6-1.4c1-0.1,1.9-0.1,2.7-0.8
			c0.1-0.1,0.3,0,0.5,0.1c0,0.1,0.1,0.2,0.1,0.2c0.3-0.5,0.6-1,0.9-1.4c0.3,1,0.2,1.9-0.7,2.5c-0.9,0.7-2,1.3-3,2
			c-0.1-0.5,0-1.1-0.7-1.3C50.7,22.5,50.5,22.9,49.3,23.3z"/>
	</g>
</g>
<g>
	<g>
		<defs>
			<path id="SVGID_82_" d="M143,3.9c-3.6,2.6-5.4,6.1-5.4,10.4c0,4.4,1.5,7.8,4.6,10.1c3.1,2.3,7.8,4.6,14.1,6.7
				c3.1,1.1,5.3,2.2,6.5,3.2c1.2,1,1.8,2.4,1.8,4.2c0,1.6-0.6,2.9-1.8,3.9c-1.2,1-3.1,1.5-5.6,1.4c-3,0-5.3-0.7-6.7-1.9
				c-1.5-1.3-2.2-3.4-2.2-6.4l-11.6-0.1l-0.1,0.2c-0.1,5.9,1.8,10.2,5.8,12.9c4,2.8,8.9,4.1,14.7,4.2c5.8,0,10.5-1.2,14-3.7
				c3.5-2.5,5.3-6,5.3-10.6c0-4.4-1.5-7.9-4.5-10.4c-3-2.6-7.5-4.7-13.4-6.5c-3.5-1.4-5.9-2.5-7.1-3.4c-1.3-0.9-1.9-2.1-1.9-3.6
				c0-1.5,0.6-2.8,1.9-3.9c1.2-1.1,3-1.6,5.1-1.6c2.7,0,4.6,0.6,5.9,1.7c1.3,1.1,2,2.9,1.9,5.3l11.5,0.1l0.1-0.2
				c0.1-5-1.6-8.8-5.1-11.6c-3.6-2.8-8.2-4.1-14.1-4.2c-0.1,0-0.1,0-0.2,0C151,0,146.5,1.3,143,3.9"/>
		</defs>
		<clipPath id="SVGID_6_">
			<use xlink:href="#SVGID_82_"  overflow="visible"/>
		</clipPath>
		
			<linearGradient id="SVGID_8_" gradientUnits="userSpaceOnUse" x1="-805.1277" y1="-2390.0269" x2="-800.9255" y2="-2390.0269" gradientTransform="matrix(154 27 27 -154 188623.2656 -346308.6875)">
			<stop  offset="0" style="stop-color:#FFF206"/>
			<stop  offset="0.5123" style="stop-color:#FF952F"/>
			<stop  offset="1" style="stop-color:#FF3C37"/>
		</linearGradient>
		<polygon clip-path="url(#SVGID_6_)" fill="url(#SVGID_8_)" points="137.6,-6.8 185.4,1.6 175.2,59.6 127.4,51.2 		"/>
	</g>
	<g>
		<defs>
			<polygon id="SVGID_85_" points="179.9,10 193.2,10.1 193,52.2 204.9,52.2 205.1,10.1 218.7,10.2 218.7,1.1 180,0.9 			"/>
		</defs>
		<clipPath id="SVGID_9_">
			<use xlink:href="#SVGID_85_"  overflow="visible"/>
		</clipPath>
		
			<linearGradient id="SVGID_11_" gradientUnits="userSpaceOnUse" x1="-805.1277" y1="-2389.9932" x2="-800.9255" y2="-2389.9932" gradientTransform="matrix(154 27 27 -154 188623.5938 -346310.625)">
			<stop  offset="0" style="stop-color:#FFF206"/>
			<stop  offset="0.5123" style="stop-color:#FF952F"/>
			<stop  offset="1" style="stop-color:#FF3C37"/>
		</linearGradient>
		<polygon clip-path="url(#SVGID_9_)" fill="url(#SVGID_11_)" points="181.1,-5.7 227.5,2.4 217.6,58.8 171.2,50.7 		"/>
	</g>
	<g>
		<defs>
			<polygon id="SVGID_88_" points="223.3,52.3 256.8,52.5 256.9,43.4 235.2,43.2 235.3,30.5 253.4,30.6 253.4,21.4 235.4,21.3 
				235.4,10.3 257.1,10.4 257.1,1.2 223.6,1.1 			"/>
		</defs>
		<clipPath id="SVGID_12_">
			<use xlink:href="#SVGID_88_"  overflow="visible"/>
		</clipPath>
		
			<linearGradient id="SVGID_14_" gradientUnits="userSpaceOnUse" x1="-805.1277" y1="-2389.9583" x2="-800.9255" y2="-2389.9583" gradientTransform="matrix(154 27 27 -154 188623.8281 -346311.9688)">
			<stop  offset="0" style="stop-color:#FFF206"/>
			<stop  offset="0.5123" style="stop-color:#FF952F"/>
			<stop  offset="1" style="stop-color:#FF3C37"/>
		</linearGradient>
		<polygon clip-path="url(#SVGID_12_)" fill="url(#SVGID_14_)" points="224.3,-4.7 265.9,2.6 256.1,58.3 214.6,51 		"/>
	</g>
	<g>
		<defs>
			<polygon id="SVGID_91_" points="263.5,52.5 297.1,52.7 297.1,43.6 275.5,43.4 275.5,30.7 293.6,30.8 293.7,21.6 275.6,21.5 
				275.6,10.5 297.3,10.6 297.4,1.5 263.8,1.3 			"/>
		</defs>
		<clipPath id="SVGID_15_">
			<use xlink:href="#SVGID_91_"  overflow="visible"/>
		</clipPath>
		
			<linearGradient id="SVGID_17_" gradientUnits="userSpaceOnUse" x1="-805.1277" y1="-2389.9253" x2="-800.9255" y2="-2389.9253" gradientTransform="matrix(154 27 27 -154 188624.1094 -346313.5625)">
			<stop  offset="0" style="stop-color:#FFF206"/>
			<stop  offset="0.5123" style="stop-color:#FF952F"/>
			<stop  offset="1" style="stop-color:#FF3C37"/>
		</linearGradient>
		<polygon clip-path="url(#SVGID_15_)" fill="url(#SVGID_17_)" points="264.5,-4.5 306.1,2.8 296.4,58.5 254.8,51.2 		"/>
	</g>
	<g>
		<defs>
			<polygon id="SVGID_94_" points="303.8,52.7 315.7,52.8 315.8,20.3 316.1,20.2 327,52.9 335,52.9 346.4,19.9 346.6,19.9 346.5,53 
				358.4,53 358.6,1.8 342.9,1.7 331.1,37.5 330.9,37.5 319.6,1.6 304,1.5 			"/>
		</defs>
		<clipPath id="SVGID_18_">
			<use xlink:href="#SVGID_94_"  overflow="visible"/>
		</clipPath>
		
			<linearGradient id="SVGID_20_" gradientUnits="userSpaceOnUse" x1="-805.1277" y1="-2389.8838" x2="-800.9255" y2="-2389.8838" gradientTransform="matrix(154 27 27 -154 188624.4531 -346315.5625)">
			<stop  offset="0" style="stop-color:#FFF206"/>
			<stop  offset="0.5123" style="stop-color:#FF952F"/>
			<stop  offset="1" style="stop-color:#FF3C37"/>
		</linearGradient>
		<polygon clip-path="url(#SVGID_18_)" fill="url(#SVGID_20_)" points="305.4,-7.8 367.4,3 357,62.4 295,51.5 		"/>
	</g>
	<g>
		<defs>
			<polygon id="SVGID_97_" points="366.5,53.1 400.4,53.2 400.5,44.1 378.5,44 378.7,1.9 366.8,1.8 			"/>
		</defs>
		<clipPath id="SVGID_21_">
			<use xlink:href="#SVGID_97_"  overflow="visible"/>
		</clipPath>
		
			<linearGradient id="SVGID_23_" gradientUnits="userSpaceOnUse" x1="-805.1277" y1="-2389.8384" x2="-800.9255" y2="-2389.8384" gradientTransform="matrix(154 27 27 -154 188624.75 -346317.1875)">
			<stop  offset="0" style="stop-color:#FFF206"/>
			<stop  offset="0.5123" style="stop-color:#FF952F"/>
			<stop  offset="1" style="stop-color:#FF3C37"/>
		</linearGradient>
		<polygon clip-path="url(#SVGID_21_)" fill="url(#SVGID_23_)" points="367.6,-4 409.2,3.3 399.5,59 357.8,51.7 		"/>
	</g>
	<g>
		<defs>
			<polygon id="SVGID_100_" points="406.8,53.3 440.4,53.4 440.4,44.3 418.8,44.2 418.8,31.4 436.9,31.5 436.9,22.3 418.9,22.2 
				418.9,11.2 440.6,11.3 440.7,2.2 407.1,2 			"/>
		</defs>
		<clipPath id="SVGID_24_">
			<use xlink:href="#SVGID_100_"  overflow="visible"/>
		</clipPath>
		
			<linearGradient id="SVGID_26_" gradientUnits="userSpaceOnUse" x1="-805.1277" y1="-2389.8081" x2="-800.9255" y2="-2389.8081" gradientTransform="matrix(154 27 27 -154 188625.0938 -346319.1875)">
			<stop  offset="0" style="stop-color:#FFF206"/>
			<stop  offset="0.5123" style="stop-color:#FF952F"/>
			<stop  offset="1" style="stop-color:#FF3C37"/>
		</linearGradient>
		<polygon clip-path="url(#SVGID_24_)" fill="url(#SVGID_26_)" points="407.8,-3.7 449.4,3.5 439.7,59.2 398.1,51.9 		"/>
	</g>
	<g>
		<defs>
			<path id="SVGID_103_" d="M468,45.2c-3.2,0-5.7-1.2-7.4-3.6c-1.7-2.4-2.6-5.4-2.5-9.1l0-9.3c0-3.7,0.9-6.7,2.6-9
				c1.7-2.3,4.2-3.5,7.4-3.5c3.1,0,5.6,1.2,7.3,3.6c1.7,2.4,2.6,5.4,2.5,9l0,9.3c0,3.7-0.9,6.7-2.6,9.1
				C473.6,44,471.2,45.2,468,45.2C468.1,45.2,468,45.2,468,45.2 M452.4,7.7c-4,4.1-6.1,9.3-6.1,15.6l0,9.2c0,6.3,2,11.5,6,15.6
				c4,4.1,9.3,6.2,15.8,6.2c6.5,0,11.7-2,15.7-6.1c4-4.1,6.1-9.3,6.1-15.6l0.1-9.2c0-6.3-2-11.5-6-15.6c-4-4.1-9.2-6.2-15.7-6.2
				c-0.1,0-0.1,0-0.2,0C461.6,1.6,456.4,3.6,452.4,7.7"/>
		</defs>
		<clipPath id="SVGID_27_">
			<use xlink:href="#SVGID_103_"  overflow="visible"/>
		</clipPath>
		
			<linearGradient id="SVGID_29_" gradientUnits="userSpaceOnUse" x1="-805.1277" y1="-2389.7722" x2="-800.9255" y2="-2389.7722" gradientTransform="matrix(154 27 27 -154 188625.4063 -346320.9375)">
			<stop  offset="0" style="stop-color:#FFF206"/>
			<stop  offset="0.5123" style="stop-color:#FF952F"/>
			<stop  offset="1" style="stop-color:#FF3C37"/>
		</linearGradient>
		<polygon clip-path="url(#SVGID_27_)" fill="url(#SVGID_29_)" points="447.5,-5.9 498.8,3.1 488.5,61.8 437.2,52.8 		"/>
	</g>
</g>
<g>
	<linearGradient id="SVGID_30_" gradientUnits="userSpaceOnUse" x1="482.0783" y1="139.1047" x2="366.0694" y2="91.605">
		<stop  offset="0" style="stop-color:#FFF206"/>
		<stop  offset="0.5123" style="stop-color:#FF952F"/>
		<stop  offset="1" style="stop-color:#FF3C37"/>
	</linearGradient>
	<path fill="url(#SVGID_30_)" d="M369.6,121.5V73.6h17.5c5.6,0,10.4,1.8,14.2,5.5c3.8,3.7,5.7,8.4,5.7,14.1v8.6
		c0,5.8-1.9,10.5-5.7,14.2c-3.8,3.7-8.5,5.5-14.2,5.5H369.6z M380.7,82.1V113h6.4c2.5,0,4.6-1,6.2-3.1c1.6-2.1,2.5-4.7,2.5-8v-8.7
		c0-3.2-0.8-5.9-2.5-7.9c-1.6-2.1-3.7-3.1-6.2-3.1H380.7z"/>
	<linearGradient id="SVGID_32_" gradientUnits="userSpaceOnUse" x1="489.0794" y1="122.0059" x2="373.0705" y2="74.5062">
		<stop  offset="0" style="stop-color:#FFF206"/>
		<stop  offset="0.5123" style="stop-color:#FF952F"/>
		<stop  offset="1" style="stop-color:#FF3C37"/>
	</linearGradient>
	<path fill="url(#SVGID_32_)" d="M441.7,101h-16.9V113H445v8.6h-31.4V73.6h31.4v8.6h-20.3v10.3h16.9V101z"/>
	<linearGradient id="SVGID_33_" gradientUnits="userSpaceOnUse" x1="494.7311" y1="108.2026" x2="378.7222" y2="60.7029">
		<stop  offset="0" style="stop-color:#FFF206"/>
		<stop  offset="0.5123" style="stop-color:#FF952F"/>
		<stop  offset="1" style="stop-color:#FF3C37"/>
	</linearGradient>
	<path fill="url(#SVGID_33_)" d="M468.8,89.8l7.9-16.2h12.8l-13.7,23.8l14.8,24.2h-13.5l-8.2-16.5l-8.2,16.5h-12.8L462,97.4
		l-13.7-23.8H461L468.8,89.8z"/>
</g>
<linearGradient id="SVGID_35_" gradientUnits="userSpaceOnUse" x1="134.7217" y1="110.4893" x2="319.6807" y2="91.4286">
	<stop  offset="0" style="stop-color:#FFF206"/>
	<stop  offset="0.5123" style="stop-color:#FF952F"/>
	<stop  offset="1" style="stop-color:#FF3C37"/>
</linearGradient>
<rect x="135.2" y="96.7" fill="url(#SVGID_35_)" width="172.8" height="9.7"/>
<g>
	<g>
		<circle fill="#2F2F2F" cx="338.4" cy="97.1" r="23"/>
		<g>
			<defs>
				<path id="SVGID_110_" d="M353.5,82.9c8,8,8,21.1,0,29.1c-8,8-21.1,8-29.1,0c-8-8-8-21.1,0-29.1
					C332.4,74.8,345.5,74.8,353.5,82.9 M355.8,80.5c-9.3-9.3-24.5-9.3-33.8,0c-9.3,9.3-9.3,24.5,0,33.8c9.3,9.3,24.5,9.3,33.8,0
					S365.2,89.8,355.8,80.5"/>
			</defs>
			<clipPath id="SVGID_36_">
				<use xlink:href="#SVGID_110_"  overflow="visible"/>
			</clipPath>
			
				<linearGradient id="SVGID_38_" gradientUnits="userSpaceOnUse" x1="-804.9799" y1="-2386.8872" x2="-804.5367" y2="-2386.8872" gradientTransform="matrix(-76.3519 76.3519 76.3519 76.3519 121137.5234 243785.7344)">
				<stop  offset="0" style="stop-color:#FFF206"/>
				<stop  offset="0.5123" style="stop-color:#FF952F"/>
				<stop  offset="1" style="stop-color:#FF3C37"/>
			</linearGradient>
			<polygon clip-path="url(#SVGID_36_)" fill="url(#SVGID_38_)" points="372.8,97.4 338.9,131.3 305.1,97.4 338.9,63.6 			"/>
		</g>
	</g>
	<g>
		<path fill="#E83E3A" d="M339.8,82.6c0,0.5-0.3,0.9-0.7,1.1c-0.7,0.4-1.4,0.7-2.2,0.9c-0.8,0.3-1.6,0.5-2.5,0.8
			c-0.2,0.1-0.4,0.1-0.5,0.2c-1.2,0.8-1.1,1.9,0,3c0.1,0.1,0.1,0.1,0.2,0.2c0.1,0.1,0.3,0.2,0.3,0.3c-0.1,0.2-0.3,0.2-0.4,0.2
			c-1,0-2.1-1-2.2-2c0-0.2,0-0.4,0-0.6c0-0.1,0-0.2-0.1-0.3c-0.1-0.1-0.2,0-0.3,0.1c-0.4,0.4-0.5,0.9-0.4,1.4c0,0.1,0.1,0.3,0.1,0.4
			c-0.5-0.1-0.8-0.6-0.9-1.2c-0.1-0.8,0.1-1.4,0.7-1.9c0.8-0.7,1.7-1,2.7-1.2c1.4-0.3,2.9-0.5,4.3-0.8c0.6-0.1,1.3-0.3,1.8-0.6
			H339.8z"/>
		<path fill="#E83E3A" d="M346.2,82.9c0.2,1.7-0.9,3.2-3.1,3.3c-1.4,0.1-2.7,0.1-4.1,0.1c-0.4,0-0.8,0.1-1.1,0.2
			c-1.2,0.4-1.7,1.6-1.2,2.7c0.1,0.2,0.1,0.3,0.2,0.5c0,0.1,0.1,0.2,0,0.3c-0.1,0.1-0.2,0-0.3-0.1c-0.6-0.5-1-1.1-1-1.8
			c0-0.4,0.1-0.8,0.1-1.3c-0.6,0.4-0.8,1-1,1.7c-0.3-0.3-0.3-0.6-0.2-1c0.2-0.7,0.6-1.2,1.2-1.6c1-0.7,2.1-0.9,3.3-1
			c1.5-0.1,3-0.1,4.5-0.3c1.1-0.1,2-0.6,2.7-1.5C346.1,83,346.1,83,346.2,82.9C346.2,82.9,346.2,82.9,346.2,82.9"/>
		<path fill="#E83E3A" d="M350.8,90.8c0.1-0.7,0.2-1.4,0.3-2.1c0.1-1.2,0.2-0.9-0.8-1.4c-1.3-0.6-2.7-1-4.1-1.4
			c-0.4-0.1-0.4-0.1-0.2-0.5c0.2-0.3,0.5-0.6,0.6-1c0.1-0.2,0.2-0.2,0.4-0.1c1.1,0.3,2.1,0.7,3.2,1.1c0.8,0.3,1.6,0.7,2.4,1
			c0.3,0.1,0.3,0.3,0.4,0.5c0,0.9,0,1.9-0.2,2.8c-0.1,0.4,0,0.8-0.2,1.2c0,0.2-0.2,0.3-0.4,0.3c-0.4,0-0.8,0-1.1,0
			C350.8,91.2,350.7,91.1,350.8,90.8"/>
		<path fill="#E83E3A" d="M340,87.8c-0.9-0.3-1.6,0.3-2.4,0.6c0.2-0.6,0.5-1,1-1.2c0.5-0.2,1-0.2,1.6-0.2c1.1,0,2.3,0.3,3.4,0.5
			c1.1,0.2,2.2,0.4,3.3,0.2c0.3,0,0.5-0.1,0.8-0.2c0.1,0,0.2-0.1,0.3,0c0.1,0.1,0,0.2-0.1,0.2c-0.6,0.7-1.4,1-2.3,1.1
			c-1.3,0-2.7-0.1-4-0.1c-1.3-0.1-2.4,0.4-3.2,1.5c-0.1,0.1-0.1,0.2-0.2,0.2c-0.1-0.1-0.1-0.2-0.1-0.3c0.1-0.9,0.6-1.5,1.4-1.9
			C339.7,87.9,339.9,87.9,340,87.8"/>
		<path fill="#FCC60C" d="M331.3,107c-0.2-0.5-0.4-0.9-0.6-1.4c-0.1-0.2,0.1-0.3,0.3-0.3c0.5,0,0.9-0.1,1.4,0
			c0.1,0.1,0.2,0.2,0.3,0.3c0.2,0.2,0.2,0,0.2-0.1c-0.1-0.1,0-0.2,0.1-0.2c0.3,0,0.6-0.1,0.9,0.1c0.5,0.8,1,1.5,1.6,2.3
			c-0.1,0-0.1,0-0.2,0c-0.2-0.1-0.3,0-0.5-0.1c-0.7,0-1.3-0.1-1.9-0.4c-0.3,0-0.7,0.1-1,0C331.6,107.1,331.4,107.1,331.3,107"/>
		<path fill="#E83E3A" d="M344,91.2c-0.4-0.1-0.7-0.3-1-0.5c-1-0.6-2-1.1-3.1-1.3c0.8-0.3,1.6-0.5,2.4-0.3c0.5,0.2,1,0.4,1.4,0.7
			c0.8,0.5,1.6,1,2.6,1.3c0,0.2-0.2,0.2-0.3,0.2C345.4,91.3,344.7,91.4,344,91.2"/>
		<path fill="#E83E3A" d="M325.8,90.6c0.1-1.3,1.1-2.2,2.4-2.3c0.5,0,1-0.1,1.5,0.1c0.2,0,0.4,0.1,0.4,0.3c0,0.2-0.3,0.2-0.4,0.2
			c-0.9,0.2-1.7,0.6-2.5,1.2c-0.6,0.5-1,1.2-1.3,1.9c-0.1,0-0.1-0.1-0.1-0.1c0,0,0-0.1,0-0.1C325.8,91.3,325.8,91,325.8,90.6"/>
		<path fill="#FCC80E" d="M346.8,105.3c-0.5,0.7-1,1.3-1.6,1.9c-0.7,0.1-1.3,0-2,0c-0.1,0-0.3,0-0.3-0.2c0.6-0.6,1.2-1.3,1.7-1.9
			c0.6-0.1,1.2,0,1.8,0C346.6,105.2,346.7,105.2,346.8,105.3"/>
		<path fill="#FCC70D" d="M338,107.5c-0.5-0.6-0.9-1.3-1-2.1c0-0.2-0.1-0.5,0.1-0.7c0.2,0.4,0.5,0.7,0.8,1c0.1,0.1,0.1,0.2,0.3,0.2
			c0.1,0,0.1-0.2,0.1-0.3c0-0.1,0-0.2,0.1-0.3c0.3-0.2,0.6-0.2,1-0.2c0.1,0,0.3,0.1,0.3,0.3c-0.3,0.6-0.6,1.2-0.7,1.8
			C338.6,107.7,338.4,107.8,338,107.5"/>
		<path fill="#F6A629" d="M344.7,100.7c0,0.3,0.2,0.5,0.1,0.8c-0.7,0.1-1.4,0-2.1,0c-0.2,0-0.5,0-0.7,0.2c-0.1-0.6-0.1-0.6-0.8-0.5
			c-0.7,0.2-1.3-0.1-2-0.2c-0.2,0-0.4-0.1-0.6-0.2c0-0.2,0.2-0.2,0.3-0.2c0.2,0,0.5,0,0.7,0c0.3,0,0.6,0.2,0.9,0.1
			c0.1,0,0.2-0.1,0.3-0.1c1.1-0.1,2.3-0.1,3.4-0.1C344.5,100.6,344.6,100.6,344.7,100.7"/>
		<path fill="#E73E3A" d="M331.6,89.4c-0.8,0.4-1.6,0.7-2.2,1.4c-0.2,0.2-0.3,0.4-0.5,0.6c-0.3,0.1-0.7,0.1-1,0.1
			c-0.1,0-0.3,0-0.3-0.2c0.5-1.2,1.6-1.7,2.7-1.9c0.4-0.1,0.8-0.1,1.1-0.1C331.6,89.3,331.6,89.3,331.6,89.4"/>
		<path fill="#E7403A" d="M330.9,91.4c0.8-0.4,1.7-0.7,2.5-1.1c0.6-0.3,1.2-0.4,1.6-0.9c0,0,0.1-0.1,0.2,0c0,0,0,0.1,0,0.2
			c-0.1,0.4-0.3,0.6-0.6,0.9c-0.6,0.5-1.3,0.8-2,1.2c-0.5,0.1-1,0-1.5,0C331,91.5,330.9,91.6,330.9,91.4"/>
		<path fill="#F5A22D" d="M344.7,100.7c-1.3,0-2.7,0-4,0.1c0.1-0.2-0.1-0.2-0.2-0.3c-0.1-0.1-0.3-0.2-0.4-0.3c0.2-0.1,0.4,0,0.6,0.1
			c0.5,0.2,1,0.2,1.4-0.2c0.3-0.1,0.5-0.2,0.8-0.1c0.1,0.1,0.1,0.2,0.3,0.1c0.2-0.3,0.8-0.4,1.2-0.1
			C344.6,100.2,344.6,100.4,344.7,100.7"/>
		<path fill="#F2913D" d="M340.8,97.8c-0.4,0.2-0.8,0.4-1.1,0.7c-0.8-0.1-1.7,0-2.5,0c-0.3-0.2-0.6-0.2-0.8-0.5
			c0-0.2,0.2-0.2,0.4-0.2c0.4,0,0.8,0,1.2,0c0.5,0.2,0.9,0.1,1.4-0.1c0.5-0.1,0.9,0,1.4,0C340.7,97.5,340.9,97.5,340.8,97.8"/>
		<path fill="#ED713D" d="M327.3,94.9c0-0.3-0.2-0.1-0.2,0c-0.5,0.3-1.1,0.4-1.6,0.6c-0.2,0.1-0.3,0.1-0.5,0.1
			c0.3-0.5,0.8-0.8,1.1-1.2c0.1,0,0.1-0.1,0.2-0.1c0.7,0.1,1.4-0.1,2.1,0c0.2,0,0.4,0,0.6,0.2c-0.1,0.2-0.2,0.4-0.3,0.6
			C328.1,95,327.7,95.1,327.3,94.9"/>
		<path fill="#F18F3E" d="M333.4,98.3c-0.1-0.2-0.3-0.2-0.4,0c-0.1,0.1-0.2,0.1-0.2,0.2c-0.2-0.1-0.5,0-0.8-0.1
			c0.1-0.4,0.4-0.6,0.6-0.9c0.3-0.3,0.7-0.2,1.1-0.1c0.1,0.1,0.3,0.3,0.4,0.4c0.2,0.2,0.2,0,0.3-0.1c0-0.2,0.1-0.4,0-0.6
			c0-0.1,0-0.2,0-0.3c0-0.1-0.1-0.2,0.1-0.3c0.1,0.3,0.3,0.6,0.4,0.8c0.4,0.5,0.4,0.5-0.1,0.9c-0.1,0.1-0.3,0.1-0.5,0
			C334.1,98.2,333.7,98.3,333.4,98.3"/>
		<path fill="#FDF13B" d="M340.6,111.3c-0.3,0.3-0.7,0.5-1.1,0.8c-0.3,0.2-0.6,0.2-0.9,0c-0.4-0.2-0.8-0.5-1.2-0.8
			c0-0.2,0.2-0.2,0.3-0.2c0.9,0,1.7,0,2.6,0C340.5,111.1,340.6,111.1,340.6,111.3"/>
		<path fill="#F7AC24" d="M342,101.7c0-0.1,0-0.3,0.2-0.3c0.8,0,1.6,0,2.4,0c0.1,0,0.1,0,0.2,0.1c0.1,0.5,0.1,0.9,0,1.4
			c0,0-0.1-0.1-0.1-0.1c0-0.1,0-0.2,0-0.3c0-0.1,0-0.2-0.2-0.2c-0.5,0-1-0.2-1.5,0c0,0-0.1,0.1-0.1,0.1c-0.3-0.1-0.7,0-0.9-0.2
			C342,102.1,342,101.9,342,101.7"/>
		<path fill="#FCCB11" d="M342.9,107.1c0.1,0.1,0.2,0.1,0.4,0.1c0.5,0,1,0,1.5,0c0.1,0,0.3,0,0.4,0.1c-0.2,0.3-0.4,0.5-0.7,0.7
			c-0.7,0-1.3,0.1-2,0.1c-0.2,0-0.3,0-0.4-0.2C342.4,107.6,342.7,107.4,342.9,107.1"/>
		<path fill="#EA5F3C" d="M335.4,93.3c-0.2-0.1-0.3-0.4-0.5-0.1c-0.3,0.2-0.6,0.1-0.9,0.1c-0.3-0.1-0.5-0.3-0.7-0.5
			c0.1-0.1,0.2-0.1,0.4-0.1c0.8,0,1.5,0,2.3-0.1c0.2,0,0.4,0,0.5,0c0.2,0.1,0.4,0.2,0.7,0.1c0.2-0.1,0.4-0.3,0.6-0.3
			c-0.1,0.3-0.2,0.5-0.4,0.7C336.7,93.3,336.1,93.4,335.4,93.3"/>
		<path fill="#EB623C" d="M339.9,93.2c-0.2-0.3-0.4-0.5-0.5-0.9c0.4,0.3,0.7,0.8,1.2,0.4c0.5-0.1,0.9-0.1,1.4-0.1
			c0.5,0.1,0.9,0,1.4,0c0.2,0,0.4,0,0.5,0.1c-0.1,0.2-0.4,0.3-0.5,0.4c-0.3,0.1-0.6,0.3-0.9,0c-0.1-0.3-0.3-0.1-0.4,0
			c-0.1,0-0.2,0.1-0.3,0.1c-0.5-0.1-1,0-1.5,0C340.2,93.3,340,93.3,339.9,93.2"/>
		<path fill="#E8463A" d="M344,91.2c0.6,0,1.2,0,1.9,0c0.2,0,0.3,0,0.5-0.1c1,0.2,2,0.1,3.1,0.2c-0.3,0.3-0.6,0.3-0.9,0.4
			c-1-0.1-2,0-3.1,0.1c-0.2,0-0.3,0-0.5-0.1C344.6,91.6,344.3,91.4,344,91.2"/>
		<path fill="#FBCE16" d="M334.1,108.8c-0.4-0.3-0.7-0.6-0.9-0.9c0.9,0.2,1.8,0.2,2.7,0.2c0.4,0,0.6,0.2,0.9,0.5
			c-0.2,0.2-0.5,0.2-0.7,0.2C335.3,108.8,334.7,108.7,334.1,108.8"/>
		<path fill="#F7B020" d="M333.7,103.1c-0.3-0.4-0.4-0.8-0.4-1.3c0.2,0.2,0.3,0.3,0.4,0.5c0.1,0.1,0.2,0.2,0.3,0.2
			c0.1,0,0-0.2,0.1-0.3c0.2-0.2,0.5-0.1,0.8,0c0.1,0.1,0.1,0.2,0.3,0.1c0.1-0.1,0.2-0.2,0.3-0.3c0.1,0.5,0.1,0.9,0.1,1.4
			c-0.4-0.3-0.8-0.2-1.3-0.2C334.1,103,333.9,103.1,333.7,103.1"/>
		<path fill="#F3A52B" d="M334,101.4c-0.1-0.1-0.1-0.2-0.1-0.3c-0.1-0.1,0-0.3,0.1-0.3c0.6,0,1.3-0.1,1.9-0.1c0,0,0.1,0,0.1,0.1
			c0.4,0,0.8-0.1,1.2-0.2c0.3,0,0.7,0,1,0.1c0.1,0,0.1,0,0.1,0.1c0,0.1-0.1,0.1-0.1,0.1c-0.6,0.1-1.2,0.3-1.8,0.4
			c-0.4,0.1-0.9,0-1.3-0.2c-0.1,0-0.2-0.2-0.3,0C334.6,101.3,334.3,101.2,334,101.4"/>
		<path fill="#EF7D3E" d="M349.5,96c0.1-0.3,0.2-0.6,0.3-0.9c0.5-0.1,1.1,0,1.6,0c0.1,0,0.2,0,0.2,0.2c0,0.2-0.1,0.5-0.2,0.7
			C350.8,96.2,350.1,96.2,349.5,96"/>
		<path fill="#F18B3F" d="M327.1,97.9c-0.1-0.2-0.1-0.5-0.1-0.7c0.3-0.2,0.7-0.1,1-0.1c0.1,0,0.1-0.1,0.2-0.1c0.3-0.1,0.7,0,1,0
			c0.1,0,0.3,0,0.2,0.2c-0.2,0.2-0.5,0.5-0.7,0.7C328.2,97.9,327.7,97.9,327.1,97.9"/>
		<path fill="#F49F30" d="M347.8,100.2c0.1-0.2,0.2-0.4,0.3-0.6c0.1-0.1,0.2-0.2,0.3-0.2c0.4,0,0.9,0,1.3,0c0.1,0,0.3,0,0.3,0.2
			c-0.1,0.3-0.2,0.5-0.4,0.8c-0.5-0.1-0.9,0-1.4-0.1C348.2,100.3,348,100.4,347.8,100.2"/>
		<path fill="#FCCF16" d="M342.2,107.9c0.3,0.2,0.7,0.1,1,0.1c0.5,0,0.9-0.1,1.4,0c-0.1,0.2-0.3,0.4-0.5,0.5
			c-0.6,0.2-1.2,0.1-1.9,0.1c-0.2,0-0.5,0.1-0.7-0.1C341.7,108.3,341.9,108.1,342.2,107.9"/>
		<path fill="#FCE42C" d="M336.5,110.7c-0.1-0.1-0.3-0.2-0.4-0.3c0.1-0.2,0.3-0.2,0.5-0.2c1,0,2.1,0,3.1,0c0.6,0,1.2-0.1,1.8-0.1
			c0.2,0,0.4,0,0.4,0.2c-0.1,0.1-0.2,0.2-0.3,0.2C339.9,110.6,338.2,110.7,336.5,110.7"/>
		<path fill="#F3953A" d="M337.1,98.4c0.2-0.1,0.5-0.2,0.7-0.2c0.5,0,1,0,1.4,0c0.1,0,0.3,0,0.4,0.2c-0.2,0.2-0.4,0.4-0.6,0.7
			c-0.4-0.1-0.9-0.1-1.3,0C337.6,98.8,337.4,98.6,337.1,98.4"/>
		<path fill="#FAC012" d="M339.4,105.4c-0.1-0.3-0.4-0.2-0.6-0.2c-0.2,0-0.4,0.1-0.6,0.1c0-0.3,0.1-0.6,0.2-0.9
			c0.2-0.1,0.5-0.2,0.7-0.1c0,0,0,0,0.1,0c0.2-0.1,0.3,0,0.5,0c0.1,0,0.2,0.1,0.2,0.3C339.7,104.7,339.7,105.1,339.4,105.4"/>
		<path fill="#F0853E" d="M349.5,96c0.6,0,1.3,0,1.9,0c-0.1,0.2-0.1,0.5-0.2,0.7c-0.6,0.2-1.1,0.1-1.7,0.1c-0.1,0-0.1-0.1-0.2-0.1
			L349.5,96z"/>
		<path fill="#EE763D" d="M351.6,95.3c-0.1-0.1-0.3-0.1-0.4-0.1c-0.5,0-0.9,0.1-1.4-0.1c0-0.2,0.1-0.5,0.2-0.7c0.2-0.1,0.5,0,0.7,0
			c0.2,0,0.5,0,0.7,0c0.1,0,0.3,0,0.4,0.2C351.8,94.9,351.7,95.1,351.6,95.3"/>
		<path fill="#F8B31E" d="M346.2,103.2c0.2-0.3,0.3-0.5,0.5-0.8c0.6-0.1,1.1,0,1.7,0c0.1,0,0.3,0,0.2,0.3c-0.1,0.2-0.2,0.4-0.4,0.6
			c-0.6,0-1.2,0-1.8,0C346.3,103.2,346.2,103.2,346.2,103.2"/>
		<path fill="#EB6A3C" d="M352.2,93.1c0,0.3-0.1,0.6-0.2,0.9c-0.3-0.2-0.7-0.1-1-0.1c-0.3,0-0.5,0-0.8,0c0.1-0.3,0.1-0.5,0.2-0.8
			C351,92.9,351.6,92.9,352.2,93.1"/>
		<path fill="#EC693C" d="M329.6,93.5c-0.2,0.2-0.3,0.4-0.5,0.6c-0.8,0-1.5,0-2.3,0c-0.2,0-0.4,0-0.5-0.1c0.1-0.1,0.2-0.3,0.2-0.4
			c0.4-0.2,0.9-0.2,1.3-0.2c0.4,0,0.9,0,1.3,0C329.3,93.3,329.4,93.3,329.6,93.5"/>
		<path fill="#FBC111" d="M332.4,105.3c-0.4,0.1-0.9,0-1.3,0.1c-0.2,0-0.3,0-0.4,0.2c-0.2-0.3-0.3-0.6-0.4-0.9
			c0-0.1,0.1-0.1,0.2-0.2c0.4,0,0.8-0.1,1.2-0.1c0.1,0,0.3,0.1,0.3,0.2C332.1,104.8,332.2,105,332.4,105.3"/>
		<path fill="#F8B21F" d="M342,102.2c0.2,0,0.5,0,0.7,0c0.1,0,0.2,0,0.3,0.2c-0.1,0.2,0,0.5-0.2,0.7c-0.6-0.1-1.1-0.1-1.7,0.1
			c0-0.2,0-0.5,0.1-0.7c0-0.1,0-0.2,0-0.4c0-0.2,0.1-0.3,0.3-0.3c0.1,0.1,0.2,0.3,0.3,0.4C341.9,102.3,341.9,102.4,342,102.2"/>
		<path fill="#ED6D3C" d="M326.2,93.9c0.8,0,1.7,0,2.5,0c0.1,0,0.3-0.1,0.3,0.1c-0.1,0.1-0.2,0.3-0.3,0.4c-0.6-0.1-1.1-0.1-1.7,0
			c-0.4,0-0.8,0-1.1,0C326,94.2,326.1,94,326.2,93.9"/>
		<path fill="#F5A32D" d="M336.1,100.8c-0.6,0-1.2,0.1-1.8,0.1c-0.2,0-0.3,0-0.3,0.2c-0.1-0.2-0.2-0.5-0.1-0.7
			c0.2-0.2,0.4-0.1,0.6-0.1c0.2,0,0.4,0,0.5-0.1c0.4,0.2,0.8,0.1,1.1,0c0.2-0.1,0.3-0.1,0.5-0.1c0,0.2-0.2,0.2-0.4,0.3
			C336.2,100.6,336,100.6,336.1,100.8"/>
		<path fill="#F7AF22" d="M348.6,102.6c0-0.2-0.2-0.2-0.3-0.2c-0.4,0-0.8,0-1.2,0c-0.1,0-0.3,0-0.4-0.1c0.1-0.2,0.2-0.4,0.3-0.5
			c0.1-0.1,0.2-0.2,0.3-0.2c0.5,0,1,0,1.5,0c0.1,0,0.2,0,0.2,0.1C348.9,102.1,348.8,102.4,348.6,102.6"/>
		<path fill="#F49A35" d="M350.1,99.6c-0.1-0.1-0.2-0.1-0.3-0.1c-0.6,0-1.1-0.1-1.7,0.1c0.1-0.3,0.2-0.5,0.3-0.8
			c0.5-0.1,1.1,0,1.7-0.1c0.1,0,0.2,0,0.2,0.2C350.3,99.2,350.2,99.4,350.1,99.6"/>
		<path fill="#EA593B" d="M336.5,92.7c-0.4,0.1-0.9,0.1-1.4,0.1c-0.6,0-1.2,0-1.8,0c-0.1-0.3,0.1-0.2,0.2-0.3
			c0.4-0.1,0.8-0.2,1.2-0.2c0.1-0.2,0.4-0.1,0.5-0.2C335.7,92.3,336.2,92.4,336.5,92.7"/>
		<path fill="#ED703D" d="M350.2,93.9c0.5-0.2,1.1,0,1.7-0.1c0.1,0,0.1,0.1,0.1,0.2c0,0.2-0.1,0.4-0.2,0.6c-0.1-0.1-0.2-0.1-0.3-0.1
			c-0.5,0-1,0.1-1.5-0.1C350,94.3,350.1,94.1,350.2,93.9"/>
		<path fill="#FDD31A" d="M334.1,108.8c0-0.2,0.2-0.2,0.3-0.2c0.4,0,0.9,0,1.3,0c0.3,0,0.7,0,1-0.1c0.2,0.1,0.3,0.2,0.5,0.4
			c0,0.2-0.1,0.2-0.2,0.2c-0.8,0-1.6,0.1-2.5,0C334.4,109,334.2,108.9,334.1,108.8"/>
		<path fill="#E9543B" d="M326.9,92.6c0-0.1,0.1-0.2,0.1-0.3c0.5-0.2,1-0.1,1.5,0.1c0.3,0,0.5-0.2,0.7-0.3c0.3,0.1,0.7,0,1,0
			c0.3,0,0.7-0.1,1,0.2c-0.2,0.1-0.4,0.3-0.7,0.4c-0.8,0.1-1.5,0.1-2.3,0c-0.3,0-0.6,0-0.9,0C327.2,92.7,327.1,92.7,326.9,92.6"/>
		<path fill="#F9B918" d="M334.9,104.2c-0.2-0.1-0.4-0.3-0.6-0.5c-0.1-0.2,0-0.2,0.2-0.2c0.4,0,0.8-0.1,1.2,0c0.3,0,0.2-0.3,0.4-0.5
			c0.2-0.2,0.2-0.2,0.3,0c0,0.3,0,0.6,0,0.9c0,0.1,0,0.1,0,0.2c-0.1,0.1-0.3,0.1-0.5,0.1C335.6,104.1,335.2,104.1,334.9,104.2"/>
		<path fill="#FBC210" d="M346.8,105.3c-0.5-0.2-1.1-0.1-1.6-0.1c-0.2,0-0.3,0-0.5-0.1c0.1-0.1,0.2-0.3,0.4-0.4c0,0,0.1-0.1,0.1-0.1
			c0.6-0.2,1.2-0.1,1.9,0c0.1,0,0.2,0.1,0.1,0.2C347.1,105,346.9,105.2,346.8,105.3"/>
		<path fill="#F6AA26" d="M349,101.8c-0.7,0-1.4-0.1-2,0.1c0.1-0.2,0.2-0.4,0.4-0.6c0-0.1,0.1-0.1,0.2-0.1c0.5,0.1,1-0.1,1.5-0.1
			c0.1,0,0.3,0,0.4,0.2C349.1,101.4,349.2,101.7,349,101.8"/>
		<path fill="#F9B71A" d="M330,104.1c-0.1-0.2-0.2-0.4-0.3-0.6c-0.1-0.2,0-0.2,0.1-0.2c0.3,0,0.6-0.1,0.9,0c0-0.1,0.1-0.3,0.1-0.4
			c0.3-0.1,0.3-0.1,0.4,0.2c0,0.3,0.2,0.5,0.2,0.8c-0.2,0.3-0.6,0.2-0.9,0.1C330.4,103.9,330.2,104,330,104.1"/>
		<path fill="#F4A22E" d="M338.3,100.9c0-0.1,0.2-0.1,0-0.1c-0.3-0.1-0.7,0-1-0.1c0.3-0.2,0.6-0.3,0.8-0.6c0.2-0.3,0.3-0.3,0.7-0.1
			c0.1,0.4,0.3,0.5,0.6,0.6c0.1,0.1,0.2,0.1,0.3,0.2c-0.2,0.1-0.4,0.1-0.6,0.1c-0.2,0-0.3,0-0.4,0.1
			C338.6,100.9,338.4,100.9,338.3,100.9"/>
		<path fill="#EB6A3C" d="M339.9,93.2c0.7,0,1.4-0.1,2.1,0c-0.4,0.4-0.4,0.4-0.8,0.1c-0.1,0.1-0.1,0.2-0.1,0.3
			c-0.1,0.3,0,0.6-0.1,0.8c-0.2,0.1-0.4,0.1-0.6,0C340.3,94,340.1,93.6,339.9,93.2"/>
		<path fill="#F9BB16" d="M330,104.1c0.1-0.2,0.3-0.3,0.5-0.2c0.4,0.1,0.7,0.1,1.1,0c0.1,0.3,0.3,0.5,0.4,0.8
			c-0.6-0.2-1.1,0-1.7,0.1C330.1,104.5,330.1,104.3,330,104.1"/>
		<path fill="#FEE830" d="M336.5,110.7c0.1-0.1,0.2-0.1,0.3-0.1c1.3,0.1,2.5,0,3.8-0.1c0.4,0,0.7-0.1,1.1,0.1
			c-0.1,0.1-0.2,0.2-0.3,0.2c-0.3,0-0.6,0.1-1,0c-0.1,0-0.1,0-0.2,0c-0.7,0.2-1.3,0-2,0.1c-0.4,0.1-0.9,0-1.4,0
			C336.8,110.8,336.7,110.8,336.5,110.7"/>
		<path fill="#F9B81A" d="M346.2,103.2c0.7-0.1,1.3-0.1,2,0c0,0,0.1,0,0.1,0.1c-0.1,0.2-0.2,0.4-0.4,0.6c-0.5,0-1,0-1.5,0
			c-0.2,0-0.4,0-0.5-0.2C346,103.5,346.1,103.3,346.2,103.2"/>
		<path fill="#EF853E" d="M329.5,97.2c0-0.2-0.2-0.1-0.3-0.1c-0.3,0-0.6,0.1-0.9-0.1c0.3-0.3,0.6-0.5,0.9-0.7c0.3-0.1,0.7-0.1,1-0.1
			c0.1,0,0.3,0,0.3,0.2C330.1,96.7,329.8,97,329.5,97.2"/>
		<path fill="#EE7E3E" d="M330.4,96.4c0-0.2-0.2-0.1-0.3-0.1c-0.3,0-0.6,0-1,0c0.5-0.4,1-0.7,1.5-1.1c0.1,0,0.3,0,0.4,0
			c0.1,0,0.3,0.1,0.2,0.3C331,95.8,330.8,96.1,330.4,96.4"/>
		<path fill="#FCD219" d="M341.5,108.5c0.7,0,1.5,0.1,2.2-0.1c0.1,0,0.3,0,0.4,0.1c-0.1,0.2-0.3,0.4-0.5,0.5c-0.7,0.1-1.5,0-2.2,0
			c-0.1,0-0.2,0-0.3-0.2C341.2,108.7,341.3,108.6,341.5,108.5"/>
		<path fill="#F7B020" d="M343.1,102.3c0.2-0.4,0.6-0.2,0.9-0.2c0.1,0,0.3,0,0.4,0c0.5,0,0.5,0,0.5,0.5c0,0.1,0,0.1,0,0.2
			c-0.5,0.2-1.1,0.2-1.6,0C343.1,102.7,343.1,102.5,343.1,102.3"/>
		<path fill="#F7AD24" d="M328.5,102.5c0-0.2,0-0.4,0-0.6c0.1-0.1,0.2-0.1,0.4-0.1c0.4,0,0.8,0,1.1,0c0.1,0,0.2,0,0.3,0.1
			c0.1,0.2,0.2,0.5,0.2,0.7c-0.5,0-1,0-1.6,0C328.8,102.6,328.6,102.6,328.5,102.5"/>
		<path fill="#EB593B" d="M326.9,92.6c1.1-0.1,2.2,0.1,3.3,0c0.1,0,0.3,0,0.4,0.1c-0.1,0.1-0.2,0.2-0.4,0.2c-0.4,0.1-0.8,0-1.2,0.1
			c-0.6,0.1-1.3,0.1-1.9,0.1c-0.1,0-0.3,0-0.4-0.2C326.8,92.7,326.9,92.7,326.9,92.6"/>
		<path fill="#F9B61B" d="M343.2,102.8c0.5,0,1.1,0,1.6,0c0,0,0,0.1,0,0.1c0,0.3-0.1,0.5-0.2,0.7c-0.3-0.1-0.6,0.1-1,0
			c-0.2,0-0.3,0-0.5-0.1C343.2,103.3,343.2,103.1,343.2,102.8"/>
		<path fill="#EA5B3B" d="M343.9,92.8c-1.1,0-2.2-0.1-3.3-0.1c0.3-0.2,0.6-0.3,0.9-0.4c0.4,0.1,0.8-0.1,1.2,0
			c0.4,0.1,0.8,0.2,1.2,0.3C344,92.6,344.1,92.7,343.9,92.8"/>
		<path fill="#FABF13" d="M347.1,104.9c0-0.1-0.1-0.2-0.2-0.2c-0.6,0-1.3-0.1-1.9,0.1c0.1-0.2,0.3-0.4,0.4-0.6
			c0.3-0.2,0.6-0.1,0.9-0.1c0.3,0,0.5,0,0.8,0c0.1,0,0.3,0,0.4,0.2C347.4,104.4,347.3,104.7,347.1,104.9"/>
		<path fill="#F7B120" d="M328.5,102.5c0.6,0,1.1-0.1,1.6-0.1c0.2,0,0.3,0,0.4,0.1c0.1,0.1,0.1,0.2,0.1,0.4
			c-0.1,0.1-0.3,0.1-0.5,0.1c-0.4,0-0.8,0.1-1.3,0.1c-0.2,0-0.3,0.1-0.3,0.3c0,0.1,0,0.2-0.2,0.2
			C328.4,103.2,328.4,102.8,328.5,102.5"/>
		<path fill="#F29539" d="M350.4,98.9c-0.1-0.2-0.2-0.1-0.4-0.1c-0.5,0.1-1,0.1-1.5,0c0.1-0.2,0.1-0.3,0.2-0.5
			c0.2-0.1,0.4-0.1,0.6-0.1c0.3,0,0.6,0,1,0c0.1,0,0.3,0,0.3,0.2C350.6,98.6,350.5,98.7,350.4,98.9"/>
		<path fill="#FCDD26" d="M338.1,109.6c0.2,0.1,0.4,0.3,0.6,0.4c-0.1,0.2-0.3,0.2-0.5,0.2c-0.7,0-1.5,0-2.2,0
			c-0.2-0.1-0.4-0.2-0.5-0.4c0.1-0.2,0.4-0.2,0.6-0.2C336.6,109.6,337.4,109.7,338.1,109.6"/>
		<path fill="#F9B51C" d="M335.7,103.5c-0.4,0.1-0.7,0.1-1.1,0.1c-0.1,0-0.3,0-0.3,0.2c-0.2-0.2-0.4-0.4-0.6-0.6
			c0.2-0.3,0.5-0.1,0.7-0.2c0.2,0,0.5,0,0.7,0c0.3,0,0.4,0.1,0.4,0.3C335.6,103.3,335.7,103.4,335.7,103.5"/>
		<path fill="#F9BB16" d="M347.6,104.2c-0.5-0.1-0.9,0-1.4-0.1c-0.2,0-0.5,0-0.7,0c0.1-0.2,0.3-0.4,0.4-0.6c0.5,0.2,1,0,1.6,0.1
			c0.1,0,0.3-0.1,0.4,0.1C347.7,103.9,347.7,104.1,347.6,104.2"/>
		<path fill="#FBC910" d="M331.3,107c0.5,0,1-0.1,1.4,0.1c-0.2,0-0.2,0.1-0.2,0.2c-0.1,0.3-0.2,0.6-0.4,0.9c-0.1,0.1-0.3,0-0.4,0
			c-0.2,0-0.3-0.1-0.3-0.3C331.4,107.6,331.3,107.3,331.3,107"/>
		<path fill="#FCD61E" d="M334.5,109.2c0.8-0.1,1.5,0,2.3-0.1c0.2,0,0.3,0,0.4-0.2c0.2,0.1,0.3,0.2,0.5,0.4
			c-0.1,0.2-0.2,0.2-0.4,0.2c-0.8,0-1.6,0.1-2.3,0C334.8,109.4,334.6,109.3,334.5,109.2"/>
		<path fill="#E84D3B" d="M331.3,92.2c-0.4-0.1-0.8-0.1-1.2,0c-0.3,0-0.6,0.2-0.9-0.1c0.3-0.2,0.6-0.3,0.9-0.4c0.4,0,0.8,0,1.2,0
			c0.2,0,0.4,0,0.5,0.2C331.7,92,331.5,92.1,331.3,92.2"/>
		<path fill="#FCDD25" d="M342.7,109.7c-0.2,0.1-0.3,0.3-0.5,0.4c-0.7,0-1.4,0-2,0c-0.2,0-0.4,0-0.6-0.2c0.2-0.1,0.3-0.2,0.5-0.3
			c0.8-0.1,1.6,0,2.4,0C342.6,109.6,342.7,109.6,342.7,109.7"/>
		<path fill="#F6A828" d="M330.3,101.8c-0.6,0-1.2,0-1.8,0c0,0,0,0,0-0.1c0.1-0.6,0.1-0.7,0.8-0.7c0.3,0,0.6-0.1,0.9,0.1
			C330.2,101.4,330.2,101.6,330.3,101.8"/>
		<path fill="#F5A42C" d="M330.1,101.2c-0.4,0-0.8,0-1.2,0.1c-0.3,0-0.4,0.1-0.3,0.4c0,0,0,0.1-0.1,0.2c0-0.3,0-0.7,0.1-1
			c0-0.2,0.1-0.3,0.3-0.3c0.3,0,0.5,0,0.8,0c0.2,0,0.3,0.1,0.3,0.3C330.1,100.9,330.1,101,330.1,101.2"/>
		<path fill="#F49F30" d="M330,100.7c-0.1-0.1-0.2-0.2-0.4-0.2c-0.3,0-0.5,0-0.8,0c-0.2,0-0.3,0.1-0.4,0.2c0-0.3,0.1-0.6,0.1-0.9
			c0.1-0.1,0.1-0.2,0.3-0.2c0.3,0,0.5,0,0.8-0.1c0.1,0,0.3,0,0.2,0.2C330,100.1,330,100.4,330,100.7"/>
		<path fill="#FDE129" d="M339.6,109.9c0.5,0.2,1,0.1,1.4,0.1c0.3,0,0.6,0,0.9,0c0.1,0,0.3,0,0.3,0.1c-0.1,0.1-0.2,0.2-0.3,0.2
			c-0.1-0.1-0.2-0.1-0.3-0.1c-1.7,0.1-3.4,0.1-5.1,0.1c-0.1,0-0.3,0.1-0.4,0.1c-0.1,0-0.1,0-0.1-0.1c0-0.2,0.2-0.1,0.3-0.1
			c0.9,0,1.7,0,2.6,0c0.1,0,0.2,0,0.3,0C339.4,110,339.5,110,339.6,109.9"/>
		<path fill="#F7B51C" d="M341.1,103.2c0.1-0.1,0.1-0.2,0.3-0.2c0.4-0.1,0.8,0,1.1-0.1c0.1,0,0.2,0,0.2,0.2
			c-0.1,0.3-0.2,0.6-0.4,0.9c-0.1,0.1-0.1,0.2-0.2,0.2c-0.1,0-0.1-0.2-0.1-0.2c0-0.2,0-0.4-0.1-0.5c-0.1-0.2-0.2-0.1-0.3,0
			c-0.2,0.1-0.4,0.1-0.5,0L341.1,103.2z"/>
		<path fill="#EB603C" d="M326.8,92.9c0.1,0.1,0.2,0.1,0.4,0.1c0.7,0,1.4,0,2.2-0.1c0.3,0,0.6,0,1,0.1c-0.1,0.1-0.3,0.2-0.4,0.3
			c-0.7,0.1-1.4,0-2.1,0.1c-0.2,0-0.5,0.1-0.7,0c-0.2,0-0.3,0-0.4-0.2C326.7,93.1,326.7,93,326.8,92.9"/>
		<path fill="#F5A42C" d="M347.8,100.2c0.5,0,1.1,0,1.6,0c0.1,0,0.3,0,0.3,0.2c-0.1,0.2-0.1,0.3-0.2,0.5c-0.6,0-1.3,0-1.9,0
			C347.6,100.6,347.7,100.4,347.8,100.2"/>
		<path fill="#FCD61D" d="M341,108.9c0.2,0.1,0.4,0.1,0.6,0.1c0.5,0,1.1,0,1.6,0c0.1,0,0.2,0,0.3,0.1c-0.1,0.1-0.3,0.3-0.4,0.4
			c-0.5,0.1-1.1,0-1.6,0c-0.2,0-0.5,0-0.7,0c-0.1,0-0.3,0-0.3-0.2C340.7,109.1,340.9,109,341,108.9"/>
		<path fill="#F49C33" d="M344.4,99.9c-0.4,0.1-0.9-0.1-1.2,0.1c0-0.3-0.2-0.5-0.4-0.8c0-0.2,0.1-0.2,0.3-0.2c0.3,0,0.5-0.1,0.8,0
			C344.1,99.3,344.3,99.6,344.4,99.9"/>
		<path fill="#F9C011" d="M341.2,104.5c-0.3,0.6-0.7,1.1-1.3,1.4c0.1-0.6,0.2-1.1,0.4-1.5c0.2-0.1,0.5-0.1,0.8-0.1
			C341.1,104.3,341.2,104.3,341.2,104.5"/>
		<path fill="#FCD921" d="M340.6,109.2c0.1,0.1,0.2,0.1,0.4,0.1c0.5,0,1,0,1.5,0c0.2,0,0.4,0,0.6,0.1c-0.1,0.1-0.2,0.3-0.4,0.3
			c-0.1-0.1-0.3-0.1-0.4-0.1c-0.6,0-1.2,0-1.8,0c-0.1,0-0.3,0-0.4-0.1C340.2,109.5,340.4,109.3,340.6,109.2"/>
		<path fill="#E74B3B" d="M345,91.7c0.7-0.1,1.4,0,2.2-0.1c0.5-0.1,0.9,0,1.4,0.1C347.3,92,346.1,92.1,345,91.7"/>
		<path fill="#FAC012" d="M333.8,105.3c-0.2,0-0.5,0-0.7,0c-0.1,0-0.2,0-0.3,0.2c-0.2-0.3-0.3-0.7-0.3-1.1c0.3-0.2,0.6-0.1,0.9-0.1
			C333.5,104.6,333.7,104.9,333.8,105.3"/>
		<path fill="#EB693C" d="M335.4,93.3C335.4,93.3,335.4,93.3,335.4,93.3c0.7-0.1,1.3-0.1,1.9-0.1c0.1,0,0.1,0,0.2,0.1
			c-0.2,0.3-0.4,0.6-0.6,0.9c-0.4,0.2-0.7,0.1-0.5-0.5c0-0.4-0.2-0.3-0.4-0.2C335.7,93.6,335.5,93.6,335.4,93.3"/>
		<path fill="#F2923C" d="M350.6,98.4c-0.1-0.1-0.3-0.1-0.4-0.1c-0.5,0-1,0-1.5,0c0-0.2,0.1-0.3,0.2-0.4c0,0,0-0.1,0.1-0.1
			c0.6-0.1,1.1-0.2,1.7-0.1c0.1,0,0.1,0.1,0.1,0.1C350.7,98,350.8,98.2,350.6,98.4"/>
		<path fill="#F9BD14" d="M334.9,104.2c0.1-0.2,0.2-0.2,0.4-0.2c0.4,0,0.8,0,1.2,0c0.1,0.2,0.1,0.4,0.1,0.6
			c-0.3,0.3-0.6,0.1-0.9,0.2C335.4,104.7,335.1,104.4,334.9,104.2"/>
		<path fill="#F18A3F" d="M349.3,96.7c0.6,0.2,1.2,0,1.9,0.1c-0.1,0.2-0.1,0.5-0.2,0.6c-0.5-0.1-1,0-1.5,0c-0.1,0-0.3,0-0.4,0
			C349.1,97.1,349.2,96.9,349.3,96.7"/>
		<path fill="#FEEA33" d="M336.9,110.9c0,0,0.1-0.1,0.1-0.1c0.8,0.1,1.6-0.2,2.4,0c0.1,0,0.3,0,0.4,0c0.5-0.2,1,0,1.5,0
			c0,0,0.1,0,0.1,0.1c-0.1,0.1-0.2,0.2-0.3,0.2c-0.4,0.1-0.8,0.1-1.2,0c-0.8,0-1.6,0.1-2.4,0c-0.1,0-0.3,0-0.4-0.1
			C337,111,336.9,111,336.9,110.9"/>
		<path fill="#EF8C3F" d="M340.8,97.8c0-0.1-0.1-0.1-0.2-0.1c-0.4,0-0.9,0-1.3-0.1c0.2-0.2,0.5-0.3,0.8-0.3c0.5,0,0.6-0.1,0.7-0.6
			c0.1-0.1,0.3-0.1,0.4,0c0.2,0.1,0.1,0.4,0.1,0.6C341.2,97.5,341,97.7,340.8,97.8"/>
		<path fill="#F1903E" d="M327.1,97.9c0-0.1,0.1-0.1,0.2-0.1c0.5,0,0.9,0,1.4,0c0.1,0,0.1,0.1,0.1,0.1c-0.1,0.2-0.3,0.3-0.4,0.5
			c-0.4,0.2-0.8,0.2-1.2,0C327.1,98.3,327.1,98.1,327.1,97.9"/>
		<path fill="#F1903D" d="M330.7,97.5c-0.1,0.3-0.3,0.7-0.4,1c-0.3,0-0.7,0.2-0.9-0.1c0.2-0.4,0.5-0.8,0.9-1.1
			C330.6,97.2,330.7,97.2,330.7,97.5"/>
		<path fill="#F9C110" d="M343.9,104.8c-0.3,0.5-0.7,0.8-1.2,1.1c-0.1,0-0.1,0.1-0.2,0c-0.1-0.1,0-0.1,0-0.2
			c0.2-0.4,0.3-0.7,0.5-1.1c0.2-0.2,0.5-0.1,0.8-0.1C343.8,104.6,344,104.7,343.9,104.8"/>
		<path fill="#F8C210" d="M335.6,104.9c0-0.2,0.2-0.1,0.3-0.1c0.2,0,0.4,0,0.7-0.1c0.1,0.4,0.2,0.7,0.3,1.1c0,0.1,0,0.2,0,0.4
			c0,0.1-0.1,0.1-0.1,0.1c-0.1,0-0.1-0.1-0.1-0.1C336.3,105.7,335.9,105.3,335.6,104.9"/>
		<path fill="#F18E3F" d="M349.1,97.3c0.6-0.1,1.2,0,1.8-0.1c0.1,0,0.1,0.1,0.1,0.1c0,0.1-0.1,0.3-0.1,0.4c-0.7-0.1-1.3,0-1.9,0.1
			C348.9,97.7,349,97.5,349.1,97.3"/>
		<path fill="#F7B41D" d="M328.5,103.4c-0.1-0.3,0.1-0.4,0.4-0.4c0.6,0,1.2-0.1,1.7-0.1c0,0.1,0.1,0.2,0.2,0.4
			c-0.3,0.1-0.5,0.1-0.8,0.1c-0.1,0-0.3-0.1-0.3,0.1c-0.1-0.1-0.1-0.2-0.2-0.3c-0.2,0.1-0.1,0.3-0.2,0.4
			C329,103.5,328.7,103.6,328.5,103.4"/>
		<path fill="#F39935" d="M330,99.8c0,0-0.1-0.1-0.1-0.1c-0.4,0.1-0.8,0-1.2,0.1c0-0.3,0.1-0.5,0.3-0.8c0.2-0.2,0.8-0.2,1-0.1
			c0.1,0.1,0.1,0.2,0.1,0.3C330,99.5,330.1,99.6,330,99.8"/>
		<path fill="#F39A35" d="M338.8,99.9c-0.2,0-0.5-0.1-0.7,0.1c0.1-0.4-0.1-0.6-0.3-0.9c0.3-0.2,1.1-0.2,1.3,0
			C339,99.3,338.8,99.6,338.8,99.9"/>
		<path fill="#F09639" d="M332.1,98.4c0.3-0.1,0.5-0.2,0.8,0.1c-0.3,0.4-0.6,0.9-0.8,1.4c0,0.1-0.1,0.2-0.2,0.2
			c-0.1-0.1,0-0.2-0.1-0.3c0,0,0-0.1,0-0.1c0.1-0.1,0-0.3,0.1-0.4C331.8,99,331.9,98.7,332.1,98.4"/>
		<path fill="#E8463A" d="M350.8,90.8c0,0.2,0,0.3,0.3,0.3c0.4-0.1,0.8,0,1.2,0c0.2,0,0.3-0.1,0.4-0.2c0,0.2,0,0.5-0.1,0.7
			c-0.5,0.1-0.9,0.1-1.4,0.1c-0.1,0-0.3,0-0.4-0.1C350.7,91.3,350.7,91.1,350.8,90.8"/>
		<path fill="#F5A729" d="M347.6,100.8c0.6-0.1,1.2-0.1,1.8,0c0,0,0.1,0.1,0.1,0.1c-0.1,0.1-0.1,0.3-0.2,0.4
			c-0.2-0.1-0.4-0.1-0.6-0.1c-0.5,0.1-0.9,0.1-1.4,0.1C347.4,101.1,347.5,100.9,347.6,100.8"/>
		<path fill="#FDD921" d="M335,109.5c0.2-0.1,0.5,0,0.7-0.1c0.5,0,0.9,0,1.4,0c0.2,0,0.4,0,0.6-0.1c0.1,0.1,0.2,0.2,0.4,0.3
			c0,0.2-0.2,0.1-0.3,0.1c-0.6,0-1.2,0-1.8,0c-0.2,0-0.4,0-0.6,0.1C335.2,109.7,335.1,109.6,335,109.5"/>
		<path fill="#ED773D" d="M327.3,94.9c0.4,0,0.8-0.1,1.2,0.1c-0.1,0.3-0.2,0.6-0.3,0.9c-0.3-0.2-0.7-0.1-1.1-0.2
			C327.1,95.4,327.2,95.1,327.3,94.9"/>
		<path fill="#EE7E3E" d="M327.1,95.7c0.3-0.1,0.6-0.1,0.9-0.1c0.1,0,0.2,0.1,0.2,0.2c0,0.2-0.1,0.4-0.1,0.6
			c-0.1,0.1-0.3,0.1-0.4,0.1c-0.2,0-0.4,0.1-0.6,0.1C327,96.3,327,96,327.1,95.7"/>
		<path fill="#EA613C" d="M352.2,93.1c-0.6,0-1.2,0-1.8,0c0-0.2,0.1-0.3,0.1-0.5c0.5-0.1,1-0.1,1.5-0.1c0.1,0,0.3,0,0.3,0.2
			C352.2,92.8,352.3,93,352.2,93.1"/>
		<path fill="#F29738" d="M343.9,99.1c-0.2,0.1-0.5,0.1-0.7,0.1c-0.1,0-0.3,0-0.4,0.2c-0.2-0.2-0.3-0.4-0.5-0.5
			c-0.1-0.1-0.1-0.2,0-0.3c0.3-0.2,0.7-0.2,1,0C343.6,98.7,343.8,98.8,343.9,99.1"/>
		<path fill="#F8BB16" d="M341.2,104.5c-0.3-0.2-0.7,0-1-0.1c0-0.2,0.1-0.5,0.1-0.7c0.2-0.2,0.4-0.1,0.6,0c0,0,0,0,0.1,0
			c0.2-0.1,0.4-0.2,0.6,0C341.4,104,341.4,104.3,341.2,104.5"/>
		<path fill="#F1933B" d="M333.4,98.3c0.3-0.3,0.7-0.1,1.1-0.1c0.1,0,0.2,0,0.4,0.1c-0.2,0.2-0.2,0.5-0.3,0.6c0,0,0,0-0.1,0
			c-0.4,0-0.5,0.3-0.5,0.6c0,0.1-0.1,0.1-0.1,0.1C333.9,99.1,333.7,98.7,333.4,98.3"/>
		<path fill="#F08E3F" d="M337.9,97.7c-0.4,0.2-0.8,0-1.1,0.1c-0.1,0-0.3,0-0.4,0.1c-0.2-0.2-0.5-0.4-0.3-0.6c0.1-0.2,0.4-0.1,0.7,0
			C337.1,97.3,337.5,97.5,337.9,97.7"/>
		<path fill="#EB643C" d="M326.6,93.2c0.4,0.1,0.9,0.1,1.3,0c0.6,0,1.2-0.1,1.9,0c-0.1,0.1-0.2,0.2-0.3,0.2c-1,0-2.1-0.1-3.1,0
			C326.5,93.4,326.6,93.3,326.6,93.2"/>
		<path fill="#F9BE14" d="M343.9,104.8c0-0.2-0.2-0.1-0.3-0.1c-0.2,0-0.4,0-0.7,0c0.1-0.2,0.1-0.4,0.2-0.6c0.4-0.2,0.9-0.2,1.3,0
			C344.2,104.3,344.2,104.6,343.9,104.8"/>
		<path fill="#F1863E" d="M327,96.6c0.1-0.1,0.2-0.2,0.3-0.2c0.2,0,0.4,0,0.7,0c0,0.2,0,0.5,0,0.7c-0.3,0.1-0.7,0.1-1,0.1
			C327,97,327,96.8,327,96.6"/>
		<path fill="#F6A927" d="M334,101.4c0-0.2,0.1-0.2,0.3-0.2c0.2,0,0.4,0,0.6,0c0,0.3,0,0.6,0,0.9c-0.3,0-0.5,0-0.8,0
			C334.1,101.9,334.1,101.6,334,101.4"/>
		<path fill="#F9B918" d="M344.4,104c-0.4,0-0.9,0-1.3,0c0-0.2,0-0.3,0.1-0.5c0.4,0,0.7,0,1.1-0.1c0.1,0,0.3,0,0.4,0.1
			C344.5,103.7,344.6,103.9,344.4,104"/>
		<path fill="#E9593B" d="M352.3,92.7c-0.4-0.2-0.7-0.1-1.1,0c-0.2,0-0.5,0.1-0.7,0c0-0.1,0.1-0.3,0.1-0.4c0.6-0.1,1.2-0.1,1.8,0
			C352.4,92.3,352.3,92.5,352.3,92.7"/>
		<path fill="#FDEE37" d="M337.1,111c0.9,0,1.8-0.1,2.7-0.1c0.4,0,0.9,0,1.3,0c-0.1,0.1-0.3,0.2-0.4,0.3c-0.1-0.1-0.2-0.1-0.3-0.1
			c-0.9,0-1.9,0-2.8,0c-0.1,0-0.1,0-0.2,0.1C337.2,111.2,337.2,111.1,337.1,111"/>
		<path fill="#F09737" d="M328,98.9l-0.4,1.2c-0.3-0.4-0.4-0.9-0.4-1.4c0.2-0.2,0.4-0.1,0.7-0.1C328,98.7,328.1,98.8,328,98.9"/>
		<path fill="#F49F30" d="M333.8,99.6C333.8,99.6,333.9,99.6,333.8,99.6c0.3-0.2,0.5-0.2,0.7,0c0,0.3,0.3,0.4,0.5,0.6
			c-0.1,0.1-0.2,0.2-0.3,0.2c-0.3,0-0.6,0-0.8,0C333.8,100.1,333.8,99.9,333.8,99.6"/>
		<path fill="#EB783E" d="M340.4,94.4c0.2,0,0.4,0,0.6,0c0.1,0.3,0,0.5,0.1,0.8c0,0.2,0,0.4,0.1,0.6c-0.2,0-0.3,0-0.5-0.1
			C340.6,95.3,340.5,94.8,340.4,94.4"/>
		<path fill="#E7463A" d="M331.9,91.9c-0.3-0.2-0.6-0.1-0.9-0.2c-0.3,0-0.6,0.1-0.9-0.1c0.2-0.1,0.4-0.2,0.6-0.3
			c0.4,0.1,0.8,0,1.2,0.1c0.2,0,0.4,0,0.6,0.1C332.4,91.7,332.2,91.8,331.9,91.9"/>
		<path fill="#F8BA18" d="M333.4,104.3c-0.3,0.1-0.6,0.1-0.9,0.1c-0.1-0.3-0.1-0.5-0.1-0.8c0.3-0.1,0.5-0.2,0.8,0.1
			C333.2,103.8,333.3,104,333.4,104.3"/>
		<path fill="#F19539" d="M330.1,99.3c0-0.1,0-0.2-0.2-0.2c-0.3-0.1-0.6-0.1-0.9,0c0.1-0.3,0.2-0.5,0.4-0.7c0.2,0.1,0.4,0.1,0.6,0.1
			c0.1,0,0.3,0,0.4,0.1C330.2,98.8,330.1,99,330.1,99.3"/>
		<path fill="#E94E3B" d="M350.7,91.6c0.5,0,1,0.1,1.5-0.1c0.1,0,0.2,0,0.3,0.1c0,0.1,0,0.3-0.1,0.4c-0.5,0.2-1.1,0.1-1.6,0.1
			c-0.2,0-0.2-0.1-0.2-0.3C350.7,91.7,350.7,91.6,350.7,91.6"/>
		<path fill="#F8B819" d="M328.5,103.4c0.3,0,0.6-0.1,0.8,0.1c-0.1,0.4-0.3,0.7-0.6,0.9c-0.1,0.1-0.1,0.1-0.2,0.1
			c-0.1,0,0-0.1,0-0.2c0-0.3,0-0.5,0-0.8C328.5,103.5,328.5,103.4,328.5,103.4"/>
		<path fill="#EF883F" d="M333.7,97.4c-0.4,0-0.7-0.1-1.1,0.1c0.1-0.2,0-0.5,0-0.7c0-0.3,0.1-0.4,0.5-0.2
			C333.3,96.8,333.5,97.1,333.7,97.4"/>
		<path fill="#F6B021" d="M332.4,101.8c0-0.1,0-0.2,0-0.3c0.3-0.2,0.4-0.1,0.5,0.2c0,0.1,0,0.2,0,0.3c-0.1,0.3,0.1,0.5,0.1,0.8
			c-0.2,0-0.4,0.1-0.6-0.1c0-0.1,0-0.3,0-0.4C332.4,102.2,332.4,102,332.4,101.8"/>
		<path fill="#ED8E40" d="M342.5,97c-0.1,0.3-0.1,0.6-0.3,0.9c-0.1,0.1-0.2,0.3-0.4,0.2c-0.2-0.1-0.2-0.3-0.1-0.5
			c0.1-0.2,0.3-0.5,0.5-0.7C342.3,96.9,342.4,96.9,342.5,97"/>
		<path fill="#EB823F" d="M340.6,95.7c0.2,0,0.4-0.1,0.5,0.1c0.1,0.5,0.3,0.9,0.1,1.4c0-0.5,0-0.5-0.5-0.5
			C340.7,96.4,340.7,96,340.6,95.7"/>
		<path fill="#E7453A" d="M327.6,91.4c0.2,0.2,0.4,0.1,0.6,0c0.2,0,0.4-0.1,0.7,0c0,0.1-0.1,0.2-0.1,0.3c-0.3,0.3-1.1,0.3-1.4,0
			C327.4,91.6,327.5,91.5,327.6,91.4"/>
		<path fill="#F0933B" d="M343.4,98.5c-0.3,0-0.7,0-1,0c0.2-0.3,0.3-0.7,0.6-1C342.9,97.9,343.3,98.2,343.4,98.5"/>
		<path fill="#E9533B" d="M350.6,91.7c0,0.2,0.1,0.2,0.3,0.2c0.5,0,1,0,1.5,0c0,0.1,0,0.1,0,0.2c-0.6,0.1-1.2,0.1-1.8,0
			C350.6,92,350.6,91.8,350.6,91.7"/>
		<path fill="#E8713E" d="M336.3,93.6c0,0.5,0,0.5,0.5,0.5c-0.1,0.4-0.1,0.8-0.3,1.2C336.3,94.8,336.2,94.2,336.3,93.6"/>
		<path fill="#F7B41C" d="M332.4,102.8c0.2,0,0.4-0.1,0.6,0.1c0,0.2,0.1,0.5,0.1,0.7c-0.2-0.1-0.5,0-0.8-0.1
			C332.4,103.3,332.4,103.1,332.4,102.8"/>
		<path fill="#F29D32" d="M342.9,99.9c-0.3,0.1-0.5,0.1-0.8,0.1c0.1-0.2-0.1-0.3-0.1-0.4c-0.1-0.1-0.1-0.3,0-0.4
			c0.1-0.1,0.2,0,0.3,0.1C342.5,99.5,342.7,99.7,342.9,99.9"/>
		<path fill="#E6543C" d="M342.7,92.3c-0.1,0-0.2,0-0.2,0c-0.3,0.2-0.6,0.1-1,0c0.4-0.2,0.8-0.4,1.3-0.4c0.1,0,0.3,0,0.3,0.1
			c0,0.1-0.2,0.1-0.3,0.2C342.7,92.2,342.7,92.2,342.7,92.3"/>
		<path fill="#EC823F" d="M333.1,96.5c-0.2,0-0.4-0.1-0.5,0.2c-0.1-0.2-0.1-0.5-0.1-0.7c0.1-0.1,0-0.3,0.1-0.4c0-0.1,0-0.3,0.2-0.3
			c0.1,0,0.2,0.1,0.1,0.2c0.1,0.1,0,0.3,0.1,0.4C333,96.2,333.1,96.4,333.1,96.5"/>
		<path fill="#FDE129" d="M339.3,110.1c-0.3,0.1-0.6,0.1-0.9,0.1c-0.7,0-1.3,0-2,0c-0.1,0-0.3,0-0.4,0.1c0,0-0.1-0.1-0.1-0.1
			c0.1-0.2,0.2-0.1,0.3-0.1c0.6,0,1.2,0,1.8,0c0.2,0,0.4,0,0.6-0.1C338.8,110.1,339.1,110.1,339.3,110.1"/>
		<path fill="#F19936" d="M334.5,99.6c-0.2-0.1-0.4-0.1-0.6-0.1c0,0,0,0,0-0.1c0-0.7-0.1-0.7,0.7-0.6
			C334.5,99.1,334.5,99.4,334.5,99.6"/>
		<path fill="#E9763E" d="M331.3,95.4c-0.1-0.3-0.4-0.1-0.6-0.3c0.3-0.2,0.6-0.4,0.8-0.7c0.1-0.1,0.1-0.1,0.2-0.1
			c0.1,0.1,0,0.2,0,0.2C331.6,94.9,331.5,95.2,331.3,95.4"/>
		<path fill="#F7BA17" d="M339.9,104.4c0-0.2-0.1-0.2-0.3-0.2c-0.1,0-0.3,0-0.4-0.1c0.1-0.2,0.1-0.4,0.2-0.6c0.2-0.1,0.4-0.1,0.6,0
			C340.1,103.8,340,104.1,339.9,104.4"/>
		<path fill="#F7BA17" d="M339.1,104.2c-0.2,0.1-0.5,0.2-0.7,0.1c0-0.3,0.1-0.5,0.1-0.8c0-0.1,0-0.2,0.1-0.2c0.1,0,0.2,0.1,0.2,0.2
			C339,103.7,339,104,339.1,104.2"/>
		<path fill="#F8CB16" d="M331.4,107.9c0.1,0.1,0.1,0.2,0.3,0.2c0.1,0,0.3,0,0.4,0.1c-0.1,0.2-0.2,0.4-0.4,0.6
			c-0.1,0.1-0.1,0.2-0.2,0.1c-0.1,0-0.1-0.2-0.1-0.3C331.4,108.4,331.4,108.1,331.4,107.9"/>
		<path fill="#E74B3B" d="M327.4,91.7c0.5,0.1,0.9,0.1,1.4,0c0,0.1-0.1,0.2-0.2,0.4c-0.5,0.2-0.9,0.2-1.4,0
			C327.2,92,327.3,91.8,327.4,91.7"/>
		<path fill="#F7B71A" d="M340,103.5c-0.2,0-0.4,0.1-0.6,0c0-0.2,0-0.3,0.1-0.5c0.1-0.1,0-0.3,0.1-0.4c0,0,0-0.1,0-0.1
			c0.1-0.1,0.1-0.1,0.2,0C339.8,102.9,340.1,103.2,340,103.5"/>
		<path fill="#F0933B" d="M328,98.9c-0.1-0.2-0.2-0.1-0.4-0.1c-0.1,0-0.3,0-0.4,0c-0.1-0.1-0.1-0.2-0.1-0.4c0.4,0,0.8,0,1.2,0
			C328.2,98.6,328.1,98.8,328,98.9"/>
		<path fill="#F1A42B" d="M332.9,102.1c0-0.1-0.1-0.1-0.1-0.2c0-0.3-0.1-0.4-0.4-0.3c0-0.3,0.1-0.5,0.2-0.8c0-0.1,0.1-0.2,0.2-0.2
			c0.1,0,0.1,0.1,0.1,0.2C332.9,101.2,333,101.7,332.9,102.1"/>
		<path fill="#E9523B" d="M327.2,92.1c0.5,0,0.9,0,1.4,0c0,0.1,0,0.2-0.1,0.3c-0.5,0-1-0.1-1.5-0.1
			C327.1,92.2,327.2,92.2,327.2,92.1"/>
		<path fill="#E3513D" d="M335.3,92.1c0,0.4-0.4,0.1-0.5,0.2c-0.2-0.1-0.4,0-0.5-0.1c-0.1,0-0.2,0-0.2-0.1c0-0.1,0.1-0.1,0.2-0.1
			C334.6,91.9,335,91.9,335.3,92.1"/>
		<path fill="#EB8940" d="M330.7,97.5c-0.1-0.3-0.4-0.1-0.5-0.2c0.2-0.2,0.5-0.4,0.7-0.5c0.1,0,0.2-0.1,0.2,0c0,0.1,0,0.1-0.1,0.2
			C331,97.2,330.8,97.3,330.7,97.5"/>
		<path fill="#E8653D" d="M334,93.3c0.3-0.1,0.6,0,0.9-0.1c0,0.1,0,0.2,0,0.3c0,0.2-0.1,0.2-0.3,0.2C334.4,93.6,334.2,93.5,334,93.3
			"/>
		<path fill="#F8C712" d="M338,107.5c0.1,0,0.1,0,0.2,0.1c0.3,0.1,0.5,0,0.6-0.3c0,0.2,0,0.5,0,0.7c0,0.2-0.1,0.2-0.3,0.1
			C338.2,107.9,338.1,107.7,338,107.5"/>
		<path fill="#F7B81A" d="M340.9,103.7c-0.2,0-0.4,0-0.6,0c0-0.3,0-0.5,0.1-0.8C340.6,103.2,340.7,103.4,340.9,103.7"/>
		<path fill="#E7663D" d="M342.4,93.2c0.3,0.2,0.6,0,0.9,0c0,0.1-0.2,0.2-0.3,0.2C342.6,93.7,342.6,93.7,342.4,93.2"/>
		<path fill="#F7B81A" d="M341.5,103.7c-0.2,0-0.4,0-0.6,0c0-0.1,0.1-0.2,0.1-0.4c0.2,0,0.3,0,0.5,0
			C341.6,103.5,341.6,103.6,341.5,103.7"/>
		<path fill="#F1AF21" d="M331.3,103c-0.1-0.2-0.2-0.3-0.4-0.2c0-0.2,0-0.6,0.3-0.6c0.2,0,0.1,0.4,0.1,0.6
			C331.4,102.9,331.3,103,331.3,103"/>
		<path fill="#EA8740" d="M342.5,97c-0.1,0-0.2,0-0.3-0.1c0,0,0,0,0,0c0.1-0.1,0-0.5,0.3-0.4C342.6,96.5,342.5,96.8,342.5,97"/>
		<path fill="#E56F3F" d="M341.1,95.2c-0.1-0.3,0-0.5-0.1-0.8c0-0.3-0.1-0.5,0.1-0.8C341.1,94.1,341.1,94.7,341.1,95.2"/>
		<path fill="#F0AA26" d="M341.5,101.8c-0.2,0.1-0.3,0.2-0.3,0.4c0,0.1,0,0.2-0.1,0.2c0-0.2,0-0.4,0-0.6
			C341.2,101.6,341.3,101.6,341.5,101.8"/>
		<path fill="#C94B41" d="M325.8,90.6c0,0.4,0,0.7,0,1.1C325.7,91.3,325.7,91,325.8,90.6"/>
		<path fill="#E9B718" d="M337,104.7c-0.1,0.2,0,0.5-0.1,0.7c-0.1-0.2,0-0.5-0.1-0.7C336.9,104.6,337,104.6,337,104.7
			C337,104.6,337,104.7,337,104.7"/>
		<path fill="#ECAE21" d="M336.4,103.8c-0.1-0.3-0.1-0.6,0-0.9C336.4,103.2,336.4,103.5,336.4,103.8"/>
		<path fill="#E58541" d="M334.4,97.1c0.1,0.2,0.1,0.4,0,0.6C334.4,97.5,334.4,97.3,334.4,97.1"/>
		<path fill="#F0AE22" d="M339.8,102.5c-0.1,0-0.1,0-0.2,0c0-0.1,0-0.1,0-0.2c0,0,0.1-0.1,0.1-0.1
			C339.7,102.3,339.8,102.4,339.8,102.5"/>
		<path fill="#E58541" d="M334.4,96.5c-0.1,0.1,0,0.2-0.1,0.3c-0.1-0.1,0-0.2,0-0.4C334.3,96.3,334.4,96.3,334.4,96.5
			C334.5,96.4,334.4,96.4,334.4,96.5"/>
		<path fill="#EEA828" d="M332.4,101.8c0,0.2,0.1,0.4-0.1,0.5C332.4,102.2,332.3,102,332.4,101.8"/>
		<path fill="#F8C611" d="M334.7,107.5c0.2,0,0.4-0.1,0.5,0.1C335,107.6,334.8,107.6,334.7,107.5"/>
		<path fill="#A88543" d="M339.7,102.2c0,0-0.1,0-0.1,0.1v-0.2C339.7,102.1,339.7,102.2,339.7,102.2"/>
		<path fill="#DF7940" d="M333,96c-0.1-0.1,0-0.3-0.1-0.4C333,95.7,333,95.8,333,96"/>
		<path fill="#C94B41" d="M325.8,91.8c0,0,0.1,0.1,0.1,0.1c0,0.1,0,0.2-0.1,0.1C325.8,92,325.8,91.9,325.8,91.8"/>
		<path fill="#F0AE22" d="M339.6,102.6c0,0.1,0.1,0.3-0.1,0.4C339.5,102.9,339.5,102.8,339.6,102.6"/>
		<path fill="#6D4A4A" d="M331.6,89.4c0-0.1-0.1-0.1-0.2-0.1c0.1-0.1,0.2-0.1,0.3,0C331.8,89.4,331.7,89.4,331.6,89.4"/>
		<path fill="#EA9836" d="M331.7,99.9c0.1,0.1,0,0.2,0.1,0.3C331.7,100.1,331.7,100,331.7,99.9"/>
		<path fill="#DF7940" d="M332.6,95.7c0,0.1,0,0.3-0.1,0.4C332.6,95.9,332.6,95.8,332.6,95.7"/>
		<path fill="#EA9836" d="M331.8,99.3c0,0.1,0.1,0.3-0.1,0.4C331.7,99.6,331.7,99.5,331.8,99.3"/>
	</g>
</g>
</svg>
