<?xml version="1.0" encoding="utf-8"?>
<!-- Svg Vector Icons : http://www.onlinewebfonts.com/icon -->
<!DOCTYPE svg PUBLIC "-//W3C//DTD SVG 1.1//EN" "http://www.w3.org/Graphics/SVG/1.1/DTD/svg11.dtd">
<svg version="1.1" xmlns="http://www.w3.org/2000/svg" xmlns:xlink="http://www.w3.org/1999/xlink" x="0px" y="0px" viewBox="0 0 1000 1000" enable-background="new 0 0 1000 1000" xml:space="preserve">
<metadata> Svg Vector Icons : http://www.onlinewebfonts.com/icon </metadata>
<g><g transform="translate(0.000000,512.000000) scale(0.100000,-0.100000)"><path d="M8835.1,5019.5c-36.6-3.8-150.2-17.3-250.3-28.9c-348.5-38.5-1049.3-198.3-1166.7-263.8c-19.2-9.6,286.9-327.3,1078.1-1118.6l1105.1-1105.1l59.7,190.6c78.9,254.1,146.3,556.4,198.3,883.7c34.7,225.3,42.4,348.5,40.4,750.8c0,265.7-7.7,519.8-17.3,567.9c-17.3,80.9-23.1,86.6-94.3,100.1C9701.4,5013.8,8939,5031.1,8835.1,5019.5z"/><path d="M6803.9,4467C5388.9,3729.6,3783.2,1929.5,2772.5-61.2c-163.6-321.5-560.2-1170.6-560.2-1197.5c0-9.6,315.7-331.1,700.8-716.2l702.7-702.7l227.2,104c1141.7,515.9,1817.4,891.4,2595.2,1442c604.5,427.4,1020.4,777.8,1561.4,1318.8c679.6,681.5,1060.8,1174.4,1357.3,1753.9l123.2,240.7L8276.7,3385c-662.3,662.3-1211,1203.3-1222.5,1203.3C7044.6,4588.3,6931,4532.5,6803.9,4467z M7285.2,3115.5c737.4-192.5,991.5-1124.3,452.4-1665.3c-385-385.1-1020.4-385.1-1405.4,0c-186.8,188.7-288.8,435.1-288.8,702.7C6043.5,2803.6,6657.6,3279.1,7285.2,3115.5z"/><path d="M6871.3,2753.5c-175.2-50.1-333.1-186.8-410.1-358.1c-57.8-125.1-55.8-362,0-487.1c57.8-127.1,182.9-256.1,311.9-317.7c90.5-44.3,132.8-53.9,261.8-53.9s171.3,9.6,261.8,53.9c129,61.6,254.1,190.6,311.9,317.7c63.5,140.5,57.8,365.8-11.6,506.3c-61.6,127.1-192.5,254.1-311.9,308C7175.5,2770.9,6983,2786.3,6871.3,2753.5z"/><path d="M1336.2,680C275.4-380.8,127.2-534.8,152.2-559.8c38.5-36.6,1852.1-631.5,1869.4-614.2c7.7,9.6,84.7,175.2,173.3,371.6C2508.7-99.7,2938,708.9,3284.6,1253.8c92.4,144.4,157.9,263.8,148.2,273.4c-25,23.1-827.9,365.8-858.7,365.8C2560.7,1892.9,2004.3,1348.1,1336.2,680z"/><path d="M6255.2-1520.5c-385-256.1-962.6-581.4-1549.8-870.2c-406.2-200.2-960.7-452.4-993.4-452.4c-9.6,0-17.3-7.7-17.3-17.3c0-46.2,604.5-1844.4,627.6-1869.4c25-25,179,123.2,1239.9,1184c668.1,668,1212.9,1226.4,1212.9,1241.8c-1.9,44.3-354.2,852.9-375.4,860.6C6388.1-1439.7,6324.5-1474.3,6255.2-1520.5z"/><path d="M1636.6-1497.4c-140.5-26.9-271.5-75.1-435.1-157.9C883.8-1819,483.3-2296.4,208-2845.1c-61.6-127.1-111.7-229.1-107.8-229.1c3.9,0,92.4,38.5,194.5,86.6c600.7,281.1,916.4,283,916.4,9.6c0-219.5-175.2-666.1-425.5-1087.8l-46.2-77l77,46.2c429.3,254.1,862.5,425.5,1083.9,425.5c277.2,0,275.3-310-3.8-912.6c-48.1-104-88.6-192.5-88.6-198.3c0-23.1,504.4,254.2,702.7,387c571.8,381.2,858.7,806.7,889.5,1316.8l11.5,181l-710.4,710.4l-710.4,710.4l-134.8-1.9C1782.9-1480.1,1682.8-1487.8,1636.6-1497.4z"/></g></g>
</svg>