<?xml version="1.0" standalone="no"?>
<!DOCTYPE svg PUBLIC "-//W3C//DTD SVG 20010904//EN"
 "http://www.w3.org/TR/2001/REC-SVG-20010904/DTD/svg10.dtd">
<svg version="1.0" xmlns="http://www.w3.org/2000/svg"
 width="256.000000pt" height="256.000000pt" viewBox="0 0 256.000000 256.000000"
 preserveAspectRatio="xMidYMid meet">

<g transform="translate(0.000000,256.000000) scale(0.100000,-0.100000)"
fill="#000000" stroke="none">
<path d="M1107 2275 c-505 -96 -859 -538 -834 -1040 13 -263 119 -497 304
-676 212 -205 459 -299 751 -287 255 12 486 113 666 294 267 266 362 657 249
1019 -84 265 -292 500 -549 616 -167 76 -413 107 -587 74z m401 -105 c313 -77
561 -316 659 -637 24 -80 27 -102 27 -253 0 -151 -3 -172 -28 -254 -95 -312
-320 -537 -632 -632 -82 -25 -103 -28 -254 -28 -151 0 -173 3 -253 27 -321 99
-561 346 -637 659 -128 524 199 1033 728 1133 102 19 280 13 390 -15z"/>
<path d="M898 1568 c-202 -205 -367 -380 -368 -388 0 -19 330 -350 350 -350
24 0 750 731 750 755 0 24 -327 355 -351 355 -8 0 -179 -167 -381 -372z"/>
<path d="M1592 1447 l-92 -92 100 -100 c79 -79 102 -97 112 -87 10 10 -8 34
-87 115 l-100 102 103 -100 102 -100 77 78 78 77 -100 100 -100 100 -93 -93z"/>
<path d="M1405 1260 l-80 -80 100 -100 100 -100 82 82 83 83 -97 97 c-54 54
-100 98 -103 98 -3 0 -41 -36 -85 -80z"/>
<path d="M1802 1237 l-92 -92 75 -75 c59 -59 77 -72 87 -62 10 10 -3 29 -62
90 l-75 77 77 -75 78 -74 70 69 c38 38 70 76 70 85 0 9 -30 46 -68 83 l-67 67
-93 -93z"/>
<path d="M1615 1050 l-79 -80 59 -61 c92 -93 85 -93 176 -3 l79 79 -72 72
c-40 40 -75 73 -78 73 -3 0 -41 -36 -85 -80z"/>
</g>
</svg>
