<?xml version="1.0" ?><!DOCTYPE svg  PUBLIC '-//W3C//DTD SVG 1.1//EN'  'http://www.w3.org/Graphics/SVG/1.1/DTD/svg11.dtd'><svg enable-background="new 0 0 24 24" height="24px" id="Layer_1" version="1.1" viewBox="0 0 24 24" width="24px" xml:space="preserve" xmlns="http://www.w3.org/2000/svg" xmlns:xlink="http://www.w3.org/1999/xlink"><path d="M22,16h-2v-4c0-0.6-0.4-1-1-1h-2V7c0-0.6-0.4-1-1-1H7C6.4,6,6,6.4,6,7v4H4c-0.6,0-1,0.4-1,1v4H1c-0.6,0-1,0.4-1,1v6  c0,0.6,0.4,1,1,1h21c0.6,0,1-0.4,1-1v-6C23,16.4,22.6,16,22,16z M18,13v4h-6v-4H18z M15,8v4H8V8H15z M11,13v4H5v-4H11z M2,22v-4h5v4  H2z M8,22v-4h7v4H8z M21,22h-5v-4h5V22z"/></svg>