<?xml version="1.0" standalone="no"?><!DOCTYPE svg PUBLIC "-//W3C//DTD SVG 1.1//EN" "http://www.w3.org/Graphics/SVG/1.1/DTD/svg11.dtd"><svg t="1562507252296" class="icon" viewBox="0 0 1024 1024" version="1.1" xmlns="http://www.w3.org/2000/svg" p-id="1111" width="32" height="32" xmlns:xlink="http://www.w3.org/1999/xlink"><defs><style type="text/css"></style></defs><path d="M666.688 346.176C628.096 270.208 589.44 194.24 550.912 118.272 542.016 100.864 526.848 94.656 512 96.256 497.088 94.72 481.984 100.864 473.152 118.272l-115.84 227.968C270.4 358.464 183.36 370.752 96.384 383.04 61.888 387.904 54.464 435.136 76.48 456.064c61.888 58.496 123.648 117.12 185.472 175.552-14.272 80.96-28.544 161.856-42.816 242.752-6.656 37.504 28.992 66.624 66.112 47.68C360.832 883.456 436.352 844.48 512 804.864c75.584 39.616 151.168 78.592 226.688 117.184 37.184 18.944 72.832-11.008 66.24-48.512-14.464-80.896-28.544-161.408-42.944-242.112 61.888-58.56 123.712-116.992 185.472-175.488 22.08-20.928 14.528-68.096-19.84-72.96C840.768 370.688 753.6 358.464 666.688 346.176z" p-id="1112" fill="#f4ea2a"></path></svg>