<svg id="svg" xmlns="http://www.w3.org/2000/svg" xmlns:xlink="http://www.w3.org/1999/xlink" width="400" height="400" viewBox="0, 0, 400,400"><g id="svgg"><path id="path0" d="M101.616 145.219 C 76.035 147.668,59.735 163.285,60.930 184.200 C 61.738 198.348,70.800 205.818,94.643 211.993 C 111.223 216.287,115.036 218.677,114.972 224.735 C 114.873 233.930,103.574 240.591,91.052 238.836 C 83.554 237.785,80.139 234.283,77.638 225.076 C 75.409 216.872,71.502 213.478,65.062 214.151 C 51.004 215.621,47.686 234.395,59.050 248.172 C 73.367 265.529,111.403 264.937,130.308 247.062 C 144.002 234.114,146.652 211.911,135.810 200.963 C 130.060 195.157,123.752 192.459,101.800 186.417 C 90.173 183.217,86.043 180.051,87.153 175.191 C 88.406 169.704,94.938 166.229,104.000 166.229 C 113.160 166.229,115.919 168.161,119.392 177.009 C 122.319 184.464,124.751 186.576,130.419 186.585 C 139.903 186.600,146.535 177.039,144.230 166.675 C 140.880 151.620,123.926 143.084,101.616 145.219 M211.436 145.240 C 178.414 148.721,155.222 176.864,155.104 213.600 C 155.026 237.576,166.714 254.561,186.468 259.179 C 212.492 265.263,238.851 253.964,249.410 232.200 C 255.147 220.375,253.332 212.213,244.561 210.392 C 238.093 209.049,232.834 212.362,228.633 220.424 C 221.491 234.130,210.401 240.115,197.611 237.168 C 182.472 233.680,177.808 210.945,187.452 187.646 C 196.737 165.217,222.790 160.466,231.860 179.548 C 232.867 181.667,234.143 184.365,234.696 185.544 C 240.128 197.122,257.175 192.441,258.617 178.976 C 260.712 159.412,237.107 142.534,211.436 145.240 M277.610 147.441 C 266.438 150.443,263.627 165.720,273.558 169.457 C 275.121 170.046,277.267 170.174,287.725 170.306 L 300.050 170.461 299.835 171.531 C 299.577 172.817,292.156 224.805,290.376 237.800 C 288.634 250.519,288.914 253.510,292.187 257.132 C 297.938 263.499,309.531 261.078,314.093 252.558 C 316.081 248.846,317.025 242.995,324.854 185.900 L 326.979 170.400 337.790 170.398 C 349.531 170.395,352.172 170.135,355.328 168.673 C 365.486 163.965,365.359 149.416,355.141 147.225 C 351.765 146.501,280.368 146.700,277.610 147.441 " stroke="none" fill="#fbfbfc" fill-rule="evenodd"></path><path id="path1" d="M181.748 4.185 C 165.466 5.728,143.579 10.422,135.000 14.211 C 134.340 14.502,130.290 16.124,126.000 17.816 C 119.015 20.570,102.329 28.562,101.086 29.749 C 100.819 30.005,97.795 31.959,94.367 34.092 C 87.376 38.441,82.556 41.797,79.000 44.791 C 77.680 45.902,74.890 48.190,72.800 49.876 C 67.897 53.830,53.830 67.897,49.876 72.800 C 48.190 74.890,45.902 77.680,44.791 79.000 C 41.797 82.556,38.441 87.376,34.092 94.367 C 31.959 97.795,30.005 100.819,29.749 101.086 C 28.562 102.329,20.570 119.015,17.816 126.000 C 16.124 130.290,14.501 134.340,14.208 135.000 C 10.261 143.895,5.633 165.904,4.157 182.800 C 1.851 209.201,6.577 247.856,14.207 265.000 C 14.501 265.660,16.124 269.710,17.813 274.000 C 20.639 281.173,28.536 297.665,29.728 298.881 C 30.008 299.167,31.816 301.985,33.745 305.145 C 37.573 311.413,41.642 317.252,44.793 321.000 C 45.903 322.320,48.187 325.110,49.869 327.200 C 53.829 332.120,67.914 346.201,72.800 350.123 C 74.890 351.801,76.960 353.519,77.400 353.940 C 79.186 355.651,86.905 361.215,91.600 364.175 C 94.350 365.909,98.040 368.268,99.800 369.417 C 104.368 372.400,117.045 378.628,125.000 381.799 C 128.740 383.289,131.980 384.646,132.200 384.813 C 134.106 386.263,155.230 391.935,164.800 393.566 C 186.578 397.278,210.960 397.421,232.800 393.965 C 244.118 392.174,262.410 387.383,267.757 384.808 C 268.661 384.373,272.100 382.958,275.400 381.663 C 282.841 378.743,295.741 372.327,300.800 369.029 C 302.890 367.666,305.770 365.858,307.200 365.010 C 311.417 362.509,322.400 354.531,322.400 353.968 C 322.400 353.809,322.985 353.327,323.700 352.896 C 328.270 350.144,343.616 335.212,350.106 327.200 C 351.799 325.110,353.503 323.048,353.892 322.618 C 356.450 319.790,362.536 311.345,365.003 307.200 C 365.855 305.770,367.666 302.890,369.029 300.800 C 372.327 295.741,378.743 282.841,381.663 275.400 C 382.958 272.100,384.373 268.661,384.808 267.757 C 387.400 262.373,392.167 244.178,393.966 232.800 C 397.421 210.946,397.278 186.577,393.566 164.800 C 391.935 155.230,386.263 134.106,384.813 132.200 C 384.646 131.980,383.289 128.740,381.799 125.000 C 378.628 117.045,372.400 104.368,369.417 99.800 C 368.268 98.040,365.909 94.350,364.175 91.600 C 361.215 86.905,355.651 79.186,353.940 77.400 C 353.519 76.960,351.801 74.890,350.123 72.800 C 346.201 67.914,332.120 53.829,327.200 49.869 C 325.110 48.187,322.320 45.903,321.000 44.793 C 317.252 41.642,311.413 37.573,305.145 33.745 C 301.985 31.816,299.167 30.008,298.881 29.728 C 297.665 28.536,281.173 20.639,274.000 17.813 C 269.710 16.124,265.660 14.501,265.000 14.207 C 257.694 10.956,237.889 6.475,222.400 4.570 C 215.053 3.667,189.748 3.427,181.748 4.185 M120.200 145.540 C 141.186 149.996,152.364 169.935,140.757 182.208 C 132.886 190.531,123.895 188.584,119.172 177.534 C 115.732 169.487,113.984 167.708,108.588 166.769 C 98.062 164.936,88.094 169.408,87.682 176.148 C 87.418 180.448,90.870 183.129,99.800 185.561 C 102.220 186.219,107.207 187.570,110.882 188.563 C 134.221 194.865,143.006 203.103,142.913 218.600 C 142.784 240.155,126.805 256.694,102.689 260.235 C 85.214 262.800,69.515 259.122,60.751 250.407 C 46.342 236.080,49.732 213.989,66.350 213.916 C 72.870 213.888,75.302 216.366,78.404 226.200 C 81.339 235.506,84.494 238.021,93.600 238.315 C 105.884 238.712,114.383 233.221,114.396 224.880 C 114.406 218.600,111.105 216.493,94.800 212.372 C 71.809 206.562,63.009 199.977,60.888 186.993 C 58.301 171.168,67.838 155.637,84.367 148.756 C 94.079 144.713,109.702 143.311,120.200 145.540 M223.800 144.811 C 241.797 146.832,256.099 158.582,258.665 173.456 C 261.604 190.482,241.083 200.729,234.308 185.619 C 228.536 172.746,225.232 169.444,217.087 168.411 C 197.628 165.944,183.028 185.057,183.027 213.000 C 183.026 229.763,190.318 237.756,205.000 237.082 C 214.609 236.641,221.273 232.421,226.444 223.502 C 233.005 212.186,235.001 210.287,240.913 209.735 C 259.887 207.963,255.675 234.681,234.471 250.595 C 218.033 262.932,188.821 264.539,173.041 253.974 C 155.835 242.455,149.957 215.336,158.809 188.311 C 168.274 159.418,194.940 141.569,223.800 144.811 M356.365 147.027 C 364.799 149.531,365.842 161.591,358.131 167.440 C 354.501 170.192,352.747 170.504,339.420 170.765 L 327.440 171.000 326.910 174.800 C 326.619 176.890,325.676 183.280,324.814 189.000 C 323.952 194.720,321.792 210.020,320.013 223.000 C 316.677 247.344,316.247 249.674,314.496 252.910 C 309.957 261.296,297.643 263.614,291.852 257.173 C 288.632 253.592,288.092 248.985,289.769 239.400 C 290.406 235.756,299.200 172.348,299.200 171.395 C 299.200 170.988,296.681 170.849,287.300 170.739 L 275.400 170.599 272.727 169.333 C 263.184 164.814,265.970 150.457,277.050 147.055 C 280.061 146.130,353.259 146.104,356.365 147.027 " stroke="none" fill="#3ca4fc" fill-rule="evenodd"></path><path id="path2" d="M144.914 171.000 C 144.917 172.100,144.995 172.503,145.087 171.895 C 145.179 171.286,145.177 170.386,145.082 169.895 C 144.987 169.403,144.911 169.900,144.914 171.000 M226.000 171.725 C 226.000 171.794,226.585 172.379,227.300 173.025 L 228.600 174.200 227.425 172.900 C 226.330 171.688,226.000 171.416,226.000 171.725 M195.178 175.900 L 193.800 177.400 195.300 176.022 C 196.125 175.263,196.800 174.588,196.800 174.522 C 196.800 174.216,196.462 174.504,195.178 175.900 M60.501 182.600 C 60.505 183.480,60.587 183.793,60.683 183.295 C 60.779 182.798,60.775 182.078,60.675 181.695 C 60.575 181.313,60.496 181.720,60.501 182.600 M51.714 229.800 C 51.717 230.900,51.795 231.303,51.887 230.695 C 51.979 230.086,51.977 229.186,51.882 228.695 C 51.787 228.203,51.711 228.700,51.714 229.800 M240.181 245.300 L 238.600 247.000 240.300 245.419 C 241.235 244.549,242.000 243.784,242.000 243.719 C 242.000 243.416,241.652 243.719,240.181 245.300 M166.800 248.525 C 166.800 248.594,167.385 249.179,168.100 249.825 L 169.400 251.000 168.225 249.700 C 167.130 248.488,166.800 248.216,166.800 248.525 M59.600 249.325 C 59.600 249.394,60.185 249.979,60.900 250.625 L 62.200 251.800 61.025 250.500 C 59.930 249.288,59.600 249.016,59.600 249.325 " stroke="none" fill="#88c6fc" fill-rule="evenodd"></path><path id="path3" d="M102.100 145.087 C 102.705 145.178,103.695 145.178,104.300 145.087 C 104.905 144.995,104.410 144.920,103.200 144.920 C 101.990 144.920,101.495 144.995,102.100 145.087 M112.105 145.087 C 112.714 145.179,113.614 145.177,114.105 145.082 C 114.597 144.987,114.100 144.911,113.000 144.914 C 111.900 144.917,111.497 144.995,112.105 145.087 M211.900 145.082 C 212.395 145.178,213.205 145.178,213.700 145.082 C 214.195 144.987,213.790 144.909,212.800 144.909 C 211.810 144.909,211.405 144.987,211.900 145.082 M220.505 145.087 C 221.114 145.179,222.014 145.177,222.505 145.082 C 222.997 144.987,222.500 144.911,221.400 144.914 C 220.300 144.917,219.897 144.995,220.505 145.087 M298.900 146.700 C 308.745 146.759,324.855 146.759,334.700 146.700 C 344.545 146.640,336.490 146.592,316.800 146.592 C 297.110 146.592,289.055 146.640,298.900 146.700 M362.924 156.600 C 362.926 157.920,363.001 158.412,363.090 157.693 C 363.179 156.974,363.177 155.894,363.086 155.293 C 362.995 154.692,362.922 155.280,362.924 156.600 M70.581 158.100 L 69.000 159.800 70.700 158.219 C 72.281 156.748,72.584 156.400,72.281 156.400 C 72.216 156.400,71.451 157.165,70.581 158.100 M267.324 160.200 C 267.326 161.520,267.401 162.012,267.490 161.293 C 267.579 160.574,267.577 159.494,267.486 158.893 C 267.395 158.292,267.322 158.880,267.324 160.200 M174.585 162.500 L 172.600 164.600 174.700 162.615 C 175.855 161.523,176.800 160.578,176.800 160.515 C 176.800 160.217,176.429 160.549,174.585 162.500 M102.500 166.291 C 103.325 166.378,104.675 166.378,105.500 166.291 C 106.325 166.205,105.650 166.134,104.000 166.134 C 102.350 166.134,101.675 166.205,102.500 166.291 M113.600 168.125 C 113.600 168.194,114.185 168.779,114.900 169.425 L 116.200 170.600 115.025 169.300 C 113.930 168.088,113.600 167.816,113.600 168.125 M254.000 188.200 C 253.028 189.190,252.323 190.000,252.433 190.000 C 252.543 190.000,253.428 189.190,254.400 188.200 C 255.372 187.210,256.077 186.400,255.967 186.400 C 255.857 186.400,254.972 187.210,254.000 188.200 M243.091 192.289 C 243.801 192.377,245.061 192.379,245.891 192.292 C 246.721 192.205,246.140 192.133,244.600 192.131 C 243.060 192.129,242.381 192.200,243.091 192.289 M135.600 200.600 C 136.346 201.370,137.047 202.000,137.157 202.000 C 137.267 202.000,136.746 201.370,136.000 200.600 C 135.254 199.830,134.553 199.200,134.443 199.200 C 134.333 199.200,134.854 199.830,135.600 200.600 M154.901 210.200 C 154.905 211.080,154.987 211.393,155.083 210.895 C 155.179 210.398,155.175 209.678,155.075 209.295 C 154.975 208.913,154.896 209.320,154.901 210.200 M182.531 213.000 C 182.533 214.540,182.605 215.121,182.692 214.291 C 182.779 213.461,182.777 212.201,182.689 211.491 C 182.600 210.781,182.529 211.460,182.531 213.000 M232.975 213.700 L 231.800 215.000 233.100 213.825 C 234.312 212.730,234.584 212.400,234.275 212.400 C 234.206 212.400,233.621 212.985,232.975 213.700 M142.534 218.400 C 142.534 220.050,142.605 220.725,142.691 219.900 C 142.778 219.075,142.778 217.725,142.691 216.900 C 142.605 216.075,142.534 216.750,142.534 218.400 M154.893 217.600 C 154.893 218.370,154.975 218.685,155.076 218.300 C 155.176 217.915,155.176 217.285,155.076 216.900 C 154.975 216.515,154.893 216.830,154.893 217.600 M252.914 220.600 C 252.917 221.700,252.995 222.103,253.087 221.495 C 253.179 220.886,253.177 219.986,253.082 219.495 C 252.987 219.003,252.911 219.500,252.914 220.600 M114.901 224.600 C 114.905 225.480,114.987 225.793,115.083 225.295 C 115.179 224.798,115.175 224.078,115.075 223.695 C 114.975 223.313,114.896 223.720,114.901 224.600 M111.375 232.900 L 110.200 234.200 111.500 233.025 C 112.712 231.930,112.984 231.600,112.675 231.600 C 112.606 231.600,112.021 232.185,111.375 232.900 M206.500 237.476 C 206.885 237.576,207.515 237.576,207.900 237.476 C 208.285 237.375,207.970 237.293,207.200 237.293 C 206.430 237.293,206.115 237.375,206.500 237.476 M93.500 239.089 C 94.215 239.178,95.385 239.178,96.100 239.089 C 96.815 239.001,96.230 238.928,94.800 238.928 C 93.370 238.928,92.785 239.001,93.500 239.089 M130.981 246.500 L 129.400 248.200 131.100 246.619 C 132.681 245.148,132.984 244.800,132.681 244.800 C 132.616 244.800,131.851 245.565,130.981 246.500 " stroke="none" fill="#a7d4fc" fill-rule="evenodd"></path><path id="path4" d="M105.500 144.682 C 105.995 144.778,106.805 144.778,107.300 144.682 C 107.795 144.587,107.390 144.509,106.400 144.509 C 105.410 144.509,105.005 144.587,105.500 144.682 M109.505 144.683 C 110.002 144.779,110.722 144.775,111.105 144.675 C 111.487 144.575,111.080 144.496,110.200 144.501 C 109.320 144.505,109.007 144.587,109.505 144.683 M214.705 144.683 C 215.202 144.779,215.922 144.775,216.305 144.675 C 216.687 144.575,216.280 144.496,215.400 144.501 C 214.520 144.505,214.207 144.587,214.705 144.683 M218.305 144.683 C 218.802 144.779,219.522 144.775,219.905 144.675 C 220.287 144.575,219.880 144.496,219.000 144.501 C 218.120 144.505,217.807 144.587,218.305 144.683 M244.100 192.676 C 244.485 192.776,245.115 192.776,245.500 192.676 C 245.885 192.575,245.570 192.493,244.800 192.493 C 244.030 192.493,243.715 192.575,244.100 192.676 " stroke="none" fill="#6cbcfc" fill-rule="evenodd"></path><path id="path5" d="M70.181 158.100 L 68.600 159.800 70.300 158.219 C 71.881 156.748,72.184 156.400,71.881 156.400 C 71.816 156.400,71.051 157.165,70.181 158.100 M266.893 160.400 C 266.893 161.170,266.975 161.485,267.076 161.100 C 267.176 160.715,267.176 160.085,267.076 159.700 C 266.975 159.315,266.893 159.630,266.893 160.400 M174.585 162.100 L 172.600 164.200 174.700 162.215 C 175.855 161.123,176.800 160.178,176.800 160.115 C 176.800 159.817,176.429 160.149,174.585 162.100 M281.600 170.681 C 291.094 170.965,299.509 170.974,299.339 170.700 C 299.237 170.535,294.348 170.438,288.476 170.484 C 282.604 170.530,279.510 170.619,281.600 170.681 M327.461 170.700 C 327.359 170.865,330.543 170.954,334.538 170.898 C 348.096 170.706,349.431 170.568,338.524 170.484 C 332.542 170.438,327.563 170.535,327.461 170.700 M258.901 177.000 C 258.905 177.880,258.987 178.193,259.083 177.695 C 259.179 177.198,259.175 176.478,259.075 176.095 C 258.975 175.713,258.896 176.120,258.901 177.000 M129.300 187.087 C 129.905 187.178,130.895 187.178,131.500 187.087 C 132.105 186.995,131.610 186.920,130.400 186.920 C 129.190 186.920,128.695 186.995,129.300 187.087 M236.000 188.925 C 236.000 188.994,236.585 189.579,237.300 190.225 L 238.600 191.400 237.425 190.100 C 236.330 188.888,236.000 188.616,236.000 188.925 M142.924 218.200 C 142.926 219.520,143.001 220.012,143.090 219.293 C 143.179 218.574,143.177 217.494,143.086 216.893 C 142.995 216.292,142.922 216.880,142.924 218.200 M93.507 238.690 C 94.226 238.779,95.306 238.777,95.907 238.686 C 96.508 238.595,95.920 238.522,94.600 238.524 C 93.280 238.526,92.788 238.601,93.507 238.690 " stroke="none" fill="#5fb3fc" fill-rule="evenodd"></path></g></svg>