<?xml version="1.0" ?><svg viewBox="0 0 512 512" xmlns="http://www.w3.org/2000/svg"><title/><g id="Solid"><path d="M496,264V248H483.314l-68.85742-68.85748A23.97535,23.97535,0,0,0,424,160v-8a24.04118,24.04118,0,0,0-16-22.62891V101.842A15.98045,15.98045,0,0,0,416,88V56h56a16.00008,16.00008,0,0,0,16-16V24H24V40A16.00008,16.00008,0,0,0,40,56H96V88a15.98045,15.98045,0,0,0,8,13.842V144h8a8.00917,8.00917,0,0,1,8,8v8a8,8,0,0,1-16,0v-8H88v8a23.97535,23.97535,0,0,0,9.54346,19.14252L28.686,248H16v16H32V384H16v16H208V384H192V264h16V248H195.314l-68.85742-68.85748A23.97535,23.97535,0,0,0,136,160v-8a24.04118,24.04118,0,0,0-16-22.62891V101.842A15.98045,15.98045,0,0,0,128,88V56h20.686l83.09643,83.09644a31.98189,31.98189,0,0,0,8.1001,48.54431L232,432H206.62744a15.99983,15.99983,0,0,0-11.31372,4.68628l-22.62744,22.62744A16.00013,16.00013,0,0,0,168,470.62744V488H344V470.62744a16.00013,16.00013,0,0,0-4.68628-11.31372l-22.62744-22.62744A15.99983,15.99983,0,0,0,305.37256,432H280l-7.88257-244.35925a31.99077,31.99077,0,0,0,11.447-43.89112L371.314,56H384V88a15.98045,15.98045,0,0,0,8,13.842V144h8a8.00917,8.00917,0,0,1,8,8v8a8,8,0,0,1-16,0v-8H376v8a23.97535,23.97535,0,0,0,9.54346,19.14252L316.686,248H304v16h16V384H304v16H496V384H480V264ZM168,280v88H152V280Zm-32,0v88H120V280Zm-32,0v88H88V280Zm-32,0v88H56V280Zm100.686-32H51.314L112,187.314ZM240,124.686,171.314,56H240Zm32.25049,7.74963c-.083-.04895-.167-.09577-.25049-.144V56h76.686ZM360,368H344V280h16Zm32,0H376V280h16Zm32,0H408V280h16Zm32,0H440V280h16ZM339.314,248,400,187.314,460.686,248Z"/></g></svg>