<?xml version="1.0" standalone="no"?><!DOCTYPE svg PUBLIC "-//W3C//DTD SVG 1.1//EN" "http://www.w3.org/Graphics/SVG/1.1/DTD/svg11.dtd"><svg t="1562507317189" class="icon" viewBox="0 0 1024 1024" version="1.1" xmlns="http://www.w3.org/2000/svg" p-id="1399" xmlns:xlink="http://www.w3.org/1999/xlink" width="32" height="32"><defs><style type="text/css"></style></defs><path d="M512 111.616l130.048 263.623 290.93 42.211-210.489 205.255 49.721 289.678-260.21-136.761-260.21 136.761 49.721-289.678-210.489-205.255 290.93-42.211 130.048-263.623M512 38.798c-27.762 0-53.021 15.701-65.309 40.619l-113.095 229.262-253.042 36.75c-27.421 3.982-50.176 23.211-58.823 49.607-8.533 26.397-1.365 55.296 18.432 74.638l183.069 178.403-43.235 252.018c-4.665 27.307 6.599 54.955 29.013 71.225 12.629 9.216 27.762 13.881 42.781 13.881 11.605 0 23.211-2.731 33.906-8.419l226.304-118.898 226.304 119.011c10.695 5.575 22.301 8.419 33.906 8.419 15.133 0 30.151-4.665 42.781-13.881 22.414-16.27 33.678-43.918 29.013-71.225l-43.235-252.018 183.069-178.403c19.797-19.342 26.965-48.242 18.432-74.638s-31.403-45.625-58.823-49.607l-253.042-36.75-113.095-229.262c-12.288-25.031-37.547-40.733-65.309-40.733v0z" p-id="1400" fill="#8a8a8a"></path></svg>